<svg width="24" height="24" viewBox="0 0 24 24" fill="none" xmlns="http://www.w3.org/2000/svg">
<path d="M22.7305 7.14062C20.5723 7.14062 20.5723 9.66724 18.414 9.66724C16.2552 9.66724 16.2552 7.14062 14.0964 7.14062C11.9381 7.14062 11.9381 9.66724 9.77986 9.66724C7.61991 9.66724 7.61991 7.14062 5.45996 7.14062C3.30057 7.14062 3.30057 9.66724 1.14062 9.66724" stroke="#3975E9" stroke-width="1.5" stroke-linecap="round" stroke-linejoin="round"/>
<path d="M22.7305 14.127C20.5723 14.127 20.5723 16.6536 18.414 16.6536C16.2552 16.6536 16.2552 14.127 14.0964 14.127C11.9381 14.127 11.9381 16.6536 9.77986 16.6536C7.61991 16.6536 7.61991 14.127 5.45996 14.127C3.30057 14.127 3.30057 16.6536 1.14062 16.6536" stroke="#3975E9" stroke-width="1.5" stroke-linecap="round" stroke-linejoin="round"/>
</svg>
