<svg width="24" height="24" viewBox="0 0 24 24" fill="none" xmlns="http://www.w3.org/2000/svg">
<path fill-rule="evenodd" clip-rule="evenodd" d="M9.35139 15.0058C9.35139 17.1754 7.59268 18.9334 5.42374 18.9334C3.2548 18.9334 1.49609 17.1754 1.49609 15.0058C1.49609 12.8368 3.2548 11.0781 5.42374 11.0781C7.59268 11.0781 9.35139 12.8368 9.35139 15.0058Z" stroke="#3975E9" stroke-width="1.5" stroke-linecap="round" stroke-linejoin="round"/>
<path d="M2.73047 17.834C8.26929 23.3728 17.217 23.3728 22.7565 17.834" stroke="#3975E9" stroke-width="1.5" stroke-linecap="round" stroke-linejoin="round"/>
<path fill-rule="evenodd" clip-rule="evenodd" d="M14.9023 8.64444C14.9023 6.4755 16.661 4.7168 18.83 4.7168C20.9989 4.7168 22.7576 6.4755 22.7576 8.64444C22.7576 10.814 20.9989 12.5721 18.83 12.5721C16.661 12.5721 14.9023 10.814 14.9023 8.64444Z" stroke="#3975E9" stroke-width="1.5" stroke-linecap="round" stroke-linejoin="round"/>
<path d="M21.5282 5.81755C15.9894 0.27873 7.03556 0.276077 1.49609 5.8149" stroke="#3975E9" stroke-width="1.5" stroke-linecap="round" stroke-linejoin="round"/>
</svg>
