<svg width="24" height="24" viewBox="0 0 24 24" fill="none" xmlns="http://www.w3.org/2000/svg">
<path d="M9.27898 19.5578C16.563 19.5578 16.7499 13.3982 16.7489 13.1246C16.7772 11.281 18.1261 10.0478 19.8252 10.0478C21.5248 10.0478 22.902 11.4255 22.902 13.1246C22.902 14.8242 21.5248 16.2014 19.8252 16.2014C15.544 16.2014 13.7673 9.10479 13.159 6.15861C12.8977 4.89542 11.7823 3.96048 10.4929 4.00171C10.4838 4.00225 10.4747 4.00225 10.4656 4.00278C9.50334 4.0408 8.60053 4.47936 7.97456 5.21189C7.51031 5.75647 7.25488 6.44884 7.25488 7.16477V14.6791V7.16477C7.25488 6.44884 6.99946 5.75647 6.53467 5.21189C5.90924 4.47936 5.00642 4.0408 4.04364 4.00278C3.13655 3.96637 2.25194 4.28819 1.58045 4.89917L1 5.42661" stroke="#3975E9" stroke-width="1.5" stroke-linecap="round" stroke-linejoin="round"/>
</svg>
