<svg width="24" height="24" viewBox="0 0 24 24" fill="none" xmlns="http://www.w3.org/2000/svg">
<path fill-rule="evenodd" clip-rule="evenodd" d="M9.45385 14.8381C9.58899 16.5742 8.27025 18.0834 6.5335 18.2066C4.79613 18.3305 3.28819 17.023 3.16436 15.2863C3.04053 13.5496 4.34922 12.0536 6.08533 11.9178C7.80573 11.7826 9.31808 13.0926 9.45385 14.8381Z" stroke="#3975E9" stroke-width="1.5" stroke-linecap="round" stroke-linejoin="round"/>
<path d="M20.1991 17.8681C20.3254 18.2352 20.3939 18.6293 20.3939 19.0398C20.3939 21.0299 18.7804 22.6434 16.7903 22.6434C14.8003 22.6434 13.1867 21.0299 13.1867 19.0398C13.1867 18.1743 13.4922 17.3797 14.0007 16.7581L17.7621 11.2304C18.4567 10.1996 18.8627 8.95815 18.8627 7.62117C18.8627 4.05215 15.9688 1.1582 12.3985 1.1582C8.82886 1.1582 5.93555 4.05215 5.93555 7.62117C5.93555 9.56975 6.69675 11.2267 8.06012 12.4115" stroke="#3975E9" stroke-width="1.5" stroke-linecap="round" stroke-linejoin="round"/>
</svg>
