<svg width="24" height="24" viewBox="0 0 24 24" fill="none" xmlns="http://www.w3.org/2000/svg">
<path d="M1.14062 7.81616C1.14062 6.33821 2.33821 5.14062 3.81616 5.14062C5.29355 5.14062 6.49114 6.33821 6.49114 7.81616V15.4259" stroke="#3975E9" stroke-width="1.5" stroke-linecap="round" stroke-linejoin="round"/>
<path d="M6.49219 9.01545V7.81616C6.49219 6.33821 7.69034 5.14062 9.16773 5.14062C10.6451 5.14062 11.8433 6.33821 11.8433 7.81616V17.0071" stroke="#3975E9" stroke-width="1.5" stroke-linecap="round" stroke-linejoin="round"/>
<path d="M11.8418 9.01545V7.81616C11.8418 6.33821 13.04 5.14062 14.5173 5.14062C15.9947 5.14062 17.1929 6.33821 17.1929 7.81616V15.0401C17.1929 16.6246 18.4773 17.9091 20.0613 17.9091H21.8734" stroke="#3975E9" stroke-width="1.5" stroke-linecap="round" stroke-linejoin="round"/>
<path d="M21.0938 16.1289L22.8729 17.9081L21.0938 19.6873" stroke="#3975E9" stroke-width="1.5" stroke-linecap="round" stroke-linejoin="round"/>
</svg>
