<svg width="24" height="24" viewBox="0 0 24 24" fill="none" xmlns="http://www.w3.org/2000/svg">
<path fill-rule="evenodd" clip-rule="evenodd" d="M18.2089 15.5879C18.2089 18.9887 15.4516 21.746 12.0507 21.746C8.6493 21.746 5.89258 18.9887 5.89258 15.5879C5.89258 12.187 8.6493 9.42969 12.0507 9.42969C15.4516 9.42969 18.2089 12.187 18.2089 15.5879Z" stroke="#3975E9" stroke-width="1.5" stroke-linecap="round" stroke-linejoin="round"/>
<path d="M1.15234 2.15234C4.06245 2.15234 6.72873 3.77973 8.05912 6.36779L8.52723 7.27957C9.20618 8.59957 10.5659 9.42945 12.0503 9.42945" stroke="#3975E9" stroke-width="1.5" stroke-linecap="round" stroke-linejoin="round"/>
<path d="M22.7241 2.15234C19.814 2.15234 17.1477 3.77973 15.8173 6.36779L15.3492 7.27957C14.6703 8.59957 13.3106 9.42945 11.8262 9.42945" stroke="#3975E9" stroke-width="1.5" stroke-linecap="round" stroke-linejoin="round"/>
</svg>
