<svg width="24" height="24" viewBox="0 0 24 24" fill="none" xmlns="http://www.w3.org/2000/svg">
<path d="M1.13086 6.78238C1.13086 5.31834 2.31781 4.13086 3.78238 4.13086C5.24643 4.13086 6.43391 5.31834 6.43391 6.78238V16.7845" stroke="#3975E9" stroke-width="1.5" stroke-linecap="round" stroke-linejoin="round"/>
<path d="M6.43359 7.97091V6.78238C6.43359 5.31834 7.62055 4.13086 9.08512 4.13086C10.5492 4.13086 11.7361 5.31834 11.7361 6.78238V16.7845" stroke="#3975E9" stroke-width="1.5" stroke-linecap="round" stroke-linejoin="round"/>
<path d="M11.7363 7.97091V6.78238C11.7363 5.31834 12.9238 4.13086 14.3879 4.13086C15.8519 4.13086 17.0394 5.31834 17.0394 6.78238V14.4001C17.0394 17.0538 19.1907 19.205 21.8443 19.205" stroke="#3975E9" stroke-width="1.5" stroke-linecap="round" stroke-linejoin="round"/>
<path d="M17.0399 10.1544V10.134C17.0399 8.68877 18.2007 7.54791 19.6019 7.37086C20.8852 7.20848 22.0842 7.99158 22.5007 9.20786C23.1743 11.1758 21.9465 13.6361 20.8114 15.2044C19.5946 16.8859 17.9535 18.2603 16.1358 19.2519C15.6089 19.5395 15.0641 19.7951 14.5047 20.013C14.1276 20.1597 13.7441 20.288 13.3555 20.398" stroke="#3975E9" stroke-width="1.5" stroke-linecap="round" stroke-linejoin="round"/>
</svg>
