<svg width="24" height="24" viewBox="0 0 24 24" fill="none" xmlns="http://www.w3.org/2000/svg">
<path d="M4.99995 3.00039C3.8954 3.00042 3 3.93556 3 5.0891V15.5335C3 16.6867 3.8951 17.6215 4.99927 17.6215C6.10286 17.6215 6.99773 18.5553 6.99853 19.7079L6.99871 19.9548C6.99928 20.7665 7.84743 21.2673 8.51366 20.8493L13.1832 17.9197C13.4943 17.7246 13.8503 17.6215 14.2131 17.6215H19C20.1046 17.6215 21 16.6863 21 15.5328V5.08872C21 3.93513 20.1045 2.99997 18.9999 3L4.99995 3.00039Z" stroke="#9396A3" stroke-width="1.5" stroke-linecap="round" stroke-linejoin="round"/>
<path d="M9.7782 7.00023L8 8.77844L9.7782 10.5566" stroke="#9396A3" stroke-width="1.5" stroke-linecap="round" stroke-linejoin="round"/>
<path d="M8 8.7793H14.2237C14.6953 8.7793 15.1476 8.96664 15.4811 9.30012C15.8146 9.6336 16.0019 10.0859 16.0019 10.5575C16.0019 11.0291 15.8151 11.4814 15.4816 11.8149C15.1481 12.1484 14.6958 12.3357 14.2242 12.3357H12.001" stroke="#9396A3" stroke-width="1.5" stroke-linecap="round" stroke-linejoin="round"/>
</svg>
