<svg width="24" height="24" viewBox="0 0 24 24" fill="none" xmlns="http://www.w3.org/2000/svg">
<path d="M2.00066 8.9874L2.00015 15.9999C2.00007 17.1045 2.89552 18 4.00015 18L6.00066 18C6.55295 18 7.00066 18.4477 7.00066 19V21.1152C7.00066 21.4505 7.20025 21.7567 7.51642 21.9071C7.64792 21.969 7.79155 22 7.93331 22C8.13104 22 8.32782 21.9407 8.4929 21.823L13.7435 18.1785C13.9109 18.0623 14.1099 18 14.3137 18H20.0007C21.1052 18 22.0007 17.1046 22.0007 16V5.00079C22.0007 3.89626 21.1053 3.00084 20.0007 3.00079L2.00066 3" stroke="#9396A3" stroke-width="1.5" stroke-linecap="round"/>
</svg>
