<svg width="24" height="24" viewBox="0 0 24 24" fill="none" xmlns="http://www.w3.org/2000/svg">
<path fill-rule="evenodd" clip-rule="evenodd" d="M8.4222 18.6413C8.06154 18.5115 7.69694 18.5291 7.34608 18.6873C6.44839 19.0919 5.55384 19.5045 4.65615 19.909C4.55062 19.9566 4.43332 19.9978 4.32076 19.9999C3.97524 20.0062 3.79011 19.7365 3.89161 19.3873C4.13412 18.5526 4.37294 17.7165 4.62868 16.8864C4.74026 16.5241 4.67894 16.2215 4.45812 15.9332C3.85743 15.149 3.40948 14.2755 3.18172 13.2889C2.14136 8.78299 5.73077 5.09089 9.79625 4.22279C13.8338 3.36073 18.8856 4.99533 20.4962 9.21518C21.4465 11.705 21.0372 13.9944 19.3973 16.0099C17.9322 17.8105 15.676 18.8504 13.423 19.0942C12.5944 19.1839 9.99379 19.2066 8.4222 18.6413Z" stroke="#ED4F55" stroke-width="1.5"/>
<path d="M8.99121 8.99121L15.0091 15.0091" stroke="#ED4F55" stroke-width="1.5" stroke-linecap="round"/>
<path d="M15.0107 8.99121L8.99282 15.0091" stroke="#ED4F55" stroke-width="1.5" stroke-linecap="round"/>
</svg>
