<svg width="14" height="14" viewBox="0 0 14 14" fill="none" xmlns="http://www.w3.org/2000/svg">
<path d="M11.4404 3.15961C11.1838 2.89802 10.8792 2.6905 10.5439 2.54892C10.2086 2.40734 9.84926 2.33447 9.48634 2.33447C9.12342 2.33447 8.76406 2.40734 8.42878 2.54892C8.0935 2.6905 7.78888 2.89802 7.53232 3.15961L6.99987 3.70225L6.46741 3.15961C5.94917 2.63146 5.24629 2.33475 4.51339 2.33475C3.7805 2.33475 3.07762 2.63146 2.55938 3.15961C2.04114 3.68776 1.75 4.40408 1.75 5.151C1.75 5.89791 2.04114 6.61424 2.55938 7.14239L3.09184 7.68503L6.99987 11.6678L10.9079 7.68503L11.4404 7.14239C11.697 6.88092 11.9007 6.57047 12.0396 6.22878C12.1785 5.88709 12.25 5.52086 12.25 5.151C12.25 4.78114 12.1785 4.4149 12.0396 4.07321C11.9007 3.73152 11.697 3.42108 11.4404 3.15961V3.15961Z" stroke="white" stroke-width="1.5" stroke-linecap="round" stroke-linejoin="round"/>
<path d="M6.70799 7.79687L7.87465 6.51609L6.01562 4.70363L7.74093 3" stroke="white" stroke-width="1.5" stroke-linecap="round" stroke-linejoin="round"/>
</svg>
