<svg width="15" height="14" viewBox="0 0 15 14" fill="none" xmlns="http://www.w3.org/2000/svg">
<path d="M11.9404 3.15839C11.6838 2.89679 11.3792 2.68928 11.0439 2.5477C10.7086 2.40612 10.3493 2.33325 9.98634 2.33325C9.62342 2.33325 9.26406 2.40612 8.92878 2.5477C8.5935 2.68928 8.28888 2.89679 8.03232 3.15839L7.49987 3.70103L6.96741 3.15839C6.44917 2.63024 5.74629 2.33353 5.01339 2.33353C4.2805 2.33353 3.57762 2.63024 3.05938 3.15839C2.54114 3.68654 2.25 4.40286 2.25 5.14978C2.25 5.89669 2.54114 6.61302 3.05938 7.14117L3.59184 7.68381L7.49987 11.6666L11.4079 7.68381L11.9404 7.14117C12.197 6.8797 12.4007 6.56925 12.5396 6.22756C12.6785 5.88587 12.75 5.51964 12.75 5.14978C12.75 4.77992 12.6785 4.41368 12.5396 4.07199C12.4007 3.7303 12.197 3.41986 11.9404 3.15839V3.15839Z" stroke="white" stroke-width="1.5" stroke-linecap="round" stroke-linejoin="round"/>
</svg>
