<svg width="24" height="24" viewBox="0 0 24 24" fill="none" xmlns="http://www.w3.org/2000/svg">
<path d="M20 20H4C2.89543 20 2 19.1046 2 18V15.3393C2 14.6799 2.32507 14.0628 2.86894 13.6899L2.92787 13.6495C4.08647 12.855 4.08647 11.145 2.92787 10.3505L2.86894 10.3101C2.32507 9.93719 2 9.32013 2 8.66067V6C2 4.89543 2.89543 4 4 4H20C21.1046 4 22 4.89543 22 6V8.66068C22 9.32013 21.6749 9.93719 21.1311 10.3101L21.0721 10.3505C19.9135 11.145 19.9135 12.855 21.0721 13.6495L21.1311 13.6899C21.6749 14.0628 22 14.6799 22 15.3393V18C22 19.1046 21.1046 20 20 20Z" stroke="#3975E9" stroke-width="1.5" stroke-linecap="round" stroke-linejoin="round"/>
<path d="M10.3325 10.2849L11.9991 7.42773L13.6658 10.2849L16.4436 10.8563L14.2214 13.142L14.7769 15.9992L11.9991 14.8563L9.22135 15.9992L9.77691 13.142L7.55469 10.8563L10.3325 10.2849Z" stroke="#9396A3" stroke-width="1.5" stroke-linecap="round" stroke-linejoin="round"/>
</svg>
