<svg width="24" height="24" viewBox="0 0 24 24" fill="none" xmlns="http://www.w3.org/2000/svg">
<path d="M17.501 14.502L20.5278 13.2237C21.2646 12.8282 22.1291 12.9871 22.4858 13.6504C22.8414 14.3138 22.5294 15.1812 21.7922 15.5767L13.8798 19.818L13.4618 19.9231L6.08224 20.1223C6.08224 20.1223 5.13136 20.3882 3.98992 21.6818" stroke="#9396A3" stroke-width="1.5" stroke-linecap="round" stroke-linejoin="round"/>
<path d="M1.3663 17.8026L4.71382 14.7215C6.34966 13.6184 8.28934 14.2271 8.28934 14.2271C9.22822 14.4743 10.973 14.5304 10.973 14.5304L13.8693 14.53C14.7319 14.53 15.4375 15.1463 15.4375 15.8994C15.4375 16.6525 14.7319 17.2684 13.8693 17.2684H9.8623" stroke="#9396A3" stroke-width="1.5" stroke-linecap="round" stroke-linejoin="round"/>
<path d="M13 8L12 6.92857V5" stroke="#9396A3" stroke-width="1.5" stroke-linecap="round" stroke-linejoin="round"/>
<path d="M17 7C17 8.32608 16.4732 9.59785 15.5355 10.5355C14.5979 11.4732 13.3261 12 12 12C10.6739 12 9.40215 11.4732 8.46447 10.5355C7.52678 9.59785 7 8.32608 7 7C7 5.67392 7.52678 4.40215 8.46447 3.46447C9.40215 2.52678 10.6739 2 12 2C13.3261 2 14.5979 2.52678 15.5355 3.46447C16.4732 4.40215 17 5.67392 17 7Z" stroke="#9396A3" stroke-width="1.5" stroke-linecap="round" stroke-linejoin="round"/>
</svg>
