<svg width="24" height="24" viewBox="0 0 24 24" fill="none" xmlns="http://www.w3.org/2000/svg">
<path d="M17.5 14.5L20.5269 13.2218C21.2637 12.8262 22.1281 12.9851 22.4848 13.6485C22.8405 14.3118 22.5285 15.1792 21.7912 15.5747L13.8789 19.816L13.4608 19.9211L6.08126 20.1203C6.08126 20.1203 5.13038 20.3862 3.98894 21.6798" stroke="#3975E9" stroke-width="1.5" stroke-linecap="round" stroke-linejoin="round"/>
<path d="M1.36728 17.8006L4.7148 14.7195C6.35064 13.6165 8.29032 14.2251 8.29032 14.2251C9.2292 14.4723 10.974 14.5285 10.974 14.5285L13.8703 14.528C14.7329 14.528 15.4385 15.1443 15.4385 15.8974C15.4385 16.6506 14.7329 17.2664 13.8703 17.2664H9.86328" stroke="#3975E9" stroke-width="1.5" stroke-linecap="round" stroke-linejoin="round"/>
<path fill-rule="evenodd" clip-rule="evenodd" d="M11.9379 11.0528C11.2836 11.0378 10.6404 10.9637 10.017 10.7369C9.81676 10.6641 9.61434 10.6739 9.41955 10.7627C8.92117 10.99 8.42453 11.2217 7.92615 11.4489C7.86756 11.4756 7.80243 11.4988 7.73994 11.4999C7.54811 11.5035 7.44533 11.352 7.50168 11.1559C7.63632 10.6871 7.76891 10.2176 7.91089 9.75137C7.97284 9.5479 7.93879 9.37795 7.8162 9.21602C7.48271 8.77559 7.23401 8.285 7.10757 7.73095C6.83656 6.5436 7.08393 5.47227 7.77854 4.52596C8.54772 3.47806 9.58379 2.8976 10.7799 2.63925C12.136 2.34633 13.4469 2.50906 14.6854 3.189C15.5961 3.68904 16.328 4.40334 16.7203 5.44306C17.2479 6.84138 17.0206 8.12717 16.1102 9.25909C15.3955 10.1476 14.4553 10.6263 13.4079 10.8802C13.2054 10.9293 12.9996 10.9687 12.7933 10.9913C12.5092 11.0224 12.2231 11.0333 11.9379 11.0528Z" stroke="#3975E9" stroke-width="1.5"/>
</svg>
