<svg width="243" height="242" viewBox="0 0 243 242" fill="none" xmlns="http://www.w3.org/2000/svg">
<path d="M145.603 57.5157C145.563 57.5157 145.523 57.5157 145.483 57.5157C145.163 57.4351 144.924 57.1124 145.004 56.7494L151.354 28.1127L141.688 43.5201C141.529 43.7621 141.249 43.8831 140.97 43.8024C140.69 43.7217 140.53 43.4797 140.53 43.1974V28.5161L132.902 43.7621C132.782 44.0041 132.502 44.1654 132.223 44.0847C131.943 44.0444 131.743 43.8024 131.703 43.5201L130.785 28.3144L122.717 55.6604C122.637 55.9831 122.277 56.1847 121.918 56.1041C121.598 56.0234 121.399 55.6604 121.479 55.2974L130.585 24.5231C130.665 24.2407 130.944 24.0391 131.264 24.0794C131.584 24.1197 131.783 24.3617 131.823 24.6844L132.782 41.1001L140.53 25.5717C140.65 25.2894 140.97 25.1684 141.249 25.2491C141.529 25.3297 141.728 25.5717 141.728 25.8541V41.0194L152.153 24.3617C152.313 24.1197 152.632 23.9987 152.912 24.1197C153.191 24.2407 153.351 24.5634 153.271 24.8457L146.122 57.0317C146.162 57.3141 145.882 57.5157 145.603 57.5157Z" fill="#3975E9"/>
<path d="M132.462 19.198C132.342 19.198 132.223 19.198 132.103 19.1577C131.424 19.0367 130.825 18.5124 130.465 17.7864C130.146 17.1007 130.066 16.2537 130.186 15.447C130.505 13.632 131.863 12.3817 133.261 12.6237C134.659 12.8657 135.498 14.5194 135.178 16.3344C134.899 18.0284 133.74 19.198 132.462 19.198ZM132.902 13.874C132.263 13.874 131.584 14.6404 131.424 15.6487C131.304 16.2134 131.384 16.778 131.584 17.2217C131.703 17.4234 131.903 17.8267 132.303 17.867C132.982 17.988 133.74 17.1814 133.94 16.0924C134.14 15.0034 133.74 13.9547 133.021 13.8337C133.021 13.874 132.982 13.874 132.902 13.874Z" fill="#3975E9"/>
<path d="M143.645 18.4722C143.326 18.4722 143.006 18.4318 142.687 18.3108C141.009 17.6655 140.33 15.4068 141.129 13.3095C141.928 11.1718 143.925 9.96184 145.602 10.6072C146.441 10.9298 147.04 11.6558 147.32 12.6238C147.599 13.5515 147.519 14.6002 147.16 15.6085C146.8 16.6168 146.121 17.4235 145.323 17.9478C144.803 18.2705 144.244 18.4722 143.645 18.4722ZM144.684 11.6962C143.805 11.6962 142.806 12.5432 142.327 13.7532C141.768 15.2052 142.167 16.7378 143.166 17.1412C143.605 17.3025 144.164 17.2218 144.684 16.8992C145.243 16.5362 145.722 15.9312 146.002 15.1648C146.281 14.4388 146.321 13.6322 146.161 12.9868C146.002 12.3818 145.642 11.9785 145.203 11.7768C145.043 11.6962 144.883 11.6962 144.684 11.6962Z" fill="#3975E9"/>
<path d="M155.866 18.5933C155.467 18.5933 155.107 18.5127 154.748 18.3917C153.749 18.0287 153.03 17.1817 152.671 16.012C152.351 14.923 152.431 13.6323 152.871 12.4627C153.31 11.293 154.109 10.2847 155.067 9.67966C156.106 9.03433 157.184 8.91333 158.183 9.27633C160.18 10.0427 160.979 12.7047 160.06 15.2053C159.621 16.375 158.822 17.3833 157.863 17.9883C157.224 18.3917 156.545 18.5933 155.866 18.5933ZM157.064 10.325C156.625 10.325 156.186 10.446 155.746 10.7283C155.027 11.172 154.428 11.9383 154.069 12.866C153.709 13.7937 153.669 14.7617 153.909 15.6087C154.149 16.375 154.588 16.9397 155.227 17.1817C155.826 17.4237 156.545 17.3027 157.224 16.8993C157.943 16.4557 158.542 15.6893 158.902 14.7617C159.621 12.9063 159.101 10.9703 157.743 10.446C157.544 10.3653 157.304 10.325 157.064 10.325Z" fill="#3975E9"/>
<path d="M142.767 95.0641C141.729 95.0641 140.57 95.8708 139.492 97.3228C143.087 78.8501 140.131 64.0478 132.742 62.1118C124.634 59.9741 113.371 76.1478 107.979 97.1615C102.587 118.175 104.784 136.93 112.891 139.068C119.961 140.923 129.826 128.016 135.817 110.754C136.057 112.77 136.736 114.101 137.735 114.303C140.091 114.787 143.766 109.866 145.124 104.542C146.561 99.2185 146.002 95.0238 142.767 95.0641ZM111.254 93.9751C112.572 89.6191 114.13 85.6665 114.13 85.6261C114.249 85.3035 114.609 85.1421 114.928 85.2631C115.248 85.3841 115.408 85.7471 115.288 86.0698C115.288 86.1101 113.73 90.0225 112.452 94.3381C110.255 101.759 110.615 104.179 111.054 104.946C111.214 105.188 111.374 105.349 111.613 105.389C113.291 105.712 115.408 102.324 117.405 96.1128C119.042 91.0308 120.081 85.7875 120.081 85.7068C120.161 85.3438 120.48 85.1421 120.8 85.2228C121.159 85.3035 121.359 85.6261 121.279 85.9488C121.279 85.9891 120.201 91.3535 118.563 96.4758C116.366 103.332 114.13 106.68 111.773 106.68C111.613 106.68 111.454 106.68 111.294 106.64C110.695 106.519 110.176 106.156 109.856 105.551C109.017 103.816 109.417 100.025 111.254 93.9751ZM112.332 114.908C110.056 113.9 108.897 112.609 108.897 111.117C108.897 109.544 110.415 108.414 113.451 107.769C114.968 107.446 116.446 107.325 117.165 107.285L119.002 101.477C119.122 101.154 119.482 100.953 119.801 101.074C120.121 101.195 120.32 101.517 120.201 101.88L118.244 108.092C118.164 108.334 117.924 108.535 117.684 108.535C117.684 108.535 115.687 108.616 113.73 109.019C112.652 109.261 110.176 109.907 110.176 111.117C110.176 113.133 114.369 114.424 115.807 114.747C116.167 114.827 116.366 115.15 116.286 115.513C116.207 115.795 115.967 116.037 115.687 116.037C115.647 116.037 115.607 116.037 115.567 116.037C115.488 115.957 113.93 115.634 112.332 114.908ZM123.675 119.708C121.599 124.346 119.402 126.726 117.125 126.847C117.085 126.847 117.045 126.847 116.965 126.847C114.609 126.847 113.211 124.386 113.171 124.265C113.011 123.943 113.091 123.58 113.411 123.418C113.73 123.257 114.09 123.338 114.249 123.66C114.249 123.66 115.368 125.677 117.045 125.596C118.244 125.556 120.161 124.386 122.477 119.224C122.637 118.901 122.996 118.78 123.316 118.901C123.675 118.982 123.795 119.385 123.675 119.708ZM135.458 86.6748C135.458 86.7151 134.499 91.4341 132.982 96.4355C130.905 103.252 128.788 107.325 126.711 108.495C126.232 108.777 125.792 108.898 125.313 108.898C125.033 108.898 124.714 108.858 124.434 108.737C123.635 108.455 123.036 107.85 122.637 106.962C120.32 101.759 126.072 86.9168 126.312 86.3118C126.431 85.9891 126.791 85.8278 127.11 85.9488C127.43 86.0698 127.59 86.4328 127.47 86.7555C127.47 86.7958 125.992 90.5871 124.794 94.9028C123.276 100.509 122.917 104.502 123.755 106.438C123.995 107.003 124.354 107.366 124.834 107.527C125.233 107.688 125.633 107.608 126.072 107.366C127.829 106.357 129.826 102.364 131.783 96.0321C133.301 91.1115 134.22 86.4328 134.26 86.3925C134.34 86.0295 134.659 85.8278 135.019 85.9085C135.298 85.9891 135.498 86.3118 135.458 86.6748ZM142.567 105.349C141.689 108.092 140.69 109.503 139.492 109.665C139.412 109.665 139.332 109.665 139.292 109.665C138.453 109.665 137.814 109.019 137.535 108.576C137.335 108.293 137.415 107.89 137.735 107.688C138.014 107.487 138.413 107.567 138.613 107.89C138.613 107.89 138.973 108.414 139.372 108.374C139.612 108.334 140.45 108.011 141.409 104.946C141.529 104.623 141.848 104.421 142.208 104.542C142.487 104.663 142.647 105.026 142.567 105.349Z" fill="url(#paint0_linear_24094_92791)"/>
<path fill-rule="evenodd" clip-rule="evenodd" d="M133.661 219.009C157.466 209.692 170.207 184.201 162.498 164.156C154.83 144.11 130.945 136.81 107.141 146.127C83.3361 155.444 72.3525 171.093 76.3865 194.809C80.5403 219.17 109.857 228.326 133.661 219.009ZM114.41 174.361C115.768 175.531 117.405 176.136 119.283 176.136C119.562 176.136 119.842 176.136 120.121 176.096C123.636 175.773 126.632 173.797 128.669 170.368C130.039 168.111 130.563 165.952 130.681 165.464C130.694 165.412 130.702 165.379 130.706 165.367C130.785 164.802 130.426 164.238 129.867 164.117C129.308 164.036 128.748 164.399 128.629 164.964C128.629 165.004 128.149 167.142 126.831 169.36C125.114 172.183 122.797 173.756 119.922 173.998C118.284 174.119 116.926 173.716 115.768 172.748C112.932 170.288 112.533 165.165 112.533 165.085C112.493 164.52 112.013 164.076 111.414 164.117C110.855 164.157 110.416 164.681 110.456 165.246C110.456 165.488 110.895 171.336 114.41 174.361Z" fill="#B7DCFF"/>
<path d="M116.246 140.199C116.246 140.199 120.28 139.917 125.353 133.02L124.953 167.021C124.953 167.021 125.353 172.829 121.039 173.797C117.125 174.684 116.446 171.538 116.446 168.553C116.446 165.569 116.246 140.199 116.246 140.199Z" fill="url(#paint1_linear_24094_92791)"/>
<path d="M129.467 152.942L129.786 145.48L133.061 147.336L129.467 152.942Z" fill="#3975E9"/>
<path d="M106.943 148.587L109.739 152.257C109.739 152.257 111.137 147.336 110.858 147.457C110.578 147.578 106.943 148.587 106.943 148.587Z" fill="#3975E9"/>
<path d="M114.09 183.315L116.167 189.082L127.071 182.75L114.09 183.315Z" fill="#3975E9"/>
<path d="M111.414 200.537L119.802 201.384C119.802 201.384 116.886 217.759 116.886 217.477C116.886 217.195 111.414 200.537 111.414 200.537Z" fill="#3975E9"/>
<path d="M92.0018 194.891L96.7547 202.796L88.3672 209.007L92.0018 194.891Z" fill="#3975E9"/>
<path d="M138.135 194.324L146.802 200.939L141.889 205.335L138.135 194.324Z" fill="#3975E9"/>
<path d="M132.742 80.7469C132.742 80.7469 129.666 78.4883 132.742 78.4883C135.817 78.4883 137.774 80.7469 137.774 80.7469C137.774 80.7469 139.452 82.6023 137.055 82.3199C134.699 82.0376 132.742 80.7469 132.742 80.7469Z" fill="#28313A"/>
<path d="M119.163 78.4876C119.683 78.4473 122.359 78.77 120.402 80.1816C118.604 81.4723 115.649 82.2789 115.089 81.4319C114.371 80.3026 117.446 78.6086 119.163 78.4876Z" fill="#28313A"/>
<path d="M139.574 139.271C139.374 139.271 139.215 139.19 139.055 139.069L130.548 130.276C130.308 130.034 130.268 129.671 130.468 129.389L137.897 118.781V112.691C137.897 112.288 138.216 111.965 138.616 111.965C139.015 111.965 139.335 112.288 139.335 112.691V118.539L146.164 127.695C146.324 127.937 146.364 128.219 146.204 128.461L140.213 138.948C140.093 139.15 139.894 139.271 139.694 139.311C139.654 139.271 139.614 139.271 139.574 139.271ZM131.985 129.671L139.454 137.375L144.766 128.098L138.695 120.032L131.985 129.671Z" fill="#3975E9"/>
<path d="M142.846 133.463C142.766 133.463 142.686 133.423 142.606 133.382L134.419 125.477C134.259 125.356 134.259 125.114 134.419 124.993C134.538 124.872 134.778 124.832 134.898 124.993L143.086 132.898C143.246 133.019 143.246 133.261 143.086 133.382C143.046 133.423 142.926 133.463 142.846 133.463Z" fill="#3975E9"/>
<path d="M135.259 134.066C135.18 134.066 135.14 134.066 135.06 133.985C134.9 133.864 134.86 133.662 134.98 133.501L141.929 123.256C142.049 123.095 142.249 123.055 142.409 123.176C142.569 123.297 142.608 123.498 142.489 123.66L135.579 133.904C135.499 133.985 135.379 134.066 135.259 134.066Z" fill="#3975E9"/>
<path d="M132.183 55.7806C132.183 55.7806 143.207 40.8169 153.591 58.8863C165.414 79.5369 164.215 107.609 164.215 107.609C164.215 107.609 162.698 104.624 161.02 105.915C159.343 107.206 158.943 107.044 158.065 106.197C157.226 105.35 156.826 103.939 154.43 105.471C152.073 107.004 151.914 108.577 149.677 106.601C147.44 104.624 147.72 105.028 146.322 106.197C144.924 107.327 143.127 108.859 141.13 105.754C139.173 102.648 135.418 106.601 135.418 106.601C135.418 106.601 140.171 88.4103 139.053 72.8819C139.053 72.8819 138.653 72.3173 136.417 73.7289C134.18 75.1406 132.662 77.9639 129.148 74.1726C125.633 70.3813 123.756 73.7289 122.557 74.8986C121.239 76.1893 118.204 76.7539 116.806 75.0599C116.806 75.0599 110.575 85.3046 105.902 108.375C105.902 108.375 104.344 109.505 103.825 106.681C103.306 103.858 101.029 107.407 101.029 107.407C101.029 107.407 99.7513 109.827 97.6744 107.569C95.5975 105.31 94.1596 107.407 94.1596 107.407C94.1596 107.407 92.0827 110.069 90.2455 108.658C88.4481 107.246 86.8905 107.085 83.2559 109.384C83.2559 109.384 89.1271 82.5619 105.343 62.7986C117.285 48.1173 128.828 48.5609 132.183 55.7806Z" fill="#28313A"/>
<path d="M59.454 199.369C59.3341 181.784 48.4303 168.312 36.7278 168.393C25.0252 168.474 15.6391 182.752 15.7589 200.297C15.8788 217.882 28.0606 232.765 39.6434 231.232C54.3815 229.337 59.5738 216.954 59.454 199.369ZM44.5961 209.614C44.5561 210.178 44.0768 210.582 43.5576 210.582C43.5177 210.582 43.4777 210.582 43.4378 210.582C39.0843 210.138 36.0088 208.444 34.2514 205.5C30.6168 199.369 34.3313 190.254 34.4911 189.891C34.7307 189.366 35.3298 189.084 35.8491 189.326C36.3683 189.568 36.6479 190.173 36.4082 190.697C36.3683 190.778 32.9733 199.248 36.0488 204.451C37.4467 206.79 39.9629 208.162 43.6375 208.525C44.2366 208.484 44.636 209.009 44.5961 209.614Z" fill="#B7DCFF"/>
<path d="M29.8573 213.85L32.6532 220.263L21.5098 222.683L29.8573 213.85Z" fill="#3975E9"/>
<path d="M52.3047 210.864L55.9792 204.693L61.3313 217.56L52.3047 210.864Z" fill="#3975E9"/>
<path d="M14.7598 186.18L24.2257 186.865L23.8263 194.972L14.7598 186.18Z" fill="#3975E9"/>
<path d="M33.0527 178.84L37.5261 165.57L40.242 177.509L33.0527 178.84Z" fill="#3975E9"/>
<path d="M63.3259 116.242C63.2859 114.468 62.9664 109.789 62.8066 108.055L59.3318 108.418C58.9723 111.523 59.1321 115.839 59.3717 120.477C63.4057 119.792 63.3658 117.694 63.3259 116.242Z" fill="url(#paint2_linear_24094_92791)"/>
<path d="M98.0352 176.46C93.1225 175.129 88.6492 174.968 85.374 175.169C80.022 175.492 76.5072 176.742 76.4673 176.742C76.1478 176.863 75.7883 176.702 75.6685 176.379C75.5486 176.057 75.7084 175.694 76.0279 175.573C76.1877 175.532 79.7424 174.242 85.2942 173.919C89.0885 173.717 94.4006 173.919 100.232 175.774C106.942 174.242 110.537 168.434 103.507 164.4C96.4376 161.9 89.4879 162.343 84.695 163.231C78.9436 164.32 75.0294 166.256 74.9895 166.256C74.9096 166.296 74.7898 166.336 74.7099 166.336C74.4703 166.336 74.2705 166.215 74.1507 165.973C73.991 165.651 74.1108 165.288 74.4303 165.126C74.5901 165.046 78.5442 163.11 84.4155 161.98C89.2882 161.053 96.3178 160.609 103.587 163.069C105.225 162.142 107.581 160.044 106.982 156.092C106.582 153.43 104.865 151.978 103.267 151.211C93.9213 149.8 86.093 151.252 81.1803 152.704C75.8282 154.277 72.7129 156.213 72.6729 156.253C72.5531 156.334 72.4732 156.334 72.3534 156.334C72.1537 156.334 71.954 156.213 71.8342 156.051C71.6345 155.769 71.7543 155.366 72.0339 155.164C72.1537 155.083 75.3489 153.107 80.8607 151.494C85.4539 150.122 92.4835 148.791 100.911 149.638C101.75 148.428 102.988 145.766 99.9124 143.548C95.479 140.281 84.056 142.257 77.5457 144.113C72.9924 145.403 69.9969 147.299 69.957 147.339C69.8371 147.42 69.7173 147.46 69.5576 147.46C69.3579 147.46 69.1981 147.38 69.0783 147.218C68.8786 146.936 68.9185 146.533 69.1981 146.331C69.278 146.25 70.3564 145.444 72.5132 144.435C73.0324 141.894 74.3105 133.545 73.2321 119.509C71.9939 103.578 65.8031 101.521 61.4097 103.739C60.491 104.223 59.9319 105.433 59.5724 107.127L63.3668 106.724C63.5265 106.724 63.6863 106.764 63.8461 106.885C63.9659 107.006 64.0458 107.167 64.0857 107.329C64.1256 107.611 64.6049 114.024 64.6449 116.242C64.6848 117.815 64.7247 120.921 59.4925 121.768C59.852 127.737 60.2514 134.15 59.8919 139.111C58.7736 152.462 54.8195 179.646 35.2885 194.933C35.2885 194.933 33.2516 206.024 40.6406 207.396C40.6406 207.396 68.5191 188.802 76.9865 186.261C84.5353 184.002 89.1684 185.898 96.2778 184.567C101.27 183.639 103.028 178.477 98.0352 176.46Z" fill="url(#paint3_linear_24094_92791)"/>
<path d="M212.226 171.537C199.764 168.431 186.544 177.224 182.031 192.47C177.518 207.756 181.232 220.905 195.251 226.753C207.114 231.714 222.011 221.147 226.525 205.901C231.038 190.614 226.045 175.005 212.226 171.537ZM205.676 204.892C203.08 207.635 199.485 208.119 197.328 208.119C196.29 208.119 195.571 207.998 195.491 207.998C194.932 207.917 194.532 207.353 194.612 206.788C194.692 206.223 195.251 205.82 195.81 205.901C195.85 205.901 201.083 206.707 204.158 203.4C206.594 200.778 207.154 196.301 205.796 190.09C205.676 189.525 206.035 188.961 206.594 188.84C207.154 188.719 207.713 189.082 207.832 189.646C209.35 196.624 208.631 201.746 205.676 204.892Z" fill="#B7DCFF"/>
<path d="M206.875 178.111L212.946 181.015L216.061 168.391L206.875 178.111Z" fill="#3975E9"/>
<path d="M216.221 197.027L217.579 204.368L231.198 199.125L216.221 197.027Z" fill="#3975E9"/>
<path d="M195.37 217.234L202.04 218.606L193.812 229.213L195.37 217.234Z" fill="#3975E9"/>
<path d="M182.59 115.354C181.911 116.886 179.754 122.251 181.392 125.437C181.831 126.244 182.47 126.849 183.349 127.292C183.628 125.961 183.908 124.751 184.267 123.622C184.747 122.009 185.865 118.903 186.264 116.08L182.59 115.354Z" fill="url(#paint4_linear_24094_92791)"/>
<path d="M206.355 195.294C192.096 176.498 183.708 154.678 182.75 142.497C182.27 136.73 182.55 132.253 183.149 128.542C181.871 128.018 180.912 127.171 180.313 126.001C178.077 121.685 181.552 114.627 181.711 114.345C181.831 114.103 182.111 113.941 182.39 114.022L186.424 114.829C186.544 112.61 185.985 110.755 184.028 110.231C179.035 108.9 175.76 110.11 170.448 123.944C166.015 135.56 168.171 146.208 169.01 149.354C171.606 150.846 172.964 152.137 173.084 152.218C173.324 152.46 173.364 152.863 173.124 153.105C173.004 153.226 172.844 153.307 172.685 153.307C172.525 153.307 172.365 153.266 172.245 153.145C172.205 153.105 169.569 150.645 164.657 148.628C158.266 146.531 146.963 143.586 141.092 146.49C137.377 148.346 138.336 151.29 138.935 152.54C143.169 151.976 148.64 152.581 155.311 154.396C163.339 156.574 170.208 159.72 170.288 159.76C170.608 159.921 170.728 160.284 170.608 160.607C170.488 160.849 170.288 160.97 170.049 160.97C169.969 160.97 169.889 160.97 169.769 160.93C169.489 160.809 142.729 148.628 133.223 156.049C133.183 156.049 133.183 156.09 133.144 156.09C132.824 156.574 132.584 157.138 132.425 157.784C131.506 161.494 133.743 164.156 135.22 165.407C143.568 163.753 151.316 164.56 156.629 165.649C163.139 166.939 167.333 168.875 167.532 168.956C167.852 169.117 167.972 169.48 167.852 169.803C167.732 170.045 167.532 170.166 167.293 170.166C167.213 170.166 167.133 170.166 167.013 170.126C166.973 170.126 162.739 168.19 156.349 166.899C151.077 165.85 143.328 165.044 135.061 166.778C128.71 169.682 129.828 177.95 135.7 178.797C136.219 178.878 136.738 178.918 137.178 178.959C139.055 177.95 141.052 177.184 143.169 176.7C146.204 175.974 149.519 175.692 152.954 175.974C158.825 176.418 163.059 178.112 163.259 178.152C163.578 178.273 163.738 178.636 163.618 178.959C163.498 179.281 163.139 179.443 162.819 179.322C162.779 179.322 158.546 177.628 152.874 177.224C149.399 176.982 144.846 177.184 140.333 178.959C135.859 181.338 137.417 188.921 148.72 187.146C157.707 185.775 162.859 188.114 162.859 188.114L199.405 205.982C207.233 204.974 206.355 195.294 206.355 195.294Z" fill="url(#paint5_linear_24094_92791)"/>
<path d="M166.654 116.886C167.293 117.935 166.734 119.225 165.096 120.234L157.467 125.316C155.83 126.324 154.592 125.517 154.192 124.791C153.753 124.065 153.633 122.533 155.191 121.565L163.139 117.007C164.776 116.039 166.015 115.837 166.654 116.886Z" fill="#35C597"/>
<path d="M176.56 101.842C175.362 102.124 174.283 100.954 173.804 98.7764L171.168 88.4107C170.689 86.2327 171.807 85.2244 172.646 85.0227C173.484 84.8614 174.962 85.3454 175.442 87.4427L177.439 97.9294C177.918 100.148 177.718 101.6 176.56 101.842Z" fill="#35C597"/>
<path d="M187.944 102.607C186.865 102.083 186.745 100.429 187.784 98.2913L192.417 88.2483C193.455 86.1107 194.973 85.6267 195.732 86.03C196.491 86.4333 197.33 87.7643 196.331 89.8213L191.458 99.219C190.42 101.316 189.022 103.131 187.944 102.607Z" fill="#35C597"/>
<path d="M194.413 111.562C194.174 110.352 195.132 109.303 196.969 108.94L205.637 106.883C207.514 106.48 208.592 107.448 208.792 108.295C208.952 109.142 208.592 110.594 206.755 110.997L198.367 112.449C196.49 112.853 194.653 112.732 194.413 111.562Z" fill="#35C597"/>
<path d="M191.257 121.042C192.176 120.235 193.534 120.598 194.772 122.05L200.723 128.705C201.961 130.157 201.642 131.609 201.003 132.174C200.364 132.738 198.886 133.101 197.688 131.69L192.376 124.954C191.177 123.502 190.339 121.808 191.257 121.042Z" fill="#35C597"/>
<path d="M59.9686 91.1546C58.6905 91.5579 57.3725 90.3076 56.6136 87.7666L52.5796 75.8279C51.8207 73.3272 52.9391 72.0366 53.8178 71.7946C54.6965 71.5122 56.374 71.9962 57.1328 74.4162L60.4879 86.5566C61.2467 89.0572 61.2068 90.7512 59.9686 91.1546Z" fill="#35C597"/>
<path d="M46.8296 114.508C47.0693 115.839 45.8311 116.969 43.4746 117.412L32.3312 119.832C30.0146 120.276 28.9362 118.985 28.8164 118.058C28.6566 117.13 29.2158 115.517 31.4924 115.113L42.7557 113.379C45.0722 112.935 46.59 113.177 46.8296 114.508Z" fill="#35C597"/>
<path d="M49.4251 130.48C50.3038 131.489 50.0242 132.941 48.5464 134.272L41.7965 140.927C40.3187 142.258 38.8808 141.612 38.2817 140.927C37.6826 140.241 37.2033 138.668 38.6012 137.377L45.8305 131.247C47.2683 129.875 48.5464 129.512 49.4251 130.48Z" fill="#35C597"/>
<path d="M78.1442 124.229C78.5037 122.938 80.1013 122.454 82.4578 123.059L93.6811 125.681C95.9977 126.286 96.3971 127.899 96.1575 128.827C95.9178 129.714 94.7196 130.924 92.443 130.319L81.3794 127.012C79.1028 126.407 77.8247 125.52 78.1442 124.229Z" fill="#35C597"/>
<path d="M73.0301 94.4211C71.8718 93.7758 71.8718 91.9608 73.1499 89.6618L78.9413 78.4895C80.2194 76.1905 81.8969 76.1501 82.6957 76.5938C83.4945 77.0778 84.3332 78.6104 83.0951 80.8288L76.7046 91.6381C75.4265 93.9371 74.1484 95.0665 73.0301 94.4211Z" fill="#35C597"/>
<path d="M48.9453 99.7058C48.2663 100.876 46.5089 100.835 44.392 99.5445L34.0075 93.6558C31.8906 92.3652 31.9306 90.6712 32.4099 89.9048C32.8892 89.0982 34.4069 88.2915 36.4838 89.5822L46.5089 96.0758C48.5858 97.2858 49.5843 98.5765 48.9453 99.7058Z" fill="#35C597"/>
<defs>
<linearGradient id="paint0_linear_24094_92791" x1="105.025" y1="139.245" x2="146.666" y2="138.815" gradientUnits="userSpaceOnUse">
<stop stop-color="#E66069"/>
<stop offset="1" stop-color="#FFA94E"/>
</linearGradient>
<linearGradient id="paint1_linear_24094_92791" x1="116.246" y1="173.949" x2="125.531" y2="173.909" gradientUnits="userSpaceOnUse">
<stop stop-color="#E66069"/>
<stop offset="1" stop-color="#FFA94E"/>
</linearGradient>
<linearGradient id="paint2_linear_24094_92791" x1="59.1211" y1="120.477" x2="63.4161" y2="120.449" gradientUnits="userSpaceOnUse">
<stop stop-color="#E66069"/>
<stop offset="1" stop-color="#FFA94E"/>
</linearGradient>
<linearGradient id="paint3_linear_24094_92791" x1="35.0312" y1="207.396" x2="108.733" y2="206.396" gradientUnits="userSpaceOnUse">
<stop stop-color="#E66069"/>
<stop offset="1" stop-color="#FFA94E"/>
</linearGradient>
<linearGradient id="paint4_linear_24094_92791" x1="180.791" y1="127.292" x2="186.371" y2="127.242" gradientUnits="userSpaceOnUse">
<stop stop-color="#E66069"/>
<stop offset="1" stop-color="#FFA94E"/>
</linearGradient>
<linearGradient id="paint5_linear_24094_92791" x1="130.773" y1="205.982" x2="207.847" y2="204.795" gradientUnits="userSpaceOnUse">
<stop stop-color="#E66069"/>
<stop offset="1" stop-color="#FFA94E"/>
</linearGradient>
</defs>
</svg>
