<svg width="18" height="18" viewBox="0 0 18 18" fill="none" xmlns="http://www.w3.org/2000/svg">
<path d="M13.1248 10.875L15.3949 9.91632C15.9475 9.61968 16.5959 9.73884 16.8633 10.2364C17.1301 10.7339 16.8961 11.3844 16.3431 11.681L10.4089 14.862L10.0953 14.9408L4.5607 15.0902C4.5607 15.0902 3.84754 15.2897 2.99146 16.2599" stroke="#3975E9" stroke-width="1.5" stroke-linecap="round" stroke-linejoin="round"/>
<path d="M1.02521 13.3505L3.53585 11.0396C4.76273 10.2124 6.21749 10.6688 6.21749 10.6688C6.92165 10.8542 8.23025 10.8964 8.23025 10.8964L10.4025 10.896C11.0494 10.896 11.5786 11.3582 11.5786 11.9231C11.5786 12.4879 11.0494 12.9498 10.4025 12.9498H7.39721" stroke="#3975E9" stroke-width="1.5" stroke-linecap="round" stroke-linejoin="round"/>
<path fill-rule="evenodd" clip-rule="evenodd" d="M4.46275 7.95184C4.07019 7.94189 3.68422 7.89249 3.3102 7.74127C3.19006 7.6927 3.06861 7.69928 2.95173 7.7585C2.6527 7.90998 2.35472 8.06449 2.05569 8.21594C2.02053 8.23374 1.98146 8.24919 1.94396 8.24996C1.82887 8.25232 1.7672 8.15136 1.80101 8.0206C1.88179 7.70807 1.96135 7.39503 2.04654 7.08425C2.0837 6.9486 2.06328 6.8353 1.98972 6.72734C1.78962 6.43373 1.64041 6.10667 1.56454 5.7373C1.40194 4.94573 1.55036 4.23152 1.96712 3.60064C2.42863 2.90204 3.05027 2.51507 3.76791 2.34283C4.58162 2.14756 5.36813 2.25604 6.11122 2.70933C6.65769 3.04269 7.09681 3.51889 7.33219 4.21204C7.64873 5.14425 7.51238 6.00145 6.96612 6.75606C6.5373 7.34843 5.97317 7.66756 5.34475 7.8368C5.22327 7.86953 5.09977 7.89581 4.97601 7.91086C4.80551 7.9316 4.63388 7.93883 4.46275 7.95184Z" stroke="#3975E9" stroke-width="1.5"/>
<path d="M14.1 5.85005L13.5 5.20719V4.05005" stroke="#3975E9" stroke-width="1.5" stroke-linecap="round" stroke-linejoin="round"/>
<path d="M16.5 5.25C16.5 6.04565 16.1839 6.80871 15.6213 7.37132C15.0587 7.93393 14.2956 8.25 13.5 8.25C12.7044 8.25 11.9413 7.93393 11.3787 7.37132C10.8161 6.80871 10.5 6.04565 10.5 5.25C10.5 4.45435 10.8161 3.69129 11.3787 3.12868C11.9413 2.56607 12.7044 2.25 13.5 2.25C14.2956 2.25 15.0587 2.56607 15.6213 3.12868C16.1839 3.69129 16.5 4.45435 16.5 5.25Z" stroke="#3975E9" stroke-width="1.5" stroke-linecap="round" stroke-linejoin="round"/>
</svg>
