<svg width="243" height="242" viewBox="0 0 243 242" fill="none" xmlns="http://www.w3.org/2000/svg">
<path d="M14.1719 193.089C14.1719 193.089 32.4312 215.68 51.922 218.822C71.3703 221.922 70.6484 206.168 94.4281 222.856C121.35 241.71 156.213 229.353 173.495 223.62C191.755 217.506 206.362 205.191 220.035 184.681C233.709 164.171 218.676 159.118 212.01 164.171C205.343 169.224 202.498 169.352 194.345 162.685C186.192 156.018 178.294 164.596 169.674 175.891C161.053 187.187 155.703 207.824 140.713 187.781C126.446 168.757 115.065 176.486 111.881 186.592C107.422 200.69 109.503 222.261 109.503 222.261L46.3168 196.528L41.9855 195.042C41.9855 195.042 38.7158 193.471 34.5544 186.295C30.0957 178.566 26.4014 188.248 23.4289 191.051C20.414 193.853 14.1719 193.089 14.1719 193.089Z" fill="#103860"/>
<path d="M139.608 100.519C139.056 100.519 138.504 100.561 137.995 100.646C138.504 99.2871 138.504 97.8009 137.867 96.6119C136.636 94.1915 133.409 93.7244 130.606 95.5503C129.672 96.1448 128.95 96.9516 128.398 97.8009C128.483 97.5461 128.568 97.2913 128.653 96.9941C130.139 92.1107 128.695 87.1425 125.426 85.8261C122.156 84.5522 118.334 87.4398 116.848 92.3231C116.466 93.512 116.296 94.7435 116.253 95.9325C114.64 94.7435 112.432 93.8093 109.926 93.4271C104.491 92.5778 99.7351 94.6161 99.3529 97.9707C98.9708 101.325 103.047 104.722 108.525 105.572C110.818 105.911 112.984 105.784 114.767 105.232C114.725 105.487 114.725 105.784 114.725 106.039C114.725 110.582 119.268 114.234 124.831 114.234C129.12 114.234 132.772 112.069 134.258 109.011C135.574 110.073 137.528 110.752 139.651 110.752C143.642 110.752 146.87 108.459 146.87 105.614C146.827 102.812 143.6 100.519 139.608 100.519Z" fill="#FF902D"/>
<path d="M189.461 71.4318L190.735 49.5206L173.071 45.5291L168.739 65.8691L77.5274 41.2402L50.7754 61.7501L164.408 86.8037L135.193 227.91L140.841 227.486L144.875 206.551H176.383L175.746 215.001L180.926 215.426L188.23 92.0692L225.98 100.392L227.169 81.6656L189.461 71.4318ZM178.93 170.287L152.391 169.735L180.884 142.771L178.93 170.287ZM176.807 200.012L152.263 170.712L178.846 171.264L176.807 200.012ZM157.996 139.246L180.969 141.327L152.263 168.504L157.996 139.246ZM162.752 114.83L180.841 140.35L158.166 138.27L162.752 114.83ZM181.139 139.076L163.474 114.15L182.752 116.825L181.139 139.076ZM163.474 113.174L184.493 91.9842L182.795 115.806L163.474 113.174ZM101.307 69.1813L125.554 57.6736L122.114 73.8947L101.307 69.1813ZM124.365 57.1641L99.7784 68.8416H99.6934L103.43 51.6014L124.365 57.1641ZM145.554 79.1602L127.974 58.0983L148.739 63.6185L145.639 79.1602H145.554ZM98.8017 68.6293H98.7592L79.8205 45.3167L102.539 51.3466L98.8017 68.6293ZM78.674 45.4441L97.2306 68.2471L75.6166 63.3638L78.674 45.4441ZM126.53 57.886L144.025 78.8205L123.091 74.1071L126.53 57.886ZM146.531 79.3725L149.631 63.8733L167.508 68.6293L146.531 79.3725ZM171.457 70.4127L183.517 87.6954L168.697 84.3408L171.457 70.4127ZM172.264 69.9032L185.81 73.5126L184.79 87.8228L172.264 69.9032ZM172.688 66.9307L187.253 52.7903L185.979 70.5401L172.688 66.9307ZM207.678 80.1369L222.328 96.4854L207.041 93.0458L207.678 80.1369ZM206.065 92.791L189.461 89.0542L206.702 79.6698L206.065 92.791ZM206.065 78.9054L188.442 88.5022L189.292 74.4043L206.065 78.9054ZM175.576 49.5206L186.744 51.9411L172.306 65.954L175.576 49.5206ZM77.6973 45.4441L74.6399 63.1939L58.8859 59.627L77.6973 45.4441ZM148.059 79.7122L167.975 69.4785L165.045 83.534L148.059 79.7122ZM168.102 87.6105L184.026 91.135L163.346 111.942L168.102 87.6105ZM145.894 201.285L151.711 171.561L176.595 201.285H145.894ZM223.22 95.9758L208.443 79.4999L224.239 83.7038L223.22 95.9758Z" fill="#5987E2"/>
<path d="M64.0279 78.734C64.0279 75.3369 61.5225 72.5768 58.2953 72.1097V61.6212C58.2953 61.1116 57.8706 60.6445 57.3186 60.6445C56.7666 60.6445 56.342 61.0692 56.342 61.6212V72.1097C53.0723 72.5768 50.6094 75.3794 50.6094 78.734C50.6094 82.1311 53.1147 84.8912 56.342 85.3583V96.229C56.342 96.7386 56.7666 97.2057 57.3186 97.2057C57.8706 97.2057 58.2953 96.781 58.2953 96.229V85.3583C61.5225 84.9337 64.0279 82.1311 64.0279 78.734Z" fill="#F4F4F4"/>
<path d="M47.1256 90.792L65.6822 89.5605L61.5632 103.106H46.6585L45.512 92.7453C45.3421 91.7687 46.1065 90.8769 47.1256 90.792Z" fill="#F4F4F4"/>
<path d="M46.6172 105.188H62.7534L67.5517 89.3066C68.3161 89.3066 69.2078 89.6463 69.2503 90.4107L69.8023 107.439C69.8448 108.543 68.953 109.434 67.8914 109.434H48.4856C47.7212 109.434 47.0843 108.882 46.9569 108.118L46.6172 105.188Z" fill="#F4F4F4"/>
<path d="M175.195 223.155C177.063 222.476 178.847 221.754 180.63 220.947L184.155 161.498C182.541 162.262 180.97 163.409 179.314 164.895L176.724 201.456H145.895L147.212 194.662C145.853 193.77 144.409 192.454 142.88 190.671L134.133 232.922C136.044 232.794 137.997 232.625 139.865 232.37L144.876 206.679H176.384L175.195 223.155Z" fill="url(#paint0_linear_26301_105818)"/>
<path d="M174.135 170.246C173.88 170.543 173.625 170.883 173.328 171.18L180.589 171.308C180.844 171.308 181.057 171.095 181.057 170.841C181.057 170.586 180.844 170.373 180.589 170.331L174.135 170.246Z" fill="url(#paint1_linear_26301_105818)"/>
<path d="M177.234 201.795C177.362 201.795 177.447 201.753 177.531 201.668C177.744 201.498 177.744 201.2 177.574 200.988L163.943 184.725C163.773 185.022 163.603 185.319 163.434 185.616L176.852 201.625C176.937 201.753 177.107 201.795 177.234 201.795Z" fill="url(#paint2_linear_26301_105818)"/>
<path d="M188.702 51.1314C188.659 51.1314 188.617 51.1314 188.574 51.1314C188.319 51.089 188.149 50.8342 188.192 50.5794L192.438 30.5366L186.196 43.3606C186.111 43.5729 185.856 43.6578 185.644 43.6154C185.432 43.5729 185.262 43.3606 185.262 43.1483L185.092 25.441L180.803 42.0442C180.761 42.2565 180.548 42.4264 180.336 42.4264C180.124 42.4264 179.912 42.2565 179.869 42.0442L177.194 27.7765L175.75 47.4371C175.75 47.6919 175.495 47.9042 175.241 47.9042C174.986 47.9042 174.773 47.6494 174.773 47.3946L176.472 23.9972C176.472 23.7424 176.684 23.5726 176.939 23.5301C177.194 23.5301 177.406 23.7 177.449 23.9123L180.421 39.7087L185.092 21.6192C185.135 21.3645 185.389 21.2371 185.602 21.2795C185.856 21.322 186.026 21.4918 186.026 21.7466L186.196 41.11L193.33 26.545C193.457 26.3327 193.67 26.2053 193.925 26.2902C194.137 26.3752 194.307 26.6299 194.222 26.8423L189.126 50.7493C189.084 51.004 188.914 51.1314 188.702 51.1314Z" fill="#5987E2"/>
<path d="M177.022 20.6005C176.64 20.6005 176.3 20.558 175.961 20.3882C174.602 19.8362 173.965 18.265 174.517 16.9062C175.069 15.5473 176.64 14.8679 177.999 15.4624C179.358 16.0144 179.995 17.5856 179.443 18.9444C179.188 19.6238 178.678 20.1334 177.999 20.3882C177.702 20.558 177.362 20.6005 177.022 20.6005ZM176.98 16.2268C176.343 16.2268 175.706 16.6514 175.451 17.2883C175.111 18.1801 175.494 19.1567 176.343 19.4965C176.767 19.6663 177.235 19.6663 177.659 19.4965C178.084 19.3266 178.424 18.9869 178.593 18.5623C178.933 17.6705 178.551 16.6939 177.702 16.3541C177.404 16.2692 177.192 16.2268 176.98 16.2268Z" fill="#5987E2"/>
<path d="M186.663 19.0279C186.281 19.0279 185.899 18.9854 185.517 18.8155C184.795 18.5183 184.243 17.9663 183.946 17.2444C183.648 16.5225 183.648 15.7582 183.946 15.0363C184.243 14.3144 184.795 13.7624 185.517 13.4651C186.239 13.1679 187.003 13.1679 187.725 13.4651C188.447 13.7624 188.999 14.3144 189.296 15.0363C189.593 15.7582 189.593 16.5225 189.296 17.2444C188.999 17.9663 188.447 18.5183 187.725 18.8155C187.343 18.9429 187.003 19.0279 186.663 19.0279ZM186.578 14.187C186.324 14.187 186.111 14.2295 185.899 14.3569C185.432 14.5692 185.05 14.9089 184.88 15.4184C184.667 15.8855 184.667 16.4376 184.88 16.9047C185.092 17.3718 185.432 17.7539 185.899 17.9238C186.366 18.1361 186.876 18.1361 187.343 17.9238C187.81 17.7115 188.192 17.3718 188.362 16.8622C188.574 16.3951 188.574 15.8431 188.362 15.376C188.149 14.9089 187.81 14.5267 187.343 14.3569C187.088 14.2295 186.833 14.187 186.578 14.187Z" fill="#5987E2"/>
<path d="M195.195 23.6159C194.855 23.6159 194.473 23.5734 194.133 23.4036C193.496 23.1488 192.987 22.6392 192.732 21.9598C192.477 21.3229 192.477 20.601 192.732 19.9216C193.284 18.5627 194.813 17.9258 196.172 18.4778C197.488 19.0298 198.125 20.5585 197.573 21.9174C197.318 22.5543 196.809 23.0639 196.172 23.3611C195.832 23.531 195.535 23.6159 195.195 23.6159ZM195.11 19.2846C194.473 19.2846 193.879 19.7092 193.581 20.3462C193.412 20.7708 193.412 21.1955 193.581 21.6201C193.751 22.0447 194.048 22.342 194.473 22.5118C194.898 22.6817 195.322 22.6817 195.747 22.5118C196.172 22.342 196.469 22.0023 196.639 21.6201C196.978 20.7708 196.596 19.7942 195.747 19.4545C195.577 19.3271 195.365 19.2846 195.11 19.2846Z" fill="#5987E2"/>
<path d="M119.141 20.2194C117.358 19.9647 115.659 20.3044 114.301 21.1536C114.258 20.8139 114.173 20.4742 114.088 20.0921C113.112 16.058 110.139 13.3403 107.421 13.9773C104.746 14.6567 103.387 18.436 104.364 22.47C104.874 24.5083 105.893 26.2493 107.124 27.3533C106.275 27.3533 105.383 27.4807 104.492 27.778C101.307 28.8396 99.311 31.5572 100.075 33.8078C100.84 36.0584 104.067 37.035 107.252 35.931C107.549 35.846 107.804 35.7187 108.058 35.6337C109.035 37.035 110.394 37.7994 111.795 37.6295C113.791 37.3747 115.192 35.1666 115.32 32.449C115.872 32.7037 116.466 32.8736 117.103 32.9585C120.882 33.553 124.364 31.175 124.916 27.6506C125.553 24.1686 122.921 20.8139 119.141 20.2194Z" fill="#FF902D"/>
<path d="M221.35 37.119C219.566 35.8451 216.679 36.8218 214.98 39.2847C214.683 39.7093 214.428 40.1764 214.258 40.601C214.216 40.4736 214.216 40.3463 214.173 40.1764C213.409 37.3738 211.541 35.4205 209.97 35.8451C208.398 36.2698 207.761 38.9025 208.526 41.7051C208.738 42.5544 209.078 43.3187 209.46 43.9557C207.379 44.8049 205.936 46.4186 205.936 48.2445C205.936 51.0046 209.078 53.2127 212.985 53.2127C216.891 53.2127 220.033 51.0046 220.033 48.2445C220.033 47.3952 219.736 46.5884 219.227 45.909C220.076 45.4419 220.883 44.72 221.52 43.8283C223.218 41.3654 223.176 38.3505 221.35 37.119Z" fill="#FF902D"/>
<path d="M230.65 124.892C229.674 122.302 225.427 121.538 221.181 123.151C220.417 123.448 219.737 123.788 219.1 124.17C219.143 122.939 219.015 121.623 218.676 120.306C217.444 115.253 213.92 111.729 210.82 112.493C207.72 113.257 206.191 117.971 207.38 123.024C207.847 124.977 208.654 126.676 209.631 127.992C209.036 128.119 208.399 128.289 207.805 128.502C203.686 129.903 200.841 132.578 201.478 134.489C202.115 136.4 205.979 136.825 210.14 135.423C211.032 135.126 211.839 134.786 212.603 134.362C213.155 136.782 215.066 138.523 217.359 138.523C219.992 138.523 222.115 136.145 222.243 133.173C223.049 133.045 223.899 132.79 224.748 132.493C228.994 130.88 231.627 127.483 230.65 124.892Z" fill="#FF902D"/>
<path d="M47.8886 15.7603C48.2708 15.5055 48.653 15.3357 49.0351 15.1234C49.4173 14.9535 49.8419 14.7836 50.2666 14.6563C51.1158 14.4015 52.0076 14.2316 52.9418 14.2741C53.4089 14.2741 53.876 14.359 54.3006 14.4439C54.5129 14.5289 54.7677 14.5713 54.98 14.6563L55.3197 14.7836C55.4471 14.8261 55.5321 14.8686 55.617 14.9535C56.4663 15.4206 57.1457 16.1 57.6977 16.8644C58.2497 17.6287 58.6319 18.478 58.9716 19.3272L59.1839 19.9642C59.2264 20.0916 59.2688 20.1765 59.2688 20.3039L59.3538 20.6436L59.5236 21.2806C59.5661 21.4929 59.6086 21.7052 59.651 21.96C59.9907 23.7435 60.0757 25.4845 60.1181 27.2679L58.1648 26.9282C58.2073 26.7159 58.2922 26.5036 58.3346 26.3337C58.3771 26.1214 58.462 25.9516 58.5045 25.7393C58.6319 25.3571 58.7593 24.9749 58.9291 24.5927C59.2264 23.8284 59.5236 23.064 59.9058 22.3422C60.6701 20.8984 61.6468 19.4971 63.0056 18.3506C63.3454 18.0533 63.6851 17.7986 64.1097 17.5862C64.4919 17.3739 64.9165 17.1616 65.3411 16.9918C66.1904 16.652 67.1671 16.5671 68.0588 16.6945C68.5259 16.7794 68.9505 16.8644 69.3327 17.0342C69.7574 17.2041 70.0971 17.4164 70.4792 17.6287C70.8189 17.8835 71.1587 18.1383 71.4559 18.393C71.6258 18.5204 71.7531 18.6903 71.8805 18.8177C72.0079 18.9875 72.1353 19.1149 72.2627 19.2848C72.3052 19.3272 72.3052 19.4122 72.2627 19.4546C72.2202 19.4971 72.1778 19.4971 72.1353 19.4546C71.4134 19.0725 70.734 18.7752 70.0546 18.5629C69.7149 18.4355 69.3752 18.3931 68.993 18.3506C68.6533 18.3081 68.3136 18.3081 67.9739 18.3081C66.6575 18.393 65.5535 19.0725 64.5768 20.0491C63.6426 21.0258 62.7933 22.2148 62.029 23.4887C61.6468 24.1256 61.2646 24.7626 60.9249 25.442C60.7551 25.7817 60.5852 26.1214 60.4578 26.4611C60.3729 26.631 60.288 26.8008 60.2455 26.9707C60.1606 27.1405 60.1181 27.3104 60.0332 27.4803L59.9907 27.5652C59.7784 28.0747 59.2264 28.3295 58.7168 28.1597C58.2922 27.9898 58.0374 27.6076 58.0799 27.183C58.1648 25.4845 58.1648 23.8284 57.9525 22.1723C57.91 21.96 57.91 21.7477 57.8676 21.5354L57.7826 20.9409L57.7402 20.6436C57.7402 20.5587 57.6977 20.4313 57.6552 20.3464L57.5278 19.7519C57.3155 18.9875 57.0183 18.2232 56.5936 17.5438C56.169 16.8644 55.6594 16.2699 55.0225 15.8452C54.9376 15.8028 54.8526 15.7178 54.7677 15.6754L54.5129 15.548C54.3431 15.4631 54.1732 15.3781 53.9609 15.2932C53.5787 15.1658 53.1966 15.0809 52.7719 15.0384C52.687 15.0384 52.5596 14.996 52.4747 14.996H52.1774C51.9651 14.996 51.7528 14.996 51.5405 14.996C51.1158 15.0384 50.6912 15.0809 50.309 15.1658C49.8844 15.2507 49.5022 15.3357 49.0776 15.5055C48.6954 15.6329 48.2708 15.8028 47.8886 15.9726C47.8461 16.0151 47.7612 15.9726 47.7188 15.9302C47.8461 15.8452 47.8461 15.8028 47.8886 15.7603Z" fill="#F4F4F4"/>
<path d="M138.038 39.5413C138.378 38.8619 138.76 38.1824 139.227 37.5455C139.694 36.9085 140.161 36.314 140.756 35.8045C141.35 35.2949 141.987 34.8703 142.752 34.6155C143.516 34.3607 144.365 34.3607 145.172 34.6155C145.936 34.8703 146.658 35.2949 147.253 35.8469C147.55 36.1017 147.847 36.399 148.102 36.6962C148.229 36.8661 148.357 36.9935 148.484 37.1633L148.654 37.4181L148.824 37.6729C149.758 38.9468 150.437 40.3481 151.117 41.7918L149.503 42.0891C149.503 41.8768 149.503 41.7494 149.503 41.5795L149.546 41.07C149.588 40.7303 149.588 40.3906 149.631 40.0508C149.716 39.3714 149.8 38.7345 149.97 38.0551C150.14 37.3756 150.352 36.7387 150.65 36.1017C150.947 35.4648 151.329 34.8703 151.839 34.3183C152.348 33.7662 152.943 33.2991 153.665 33.0443C154.004 32.917 154.387 32.832 154.726 32.832C155.108 32.832 155.448 32.832 155.788 32.917C156.128 33.0019 156.425 33.0868 156.764 33.2142C156.934 33.2991 157.062 33.3416 157.189 33.4265L157.401 33.5539L157.614 33.6813C157.869 33.8512 158.123 34.0635 158.378 34.2333C158.505 34.3183 158.633 34.4456 158.718 34.5306C158.845 34.658 158.93 34.7429 159.058 34.8703C159.1 34.9127 159.1 34.9977 159.058 35.0401C159.015 35.0826 158.973 35.0826 158.973 35.0826C158.845 35.0401 158.675 34.9552 158.548 34.9127L158.123 34.7429C157.826 34.658 157.571 34.573 157.274 34.4881C156.977 34.4032 156.722 34.3607 156.425 34.3183C156.17 34.2758 155.873 34.2758 155.618 34.2758C155.108 34.2758 154.641 34.4032 154.217 34.658C153.792 34.8703 153.452 35.21 153.155 35.6346C152.858 36.0593 152.603 36.5264 152.391 37.0359C152.178 37.5455 151.966 38.0975 151.796 38.6495C151.626 39.2016 151.457 39.7961 151.329 40.3905C151.287 40.6878 151.202 40.985 151.159 41.2823C151.117 41.4521 151.117 41.5795 151.074 41.7494C151.074 41.8768 151.032 42.0466 151.032 42.174V42.2589C150.989 42.726 150.565 43.1082 150.098 43.0233C149.8 42.9808 149.546 42.7685 149.418 42.4713C148.909 41.07 148.314 39.7111 147.55 38.4797C147.168 37.8852 146.743 37.2907 146.276 36.7811C145.809 36.2716 145.257 35.8894 144.662 35.6346C144.068 35.3798 143.431 35.3374 142.794 35.4648C142.157 35.5922 141.52 35.9319 140.968 36.3565C140.416 36.7811 139.864 37.2907 139.397 37.8427C138.93 38.3948 138.463 38.9893 138.081 39.6262C138.038 39.6687 137.996 39.6687 137.953 39.6687C138.038 39.6262 138.038 39.5837 138.038 39.5413Z" fill="#F4F4F4"/>
<path d="M15.5742 72.9581C16.0838 71.9815 16.8057 71.0897 17.7823 70.4528C18.2494 70.1131 18.8015 69.9008 19.3959 69.7734C19.9904 69.646 20.5849 69.646 21.1794 69.7734C21.7739 69.9008 22.3259 70.1131 22.8355 70.4103L23.0478 70.4952L23.2177 70.6226L23.5998 70.8774C23.7272 70.9623 23.8122 71.0473 23.9395 71.1322C24.0669 71.2171 24.1943 71.3021 24.2793 71.387C25.171 72.1513 25.8929 73.0006 26.6148 73.8499L25.0861 74.4868C25.0436 74.317 25.0436 74.1896 25.0011 74.0622L24.9587 73.6375C24.9162 73.3828 24.8737 73.0855 24.8737 72.8307C24.8313 72.2787 24.7888 71.7267 24.7888 71.1747C24.7888 70.0706 25.0011 68.9241 25.5107 67.82C25.7655 67.268 26.0627 66.7585 26.4874 66.2914C26.912 65.8243 27.3791 65.4421 27.9311 65.1448C28.4831 64.8476 29.0776 64.7202 29.6297 64.6777C29.7571 64.6777 29.9269 64.6777 30.0543 64.6777C30.1817 64.6777 30.3515 64.6777 30.4789 64.7202C30.7762 64.7202 31.031 64.8051 31.2857 64.8901C31.3282 64.8901 31.3707 64.975 31.3707 65.0174C31.3707 65.0599 31.3282 65.1024 31.2857 65.1024C30.2666 65.3996 29.3749 65.8242 28.7379 66.4187C28.101 67.0132 27.6763 67.7776 27.4216 68.6268C27.1668 69.4761 26.9969 70.4103 26.8695 71.3445C26.8271 71.8116 26.7421 72.3212 26.7421 72.7883C26.7421 73.0431 26.7421 73.2978 26.7421 73.5102C26.7421 73.6376 26.7421 73.7649 26.7421 73.8923C26.7421 74.0197 26.7421 74.1471 26.7846 74.232V74.317C26.8271 74.7841 26.4874 75.1662 26.0203 75.2087C25.723 75.2512 25.4258 75.0813 25.2559 74.8265C24.7039 73.9348 24.0669 73.128 23.3451 72.4061C23.1752 72.2363 22.9629 72.0664 22.793 71.8965L22.4958 71.6418L22.3684 71.5144L22.1985 71.4294C21.8164 71.1322 21.3493 70.9199 20.9246 70.7925C20.4575 70.6651 19.9904 70.5802 19.5233 70.6226C19.0562 70.6651 18.5467 70.7925 18.122 71.0473C17.6549 71.2596 17.2303 71.5568 16.8481 71.939C16.466 72.2787 16.0838 72.6609 15.7865 73.0855C15.7441 73.128 15.7016 73.128 15.6591 73.128C15.5742 73.0431 15.5742 73.0006 15.5742 72.9581Z" fill="#F4F4F4"/>
<path d="M37.6545 152.962C37.6545 152.962 65.8078 144.852 96.3391 145.234L117.146 232.029C117.146 232.029 103.94 231.987 94.3858 223.409C86.9547 216.7 75.9142 213.515 69.7145 216.275C51.7524 224.301 36.8477 213.006 36.8477 213.006L37.6545 152.962Z" fill="url(#paint3_linear_26301_105818)"/>
<path d="M105.639 119.881L104.875 142.514C106.701 142.471 107.763 142.471 107.763 142.471L108.909 120.518C108.909 120.518 107.805 120.221 105.639 119.881Z" fill="url(#paint4_linear_26301_105818)"/>
<path d="M86.4031 127.993H89.8426L89.2057 118.396C88.1016 118.354 86.9976 118.354 85.8086 118.354L86.4031 127.993Z" fill="url(#paint5_linear_26301_105818)"/>
<path d="M58.1213 131.221L62.3676 130.669L60.4568 119.926C59.013 120.138 57.5693 120.35 56.168 120.563L58.1213 131.221Z" fill="url(#paint6_linear_26301_105818)"/>
<path d="M33.1129 137.547L35.8305 136.613L32.5184 126.762C31.4993 127.144 30.5226 127.484 29.6309 127.866L33.1129 137.547Z" fill="url(#paint7_linear_26301_105818)"/>
<path d="M97.1048 118.82V129.394H92.0517L85.0452 129.521L84.1534 118.311C80.7139 118.311 76.9771 118.438 72.9006 118.693L73.9197 130.625L64.7476 131.771L57.0192 133.003L54.6837 120.773C50.3524 121.538 46.3184 122.514 42.624 123.491L45.3417 135.254L38.7598 137.377L31.8383 139.67L27.7618 128.544C21.3498 131.177 18.0801 133.343 18.0801 133.343L26.2331 154.022C26.2331 154.022 44.365 147.568 64.6202 145.02C79.44 143.152 95.7035 142.685 103.347 142.557L104.111 119.669C102.285 119.372 99.9499 119.075 97.1048 118.82Z" fill="url(#paint8_linear_26301_105818)"/>
<path d="M46.8691 209.226C46.5718 209.226 46.3171 209.013 46.2321 208.716L44.1514 200.563C44.109 200.393 44.1514 200.181 44.2364 200.053C44.3213 199.884 44.4911 199.799 44.661 199.756L96.6789 188.758C96.8487 188.716 97.0611 188.758 97.2309 188.885C97.4008 189.013 97.4857 189.183 97.4857 189.353L98.3774 197.973C98.4199 198.312 98.1651 198.61 97.8679 198.695L47.0389 209.268C46.954 209.226 46.9116 209.226 46.8691 209.226ZM45.6377 200.903L47.3787 207.782L96.9761 197.463L96.2118 190.202L45.6377 200.903Z" fill="white"/>
<path d="M63.3863 174.873C63.1316 174.873 62.8768 174.703 62.7494 174.448L56.5072 158.694C56.4223 158.524 56.4648 158.312 56.5497 158.142C56.6346 157.972 56.8045 157.845 57.0168 157.802L74.6816 154.533C74.894 154.49 75.1063 154.575 75.2761 154.702C75.446 154.83 75.5309 155.042 75.4885 155.254L73.705 173.089C73.6625 173.471 73.3228 173.726 72.9831 173.684C72.6009 173.641 72.3462 173.301 72.3886 172.962L74.0872 156.019L58.0784 158.991L64.0233 173.981C64.1507 174.321 63.9808 174.703 63.6411 174.83C63.5562 174.873 63.4713 174.873 63.3863 174.873Z" fill="white"/>
<path d="M94.724 189.904C94.3419 189.904 94.0446 189.606 94.0446 189.224C94.0446 189.182 94.0022 183.364 90.9448 172.918C89.4161 167.695 86.1889 163.958 81.3056 161.835C77.6537 160.222 74.384 160.179 74.3415 160.179C73.9594 160.179 73.6621 159.882 73.6621 159.5C73.6621 159.118 73.9594 158.82 74.3415 158.82C74.4689 158.82 77.866 158.863 81.7727 160.561C85.3821 162.132 90.138 165.487 92.2187 172.536C95.3185 183.194 95.361 188.969 95.361 189.224C95.4035 189.606 95.1062 189.904 94.724 189.904Z" fill="white"/>
<path d="M47.04 200.605C46.7003 200.605 46.4455 200.393 46.3606 200.053C46.2756 199.416 43.8552 184.469 46.5304 175.254C49.2481 165.87 57.8257 161.793 58.1655 161.623C58.5052 161.453 58.8873 161.623 59.0572 161.963C59.227 162.303 59.0572 162.685 58.7175 162.855C58.6326 162.897 50.3522 166.846 47.7619 175.679C46.7003 179.373 46.3181 184.723 46.7003 191.135C46.9975 196.019 47.6345 199.841 47.6345 199.883C47.6769 200.265 47.4646 200.605 47.0825 200.647C47.0825 200.605 47.0825 200.605 47.04 200.605Z" fill="white"/>
<path d="M78.3776 174.743C78.2502 174.743 78.1653 174.701 78.0804 174.616C77.868 174.446 77.8256 174.106 77.9954 173.894L85.7238 163.787C85.8937 163.575 86.2334 163.533 86.4457 163.702C86.658 163.872 86.7005 164.212 86.5306 164.424L78.8022 174.531C78.7173 174.658 78.5475 174.743 78.3776 174.743Z" fill="white"/>
<path d="M79.2698 181.708C79.0999 181.708 78.8876 181.623 78.8027 181.453C78.6753 181.198 78.7602 180.901 79.015 180.731L91.7965 173.725C92.0513 173.597 92.3486 173.682 92.5184 173.937C92.6458 174.192 92.5609 174.489 92.3061 174.659L79.5246 181.665C79.4396 181.708 79.3547 181.708 79.2698 181.708Z" fill="white"/>
<path d="M80.4563 187.823C80.2015 187.823 79.9892 187.653 79.9468 187.441C79.8618 187.144 80.0741 186.889 80.3289 186.804L93.5351 183.662C93.8323 183.577 94.0871 183.789 94.1721 184.044C94.257 184.341 94.0447 184.596 93.7899 184.681L80.5412 187.781C80.5412 187.823 80.4988 187.823 80.4563 187.823Z" fill="white"/>
<path d="M60.1212 176.826C60.0363 176.826 59.9514 176.783 59.824 176.741L50.1847 170.668C49.9299 170.498 49.8875 170.201 50.0149 169.946C50.1847 169.692 50.482 169.649 50.7368 169.777L60.4185 175.849C60.6732 176.019 60.7157 176.316 60.5883 176.571C60.4609 176.741 60.2911 176.826 60.1212 176.826Z" fill="white"/>
<path d="M58.4613 183.194C58.4188 183.194 58.4188 183.194 58.3764 183.194L46.3167 181.708C46.0195 181.666 45.8496 181.411 45.8496 181.114C45.8496 180.816 46.1469 180.646 46.4441 180.646L58.5038 182.133C58.801 182.175 58.9709 182.43 58.9709 182.727C58.9709 183.024 58.7161 183.194 58.4613 183.194Z" fill="white"/>
<path d="M46.2728 192.282C46.018 192.282 45.8057 192.069 45.7632 191.815C45.7208 191.517 45.9331 191.263 46.2303 191.22L59.1393 189.734C59.4365 189.691 59.6913 189.904 59.7337 190.201C59.7762 190.498 59.5639 190.753 59.2666 190.796L46.3577 192.282C46.3153 192.282 46.3153 192.282 46.2728 192.282Z" fill="white"/>
<path d="M58.9292 196.655L83.4732 191.474C83.4732 191.474 82.7937 167.779 67.8466 170.37C51.4981 173.172 58.9292 196.655 58.9292 196.655Z" fill="#F4F4F4"/>
<defs>
<linearGradient id="paint0_linear_26301_105818" x1="134.133" y1="232.922" x2="185.125" y2="232.222" gradientUnits="userSpaceOnUse">
<stop stop-color="#E66069"/>
<stop offset="1" stop-color="#FFA94E"/>
</linearGradient>
<linearGradient id="paint1_linear_26301_105818" x1="173.328" y1="171.308" x2="181.051" y2="170.207" gradientUnits="userSpaceOnUse">
<stop stop-color="#E66069"/>
<stop offset="1" stop-color="#FFA94E"/>
</linearGradient>
<linearGradient id="paint2_linear_26301_105818" x1="163.434" y1="201.795" x2="177.972" y2="201.557" gradientUnits="userSpaceOnUse">
<stop stop-color="#E66069"/>
<stop offset="1" stop-color="#FFA94E"/>
</linearGradient>
<linearGradient id="paint3_linear_26301_105818" x1="36.8477" y1="232.029" x2="118.692" y2="230.547" gradientUnits="userSpaceOnUse">
<stop stop-color="#E66069"/>
<stop offset="1" stop-color="#FFA94E"/>
</linearGradient>
<linearGradient id="paint4_linear_26301_105818" x1="104.875" y1="142.514" x2="108.988" y2="142.5" gradientUnits="userSpaceOnUse">
<stop stop-color="#E66069"/>
<stop offset="1" stop-color="#FFA94E"/>
</linearGradient>
<linearGradient id="paint5_linear_26301_105818" x1="85.8086" y1="127.993" x2="89.9214" y2="127.959" gradientUnits="userSpaceOnUse">
<stop stop-color="#E66069"/>
<stop offset="1" stop-color="#FFA94E"/>
</linearGradient>
<linearGradient id="paint6_linear_26301_105818" x1="56.168" y1="131.221" x2="62.4883" y2="131.153" gradientUnits="userSpaceOnUse">
<stop stop-color="#E66069"/>
<stop offset="1" stop-color="#FFA94E"/>
</linearGradient>
<linearGradient id="paint7_linear_26301_105818" x1="29.6309" y1="137.547" x2="35.9512" y2="137.476" gradientUnits="userSpaceOnUse">
<stop stop-color="#E66069"/>
<stop offset="1" stop-color="#FFA94E"/>
</linearGradient>
<linearGradient id="paint8_linear_26301_105818" x1="18.0801" y1="154.022" x2="105.601" y2="149.893" gradientUnits="userSpaceOnUse">
<stop stop-color="#E66069"/>
<stop offset="1" stop-color="#FFA94E"/>
</linearGradient>
</defs>
</svg>
