<svg width="217" height="220" viewBox="0 0 217 220" fill="none" xmlns="http://www.w3.org/2000/svg">
<path d="M0.171875 180.089C0.171875 180.089 18.4312 202.68 37.922 205.822C57.3703 208.922 56.6484 193.168 80.4281 209.856C107.35 228.71 142.213 216.353 159.495 210.62C177.755 204.506 192.362 192.191 206.035 171.681C219.709 151.171 204.676 146.118 198.01 151.171C191.343 156.224 188.498 156.352 180.345 149.685C172.192 143.018 164.294 151.596 155.674 162.891C147.053 174.187 141.703 194.824 126.713 174.781C112.446 155.757 101.065 163.486 97.8806 173.592C93.4219 187.69 95.5026 209.261 95.5026 209.261L32.3168 183.528L27.9855 182.042C27.9855 182.042 24.7158 180.471 20.5544 173.295C16.0957 165.566 12.4014 175.248 9.42894 178.051C6.41402 180.853 0.171875 180.089 0.171875 180.089Z" fill="#B7DCFF"/>
<path d="M125.608 87.5185C125.056 87.5185 124.504 87.561 123.995 87.6459C124.504 86.2871 124.504 84.8009 123.867 83.6119C122.636 81.1915 119.409 80.7244 116.606 82.5503C115.672 83.1448 114.95 83.9516 114.398 84.8009C114.483 84.5461 114.568 84.2913 114.653 83.9941C116.139 79.1107 114.695 74.1425 111.426 72.8261C108.156 71.5522 104.334 74.4398 102.848 79.3231C102.466 80.512 102.296 81.7435 102.253 82.9325C100.64 81.7435 98.4317 80.8093 95.9264 80.4271C90.491 79.5778 85.7351 81.6161 85.3529 84.9707C84.9708 88.3253 89.0473 91.7224 94.5251 92.5717C96.8181 92.9114 98.9838 92.784 100.767 92.232C100.725 92.4868 100.725 92.784 100.725 93.0388C100.725 97.5824 105.268 101.234 110.831 101.234C115.12 101.234 118.772 99.0686 120.258 96.0113C121.574 97.0729 123.528 97.7523 125.651 97.7523C129.642 97.7523 132.87 95.4592 132.87 92.6142C132.827 89.8116 129.6 87.5185 125.608 87.5185Z" fill="#FF902D"/>
<path d="M175.461 58.4318L176.735 36.5206L159.071 32.5291L154.739 52.8691L63.5274 28.2402L36.7754 48.7501L150.408 73.8037L121.193 214.91L126.841 214.486L130.875 193.551H162.383L161.746 202.001L166.926 202.426L174.23 79.0692L211.98 87.392L213.169 68.6656L175.461 58.4318ZM164.93 157.287L138.391 156.735L166.884 129.771L164.93 157.287ZM162.807 187.012L138.263 157.712L164.846 158.264L162.807 187.012ZM143.996 126.246L166.969 128.327L138.263 155.504L143.996 126.246ZM148.752 101.83L166.841 127.35L144.166 125.27L148.752 101.83ZM167.139 126.076L149.474 101.15L168.752 103.825L167.139 126.076ZM149.474 100.174L170.493 78.9842L168.795 102.806L149.474 100.174ZM87.3071 56.1813L111.554 44.6736L108.114 60.8947L87.3071 56.1813ZM110.365 44.1641L85.7784 55.8416H85.6934L89.4302 38.6014L110.365 44.1641ZM131.554 66.1602L113.974 45.0983L134.739 50.6185L131.639 66.1602H131.554ZM84.8017 55.6293H84.7592L65.8205 32.3167L88.5385 38.3466L84.8017 55.6293ZM64.674 32.4441L83.2306 55.2471L61.6166 50.3638L64.674 32.4441ZM112.53 44.886L130.025 65.8205L109.091 61.1071L112.53 44.886ZM132.531 66.3725L135.631 50.8733L153.508 55.6293L132.531 66.3725ZM157.457 57.4127L169.517 74.6954L154.697 71.3408L157.457 57.4127ZM158.264 56.9032L171.81 60.5126L170.79 74.8228L158.264 56.9032ZM158.688 53.9307L173.253 39.7903L171.979 57.5401L158.688 53.9307ZM193.678 67.1369L208.328 83.4854L193.041 80.0458L193.678 67.1369ZM192.065 79.791L175.461 76.0542L192.702 66.6698L192.065 79.791ZM192.065 65.9054L174.442 75.5022L175.292 61.4043L192.065 65.9054ZM161.576 36.5206L172.744 38.9411L158.306 52.954L161.576 36.5206ZM63.6973 32.4441L60.6399 50.1939L44.8859 46.627L63.6973 32.4441ZM134.059 66.7122L153.975 56.4785L151.045 70.534L134.059 66.7122ZM154.102 74.6105L170.026 78.135L149.346 98.9421L154.102 74.6105ZM131.894 188.285L137.711 158.561L162.595 188.285H131.894ZM209.22 82.9758L194.443 66.4999L210.239 70.7038L209.22 82.9758Z" fill="#3975E9"/>
<path d="M50.0279 65.734C50.0279 62.3369 47.5225 59.5768 44.2953 59.1097V48.6212C44.2953 48.1116 43.8706 47.6445 43.3186 47.6445C42.7666 47.6445 42.342 48.0692 42.342 48.6212V59.1097C39.0723 59.5768 36.6094 62.3794 36.6094 65.734C36.6094 69.1311 39.1147 71.8912 42.342 72.3583V83.229C42.342 83.7386 42.7666 84.2057 43.3186 84.2057C43.8706 84.2057 44.2953 83.781 44.2953 83.229V72.3583C47.5225 71.9337 50.0279 69.1311 50.0279 65.734Z" fill="#28313A"/>
<path d="M33.1256 77.792L51.6822 76.5605L47.5632 90.1064H32.6585L31.512 79.7453C31.3421 78.7687 32.1065 77.8769 33.1256 77.792Z" fill="#28313A"/>
<path d="M32.6172 92.188H48.7534L53.5517 76.3066C54.3161 76.3066 55.2078 76.6463 55.2503 77.4107L55.8023 94.4386C55.8448 95.5426 54.953 96.4344 53.8914 96.4344H34.4856C33.7212 96.4344 33.0843 95.8824 32.9569 95.118L32.6172 92.188Z" fill="#28313A"/>
<path d="M161.195 210.155C163.063 209.476 164.847 208.754 166.63 207.947L170.155 148.498C168.541 149.262 166.97 150.409 165.314 151.895L162.724 188.456H131.895L133.212 181.662C131.853 180.77 130.409 179.454 128.88 177.671L120.133 219.922C122.044 219.794 123.997 219.625 125.865 219.37L130.876 193.679H162.384L161.195 210.155Z" fill="url(#paint0_linear_26259_72382)"/>
<path d="M160.135 157.246C159.88 157.543 159.625 157.883 159.328 158.18L166.589 158.308C166.844 158.308 167.057 158.095 167.057 157.841C167.057 157.586 166.844 157.373 166.589 157.331L160.135 157.246Z" fill="url(#paint1_linear_26259_72382)"/>
<path d="M163.234 188.795C163.362 188.795 163.447 188.753 163.531 188.668C163.744 188.498 163.744 188.2 163.574 187.988L149.943 171.725C149.773 172.022 149.603 172.319 149.434 172.616L162.852 188.625C162.937 188.753 163.107 188.795 163.234 188.795Z" fill="url(#paint2_linear_26259_72382)"/>
<path d="M174.702 38.1314C174.659 38.1314 174.617 38.1314 174.574 38.1314C174.319 38.089 174.149 37.8342 174.192 37.5794L178.438 17.5366L172.196 30.3606C172.111 30.5729 171.856 30.6578 171.644 30.6154C171.432 30.5729 171.262 30.3606 171.262 30.1483L171.092 12.441L166.803 29.0442C166.761 29.2565 166.548 29.4264 166.336 29.4264C166.124 29.4264 165.912 29.2565 165.869 29.0442L163.194 14.7765L161.75 34.4371C161.75 34.6919 161.495 34.9042 161.241 34.9042C160.986 34.9042 160.773 34.6494 160.773 34.3946L162.472 10.9972C162.472 10.7424 162.684 10.5726 162.939 10.5301C163.194 10.5301 163.406 10.7 163.449 10.9123L166.421 26.7087L171.092 8.61924C171.135 8.36446 171.389 8.23707 171.602 8.27953C171.856 8.32199 172.026 8.49185 172.026 8.74663L172.196 28.11L179.33 13.545C179.457 13.3327 179.67 13.2053 179.925 13.2902C180.137 13.3752 180.307 13.6299 180.222 13.8423L175.126 37.7493C175.084 38.004 174.914 38.1314 174.702 38.1314Z" fill="#3975E9"/>
<path d="M163.022 7.60051C162.64 7.60051 162.3 7.55804 161.961 7.38819C160.602 6.83616 159.965 5.26501 160.517 3.90617C161.069 2.54734 162.64 1.86792 163.999 2.46241C165.358 3.01444 165.995 4.58559 165.443 5.94442C165.188 6.62384 164.678 7.13341 163.999 7.38819C163.702 7.55804 163.362 7.60051 163.022 7.60051ZM162.98 3.22676C162.343 3.22676 161.706 3.65139 161.451 4.28835C161.111 5.18008 161.494 6.15674 162.343 6.49645C162.767 6.66631 163.235 6.66631 163.659 6.49645C164.084 6.3266 164.424 5.98689 164.593 5.56225C164.933 4.67052 164.551 3.69386 163.702 3.35415C163.404 3.26922 163.192 3.22676 162.98 3.22676Z" fill="#3975E9"/>
<path d="M172.663 6.02785C172.281 6.02785 171.899 5.98539 171.517 5.81553C170.795 5.51829 170.243 4.96626 169.946 4.24438C169.648 3.5225 169.648 2.75816 169.946 2.03627C170.243 1.31439 170.795 0.762366 171.517 0.465121C172.239 0.167876 173.003 0.167876 173.725 0.465121C174.447 0.762366 174.999 1.31439 175.296 2.03627C175.593 2.75816 175.593 3.5225 175.296 4.24438C174.999 4.96626 174.447 5.51829 173.725 5.81553C173.343 5.94292 173.003 6.02785 172.663 6.02785ZM172.578 1.187C172.324 1.187 172.111 1.22947 171.899 1.35686C171.432 1.56917 171.05 1.90888 170.88 2.41845C170.667 2.88555 170.667 3.43757 170.88 3.90467C171.092 4.37177 171.432 4.75394 171.899 4.9238C172.366 5.13612 172.876 5.13612 173.343 4.9238C173.81 4.71148 174.192 4.37177 174.362 3.86221C174.574 3.39511 174.574 2.84308 174.362 2.37598C174.149 1.90888 173.81 1.52671 173.343 1.35686C173.088 1.22947 172.833 1.187 172.578 1.187Z" fill="#3975E9"/>
<path d="M181.195 10.6159C180.855 10.6159 180.473 10.5734 180.133 10.4036C179.496 10.1488 178.987 9.63923 178.732 8.95982C178.477 8.32286 178.477 7.60098 178.732 6.92157C179.284 5.56273 180.813 4.92578 182.172 5.4778C183.488 6.02983 184.125 7.55852 183.573 8.91735C183.318 9.55431 182.809 10.0639 182.172 10.3611C181.832 10.531 181.535 10.6159 181.195 10.6159ZM181.11 6.28461C180.473 6.28461 179.879 6.70925 179.581 7.3462C179.412 7.77084 179.412 8.19547 179.581 8.62011C179.751 9.04475 180.048 9.34199 180.473 9.51185C180.898 9.6817 181.322 9.6817 181.747 9.51185C182.172 9.34199 182.469 9.00228 182.639 8.62011C182.978 7.77084 182.596 6.79418 181.747 6.45447C181.577 6.32708 181.365 6.28461 181.11 6.28461Z" fill="#3975E9"/>
<path d="M105.141 7.21944C103.358 6.96466 101.659 7.30437 100.301 8.15364C100.258 7.81393 100.173 7.47422 100.088 7.09205C99.1116 3.05801 96.1392 0.340342 93.4215 0.977295C90.7463 1.65671 89.3875 5.43597 90.3641 9.47001C90.8737 11.5083 91.8928 13.2493 93.1243 14.3533C92.275 14.3533 91.3832 14.4807 90.4915 14.778C87.3067 15.8396 85.311 18.5572 86.0753 20.8078C86.8396 23.0584 90.0669 24.035 93.2516 22.931C93.5489 22.846 93.8037 22.7187 94.0585 22.6337C95.0351 24.035 96.394 24.7994 97.7952 24.6295C99.791 24.3747 101.192 22.1666 101.32 19.449C101.872 19.7037 102.466 19.8736 103.103 19.9585C106.882 20.553 110.364 18.175 110.916 14.6506C111.553 11.1686 108.921 7.81393 105.141 7.21944Z" fill="#FF902D"/>
<path d="M207.35 24.119C205.566 22.8451 202.679 23.8218 200.98 26.2847C200.683 26.7093 200.428 27.1764 200.258 27.601C200.216 27.4736 200.216 27.3463 200.173 27.1764C199.409 24.3738 197.541 22.4205 195.97 22.8451C194.398 23.2698 193.761 25.9025 194.526 28.7051C194.738 29.5544 195.078 30.3187 195.46 30.9557C193.379 31.8049 191.936 33.4186 191.936 35.2445C191.936 38.0046 195.078 40.2127 198.985 40.2127C202.891 40.2127 206.033 38.0046 206.033 35.2445C206.033 34.3952 205.736 33.5884 205.227 32.909C206.076 32.4419 206.883 31.72 207.52 30.8283C209.218 28.3654 209.176 25.3505 207.35 24.119Z" fill="#FF902D"/>
<path d="M216.65 111.892C215.674 109.302 211.427 108.538 207.181 110.151C206.417 110.448 205.737 110.788 205.1 111.17C205.143 109.939 205.015 108.623 204.676 107.306C203.444 102.253 199.92 98.7285 196.82 99.4929C193.72 100.257 192.191 104.971 193.38 110.024C193.847 111.977 194.654 113.676 195.631 114.992C195.036 115.119 194.399 115.289 193.805 115.502C189.686 116.903 186.841 119.578 187.478 121.489C188.115 123.4 191.979 123.825 196.14 122.423C197.032 122.126 197.839 121.786 198.603 121.362C199.155 123.782 201.066 125.523 203.359 125.523C205.992 125.523 208.115 123.145 208.243 120.173C209.049 120.045 209.899 119.79 210.748 119.493C214.994 117.88 217.627 114.483 216.65 111.892Z" fill="#FF902D"/>
<path d="M33.8886 2.76031C34.2708 2.50553 34.653 2.33567 35.0351 2.12335C35.4173 1.9535 35.8419 1.78364 36.2666 1.65625C37.1158 1.40147 38.0076 1.23162 38.9418 1.27408C39.4089 1.27408 39.876 1.35901 40.3006 1.44394C40.5129 1.52886 40.7677 1.57133 40.98 1.65625L41.3197 1.78364C41.4471 1.82611 41.5321 1.86857 41.617 1.9535C42.4663 2.4206 43.1457 3.10002 43.6977 3.86436C44.2497 4.62871 44.6319 5.47798 44.9716 6.32725L45.1839 6.9642C45.2264 7.09159 45.2688 7.17652 45.2688 7.30391L45.3538 7.64362L45.5236 8.28057C45.5661 8.49289 45.6086 8.70521 45.651 8.95999C45.9907 10.7435 46.0757 12.4845 46.1181 14.2679L44.1648 13.9282C44.2073 13.7159 44.2922 13.5036 44.3346 13.3337C44.3771 13.1214 44.462 12.9516 44.5045 12.7393C44.6319 12.3571 44.7593 11.9749 44.9291 11.5927C45.2264 10.8284 45.5236 10.064 45.9058 9.34216C46.6701 7.8984 47.6468 6.4971 49.0056 5.35059C49.3454 5.05334 49.6851 4.79856 50.1097 4.58624C50.4919 4.37392 50.9165 4.16161 51.3411 3.99175C52.1904 3.65204 53.1671 3.56712 54.0588 3.69451C54.5259 3.77943 54.9505 3.86436 55.3327 4.03421C55.7574 4.20407 56.0971 4.41639 56.4792 4.62871C56.8189 4.88349 57.1587 5.13827 57.4559 5.39305C57.6258 5.52044 57.7531 5.69029 57.8805 5.81769C58.0079 5.98754 58.1353 6.11493 58.2627 6.28479C58.3052 6.32725 58.3052 6.41218 58.2627 6.45464C58.2202 6.4971 58.1778 6.4971 58.1353 6.45464C57.4134 6.07247 56.734 5.77522 56.0546 5.5629C55.7149 5.43551 55.3752 5.39305 54.993 5.35059C54.6533 5.30812 54.3136 5.30812 53.9739 5.30812C52.6575 5.39305 51.5535 6.07247 50.5768 7.04913C49.6426 8.02579 48.7933 9.21477 48.029 10.4887C47.6468 11.1256 47.2646 11.7626 46.9249 12.442C46.7551 12.7817 46.5852 13.1214 46.4578 13.4611C46.3729 13.631 46.288 13.8008 46.2455 13.9707C46.1606 14.1405 46.1181 14.3104 46.0332 14.4803L45.9907 14.5652C45.7784 15.0747 45.2264 15.3295 44.7168 15.1597C44.2922 14.9898 44.0374 14.6076 44.0799 14.183C44.1648 12.4845 44.1648 10.8284 43.9525 9.17231C43.91 8.95999 43.91 8.74767 43.8676 8.53535L43.7826 7.94087L43.7402 7.64362C43.7402 7.55869 43.6977 7.4313 43.6552 7.34638L43.5278 6.75188C43.3155 5.98754 43.0183 5.2232 42.5936 4.54378C42.169 3.86436 41.6594 3.26987 41.0225 2.84523C40.9376 2.80277 40.8526 2.71784 40.7677 2.67538L40.5129 2.54799C40.3431 2.46306 40.1732 2.37814 39.9609 2.29321C39.5787 2.16582 39.1966 2.08089 38.7719 2.03843C38.687 2.03843 38.5596 1.99596 38.4747 1.99596H38.1774C37.9651 1.99596 37.7528 1.99596 37.5405 1.99596C37.1158 2.03843 36.6912 2.08089 36.309 2.16582C35.8844 2.25074 35.5022 2.33567 35.0776 2.50553C34.6954 2.63292 34.2708 2.80277 33.8886 2.97262C33.8461 3.01509 33.7612 2.97263 33.7188 2.93016C33.8461 2.84523 33.8461 2.80277 33.8886 2.76031Z" fill="#28313A"/>
<path d="M124.038 26.5413C124.378 25.8619 124.76 25.1824 125.227 24.5455C125.694 23.9085 126.161 23.314 126.756 22.8045C127.35 22.2949 127.987 21.8703 128.752 21.6155C129.516 21.3607 130.365 21.3607 131.172 21.6155C131.936 21.8703 132.658 22.2949 133.253 22.8469C133.55 23.1017 133.847 23.399 134.102 23.6962C134.229 23.8661 134.357 23.9935 134.484 24.1633L134.654 24.4181L134.824 24.6729C135.758 25.9468 136.437 27.3481 137.117 28.7918L135.503 29.0891C135.503 28.8768 135.503 28.7494 135.503 28.5795L135.546 28.07C135.588 27.7303 135.588 27.3906 135.631 27.0508C135.716 26.3714 135.8 25.7345 135.97 25.0551C136.14 24.3756 136.352 23.7387 136.65 23.1017C136.947 22.4648 137.329 21.8703 137.839 21.3183C138.348 20.7662 138.943 20.2991 139.665 20.0443C140.004 19.917 140.387 19.832 140.726 19.832C141.108 19.832 141.448 19.832 141.788 19.917C142.128 20.0019 142.425 20.0868 142.764 20.2142C142.934 20.2991 143.062 20.3416 143.189 20.4265L143.401 20.5539L143.614 20.6813C143.869 20.8512 144.123 21.0635 144.378 21.2333C144.505 21.3183 144.633 21.4456 144.718 21.5306C144.845 21.658 144.93 21.7429 145.058 21.8703C145.1 21.9127 145.1 21.9977 145.058 22.0401C145.015 22.0826 144.973 22.0826 144.973 22.0826C144.845 22.0401 144.675 21.9552 144.548 21.9127L144.123 21.7429C143.826 21.658 143.571 21.573 143.274 21.4881C142.977 21.4032 142.722 21.3607 142.425 21.3183C142.17 21.2758 141.873 21.2758 141.618 21.2758C141.108 21.2758 140.641 21.4032 140.217 21.658C139.792 21.8703 139.452 22.21 139.155 22.6346C138.858 23.0593 138.603 23.5264 138.391 24.0359C138.178 24.5455 137.966 25.0975 137.796 25.6495C137.626 26.2016 137.457 26.7961 137.329 27.3905C137.287 27.6878 137.202 27.985 137.159 28.2823C137.117 28.4521 137.117 28.5795 137.074 28.7494C137.074 28.8768 137.032 29.0466 137.032 29.174V29.2589C136.989 29.726 136.565 30.1082 136.098 30.0233C135.8 29.9808 135.546 29.7685 135.418 29.4713C134.909 28.07 134.314 26.7111 133.55 25.4797C133.168 24.8852 132.743 24.2907 132.276 23.7811C131.809 23.2716 131.257 22.8894 130.662 22.6346C130.068 22.3798 129.431 22.3374 128.794 22.4648C128.157 22.5922 127.52 22.9319 126.968 23.3565C126.416 23.7811 125.864 24.2907 125.397 24.8427C124.93 25.3948 124.463 25.9893 124.081 26.6262C124.038 26.6687 123.996 26.6687 123.953 26.6687C124.038 26.6262 124.038 26.5837 124.038 26.5413Z" fill="#28313A"/>
<path d="M1.57422 59.9581C2.08378 58.9815 2.80566 58.0897 3.78233 57.4528C4.24943 57.1131 4.80145 56.9008 5.39594 56.7734C5.99043 56.646 6.58492 56.646 7.17941 56.7734C7.7739 56.9008 8.32593 57.1131 8.83549 57.4103L9.04781 57.4952L9.21766 57.6226L9.59984 57.8774C9.72723 57.9623 9.81216 58.0473 9.93955 58.1322C10.0669 58.2171 10.1943 58.3021 10.2793 58.387C11.171 59.1513 11.8929 60.0006 12.6148 60.8499L11.0861 61.4868C11.0436 61.317 11.0436 61.1896 11.0011 61.0622L10.9587 60.6375C10.9162 60.3828 10.8737 60.0855 10.8737 59.8307C10.8313 59.2787 10.7888 58.7267 10.7888 58.1747C10.7888 57.0706 11.0011 55.9241 11.5107 54.82C11.7655 54.268 12.0627 53.7585 12.4874 53.2914C12.912 52.8243 13.3791 52.4421 13.9311 52.1448C14.4831 51.8476 15.0776 51.7202 15.6297 51.6777C15.7571 51.6777 15.9269 51.6777 16.0543 51.6777C16.1817 51.6777 16.3515 51.6777 16.4789 51.7202C16.7762 51.7202 17.031 51.8051 17.2857 51.8901C17.3282 51.8901 17.3707 51.975 17.3707 52.0174C17.3707 52.0599 17.3282 52.1024 17.2857 52.1024C16.2666 52.3996 15.3749 52.8242 14.7379 53.4187C14.101 54.0132 13.6763 54.7776 13.4216 55.6268C13.1668 56.4761 12.9969 57.4103 12.8695 58.3445C12.8271 58.8116 12.7421 59.3212 12.7421 59.7883C12.7421 60.0431 12.7421 60.2978 12.7421 60.5102C12.7421 60.6376 12.7421 60.7649 12.7421 60.8923C12.7421 61.0197 12.7421 61.1471 12.7846 61.232V61.317C12.8271 61.7841 12.4874 62.1662 12.0203 62.2087C11.723 62.2512 11.4258 62.0813 11.2559 61.8265C10.7039 60.9348 10.0669 60.128 9.34506 59.4061C9.1752 59.2363 8.96288 59.0664 8.79303 58.8965L8.49578 58.6418L8.36839 58.5144L8.19854 58.4294C7.81637 58.1322 7.34927 57.9199 6.92463 57.7925C6.45753 57.6651 5.99043 57.5802 5.52333 57.6226C5.05623 57.6651 4.54667 57.7925 4.12203 58.0473C3.65493 58.2596 3.2303 58.5568 2.84813 58.939C2.46595 59.2787 2.08378 59.6609 1.78654 60.0855C1.74407 60.128 1.70161 60.128 1.65915 60.128C1.57422 60.0431 1.57422 60.0006 1.57422 59.9581Z" fill="#28313A"/>
<path d="M23.6545 139.962C23.6545 139.962 51.8078 131.852 82.3391 132.234L103.146 219.029C103.146 219.029 89.9401 218.987 80.3858 210.409C72.9547 203.7 61.9142 200.515 55.7145 203.275C37.7524 211.301 22.8477 200.006 22.8477 200.006L23.6545 139.962Z" fill="url(#paint3_linear_26259_72382)"/>
<path d="M91.6393 106.881L90.875 129.514C92.7009 129.471 93.7625 129.471 93.7625 129.471L94.909 107.518C94.909 107.518 93.805 107.221 91.6393 106.881Z" fill="url(#paint4_linear_26259_72382)"/>
<path d="M72.4031 114.993H75.8426L75.2057 105.396C74.1016 105.354 72.9976 105.354 71.8086 105.354L72.4031 114.993Z" fill="url(#paint5_linear_26259_72382)"/>
<path d="M44.1213 118.221L48.3676 117.669L46.4568 106.926C45.013 107.138 43.5693 107.35 42.168 107.563L44.1213 118.221Z" fill="url(#paint6_linear_26259_72382)"/>
<path d="M19.1129 124.547L21.8305 123.613L18.5184 113.762C17.4993 114.144 16.5226 114.484 15.6309 114.866L19.1129 124.547Z" fill="url(#paint7_linear_26259_72382)"/>
<path d="M83.1048 105.82V116.394H78.0517L71.0452 116.521L70.1534 105.311C66.7139 105.311 62.9771 105.438 58.9006 105.693L59.9197 117.625L50.7476 118.771L43.0192 120.003L40.6837 107.773C36.3524 108.538 32.3184 109.514 28.624 110.491L31.3417 122.254L24.7598 124.377L17.8383 126.67L13.7618 115.544C7.34977 118.177 4.08008 120.343 4.08008 120.343L12.2331 141.022C12.2331 141.022 30.365 134.568 50.6202 132.02C65.44 130.152 81.7035 129.685 89.347 129.557L90.1113 106.669C88.2854 106.372 85.9499 106.075 83.1048 105.82Z" fill="url(#paint8_linear_26259_72382)"/>
<path d="M32.8691 196.226C32.5718 196.226 32.3171 196.013 32.2321 195.716L30.1514 187.563C30.109 187.393 30.1514 187.181 30.2364 187.053C30.3213 186.884 30.4911 186.799 30.661 186.756L82.6789 175.758C82.8487 175.716 83.0611 175.758 83.2309 175.885C83.4008 176.013 83.4857 176.183 83.4857 176.353L84.3774 184.973C84.4199 185.312 84.1651 185.61 83.8679 185.695L33.0389 196.268C32.954 196.226 32.9116 196.226 32.8691 196.226ZM31.6377 187.903L33.3787 194.782L82.9761 184.463L82.2118 177.202L31.6377 187.903Z" fill="white"/>
<path d="M49.3863 161.873C49.1316 161.873 48.8768 161.703 48.7494 161.448L42.5072 145.694C42.4223 145.524 42.4648 145.312 42.5497 145.142C42.6346 144.972 42.8045 144.845 43.0168 144.802L60.6816 141.533C60.894 141.49 61.1063 141.575 61.2761 141.702C61.446 141.83 61.5309 142.042 61.4885 142.254L59.705 160.089C59.6625 160.471 59.3228 160.726 58.9831 160.684C58.6009 160.641 58.3462 160.301 58.3886 159.962L60.0872 143.019L44.0784 145.991L50.0233 160.981C50.1507 161.321 49.9808 161.703 49.6411 161.83C49.5562 161.873 49.4713 161.873 49.3863 161.873Z" fill="white"/>
<path d="M80.724 176.904C80.3419 176.904 80.0446 176.606 80.0446 176.224C80.0446 176.182 80.0022 170.364 76.9448 159.918C75.4161 154.695 72.1889 150.958 67.3056 148.835C63.6537 147.222 60.384 147.179 60.3415 147.179C59.9594 147.179 59.6621 146.882 59.6621 146.5C59.6621 146.118 59.9594 145.82 60.3415 145.82C60.4689 145.82 63.866 145.863 67.7727 147.561C71.3821 149.132 76.138 152.487 78.2187 159.536C81.3185 170.194 81.361 175.969 81.361 176.224C81.4035 176.606 81.1062 176.904 80.724 176.904Z" fill="white"/>
<path d="M33.04 187.605C32.7003 187.605 32.4455 187.393 32.3606 187.053C32.2756 186.416 29.8552 171.469 32.5304 162.254C35.2481 152.87 43.8257 148.793 44.1655 148.623C44.5052 148.453 44.8873 148.623 45.0572 148.963C45.227 149.303 45.0572 149.685 44.7175 149.855C44.6326 149.897 36.3522 153.846 33.7619 162.679C32.7003 166.373 32.3181 171.723 32.7003 178.135C32.9975 183.019 33.6345 186.841 33.6345 186.883C33.6769 187.265 33.4646 187.605 33.0825 187.647C33.0825 187.605 33.0825 187.605 33.04 187.605Z" fill="white"/>
<path d="M64.3776 161.743C64.2502 161.743 64.1653 161.701 64.0804 161.616C63.868 161.446 63.8256 161.106 63.9954 160.894L71.7238 150.787C71.8937 150.575 72.2334 150.533 72.4457 150.702C72.658 150.872 72.7005 151.212 72.5306 151.424L64.8022 161.531C64.7173 161.658 64.5475 161.743 64.3776 161.743Z" fill="white"/>
<path d="M65.2698 168.708C65.0999 168.708 64.8876 168.623 64.8027 168.453C64.6753 168.198 64.7602 167.901 65.015 167.731L77.7965 160.725C78.0513 160.597 78.3486 160.682 78.5184 160.937C78.6458 161.192 78.5609 161.489 78.3061 161.659L65.5246 168.665C65.4396 168.708 65.3547 168.708 65.2698 168.708Z" fill="white"/>
<path d="M66.4563 174.823C66.2015 174.823 65.9892 174.653 65.9468 174.441C65.8618 174.144 66.0741 173.889 66.3289 173.804L79.5351 170.662C79.8323 170.577 80.0871 170.789 80.1721 171.044C80.257 171.341 80.0447 171.596 79.7899 171.681L66.5412 174.781C66.5412 174.823 66.4988 174.823 66.4563 174.823Z" fill="white"/>
<path d="M46.1212 163.826C46.0363 163.826 45.9514 163.783 45.824 163.741L36.1847 157.668C35.9299 157.498 35.8875 157.201 36.0149 156.946C36.1847 156.692 36.482 156.649 36.7368 156.777L46.4185 162.849C46.6732 163.019 46.7157 163.316 46.5883 163.571C46.4609 163.741 46.2911 163.826 46.1212 163.826Z" fill="white"/>
<path d="M44.4613 170.194C44.4188 170.194 44.4188 170.194 44.3764 170.194L32.3167 168.708C32.0195 168.666 31.8496 168.411 31.8496 168.114C31.8496 167.816 32.1469 167.646 32.4441 167.646L44.5038 169.133C44.801 169.175 44.9709 169.43 44.9709 169.727C44.9709 170.024 44.7161 170.194 44.4613 170.194Z" fill="white"/>
<path d="M32.2728 179.282C32.018 179.282 31.8057 179.069 31.7632 178.815C31.7208 178.517 31.9331 178.263 32.2303 178.22L45.1393 176.734C45.4365 176.691 45.6913 176.904 45.7337 177.201C45.7762 177.498 45.5639 177.753 45.2666 177.796L32.3577 179.282C32.3153 179.282 32.3153 179.282 32.2728 179.282Z" fill="white"/>
<path d="M44.9292 183.655L69.4732 178.474C69.4732 178.474 68.7937 154.779 53.8466 157.37C37.4981 160.172 44.9292 183.655 44.9292 183.655Z" fill="#28313A"/>
<defs>
<linearGradient id="paint0_linear_26259_72382" x1="120.133" y1="219.922" x2="171.125" y2="219.222" gradientUnits="userSpaceOnUse">
<stop stop-color="#E66069"/>
<stop offset="1" stop-color="#FFA94E"/>
</linearGradient>
<linearGradient id="paint1_linear_26259_72382" x1="159.328" y1="158.308" x2="167.051" y2="157.207" gradientUnits="userSpaceOnUse">
<stop stop-color="#E66069"/>
<stop offset="1" stop-color="#FFA94E"/>
</linearGradient>
<linearGradient id="paint2_linear_26259_72382" x1="149.434" y1="188.795" x2="163.972" y2="188.557" gradientUnits="userSpaceOnUse">
<stop stop-color="#E66069"/>
<stop offset="1" stop-color="#FFA94E"/>
</linearGradient>
<linearGradient id="paint3_linear_26259_72382" x1="22.8477" y1="219.029" x2="104.692" y2="217.547" gradientUnits="userSpaceOnUse">
<stop stop-color="#E66069"/>
<stop offset="1" stop-color="#FFA94E"/>
</linearGradient>
<linearGradient id="paint4_linear_26259_72382" x1="90.875" y1="129.514" x2="94.988" y2="129.5" gradientUnits="userSpaceOnUse">
<stop stop-color="#E66069"/>
<stop offset="1" stop-color="#FFA94E"/>
</linearGradient>
<linearGradient id="paint5_linear_26259_72382" x1="71.8086" y1="114.993" x2="75.9214" y2="114.959" gradientUnits="userSpaceOnUse">
<stop stop-color="#E66069"/>
<stop offset="1" stop-color="#FFA94E"/>
</linearGradient>
<linearGradient id="paint6_linear_26259_72382" x1="42.168" y1="118.221" x2="48.4883" y2="118.153" gradientUnits="userSpaceOnUse">
<stop stop-color="#E66069"/>
<stop offset="1" stop-color="#FFA94E"/>
</linearGradient>
<linearGradient id="paint7_linear_26259_72382" x1="15.6309" y1="124.547" x2="21.9512" y2="124.476" gradientUnits="userSpaceOnUse">
<stop stop-color="#E66069"/>
<stop offset="1" stop-color="#FFA94E"/>
</linearGradient>
<linearGradient id="paint8_linear_26259_72382" x1="4.08008" y1="141.022" x2="91.6013" y2="136.893" gradientUnits="userSpaceOnUse">
<stop stop-color="#E66069"/>
<stop offset="1" stop-color="#FFA94E"/>
</linearGradient>
</defs>
</svg>
