<svg width="24" height="24" viewBox="0 0 24 24" fill="none" xmlns="http://www.w3.org/2000/svg">
<path d="M17.501 14.5L20.5278 13.2218C21.2646 12.8262 22.1291 12.9851 22.4858 13.6485C22.8414 14.3118 22.5294 15.1792 21.7922 15.5747L13.8798 19.816L13.4618 19.9211L6.08224 20.1203C6.08224 20.1203 5.13136 20.3862 3.98992 21.6798" stroke="#ABABB4" stroke-width="1.5" stroke-linecap="round" stroke-linejoin="round"/>
<path d="M1.36825 17.8006L4.71577 14.7195C6.35161 13.6165 8.29129 14.2251 8.29129 14.2251C9.23017 14.4723 10.975 14.5285 10.975 14.5285L13.8713 14.528C14.7339 14.528 15.4395 15.1443 15.4395 15.8974C15.4395 16.6506 14.7339 17.2664 13.8713 17.2664H9.86425" stroke="#ABABB4" stroke-width="1.5" stroke-linecap="round" stroke-linejoin="round"/>
<path fill-rule="evenodd" clip-rule="evenodd" d="M5.95033 10.6025C5.42692 10.5892 4.91229 10.5233 4.4136 10.3217C4.25341 10.2569 4.09148 10.2657 3.93564 10.3447C3.53693 10.5466 3.13962 10.7527 2.74092 10.9546C2.69404 10.9783 2.64195 10.9989 2.59195 10.9999C2.43849 11.0031 2.35626 10.8685 2.40134 10.6941C2.50906 10.2774 2.61513 9.86005 2.72871 9.44566C2.77827 9.2648 2.75104 9.11374 2.65296 8.96979C2.38617 8.5783 2.18721 8.14222 2.08605 7.64973C1.86925 6.59431 2.06715 5.64202 2.62283 4.80086C3.23818 3.86939 4.06703 3.35342 5.02388 3.12378C6.10883 2.86341 7.15751 3.00805 8.1483 3.61244C8.87692 4.05692 9.46242 4.69186 9.77625 5.61605C10.1983 6.85901 10.0165 8.00193 9.28816 9.00808C8.7164 9.79791 7.96423 10.2234 7.12634 10.4491C6.96436 10.4927 6.7997 10.5277 6.63468 10.5478C6.40734 10.5755 6.1785 10.5851 5.95033 10.6025Z" stroke="#ABABB4" stroke-width="1.5"/>
<path d="M18.8 7.80002L18 6.94288V5.40002" stroke="#ABABB4" stroke-width="1.5" stroke-linecap="round" stroke-linejoin="round"/>
<path d="M22 7C22 8.06087 21.5786 9.07828 20.8284 9.82843C20.0783 10.5786 19.0609 11 18 11C16.9391 11 15.9217 10.5786 15.1716 9.82843C14.4214 9.07828 14 8.06087 14 7C14 5.93913 14.4214 4.92172 15.1716 4.17157C15.9217 3.42143 16.9391 3 18 3C19.0609 3 20.0783 3.42143 20.8284 4.17157C21.5786 4.92172 22 5.93913 22 7Z" stroke="#ABABB4" stroke-width="1.5" stroke-linecap="round" stroke-linejoin="round"/>
</svg>
