<svg width="10" height="10" viewBox="0 0 10 10" fill="none" xmlns="http://www.w3.org/2000/svg">
<path d="M9.0545 7.49993L5.72117 1.6666C5.64849 1.53835 5.54309 1.43168 5.41572 1.35746C5.28836 1.28324 5.14358 1.24414 4.99617 1.24414C4.84876 1.24414 4.70398 1.28324 4.57662 1.35746C4.44925 1.43168 4.34385 1.53835 4.27117 1.6666L0.937837 7.49993C0.864371 7.62716 0.825849 7.77156 0.826174 7.91848C0.826499 8.0654 0.865661 8.20962 0.939689 8.33652C1.01372 8.46343 1.11998 8.56851 1.24771 8.64111C1.37544 8.71371 1.52009 8.75125 1.667 8.74993H8.33367C8.47988 8.74978 8.62347 8.71117 8.75004 8.63797C8.8766 8.56476 8.98168 8.45955 9.05472 8.33289C9.12776 8.20624 9.16619 8.06259 9.16615 7.91638C9.16611 7.77018 9.12761 7.62655 9.0545 7.49993Z" fill="#ED4F55"/>
<path d="M5 3.75V5.41667" stroke="white" stroke-linecap="round" stroke-linejoin="round"/>
<path d="M5 7.08325H5.00417" stroke="white" stroke-linecap="round" stroke-linejoin="round"/>
</svg>
