<svg width="227" height="86" viewBox="0 0 227 86" fill="none" xmlns="http://www.w3.org/2000/svg">
<path fill-rule="evenodd" clip-rule="evenodd" d="M105.408 21.368C105.982 22.0838 106.828 22.6173 107.91 23.2822C107.177 21.6709 107.947 20.2539 108.446 18.8374C108.535 18.582 108.729 17.6889 109.056 17.258C110.175 15.786 112.224 14.6955 112.439 16.4111C112.457 16.5565 112.331 16.8302 112.078 16.9402C111.958 16.9926 111.792 16.9048 111.665 16.8573C111.632 16.8455 111.612 16.7708 111.584 16.7778C111.557 16.7852 111.51 16.6988 111.565 16.6818C111.63 16.6621 111.81 16.8939 111.983 16.825C112.155 16.756 112.26 16.5753 112.28 16.4735C112.351 16.1108 111.931 15.7231 111.237 15.9222C110.494 16.24 109.598 16.8298 109.12 17.8875C109.018 18.1136 109.02 18.3218 109.056 18.5951C109.542 18.3402 110.268 18.3528 110.577 18.6868C110.718 18.8396 110.832 19.2455 110.651 19.59C110.564 19.7545 110.302 19.8026 110.118 19.8619C110.072 19.8772 109.982 19.8122 109.958 19.8449C109.935 19.8768 109.805 19.8222 109.851 19.755C109.904 19.6773 110.312 19.7746 110.441 19.5467C110.57 19.3189 110.526 19.0255 110.456 18.8954C110.209 18.4318 109.397 18.3716 108.807 19.2032C108.072 20.3177 107.751 21.9084 108.435 23.2538C108.56 23.4983 108.729 23.7279 108.936 23.9523C110.232 24.9676 111.012 26.5575 111.87 29.2234C112.695 29.9245 113.147 30.4444 113.531 31.3258C114.305 30.1816 114.533 30.1349 115.606 29.2234C116.465 26.5575 117.245 24.9676 118.54 23.9523C118.747 23.7279 118.917 23.4983 119.041 23.2538C119.726 21.9084 119.405 20.3177 118.67 19.2032C118.079 18.3716 117.267 18.4318 117.02 18.8954C116.951 19.0255 116.906 19.3189 117.036 19.5467C117.165 19.7746 117.572 19.6773 117.625 19.755C117.672 19.8222 117.542 19.8768 117.519 19.8449C117.494 19.8122 117.405 19.8772 117.359 19.8619C117.175 19.8026 116.913 19.7545 116.826 19.59C116.645 19.2455 116.759 18.8396 116.9 18.6868C117.209 18.3528 117.955 18.0713 118.794 18.7566C118.271 17.3894 116.965 16.2321 116.24 15.9222C115.546 15.7231 115.126 16.1108 115.196 16.4735C115.216 16.5753 115.322 16.756 115.494 16.825C115.667 16.8939 115.847 16.6621 115.911 16.6818C115.966 16.6988 115.919 16.7852 115.892 16.7778C115.865 16.7708 115.844 16.8455 115.812 16.8573C115.685 16.9048 115.519 16.9926 115.398 16.9402C115.145 16.8302 115.028 16.5574 115.037 16.4111C115.146 14.7842 117.294 15.7074 118.671 17.8761C119.661 19.4337 120.195 21.901 119.566 23.2822C120.806 22.5204 121.792 21.8783 122.309 21.0362C122.368 20.9393 122.423 20.8406 122.473 20.7411L122.47 20.7328L122.49 20.7066C123.219 19.2281 122.968 17.4706 122.252 16.1697C121.627 15.1229 120.653 15.1181 120.314 15.6481C120.219 15.7965 120.138 16.1422 120.27 16.4264C120.402 16.7106 120.898 16.632 120.954 16.7302C121.002 16.8149 120.843 16.8673 120.818 16.8276C120.792 16.7865 120.679 16.8551 120.625 16.8328C120.412 16.7451 120.104 16.6626 120.016 16.4583C119.833 16.0305 120.007 15.5568 120.191 15.3879C120.715 14.9042 122.041 15.1456 122.417 15.8283C123.134 16.7961 123.515 18.4633 123.337 19.8453C124.47 19.057 126.197 19.2521 127.372 19.6703C127.941 19.8733 128.423 20.7328 127.976 21.3003C127.868 21.4592 127.525 21.6478 127.174 21.56C127.007 21.5177 126.907 21.2951 126.814 21.1445C126.79 21.1061 126.83 21.0126 126.795 20.9982C126.761 20.9843 126.783 20.8572 126.853 20.8839C126.935 20.9148 126.934 21.2981 127.168 21.364C127.402 21.4304 127.659 21.3274 127.761 21.2383C128.128 20.9188 128.008 20.1832 127.129 19.8362C125.962 19.4206 124.454 19.4765 123.383 20.374C123.31 20.436 123.239 20.5028 123.172 20.5748C123.078 20.8529 122.95 21.1191 122.78 21.3667C122.549 21.7028 122.29 22.0049 122.015 22.2808C123.061 22.1529 124.236 22.537 124.857 23.1303C125.31 23.4227 125.408 24.3399 125.045 24.6717C124.918 24.7878 124.58 24.8816 124.294 24.7341C124.087 24.6276 124.106 24.1867 124.08 24.1679C124.053 24.1487 124.098 24.0426 124.154 24.0802C124.219 24.1238 124.139 24.4573 124.329 24.5625C124.519 24.6677 124.695 24.5555 124.802 24.4988C125.188 24.2958 125.304 23.706 124.611 23.225C123.715 22.6461 122.449 22.3847 121.358 22.8736C120.285 23.7545 119.117 24.3753 118.444 25.1457C117.762 25.9267 117.278 26.7932 116.922 28.1604C119.012 26.4802 120.586 25.6189 123.283 25.4273C123.905 25.35 126.65 25.5932 127.704 24.8982C128.526 24.3159 128.461 23.5223 127.999 23.2839C127.869 23.2176 127.577 23.1757 127.351 23.3036C127.126 23.431 127.225 23.8287 127.148 23.882C127.082 23.9269 127.026 23.8012 127.058 23.7776C127.09 23.7541 127.025 23.6672 127.04 23.6214C127.098 23.4415 127.144 23.1853 127.307 23.0993C127.648 22.9194 128.053 23.0277 128.205 23.1652C128.815 23.6401 128.5 24.6044 127.998 25.0087C127.211 25.6434 126.215 25.7962 124.953 25.8184C124.967 25.8237 124.981 25.8289 124.995 25.8346C125.388 25.9891 125.858 26.1563 126.291 26.3122C127.177 26.6317 128.376 26.8033 129.132 26.8312C130.039 26.8644 131.055 26.2829 131.167 25.3566C131.309 24.3801 130.771 23.1761 129.62 22.9556C129.455 22.9238 129.25 22.8902 128.964 23.0045C129.174 22.8535 129.459 22.7797 129.829 22.8504C131.017 23.1722 131.71 24.236 131.581 25.3003C131.43 26.5418 130.478 27.2381 129.289 27.2704C123.929 27.4153 123.119 23.9007 117.418 29.1483C119.463 28.4734 120.68 28.514 121.67 28.8921C122.213 29.1745 123.134 29.5639 123.793 29.7036C124.504 29.8551 125.136 29.5106 125.454 29.305C126.147 28.824 126.005 28.2085 125.665 27.9365C125.304 27.6475 124.552 27.7588 124.655 27.7296C125.115 27.5986 125.731 27.6143 126.005 27.9583C126.761 28.9078 125.83 29.4513 125.166 29.818C124.712 30.0685 124.139 30.11 123.598 30.0341C124.275 30.4994 125.046 31.0019 126.12 31.4104C127.02 31.7527 128.768 31.1477 129.485 30.6055C130.333 29.9646 130.706 28.9514 130.504 28.5057C130.262 27.9697 129.498 28.153 129.425 28.6529C129.411 28.752 129.146 28.2364 129.716 27.957C130.114 27.7628 130.651 28.1351 130.768 28.3041C131.225 28.9685 130.711 30.0812 129.737 30.853C128.96 31.4698 127.251 32.3355 126.036 32.1058C124.915 31.8937 123.93 30.9499 122.703 30.4282C120.739 29.2754 118.577 29.2156 116.466 30.5623C116.164 30.7556 115.96 30.8958 115.772 31.2031C115.382 31.8413 115.475 32.5101 115.135 33.1841C113.67 36.0818 116.146 36.9221 116.16 39.6837C116.175 42.5299 115.258 45.7331 115.201 49.0277C115.161 51.3435 115.88 54.2076 118.604 54.559C119.401 54.662 120.532 54.3359 120.988 54.0378C119.827 54.9231 117.619 54.7934 116.523 54.1491C115.53 53.5654 115.306 52.437 114.965 51.261C114.986 51.4478 114.982 51.9101 114.985 52.0716C114.997 53.0818 115.243 54.0683 115.905 54.645C116.527 55.1872 117.378 55.4596 118.361 55.3574C117.223 55.5892 116.043 55.0575 115.576 54.7886C114.347 54.0819 114.541 52.3632 114.528 51.2248L114.49 50.6302C114.492 50.9532 114.452 51.6534 114.382 52.1668C114.32 52.6269 114.204 53.2839 114.016 53.6785C113.583 54.5878 112.786 55.5779 110.616 56C111.641 55.6224 112.933 55.2478 113.671 53.0722C113.838 52.5819 113.886 51.7525 113.84 51.2248L113.774 50.384C113.761 51.1091 113.509 52.7321 113.002 53.6209C112.593 54.3368 112.018 54.8388 111.391 55.1902C109.752 56.0655 107.324 55.4177 107.364 55.4076C108.6 55.5652 109.607 55.5678 110.427 55.2714C112.324 54.5861 113.317 52.3868 113.124 50.4866C112.888 51.7595 112.649 52.3789 112.078 53.1826C111.894 53.4423 111.679 53.6768 111.439 53.8815C110.413 54.7541 108.919 55.0898 107.319 54.5717C106.725 54.3791 106.124 54.2285 105.707 53.6266C106.38 54.3704 107.917 54.7227 109.363 54.4114C110.723 54.119 111.536 53.338 111.922 52.4348C112.278 51.601 112.676 50.1155 112.605 49.2721C112.691 46.0121 110.364 41.3713 111.103 38.6517C111.314 37.8725 111.868 37.2233 112.099 36.4236C112.468 35.1467 112.103 34.0851 111.799 32.9209C111.764 32.6127 111.69 31.8435 111.587 31.5868C110.593 29.1007 106.949 29.1488 104.774 30.4282C103.546 30.9499 102.561 31.8937 101.44 32.1058C100.226 32.3355 98.5171 31.4698 97.7393 30.853C96.7659 30.0812 96.2513 28.9685 96.7091 28.3041C96.8258 28.1351 97.3629 27.7628 97.7604 27.957C98.3309 28.2364 98.0655 28.752 98.0514 28.6529C97.9787 28.153 97.215 27.9697 96.9728 28.5057C96.7708 28.9514 97.1441 29.9646 97.9915 30.6055C98.7086 31.1477 100.457 31.7527 101.357 31.4104C102.43 31.0019 103.202 30.4994 103.879 30.0341C103.338 30.11 102.765 30.0685 102.311 29.818C101.646 29.4513 100.716 28.9078 101.471 27.9583C101.745 27.6143 102.361 27.5986 102.822 27.7296C102.925 27.7588 102.172 27.6475 101.811 27.9365C101.472 28.2085 101.33 28.824 102.023 29.305C102.341 29.5106 102.973 29.8551 103.683 29.7036C104.343 29.5639 105.264 28.9322 105.807 28.8921C106.797 28.514 108.013 28.4734 110.059 29.1483C107.986 27.2402 105.39 25.9376 103.427 25.9559C101.557 25.9734 99.954 27.3179 98.187 27.2704C96.9984 27.2381 96.0462 26.5418 95.896 25.3003C95.7671 24.236 96.46 23.1722 97.6473 22.8504C98.0175 22.7797 98.3028 22.8535 98.5123 23.0045C98.2354 22.8941 98.0351 22.922 97.8722 22.9526C97.8555 22.9347 97.8396 22.9155 97.8242 22.8958C97.8308 22.9168 97.8379 22.9377 97.8449 22.9578C97.1432 23.098 96.6167 23.7087 96.3869 24.3172C96.2429 24.6983 96.2267 25.0567 96.3094 25.3566C96.4212 26.2829 97.5407 26.8412 98.448 26.8081C99.443 26.7718 100.523 26.1586 101.647 25.7514C100.922 25.6522 100.306 25.4431 99.782 25.0213C99.2801 24.6171 98.9654 23.6528 99.5751 23.1774C99.7283 23.0403 100.132 22.9316 100.474 23.1114C100.636 23.1974 100.683 23.4537 100.74 23.6335C100.755 23.6794 100.69 23.7662 100.722 23.7903C100.754 23.8134 100.699 23.9396 100.633 23.8942C100.555 23.8413 100.655 23.4436 100.429 23.3157C100.203 23.1878 99.9114 23.2297 99.782 23.2965C99.3193 23.5344 99.2542 24.3281 100.077 24.9108C100.703 25.3231 101.924 25.405 102.943 25.4196C103.006 25.412 103.069 25.406 103.132 25.4016C103.56 25.3715 103.995 25.3842 104.433 25.4331C104.456 25.435 104.478 25.4371 104.497 25.4395L104.496 25.4404C106.708 25.7053 108.973 26.8888 110.555 28.1604C110.198 26.7932 109.715 25.9267 109.033 25.1457C108.36 24.3753 107.192 23.7545 106.119 22.8736C105.027 22.3847 103.762 22.6461 102.865 23.225C102.172 23.706 102.289 24.2958 102.674 24.4988C103.396 24.879 103.245 24.1317 103.322 24.0802C103.379 24.0426 103.423 24.1487 103.397 24.1679C103.371 24.1867 103.39 24.6276 103.183 24.7341C102.896 24.8816 102.559 24.7878 102.432 24.6717C102.068 24.3399 102.166 23.4227 102.62 23.1303C103.24 22.537 104.415 22.1529 105.462 22.2808C105.187 22.0049 104.928 21.7028 104.697 21.3667C104.528 21.1191 104.399 20.8529 104.305 20.5748C104.237 20.5028 104.167 20.436 104.093 20.374C103.023 19.4765 101.514 19.4206 100.348 19.8362C99.4685 20.1832 99.3487 20.9188 99.7154 21.2383C99.818 21.3274 100.074 21.4304 100.308 21.364C100.542 21.2981 100.541 20.9148 100.623 20.8839C100.694 20.8572 100.716 20.9843 100.682 20.9982C100.647 21.0126 100.687 21.1061 100.663 21.1445C100.57 21.2951 100.47 21.5177 100.302 21.56C99.9518 21.6478 99.6089 21.4592 99.5006 21.3003C99.1916 20.8467 99.5354 19.8733 100.105 19.6703C101.28 19.2521 103.007 19.057 104.139 19.8453C103.987 18.6567 105.185 13.4479 107.286 15.3879C107.322 15.4202 107.357 15.4647 107.389 15.5175H107.381C107.385 15.5188 107.388 15.5202 107.391 15.521C107.525 15.7424 107.608 16.1152 107.46 16.4583C107.373 16.6626 107.065 16.7451 106.851 16.8328C106.797 16.8551 106.685 16.7865 106.659 16.8276C106.634 16.8673 106.474 16.8149 106.523 16.7302C106.579 16.632 107.075 16.7106 107.206 16.4264C107.339 16.1422 107.257 15.7965 107.162 15.6481C106.824 15.1181 105.85 15.1229 105.225 16.1697C104.508 17.4706 104.258 19.2281 104.987 20.7066L105.006 20.7328L105.003 20.7411C105.118 20.9672 105.253 21.1739 105.408 21.3672C105.095 20.8181 104.965 20.4493 105.177 19.828C105.516 18.8323 106.691 18.4992 107.377 17.7946C107.151 19.3317 108.179 21.1442 105.793 21.5506C105.935 20.8818 106.235 20.1742 106.519 19.4928C106.163 20.1357 105.816 20.8223 105.408 21.368ZM113.716 25.0932C114.603 25.0932 115.321 26.0282 115.321 27.1816C115.321 28.3349 114.603 29.2699 113.716 29.2699C112.829 29.2699 112.11 28.3349 112.11 27.1816C112.11 26.0282 112.829 25.0932 113.716 25.0932ZM113.956 13.602C114.367 14.3118 114.798 15.0487 115.051 15.7646C112.366 15.6546 113.237 13.5138 112.767 11.8541C113.623 12.5325 114.964 12.7329 115.482 13.7814C115.805 14.4354 115.714 14.8597 115.449 15.5097C114.922 14.9662 114.441 14.2599 113.956 13.602ZM120.994 12.2486C120.923 13.1191 120.854 14.0258 120.642 14.8072C118.345 13.1042 120.414 11.7405 121.011 9.99874C121.352 11.108 122.41 12.0871 122.228 13.3195C122.114 14.0882 121.776 14.4077 121.147 14.8207C121.013 14.0271 121.02 13.1173 120.994 12.2486ZM130.666 19.1432C129.885 19.4522 129.073 19.7788 128.308 19.9298C128.804 17.2582 130.858 18.4356 132.615 18.2029C131.803 18.9629 131.407 20.2769 130.265 20.6449C129.553 20.8745 129.134 20.7234 128.511 20.3642C129.139 19.9145 129.927 19.5343 130.666 19.1432ZM134.563 24.666C133.739 24.4997 132.879 24.3316 132.156 24.0418C134.048 22.0769 135.115 24.1793 136.713 24.9397C135.613 25.1331 134.556 26.0167 133.397 25.7037C132.675 25.509 132.408 25.1545 132.086 24.5154C132.859 24.4809 133.729 24.5914 134.563 24.666ZM115.65 10.0815C115.648 10.897 115.651 11.7452 115.51 12.4882C113.248 11.0686 115.073 9.65069 115.501 7.98662C115.899 8.99414 116.956 9.82923 116.877 10.9895C116.827 11.7129 116.536 12.0346 115.981 12.4642C115.799 11.7356 115.738 10.8883 115.65 10.0815ZM127.101 16.7841C127.098 17.6676 127.101 18.5878 126.949 19.3928C124.497 17.854 126.476 16.317 126.939 14.5128C127.371 15.6054 128.517 16.5103 128.431 17.768C128.377 18.5525 128.061 18.9012 127.459 19.367C127.262 18.5769 127.196 17.6584 127.101 16.7841ZM124.127 10.4138C123.832 11.0996 123.529 11.8155 123.143 12.3913C121.749 10.395 123.797 9.84673 124.756 8.59606C124.729 9.58612 125.318 10.6635 124.834 11.6125C124.531 12.2045 124.171 12.3725 123.548 12.538C123.657 11.8592 123.911 11.1245 124.127 10.4138ZM130.534 15.5326C130.163 16.1591 129.78 16.8134 129.335 17.3229C128.237 15.2218 130.285 14.9438 131.369 13.8533C131.219 14.8067 131.654 15.9203 131.067 16.7781C130.701 17.3128 130.331 17.4311 129.709 17.5141C129.899 16.8719 130.236 16.1927 130.534 15.5326ZM133.46 28.6859C132.735 29.1085 131.983 29.5529 131.249 29.8165C131.332 27.1013 133.543 27.9578 135.244 27.4645C134.556 28.3376 134.365 29.6956 133.293 30.2304C132.624 30.5639 132.186 30.4774 131.515 30.216C132.068 29.6768 132.789 29.1831 133.46 28.6859ZM123.731 34.8746C124.222 34.1967 124.728 33.4882 125.291 32.9525C126.324 35.4687 123.953 35.5739 122.599 36.7081C122.871 35.6333 122.491 34.315 123.253 33.3952C123.729 32.8216 124.164 32.7251 124.884 32.695C124.599 33.4096 124.141 34.1508 123.731 34.8746ZM131.778 32.9358C131.408 32.1863 131.019 31.4084 130.81 30.6632C133.534 30.9527 132.504 33.0733 132.869 34.7928C132.044 34.0459 130.693 33.753 130.237 32.6521C129.953 31.9654 130.074 31.5394 130.388 30.8963C130.887 31.4839 131.329 32.2348 131.778 32.9358ZM127.656 34.6567C127.311 33.8959 126.946 33.1062 126.761 32.3549C129.474 32.7294 128.378 34.8165 128.689 36.5469C127.888 35.7747 126.547 35.4399 126.126 34.3254C125.864 33.63 125.998 33.2083 126.332 32.5749C126.813 33.1778 127.23 33.9417 127.656 34.6567ZM135.522 31.5963C134.802 31.4606 134.052 31.3239 133.418 31.0799C135.043 29.3473 135.997 31.1659 137.397 31.8102C136.442 31.9914 135.53 32.7728 134.518 32.513C133.887 32.3515 133.651 32.046 133.362 31.4929C134.036 31.454 134.794 31.5404 135.522 31.5963ZM132.853 21.4831C132.19 21.9908 131.516 22.5474 130.845 22.9311C130.771 22.22 130.804 21.7791 131.307 21.2295C132.114 20.3481 133.485 20.5297 134.517 20.1063C133.582 21.5992 133.821 23.9408 131.161 23.2926C131.614 22.6626 132.247 22.0628 132.853 21.4831ZM135.946 21.9225C135.372 22.1478 134.776 22.3857 134.215 22.4948C134.584 20.5361 136.089 21.4039 137.378 21.2367C136.78 21.7925 136.487 22.7555 135.649 23.023C135.126 23.1902 134.819 23.0781 134.362 22.8135C134.825 22.4848 135.403 22.2076 135.946 21.9225ZM124.923 14.3556C124.167 14.8044 123.383 15.2758 122.618 15.5583C122.681 12.7151 125.003 13.5925 126.779 13.0617C126.067 13.9815 125.878 15.405 124.761 15.9738C124.063 16.3287 123.605 16.2414 122.9 15.9738C123.474 15.405 124.225 14.8816 124.923 14.3556ZM118.091 13.27C117.598 13.9401 117.108 14.6604 116.571 15.2134C116.3 14.5517 116.208 14.1191 116.537 13.4529C117.064 12.3847 118.431 12.1804 119.303 11.4894C118.824 13.1801 119.711 15.3614 116.976 15.4732C117.234 14.7437 117.673 13.9933 118.091 13.27ZM128.389 29.3234C127.669 29.1881 126.919 29.051 126.285 28.807C127.91 27.0744 128.864 28.893 130.265 29.5373C129.309 29.7185 128.398 30.4999 127.386 30.2406C126.754 30.0786 126.518 29.7731 126.23 29.22C126.903 29.1811 127.662 29.2675 128.389 29.3234ZM122.341 24.4909C121.637 24.288 120.903 24.081 120.296 23.7785C122.08 22.207 122.855 24.1077 124.187 24.8808C123.218 24.9707 122.237 25.663 121.254 25.309C120.641 25.0886 120.435 24.762 120.201 24.1845C120.876 24.2094 121.622 24.367 122.341 24.4909ZM114.42 18.2974C115.123 18.5375 115.856 18.7828 116.456 19.1198C114.57 20.6241 113.879 18.661 112.568 17.8115C113.554 17.7683 114.584 17.1153 115.562 17.5217C116.172 17.7753 116.364 18.1162 116.573 18.713C115.891 18.6545 115.142 18.458 114.42 18.2974ZM120.956 19.4928C121.24 20.1742 121.54 20.8818 121.682 21.5506C119.297 21.1442 120.324 19.3317 120.098 17.7946C120.784 18.4992 121.959 18.8323 122.299 19.828C122.511 20.4496 122.38 20.8185 122.067 21.3681C121.659 20.8224 121.312 20.1358 120.956 19.4928ZM125.53 21.5311C124.804 21.3906 124.039 21.2718 123.39 21.0531C123.823 20.59 124.138 20.3547 124.799 20.3656C125.86 20.3831 126.538 21.3915 127.422 21.8245C125.878 22.0794 124.45 23.6016 123.333 21.4722C124.019 21.4032 124.789 21.4705 125.53 21.5311ZM113.526 7.39686C113.547 8.05995 113.595 8.75317 113.531 9.36388C113.031 9.07839 112.759 8.85052 112.636 8.26993C112.439 7.33924 113.2 6.54431 113.407 5.68302C113.944 6.98259 115.584 7.92638 113.914 9.33027C113.716 8.74444 113.621 8.0569 113.526 7.39686ZM106.481 12.2486C106.455 13.1173 106.462 14.0271 106.328 14.8207C105.699 14.4077 105.362 14.0882 105.248 13.3195C105.065 12.0871 106.124 11.108 106.465 9.99874C107.061 11.7405 109.13 13.1042 106.834 14.8072C106.621 14.0258 106.552 13.1191 106.481 12.2486ZM96.8091 19.1432C97.5478 19.5343 98.3362 19.9145 98.9644 20.3642C98.3411 20.7234 97.922 20.8745 97.2101 20.6449C96.0686 20.2769 95.6729 18.9629 94.8598 18.2029C96.6163 18.4356 98.6712 17.2582 99.1673 19.9298C98.4022 19.7788 97.5905 19.4522 96.8091 19.1432ZM92.912 24.666C93.7458 24.5914 94.6153 24.4809 95.3896 24.5154C95.0669 25.1545 94.7997 25.509 94.0777 25.7037C92.9195 26.0167 91.8617 25.1331 90.762 24.9397C92.3596 24.1793 93.4275 22.0769 95.3192 24.0418C94.5959 24.3316 93.7366 24.4997 92.912 24.666ZM111.111 9.42373C111.023 10.2304 110.963 11.0773 110.781 11.8063C110.225 11.3768 109.934 11.0551 109.885 10.3313C109.805 9.17142 110.862 8.33632 111.26 7.3288C111.688 8.99287 113.513 10.4107 111.252 11.8303C111.111 11.0874 111.114 10.2392 111.111 9.42373ZM100.374 16.7841C100.279 17.6584 100.214 18.5769 100.016 19.367C99.4137 18.9012 99.0985 18.5525 99.0443 17.768C98.958 16.5103 100.104 15.6054 100.536 14.5128C100.999 16.317 102.978 17.854 100.527 19.3928C100.374 18.5878 100.376 17.6676 100.374 16.7841ZM103.348 10.4138C103.564 11.1245 103.818 11.8592 103.927 12.538C103.304 12.3725 102.944 12.2045 102.641 11.6125C102.157 10.6635 102.746 9.58612 102.72 8.59606C103.678 9.84673 105.726 10.395 104.332 12.3913C103.946 11.8155 103.643 11.0996 103.348 10.4138ZM96.9411 15.5326C97.2387 16.1927 97.5763 16.8719 97.7665 17.5141C97.144 17.4311 96.7743 17.3128 96.4084 16.7781C95.8212 15.9203 96.2565 14.8067 96.1064 13.8533C97.1898 14.9438 99.2377 15.2218 98.1398 17.3229C97.6948 16.8134 97.3122 16.1591 96.9411 15.5326ZM94.0148 28.6859C94.6857 29.1831 95.4068 29.6768 95.9593 30.216C95.2888 30.4774 94.8512 30.5639 94.1825 30.2304C93.1101 29.6956 92.9186 28.3376 92.231 27.4645C93.932 27.9578 96.1428 27.1013 96.226 29.8165C95.4926 29.5529 94.7403 29.1085 94.0148 28.6859ZM103.744 34.8746C103.334 34.1508 102.876 33.4096 102.591 32.695C103.311 32.7251 103.746 32.8216 104.222 33.3952C104.984 34.315 104.604 35.6333 104.877 36.7081C103.522 35.5739 101.151 35.4687 102.184 32.9525C102.747 33.4882 103.253 34.1967 103.744 34.8746ZM95.6976 32.9358C96.1461 32.2348 96.5877 31.4839 97.0873 30.8963C97.4012 31.5394 97.5218 31.9654 97.2379 32.6521C96.7818 33.753 95.4308 34.0459 94.6058 34.7928C94.9716 33.0733 93.9415 30.9527 96.6656 30.6632C96.4565 31.4084 96.0669 32.1863 95.6976 32.9358ZM99.8187 34.6567C100.245 33.9417 100.663 33.1778 101.143 32.5749C101.477 33.2083 101.612 33.63 101.349 34.3254C100.929 35.4399 99.5871 35.7747 98.7859 36.5469C99.0976 34.8165 98.001 32.7294 100.715 32.3549C100.529 33.1062 100.164 33.8959 99.8187 34.6567ZM91.9534 31.5963C92.6807 31.5404 93.4392 31.454 94.1132 31.4929C93.8244 32.046 93.588 32.3515 92.9567 32.513C91.9446 32.7728 91.0338 31.9914 90.0777 31.8102C91.478 31.1659 92.432 29.3473 94.0568 31.0799C93.4238 31.3239 92.6737 31.4606 91.9534 31.5963ZM94.6227 21.4831C95.2275 22.0628 95.861 22.6626 96.314 23.2926C93.6537 23.9408 93.8928 21.5992 92.9577 20.1063C93.9905 20.5297 95.3614 20.3481 96.1683 21.2295C96.6715 21.7791 96.7045 22.22 96.6301 22.9311C95.9587 22.5474 95.2852 21.9908 94.6227 21.4831ZM91.5289 21.9225C92.0717 22.2076 92.6506 22.4848 93.1124 22.8135C92.6559 23.0781 92.349 23.1902 91.826 23.023C90.9883 22.7555 90.6951 21.7925 90.0968 21.2367C91.3863 21.4039 92.8909 20.5361 93.2603 22.4948C92.699 22.3857 92.1029 22.1478 91.5289 21.9225ZM102.462 14.2828C103.187 14.8294 103.967 15.3733 104.564 15.9644C103.832 16.2429 103.355 16.3332 102.63 15.9644C101.469 15.3733 101.273 13.8939 100.533 12.9383C102.379 13.4901 104.791 12.5782 104.857 15.5326C104.062 15.2393 103.247 14.7491 102.462 14.2828ZM109.296 13.1604C109.735 13.9199 110.196 14.7075 110.467 15.4736C107.596 15.3557 108.526 13.0661 108.024 11.2907C108.94 12.0162 110.374 12.231 110.928 13.3525C111.273 14.0518 111.176 14.5058 110.892 15.2007C110.328 14.6197 109.814 13.8636 109.296 13.1604ZM99.0862 29.3234C99.8134 29.2675 100.572 29.1811 101.246 29.22C100.957 29.7731 100.721 30.0786 100.089 30.2406C99.0774 30.4999 98.1665 29.7185 97.2104 29.5373C98.6107 28.893 99.5647 27.0744 101.19 28.807C100.557 29.051 99.8064 29.1881 99.0862 29.3234ZM105.134 24.4909C105.853 24.367 106.599 24.2094 107.274 24.1845C107.04 24.762 106.834 25.0886 106.221 25.309C105.238 25.663 104.257 24.9707 103.288 24.8808C104.62 24.1077 105.395 22.207 107.179 23.7785C106.572 24.081 105.838 24.288 105.134 24.4909ZM112.941 20.1976C112.274 19.8811 111.563 19.5755 110.991 19.2027C111.527 18.8618 111.891 18.7121 112.529 18.8875C113.55 19.1682 113.951 20.3133 114.699 20.9528C113.139 20.8148 111.371 21.9332 110.829 19.5939C111.51 19.6977 112.239 19.9549 112.941 20.1976ZM101.945 21.5311C102.686 21.4705 103.457 21.4032 104.142 21.4722C103.026 23.6016 101.597 22.0794 100.052 21.8245C100.938 21.3915 101.616 20.3831 102.676 20.3656C103.337 20.3547 103.652 20.59 104.085 21.0531C103.436 21.2718 102.671 21.3906 101.945 21.5311ZM118.343 8.85117C118.362 9.46014 118.406 10.0966 118.347 10.6576C117.889 10.3952 117.638 10.1861 117.526 9.65309C117.345 8.79835 118.043 8.06803 118.233 7.27747C118.726 8.47095 120.233 9.33747 118.7 10.6266C118.517 10.0887 118.43 9.45708 118.343 8.85117ZM108.28 8.60121C108.3 9.21018 108.344 9.84665 108.285 10.4076C107.827 10.1452 107.577 9.93614 107.463 9.40313C107.282 8.54839 107.981 7.81851 108.171 7.02751C108.664 8.22099 110.171 9.08751 108.637 10.3766C108.455 9.83879 108.368 9.20712 108.28 8.60121ZM121.957 7.84391C121.977 8.45288 122.021 9.08935 121.962 9.65029C121.503 9.38794 121.253 9.17884 121.14 8.64583C120.959 7.79109 121.657 7.06077 121.848 6.27021C122.341 7.46369 123.847 8.32978 122.314 9.6193C122.131 9.08149 122.044 8.44982 121.957 7.84391ZM105.497 8.32083C105.516 8.92979 105.56 9.56626 105.501 10.1272C105.043 9.86485 104.793 9.65575 104.68 9.12274C104.499 8.26801 105.198 7.53768 105.388 6.74712C105.88 7.94061 107.387 8.80713 105.854 10.0962C105.671 9.5584 105.584 8.92674 105.497 8.32083ZM128.269 13.3074C128.021 13.8648 127.784 14.4576 127.487 14.9387C127.188 14.5061 127.053 14.2101 127.183 13.6806C127.392 12.8324 128.34 12.4727 128.856 11.841C128.781 13.1288 129.763 14.555 127.818 15.0618C127.888 14.4982 128.084 13.8914 128.269 13.3074ZM126.872 10.8254C126.499 11.3095 126.128 11.8303 125.725 12.2284C125.537 11.7382 125.476 11.419 125.728 10.9354C126.132 10.1592 127.139 10.0309 127.79 9.53714C127.412 10.7708 128.028 12.386 126.018 12.4253C126.219 11.894 126.554 11.3501 126.872 10.8254ZM98.9248 12.9958C99.2242 13.4882 99.5385 13.9994 99.7269 14.4988C97.8392 14.4617 98.4181 12.9447 98.0629 11.7857C98.6743 12.2493 99.6199 12.3703 99.9994 13.0988C100.236 13.5537 100.179 13.8532 100.002 14.3137C99.6239 13.94 99.2753 13.4507 98.9248 12.9958ZM100.884 10.345C101.184 10.8378 101.498 11.3486 101.687 11.848C99.7989 11.8109 100.378 10.2939 100.023 9.13492C100.634 9.59852 101.58 9.71944 101.959 10.448C102.196 10.9029 102.139 11.2023 101.962 11.6629C101.584 11.2892 101.235 10.7999 100.884 10.345ZM86.3229 28.8575C86.3229 39.5753 92.6775 48.8242 101.853 53.1009C92.1088 48.7557 85.3223 39.045 85.3223 27.7653C85.3223 12.4334 97.8607 0 113.322 0C128.783 0 141.322 12.4334 141.322 27.7653C141.322 39.045 134.535 48.7557 124.791 53.1009C133.967 48.8242 140.322 39.5753 140.322 28.8575C140.322 14.0739 128.231 2.08445 113.322 2.08445C98.4136 2.08445 86.3229 14.0739 86.3229 28.8575Z" fill="#BE53C8"/>
<path fill-rule="evenodd" clip-rule="evenodd" d="M110.034 78.611C110.034 79.3676 110.034 80.0757 110.03 80.7425C110.026 81.4052 110.014 81.9986 109.998 82.5261C109.981 83.0541 109.952 83.4919 109.912 83.8393C109.883 84.077 109.842 84.2933 109.793 84.4857C109.744 84.6739 109.674 84.8336 109.58 84.9525C109.489 85.0749 109.363 85.1566 109.199 85.1897C109.088 85.2142 108.961 85.2387 108.813 85.2591C108.666 85.2754 108.498 85.2877 108.314 85.2877C108.171 85.2877 108.068 85.304 108.007 85.3407C107.949 85.3734 107.921 85.4229 107.921 85.4841C107.921 85.5698 107.961 85.6315 108.048 85.6724C108.129 85.7091 108.253 85.7295 108.412 85.7295C108.662 85.7295 108.937 85.7254 109.231 85.7173C109.527 85.7091 109.821 85.7009 110.116 85.6928C110.411 85.6846 110.682 85.6764 110.927 85.6683C111.169 85.6601 111.366 85.656 111.509 85.656C111.726 85.656 112.029 85.6642 112.422 85.6764C112.812 85.6887 113.254 85.6968 113.754 85.7091C114.25 85.7213 114.774 85.7295 115.318 85.7295C115.458 85.7295 115.568 85.7091 115.654 85.6724C115.741 85.6315 115.782 85.5698 115.786 85.4841C115.786 85.4229 115.753 85.3734 115.691 85.3407C115.626 85.304 115.527 85.2877 115.392 85.2877C115.269 85.2877 115.13 85.2836 114.979 85.2754C114.831 85.2632 114.684 85.251 114.536 85.2387C114.389 85.2224 114.258 85.2061 114.139 85.1897C113.897 85.1566 113.709 85.0749 113.577 84.9566C113.447 84.8336 113.356 84.678 113.299 84.4898C113.242 84.3061 113.201 84.0928 113.18 83.8643C113.139 83.5082 113.11 83.0664 113.094 82.5342C113.078 82.0026 113.065 81.4052 113.061 80.7425C113.057 80.0757 113.057 79.3676 113.057 78.611V68.7921C113.057 68.6569 113.074 68.5507 113.11 68.4768C113.143 68.3992 113.193 68.3502 113.254 68.3258C113.369 68.289 113.508 68.2645 113.68 68.2482C113.848 68.2319 114.024 68.2278 114.213 68.2278C114.405 68.2237 114.634 68.2482 114.905 68.2931C115.175 68.3421 115.462 68.4365 115.765 68.5752C116.072 68.7145 116.371 68.9191 116.67 69.1849C117.01 69.4956 117.281 69.819 117.477 70.1629C117.674 70.5063 117.821 70.846 117.912 71.1812C118.006 71.5169 118.063 71.8317 118.087 72.122C118.112 72.4128 118.125 72.6623 118.12 72.8669C118.116 73.4928 118.006 74.0576 117.801 74.5566C117.592 75.0555 117.322 75.481 116.99 75.829C116.658 76.1805 116.302 76.4509 115.92 76.6345C115.544 76.8233 115.179 76.9172 114.827 76.9172C114.573 76.9172 114.393 76.9376 114.29 76.9784C114.184 77.0192 114.135 77.0891 114.139 77.1871C114.143 77.2692 114.175 77.3263 114.241 77.3508C114.303 77.3794 114.368 77.3998 114.433 77.408C114.503 77.4207 114.589 77.4284 114.692 77.4284C114.798 77.4325 114.884 77.4325 114.95 77.4325C115.826 77.4284 116.634 77.2814 117.367 76.9947C118.1 76.7044 118.739 76.2993 119.284 75.7677C119.825 75.2397 120.242 74.6137 120.541 73.8898C120.84 73.1658 120.992 72.3679 120.996 71.4924C120.992 71.0547 120.926 70.6496 120.799 70.269C120.673 69.8925 120.513 69.5573 120.328 69.2665C120.14 68.9762 119.951 68.7431 119.767 68.5711C119.673 68.4732 119.521 68.3502 119.32 68.1946C119.116 68.0431 118.837 67.888 118.485 67.7324C118.137 67.5768 117.69 67.4462 117.149 67.3396C116.613 67.2335 115.962 67.1763 115.196 67.1722C114.815 67.1722 114.413 67.1804 113.995 67.1921C113.573 67.2008 113.16 67.2131 112.754 67.2253C112.345 67.2375 111.972 67.2457 111.632 67.2457C111.394 67.2457 111.083 67.2375 110.698 67.2253C110.313 67.2131 109.891 67.2008 109.436 67.1921C108.982 67.1804 108.535 67.1722 108.093 67.1722C107.908 67.1682 107.773 67.1845 107.683 67.2171C107.597 67.2498 107.552 67.3069 107.552 67.3926C107.552 67.4748 107.589 67.536 107.659 67.5686C107.732 67.5972 107.835 67.6141 107.97 67.6141C108.15 67.6141 108.326 67.6181 108.506 67.6304C108.683 67.6426 108.826 67.663 108.928 67.6875C109.195 67.7406 109.403 67.8263 109.551 67.9411C109.698 68.0518 109.805 68.2028 109.87 68.3911C109.932 68.5752 109.973 68.8084 109.985 69.0869C109.993 69.238 110.002 69.4017 110.01 69.5696C110.014 69.7415 110.022 69.9456 110.026 70.1833C110.026 70.4205 110.03 70.719 110.03 71.071C110.034 71.4266 110.034 71.8689 110.034 72.3924V74.2908V78.611ZM92.6089 85.9994C93.0839 85.9994 93.5631 85.9836 94.055 85.9545C94.5423 85.9259 95.0051 85.8769 95.4311 85.807C95.8612 85.7377 96.2254 85.6479 96.5166 85.5331C96.6969 85.4678 96.8236 85.3897 96.9017 85.3081C96.9794 85.2265 97.0407 85.0953 97.0816 84.9193C97.127 84.7719 97.172 84.5964 97.2169 84.3796C97.2619 84.1668 97.3033 83.9418 97.3441 83.7046C97.3809 83.4709 97.4177 83.2419 97.4463 83.0215C97.479 82.8046 97.5035 82.6164 97.5198 82.4608C97.5408 82.3052 97.549 82.1991 97.549 82.1455C97.549 82.0557 97.5239 81.9736 97.4836 81.896C97.4381 81.8225 97.3768 81.7817 97.3033 81.7771C97.2215 81.7736 97.1597 81.8062 97.1229 81.8674C97.0862 81.9292 97.0575 82.0394 97.0325 82.195C97.008 82.3297 96.959 82.4771 96.8895 82.6409C96.8236 82.8046 96.7378 82.9679 96.6351 83.1317C96.5329 83.2995 96.418 83.451 96.2954 83.5939C96.0129 83.9092 95.6973 84.1464 95.3453 84.3061C94.9928 84.4653 94.5832 84.5719 94.1163 84.625C93.6494 84.678 93.0962 84.7025 92.4612 84.6984C91.8753 84.6984 91.269 84.6046 90.6468 84.4122C90.0241 84.224 89.4219 83.9377 88.836 83.5531C88.2547 83.1684 87.7301 82.6817 87.2632 82.1006C86.7963 81.5154 86.4234 80.8323 86.1491 80.0471C85.8743 79.2614 85.7353 78.3737 85.7271 77.3835C85.7231 76.7003 85.7762 76.0335 85.8865 75.3749C86.0014 74.7203 86.2022 74.1025 86.4929 73.5214C86.7799 72.9403 87.1891 72.421 87.7178 71.9587C88.0411 71.6807 88.4018 71.4552 88.791 71.2838C89.1843 71.1078 89.6267 70.9807 90.1181 70.8991C90.6095 70.8175 91.1709 70.7807 91.7977 70.7807C92.7973 70.7848 93.6494 70.9032 94.3579 71.1282C95.0664 71.3491 95.6032 71.6434 95.9756 72.0077C96.2464 72.2817 96.4512 72.5888 96.5861 72.9322C96.7255 73.2719 96.7991 73.6117 96.8118 73.9469C96.8118 74.0821 96.8277 74.1923 96.8568 74.2704C96.8895 74.3479 96.9508 74.3887 97.0325 74.3887C97.1311 74.3846 97.2006 74.3357 97.2455 74.2413C97.291 74.1474 97.3155 74.0245 97.3278 73.8734C97.3359 73.7668 97.34 73.6194 97.3441 73.4398C97.3482 73.2597 97.3523 73.0633 97.3564 72.8465C97.3605 72.6296 97.3646 72.4128 97.3727 72.2001C97.3809 71.9832 97.3891 71.7909 97.4013 71.6149C97.4177 71.3695 97.434 71.1771 97.4504 71.0261C97.4632 70.8787 97.4749 70.7598 97.4877 70.6741C97.4958 70.5843 97.4999 70.5144 97.4999 70.4614C97.5035 70.4001 97.479 70.3466 97.434 70.3017C97.385 70.2568 97.3033 70.2282 97.1802 70.216C96.8609 70.1752 96.5248 70.1257 96.1646 70.0604C95.804 69.9991 95.4229 69.9338 95.0173 69.8721C94.6935 69.8313 94.3783 69.7946 94.0667 69.7619C93.7556 69.7252 93.4241 69.7002 93.0717 69.6798C92.7192 69.6594 92.3182 69.6512 91.8712 69.6512C90.8021 69.6512 89.8479 69.7415 89.0122 69.917C88.1765 70.093 87.4312 70.3466 86.7753 70.6782C86.12 71.0052 85.5346 71.3981 85.0146 71.8603C84.5022 72.323 84.0803 72.8138 83.7488 73.3291C83.4167 73.8449 83.1588 74.3602 82.9744 74.8754C82.79 75.3912 82.6628 75.882 82.5892 76.3442C82.5156 76.807 82.4784 77.2197 82.483 77.5799C82.4784 78.2549 82.5524 78.9543 82.7077 79.6747C82.8635 80.3946 83.1424 81.0986 83.5352 81.794C83.9286 82.4894 84.4818 83.1398 85.1862 83.7413C85.8416 84.2852 86.5583 84.7275 87.3286 85.0586C88.103 85.3897 88.9305 85.6315 89.8111 85.7785C90.6918 85.93 91.6255 86.0035 92.6089 85.9994ZM70.6857 79.3227H74.8636C74.9127 79.3227 74.9459 79.3104 74.9576 79.29C74.974 79.2655 74.974 79.237 74.9617 79.2002L72.922 73.8979C72.9098 73.8571 72.8975 73.8163 72.8811 73.7709C72.8689 73.7301 72.8485 73.7056 72.8234 73.7015C72.7867 73.7056 72.7621 73.7301 72.7458 73.7709C72.7253 73.8163 72.7131 73.8571 72.7008 73.8979L70.6116 79.1757C70.5871 79.2247 70.5871 79.2614 70.6034 79.2859C70.6198 79.3104 70.6484 79.3227 70.6857 79.3227ZM75.3305 80.4762H70.2428C70.1856 80.4762 70.1406 80.4849 70.1161 80.5053C70.0916 80.5257 70.0671 80.5624 70.0461 80.6241L68.8912 83.422C68.7808 83.6837 68.6986 83.9337 68.6496 84.1627C68.5964 84.3918 68.5719 84.5719 68.5719 84.6984C68.5678 84.8826 68.625 85.03 68.7517 85.1321C68.8789 85.2346 69.1042 85.2877 69.4321 85.2877H69.7514C69.8827 85.2877 69.9685 85.3122 70.0139 85.353C70.0543 85.3943 70.0752 85.4474 70.0712 85.5086C70.0712 85.5943 70.0425 85.652 69.9807 85.6846C69.9235 85.7173 69.8377 85.7295 69.7269 85.7295C69.4853 85.7295 69.2232 85.7213 68.9402 85.7091C68.6536 85.6968 68.3712 85.6887 68.0923 85.6764C67.8098 85.6642 67.5518 85.656 67.3184 85.656C67.2407 85.656 67.0727 85.6642 66.8224 85.6764C66.5685 85.6887 66.2697 85.6968 65.9131 85.7091C65.5607 85.7213 65.1924 85.7295 64.8113 85.7295C64.6759 85.7295 64.5778 85.7173 64.5125 85.6846C64.4506 85.652 64.418 85.5943 64.418 85.5086C64.418 85.4474 64.4389 85.3943 64.4752 85.353C64.5165 85.3122 64.5778 85.2877 64.6637 85.2877C64.7663 85.2877 64.8726 85.2836 64.9834 85.2754C65.0979 85.2673 65.2046 85.2632 65.3027 85.2632C65.6265 85.2142 65.8927 85.1117 66.1057 84.9566C66.3187 84.801 66.5031 84.5923 66.6548 84.3347C66.806 84.0806 66.9537 83.774 67.0972 83.422L72.7499 70.2894C72.8689 69.9951 72.9792 69.7818 73.0778 69.6512C73.1759 69.516 73.2827 69.4507 73.3889 69.4548C73.4957 69.4548 73.5815 69.4752 73.6469 69.5247C73.7169 69.5696 73.7781 69.639 73.8354 69.7369C73.8926 69.8354 73.9585 69.9624 74.0279 70.1175C74.1056 70.2894 74.2369 70.5925 74.4253 71.0261C74.6097 71.4639 74.8391 71.9914 75.1052 72.6174C75.3714 73.2434 75.6625 73.9265 75.9777 74.6673C76.2934 75.4076 76.6168 76.1687 76.9529 76.9498C77.2844 77.7314 77.6123 78.4962 77.9316 79.241C78.2508 79.9895 78.5461 80.6848 78.8204 81.3231C79.0993 81.9618 79.3327 82.5098 79.5335 82.9679C79.7424 83.4342 79.9391 83.8107 80.1189 84.1015C80.2992 84.3877 80.4673 84.6086 80.6231 84.7602C80.7743 84.9153 80.9137 85.0219 81.0409 85.0872C81.1676 85.153 81.2785 85.1938 81.3765 85.2142C81.5364 85.2387 81.68 85.2591 81.8112 85.2714C81.942 85.2836 82.0646 85.2877 82.1877 85.2877C82.3844 85.2877 82.483 85.3617 82.483 85.5086C82.487 85.5657 82.4661 85.6111 82.4211 85.6438C82.3762 85.6764 82.2858 85.6968 82.1509 85.7091C82.0156 85.7213 81.8148 85.7295 81.5487 85.7295C81.2907 85.7295 80.9546 85.7295 80.5368 85.7254C80.1189 85.7254 79.6438 85.7213 79.1116 85.7132C78.5788 85.7091 78.0051 85.6968 77.3952 85.6805C77.1986 85.6724 77.0428 85.6601 76.9283 85.6397C76.8175 85.6234 76.7603 85.578 76.7562 85.5086C76.7516 85.4474 76.7725 85.3984 76.8093 85.3617C76.8461 85.3244 76.9197 85.2999 77.0264 85.2877C77.1041 85.2714 77.17 85.2224 77.219 85.1362C77.2639 85.0505 77.268 84.9484 77.2231 84.8214L75.5517 80.6241C75.5272 80.5624 75.4986 80.5257 75.4618 80.5053C75.425 80.4849 75.3795 80.4762 75.3305 80.4762ZM59.3057 79.6665C59.3057 80.3415 59.3057 80.9675 59.3016 81.5486C59.2975 82.1292 59.2894 82.645 59.2771 83.0949C59.2648 83.549 59.2403 83.9173 59.2076 84.2076C59.1749 84.5107 59.1177 84.7438 59.0273 84.903C58.9374 85.0627 58.7857 85.1693 58.5686 85.2142C58.4705 85.2387 58.3597 85.2591 58.2325 85.2714C58.1099 85.2836 57.9664 85.2877 57.8065 85.2877C57.6757 85.2918 57.5812 85.3163 57.5322 85.3617C57.4831 85.4066 57.4586 85.4555 57.4627 85.5086C57.4627 85.5821 57.4995 85.6356 57.5689 85.6724C57.643 85.7091 57.7452 85.7295 57.8805 85.7295C58.1017 85.7295 58.3433 85.7254 58.6176 85.7173C58.8879 85.7091 59.1586 85.7009 59.4329 85.6928C59.7031 85.6846 59.9529 85.6764 60.1787 85.6683C60.4035 85.6601 60.5797 85.656 60.7069 85.656C60.9076 85.656 61.1942 85.6642 61.5589 85.6764C61.9236 85.6887 62.3333 85.6968 62.7879 85.7091C63.2467 85.7213 63.7176 85.7295 64.1968 85.7295C64.324 85.7295 64.422 85.7091 64.4961 85.6724C64.5738 85.6356 64.6105 85.5821 64.6146 85.5086C64.6146 85.4555 64.5901 85.4066 64.5329 85.3617C64.4798 85.3163 64.3934 85.2918 64.2708 85.2877C64.16 85.2877 64.041 85.2836 63.9061 85.2795C63.7748 85.2754 63.6441 85.2673 63.5128 85.255C63.382 85.2428 63.2671 85.2305 63.1644 85.2142C62.9555 85.1811 62.792 85.1239 62.673 85.0423C62.5586 84.9601 62.4723 84.85 62.4191 84.7148C62.366 84.5801 62.3251 84.4204 62.3042 84.2321C62.2715 83.9337 62.2511 83.5572 62.2347 83.1031C62.2225 82.649 62.2143 82.1292 62.2102 81.5486C62.2061 80.9675 62.2061 80.3415 62.2061 79.6665V75.9846V74.3724C62.2061 73.9265 62.2061 73.5541 62.2102 73.2515C62.2102 72.9485 62.2143 72.6949 62.2184 72.4944C62.2184 72.2939 62.2266 72.1184 62.2306 71.9751C62.2388 71.8317 62.247 71.6924 62.2552 71.5659C62.2715 71.2016 62.341 70.9358 62.4559 70.7598C62.5749 70.5884 62.7757 70.4818 63.0663 70.4369C63.1854 70.4124 63.2957 70.392 63.3943 70.3792C63.4924 70.3675 63.5986 70.3629 63.7054 70.3629C63.8157 70.3629 63.902 70.3466 63.9592 70.3139C64.0205 70.2772 64.0497 70.2119 64.0497 70.1175C64.0497 70.0563 64.0083 70.0114 63.9306 69.9869C63.853 69.9583 63.7421 69.9456 63.6068 69.9456C63.3943 69.9456 63.1562 69.9497 62.8983 69.9537C62.6362 69.9583 62.3742 69.9624 62.1075 69.9706C61.8414 69.9782 61.5998 69.9828 61.3745 69.9869C61.1492 69.991 60.9689 69.9951 60.83 69.9951C60.6742 69.9951 60.4734 69.991 60.2318 69.9869C59.9902 69.9828 59.7317 69.9782 59.4533 69.9706C59.1749 69.9624 58.9042 69.9583 58.6381 69.9537C58.3719 69.9497 58.1385 69.9456 57.9296 69.9456C57.7574 69.9456 57.6307 69.9583 57.5444 69.9869C57.4586 70.0114 57.4137 70.0563 57.4137 70.1175C57.4137 70.2119 57.4417 70.2772 57.5036 70.3139C57.5608 70.3466 57.6471 70.3629 57.7574 70.3629C57.8928 70.3629 58.0282 70.3675 58.1589 70.3833C58.2943 70.4001 58.421 70.4246 58.5441 70.4614C58.6994 70.5063 58.8307 70.5716 58.9333 70.6537C59.0355 70.7353 59.1177 70.8501 59.1709 70.9971C59.2281 71.1404 59.2648 71.3287 59.2812 71.5659C59.2853 71.6924 59.2894 71.8317 59.2935 71.9751C59.2975 72.1184 59.2975 72.2939 59.3016 72.4944C59.3016 72.6949 59.3057 72.9485 59.3057 73.2515V74.3724V75.9846V79.6665ZM42.0279 75.6652V74.0372C42.0279 73.5051 42.032 73.0265 42.0361 72.597C42.0401 72.1715 42.0442 71.8317 42.0524 71.5904C42.0524 71.4679 42.0728 71.3776 42.1137 71.3164C42.1546 71.2552 42.2245 71.2057 42.3226 71.1731C42.3839 71.1404 42.4907 71.1118 42.6465 71.0914C42.7977 71.071 42.9657 71.0547 43.1461 71.0425C43.3305 71.0297 43.4985 71.0261 43.6497 71.0261C44.0757 71.0221 44.5385 71.0425 45.0304 71.0874C45.5219 71.1322 46.0337 71.2226 46.5624 71.3572C47.0906 71.4924 47.6193 71.6924 48.1515 71.9587C48.6802 72.2245 49.1962 72.5766 49.6962 73.0143C49.9379 73.223 50.1795 73.4847 50.417 73.8081C50.6545 74.127 50.8675 74.5035 51.0642 74.9331C51.2609 75.3667 51.4167 75.8575 51.5311 76.4019C51.6501 76.9498 51.7073 77.5554 51.7114 78.2181C51.7155 78.9421 51.6583 79.6216 51.5474 80.2639C51.433 80.9063 51.2404 81.4909 50.9697 82.023C50.6995 82.5506 50.3312 83.0087 49.8679 83.3975C49.4378 83.7536 48.9831 84.0398 48.504 84.2484C48.0249 84.4571 47.5084 84.6046 46.9557 84.6903C46.4066 84.7806 45.8043 84.8255 45.149 84.8214C44.584 84.8173 44.1089 84.7765 43.7238 84.6903C43.3345 84.6086 43.0275 84.5061 42.7977 84.3796C42.5683 84.2525 42.413 84.1214 42.3226 83.9867C42.2654 83.9092 42.2205 83.7862 42.1873 83.623C42.1546 83.4551 42.1306 83.2745 42.1137 83.0745C42.0974 82.8781 42.0851 82.6899 42.0769 82.5138C42.0687 82.3705 42.0606 82.1088 42.0524 81.7241C42.0442 81.3399 42.0401 80.8568 42.0361 80.2762C42.032 79.691 42.0279 79.0324 42.0279 78.2916V75.6652ZM39.1275 79.6665C39.1275 80.3088 39.1275 80.9103 39.1234 81.4705C39.1193 82.0353 39.1111 82.5424 39.0989 82.9883C39.0866 83.4383 39.0621 83.8107 39.0294 84.1097C38.9967 84.4163 38.9395 84.6658 38.8491 84.854C38.7592 85.0423 38.6075 85.1652 38.3904 85.2142C38.2918 85.2387 38.1814 85.2591 38.0542 85.2714C37.9316 85.2836 37.7881 85.2877 37.6282 85.2877C37.4975 85.2918 37.403 85.3163 37.3539 85.3617C37.3049 85.4066 37.2804 85.4555 37.2844 85.5086C37.2844 85.5821 37.3212 85.6356 37.3907 85.6724C37.4648 85.7091 37.5669 85.7295 37.7023 85.7295C37.9276 85.7295 38.1651 85.7254 38.423 85.7132C38.681 85.705 38.9395 85.6928 39.2015 85.6805C39.4636 85.6805 39.7011 85.6764 39.9182 85.6683C40.1312 85.6601 40.3034 85.656 40.43 85.656C40.7049 85.656 41.0282 85.6683 41.4052 85.6887C41.7781 85.7132 42.1837 85.7417 42.6179 85.7785C43.0521 85.8035 43.4903 85.8315 43.9363 85.8565C44.3792 85.8851 44.8011 85.8973 45.1985 85.9014C46.1936 85.8973 47.0829 85.8157 47.8731 85.656C48.6598 85.4963 49.352 85.2918 49.9501 85.0423C50.5442 84.7928 51.0479 84.5265 51.4616 84.2444C51.8754 83.9622 52.2028 83.6964 52.4485 83.4464C52.8664 83.046 53.2515 82.5587 53.6081 81.9863C53.9641 81.4175 54.2512 80.767 54.4683 80.0384C54.6895 79.3063 54.8039 78.5043 54.808 77.6289C54.8039 76.8024 54.7058 76.058 54.5214 75.3912C54.3329 74.7285 54.0872 74.1392 53.7802 73.6321C53.4727 73.1204 53.133 72.6868 52.7683 72.3271C52.1742 71.7378 51.5147 71.2797 50.7935 70.9481C50.0727 70.621 49.3233 70.3874 48.549 70.2445C47.771 70.1012 47.0007 70.0155 46.235 69.9828C45.4728 69.9497 44.7475 69.9374 44.0676 69.9456C43.7401 69.9456 43.404 69.9497 43.0643 69.9537C42.72 69.9583 42.3926 69.9624 42.0728 69.9706C41.7531 69.9782 41.4624 69.9828 41.2004 69.9869C40.9383 69.991 40.7212 69.9951 40.5532 69.9951C40.3442 69.9951 40.0658 69.991 39.7215 69.9828C39.3778 69.9741 39.009 69.9665 38.6075 69.9583C38.206 69.9497 37.8167 69.9456 37.4316 69.9456C37.2722 69.9456 37.1491 69.9583 37.0673 69.9869C36.9815 70.0195 36.9402 70.0685 36.9402 70.142C36.9402 70.216 36.9769 70.269 37.0423 70.3058C37.1082 70.3425 37.1981 70.3629 37.309 70.3629C37.4729 70.3629 37.6364 70.3675 37.7963 70.3792C37.9521 70.392 38.0788 70.4124 38.1692 70.4369C38.3985 70.4981 38.5748 70.5716 38.7055 70.6578C38.8368 70.7435 38.9308 70.8583 38.9926 71.0011C39.0539 71.1404 39.0907 71.3327 39.1029 71.5659C39.107 71.6924 39.1111 71.8317 39.1152 71.9751C39.1193 72.1184 39.1193 72.2939 39.1234 72.4944C39.1234 72.6949 39.1275 72.9485 39.1275 73.2515V74.3724V75.9846V79.6665ZM26.9128 84.8704C25.8927 84.8622 24.9748 84.6658 24.1682 84.2729C23.3652 83.8847 22.6772 83.3362 22.1158 82.6409C21.5508 81.9409 21.1207 81.1267 20.8214 80.1981C20.5266 79.2737 20.379 78.2671 20.3749 77.1871C20.379 76.1606 20.4858 75.2764 20.6865 74.5402C20.8908 73.7995 21.1697 73.1857 21.5258 72.6949C21.8782 72.2041 22.2797 71.8195 22.7262 71.5333C23.1767 71.2506 23.6477 71.0506 24.1396 70.9277C24.6351 70.8088 25.1224 70.7517 25.6098 70.7557C26.4868 70.7598 27.3057 70.9317 28.0637 71.2715C28.8172 71.6149 29.4812 72.1103 30.0544 72.7567C30.6239 73.4031 31.0704 74.1847 31.3901 75.105C31.7094 76.0254 31.8734 77.0605 31.8775 78.2181C31.8734 79.2043 31.787 80.0553 31.6149 80.7752C31.4468 81.4909 31.218 82.0924 30.9309 82.5832C30.6403 83.0745 30.3205 83.4669 29.9685 83.774C29.612 84.077 29.2473 84.3061 28.879 84.4653C28.5061 84.625 28.1495 84.7357 27.8098 84.7887C27.4696 84.8459 27.1708 84.8744 26.9128 84.8704ZM26.0276 85.9994C27.1458 85.9953 28.174 85.8525 29.1124 85.5698C30.0544 85.2877 30.8941 84.8867 31.6318 84.3714C32.3689 83.8515 32.9956 83.2419 33.5116 82.5302C34.028 81.8225 34.4213 81.041 34.6915 80.1818C34.9577 79.3268 35.0971 78.4186 35.0971 77.4575C35.093 76.2585 34.8882 75.1785 34.4826 74.2168C34.077 73.2597 33.487 72.4373 32.7213 71.7582C31.951 71.0792 31.0213 70.5593 29.9358 70.1996C28.8463 69.8354 27.6173 69.6553 26.2488 69.6512C25.1551 69.6553 24.1723 69.7742 23.2998 70.0114C22.4233 70.2445 21.653 70.5675 20.9812 70.9807C20.3095 71.3899 19.7359 71.8644 19.2526 72.4046C18.7735 72.9403 18.3802 73.5133 18.0727 74.1229C17.7657 74.7326 17.5404 75.3545 17.3969 75.9846C17.2497 76.6141 17.1798 77.2279 17.1798 77.8253C17.1798 78.4472 17.2533 79.0773 17.3969 79.7196C17.5445 80.3578 17.7698 80.9838 18.0767 81.5935C18.3802 82.2031 18.7694 82.772 19.2445 83.3036C19.7195 83.8311 20.2845 84.302 20.9363 84.7025C21.5912 85.1076 22.341 85.4229 23.189 85.652C24.0329 85.881 24.9794 85.9953 26.0276 85.9994ZM4.00633 84.3061H10.0523C10.884 84.302 11.5598 84.2403 12.0803 84.1173C12.6003 83.999 13.0059 83.8352 13.2924 83.6347C13.5795 83.4301 13.7884 83.2051 13.911 82.9557C14.0214 82.7552 14.1159 82.5547 14.1894 82.3501C14.2635 82.1414 14.3166 81.9537 14.3534 81.7771C14.3779 81.6547 14.4065 81.5567 14.4392 81.4909C14.4765 81.4215 14.5296 81.3848 14.5991 81.3848C14.6972 81.3807 14.7631 81.4338 14.7958 81.5445C14.8326 81.6547 14.8489 81.8552 14.8448 82.1455C14.8448 82.346 14.8244 82.5832 14.7917 82.8577C14.759 83.1317 14.714 83.4179 14.6645 83.7087C14.6114 83.999 14.5582 84.2729 14.5051 84.5224C14.4474 84.7765 14.3984 84.9806 14.3534 85.1402C14.2962 85.3617 14.214 85.5208 14.1036 85.6234C13.9969 85.7295 13.8329 85.7785 13.6163 85.7785C12.2519 85.7785 10.8717 85.7667 9.47461 85.7458C8.07395 85.7254 6.62783 85.7091 5.13268 85.6887C3.6416 85.6683 2.0688 85.656 0.417848 85.656C0.282993 85.656 0.180318 85.6356 0.106761 85.5989C0.0367788 85.5576 0 85.4963 0 85.4106C0 85.3576 0.00817294 85.2999 0.0286056 85.2428C0.0531247 85.1856 0.0904126 85.1117 0.143537 85.0219C0.196662 84.9357 0.270221 84.8173 0.368808 84.6739C1.52785 82.8699 2.69557 81.0614 3.87096 79.2451C5.05094 77.4243 6.21816 75.6203 7.3772 73.8285C8.53675 72.0363 9.6631 70.2772 10.7649 68.5467H5.94794C5.526 68.5426 5.09181 68.5548 4.64945 68.5793C4.20708 68.6079 3.78923 68.6569 3.3959 68.7308C3.00666 68.8043 2.67923 68.915 2.4085 69.0619C2.13827 69.2135 1.90892 69.4017 1.72043 69.6308C1.53194 69.8558 1.38431 70.0889 1.27806 70.3262C1.1713 70.5675 1.10592 70.7848 1.0814 70.9766C1.05688 71.1445 1.0201 71.2634 0.971063 71.3246C0.921513 71.3899 0.860214 71.4225 0.786656 71.4185C0.704415 71.4185 0.647204 71.3858 0.622685 71.3205C0.598165 71.2552 0.585905 71.1486 0.589991 71.0011C0.589991 70.8828 0.60225 70.7108 0.630856 70.4859C0.655375 70.2609 0.68807 70.0073 0.728936 69.7252C0.766225 69.4425 0.811175 69.1563 0.856127 68.8655C0.901078 68.5752 0.942456 68.3094 0.983322 68.064C1.02419 67.8186 1.05688 67.6181 1.0814 67.4666C1.10592 67.2947 1.14269 67.1763 1.19173 67.1023C1.24128 67.033 1.30258 66.9962 1.37665 67.0003C1.44612 67.0003 1.51968 67.0166 1.59323 67.037C1.6673 67.0615 1.76129 67.0901 1.88031 67.1146C1.99933 67.1432 2.15871 67.1636 2.35946 67.1722C3.13386 67.2049 3.79332 67.2253 4.34602 67.2335C4.89923 67.2457 5.37429 67.2498 5.77988 67.2498C6.18547 67.2457 6.55428 67.2457 6.88171 67.2457H14.3779C14.5051 67.2457 14.6032 67.262 14.6808 67.2988C14.7549 67.3314 14.7958 67.3809 14.7958 67.4421C14.7958 67.5156 14.7753 67.5891 14.7345 67.6671C14.6972 67.7406 14.6522 67.8227 14.5991 67.9084C13.4646 69.7451 12.305 71.5863 11.1174 73.4316C9.92975 75.2764 8.7375 77.1095 7.54117 78.9298C6.34127 80.7507 5.16537 82.5424 4.00633 84.3061ZM191.804 79.6664V75.9845V74.3728V73.2514C191.804 72.9489 191.8 72.6953 191.8 72.4948C191.796 72.2943 191.796 72.1183 191.792 71.975C191.788 71.8321 191.784 71.6928 191.78 71.5658C191.763 71.3286 191.726 71.1403 191.669 70.9975C191.616 70.85 191.534 70.7352 191.431 70.6536C191.329 70.572 191.198 70.5062 191.042 70.4613C190.919 70.4245 190.793 70.4 190.657 70.3837C190.527 70.3674 190.391 70.3628 190.256 70.3628C190.145 70.3628 190.059 70.347 190.002 70.3138C189.941 70.2771 189.912 70.2118 189.912 70.1174C189.912 70.0562 189.957 70.0113 190.043 69.9868C190.129 69.9582 190.256 69.946 190.428 69.946C190.637 69.946 190.87 69.9501 191.136 69.9541C191.403 69.9582 191.673 69.9623 191.952 69.9705C192.23 69.9786 192.488 69.9827 192.73 69.9868C192.972 69.9909 193.173 69.995 193.328 69.995C193.467 69.995 193.648 69.9909 193.873 69.9868C194.098 69.9827 194.34 69.9786 194.606 69.9705C194.872 69.9623 195.135 69.9582 195.397 69.9541C195.655 69.9501 195.892 69.946 196.105 69.946C196.241 69.946 196.351 69.9582 196.429 69.9868C196.507 70.0113 196.548 70.0562 196.548 70.1174C196.548 70.2118 196.519 70.2771 196.458 70.3138C196.4 70.347 196.314 70.3628 196.204 70.3628C196.097 70.3628 195.991 70.3674 195.892 70.3796C195.794 70.3919 195.683 70.4123 195.565 70.4368C195.274 70.4817 195.073 70.5883 194.954 70.7602C194.839 70.9357 194.77 71.202 194.754 71.5658C194.745 71.6928 194.737 71.8321 194.729 71.975C194.725 72.1183 194.717 72.2943 194.717 72.4948C194.713 72.6953 194.709 72.9489 194.709 73.2514C194.705 73.5545 194.705 73.9264 194.705 74.3728V75.9845V79.6664C194.705 80.3414 194.705 80.9674 194.709 81.5485C194.713 82.1296 194.721 82.6489 194.733 83.103C194.749 83.5571 194.77 83.9336 194.803 84.2325C194.823 84.4203 194.864 84.58 194.918 84.7152C194.971 84.8504 195.057 84.9606 195.171 85.0422C195.29 85.1243 195.454 85.1815 195.663 85.2141C195.766 85.2304 195.88 85.2427 196.011 85.2549C196.142 85.2672 196.273 85.2753 196.405 85.2794C196.539 85.2835 196.658 85.2876 196.769 85.2876C196.892 85.2917 196.978 85.3162 197.031 85.3616C197.089 85.4065 197.113 85.4554 197.113 85.5085C197.109 85.5825 197.072 85.6355 196.995 85.6723C196.92 85.709 196.822 85.7294 196.695 85.7294C196.216 85.7294 195.745 85.7212 195.286 85.709C194.831 85.6967 194.422 85.6886 194.057 85.6763C193.693 85.6641 193.406 85.6559 193.205 85.6559C193.078 85.6559 192.902 85.66 192.677 85.6682C192.451 85.6763 192.202 85.6845 191.931 85.6927C191.657 85.7008 191.386 85.709 191.116 85.7172C190.842 85.7253 190.6 85.7294 190.379 85.7294C190.244 85.7294 190.141 85.709 190.067 85.6723C189.998 85.6355 189.961 85.5825 189.961 85.5085C189.957 85.4554 189.982 85.4065 190.031 85.3616C190.08 85.3162 190.174 85.2917 190.305 85.2876C190.465 85.2876 190.608 85.2835 190.731 85.2713C190.858 85.259 190.969 85.2386 191.067 85.2141C191.284 85.1692 191.436 85.0626 191.526 84.9034C191.616 84.7437 191.673 84.5106 191.706 84.2075C191.739 83.9172 191.763 83.5489 191.776 83.0948C191.788 82.6449 191.796 82.1296 191.8 81.5485C191.804 80.9674 191.804 80.3414 191.804 79.6664ZM173.543 76.7457C173.506 76.7457 173.469 76.737 173.441 76.7166C173.412 76.6962 173.395 76.6594 173.395 76.5982V76.1559V74.1968C173.395 73.6769 173.4 73.2514 173.4 72.9198C173.404 72.5928 173.408 72.327 173.416 72.1183C173.424 71.9097 173.433 71.7255 173.444 71.5658C173.461 71.202 173.531 70.9357 173.646 70.7602C173.764 70.5883 173.965 70.4817 174.256 70.4368C174.379 70.4123 174.49 70.3919 174.592 70.3796C174.69 70.3674 174.784 70.3628 174.87 70.3628C175.005 70.3628 175.104 70.3429 175.169 70.3057C175.231 70.2689 175.263 70.2159 175.263 70.1424C175.263 70.0684 175.227 70.0194 175.153 69.9868C175.079 69.9582 174.969 69.946 174.821 69.946C174.6 69.946 174.354 69.9501 174.08 69.9541C173.81 69.9582 173.531 69.9623 173.256 69.9705C172.977 69.9786 172.724 69.9827 172.49 69.9868C172.261 69.9909 172.081 69.995 171.946 69.995C171.741 69.995 171.466 69.9909 171.118 69.9827C170.77 69.9746 170.389 69.9664 169.98 69.9582C169.57 69.9501 169.168 69.946 168.775 69.946C168.627 69.946 168.513 69.9582 168.431 69.9868C168.349 70.0194 168.308 70.0684 168.308 70.1424C168.308 70.2159 168.345 70.2689 168.41 70.3057C168.476 70.3429 168.566 70.3628 168.676 70.3628C168.84 70.3628 169.004 70.3674 169.164 70.3796C169.32 70.3919 169.447 70.4123 169.537 70.4368C169.766 70.498 169.942 70.572 170.074 70.6577C170.204 70.7439 170.299 70.8582 170.36 71.0015C170.422 71.1403 170.459 71.3326 170.471 71.5658C170.475 71.6928 170.479 71.8321 170.483 71.975C170.487 72.1183 170.487 72.2943 170.491 72.4948C170.491 72.6994 170.495 72.9489 170.495 73.2514V74.3728V75.9845V79.6664C170.495 80.3087 170.495 80.9102 170.491 81.475C170.487 82.0352 170.479 82.5428 170.467 82.9882C170.455 83.4387 170.43 83.8111 170.397 84.1096C170.364 84.4162 170.307 84.6657 170.217 84.8539C170.127 85.0422 169.975 85.1651 169.758 85.2141C169.66 85.2386 169.549 85.259 169.422 85.2713C169.299 85.2835 169.156 85.2876 168.996 85.2876C168.865 85.2917 168.771 85.3162 168.722 85.3616C168.672 85.4065 168.648 85.4554 168.652 85.5085C168.652 85.5825 168.689 85.6355 168.759 85.6723C168.832 85.709 168.935 85.7294 169.07 85.7294C169.291 85.7294 169.533 85.7253 169.799 85.7172C170.065 85.709 170.331 85.7008 170.598 85.6927C170.864 85.6845 171.106 85.6763 171.327 85.6682C171.548 85.66 171.72 85.6559 171.847 85.6559C172.06 85.6559 172.351 85.6641 172.72 85.6763C173.092 85.6886 173.506 85.6967 173.965 85.709C174.424 85.7212 174.891 85.7294 175.362 85.7294C175.497 85.7294 175.608 85.709 175.685 85.6723C175.763 85.6355 175.804 85.5825 175.804 85.5085C175.804 85.4554 175.78 85.4065 175.726 85.3616C175.669 85.3162 175.583 85.2917 175.46 85.2876C175.349 85.2876 175.231 85.2835 175.095 85.2794C174.965 85.2753 174.833 85.2672 174.703 85.2549C174.571 85.2427 174.456 85.2304 174.354 85.2141C174.145 85.1815 173.981 85.1162 173.871 85.0218C173.756 84.9279 173.674 84.805 173.625 84.6534C173.576 84.5065 173.539 84.3305 173.518 84.1341C173.486 83.8274 173.461 83.455 173.444 83.0091C173.424 82.5673 173.412 82.0678 173.404 81.5117C173.4 80.9551 173.395 80.3536 173.395 79.7154V78.1201C173.395 78.0711 173.412 78.0379 173.441 78.0216C173.469 78.0053 173.506 77.9971 173.543 77.9971H181.703C181.731 77.9971 181.756 78.0094 181.785 78.0298C181.809 78.0507 181.826 78.0833 181.826 78.1201V79.7154C181.826 80.3577 181.826 80.9551 181.822 81.5077C181.822 82.0638 181.809 82.5632 181.797 83.005C181.785 83.4428 181.76 83.8111 181.727 84.1096C181.699 84.4162 181.637 84.6657 181.547 84.8539C181.457 85.0422 181.306 85.1651 181.088 85.2141C180.99 85.2386 180.879 85.259 180.753 85.2713C180.621 85.2835 180.474 85.2876 180.302 85.2876C180.179 85.2917 180.093 85.3162 180.04 85.3616C179.982 85.4065 179.958 85.4554 179.958 85.5085C179.958 85.5825 179.999 85.6355 180.081 85.6723C180.163 85.709 180.277 85.7294 180.425 85.7294C180.638 85.7294 180.883 85.7253 181.154 85.7172C181.428 85.709 181.703 85.7008 181.981 85.6927C182.26 85.6845 182.514 85.6763 182.743 85.6682C182.973 85.66 183.149 85.6559 183.276 85.6559C183.48 85.6559 183.759 85.6641 184.111 85.6763C184.468 85.6886 184.869 85.6967 185.316 85.709C185.762 85.7212 186.221 85.7294 186.692 85.7294C186.831 85.7294 186.938 85.709 187.016 85.6723C187.093 85.6355 187.135 85.5825 187.135 85.5085C187.135 85.4554 187.106 85.4065 187.044 85.3616C186.987 85.3162 186.901 85.2917 186.79 85.2876C186.614 85.2876 186.422 85.2835 186.221 85.2713C186.016 85.259 185.84 85.2386 185.685 85.2141C185.467 85.1815 185.299 85.1162 185.184 85.0218C185.066 84.9279 184.984 84.805 184.935 84.6534C184.882 84.5065 184.845 84.3305 184.824 84.1341C184.792 83.8274 184.771 83.4509 184.754 82.9969C184.742 82.5464 184.734 82.0393 184.73 81.475C184.726 80.9102 184.726 80.3087 184.726 79.6664V75.9845V74.3728C184.726 73.9264 184.726 73.5545 184.73 73.2514C184.73 72.9489 184.734 72.6994 184.738 72.4948C184.742 72.2943 184.746 72.1183 184.75 71.975C184.759 71.8321 184.767 71.6928 184.775 71.5658C184.796 71.202 184.861 70.9357 184.976 70.7602C185.09 70.5883 185.283 70.4817 185.561 70.4368C185.697 70.4123 185.815 70.3919 185.918 70.3796C186.02 70.3674 186.115 70.3628 186.2 70.3628C186.324 70.3628 186.422 70.3429 186.492 70.3057C186.557 70.2689 186.594 70.2159 186.594 70.1424C186.594 70.0684 186.557 70.0194 186.479 69.9868C186.405 69.9582 186.287 69.946 186.127 69.946C185.914 69.946 185.676 69.9501 185.414 69.9541C185.152 69.9582 184.886 69.9623 184.619 69.9705C184.353 69.9786 184.108 69.9827 183.886 69.9868C183.661 69.9909 183.485 69.995 183.35 69.995C183.206 69.995 183.009 69.9909 182.768 69.9868C182.522 69.9827 182.252 69.9786 181.948 69.9705C181.65 69.9623 181.339 69.9582 181.023 69.9541C180.704 69.9501 180.4 69.946 180.105 69.946C179.946 69.946 179.831 69.9582 179.753 69.9868C179.675 70.0194 179.639 70.0684 179.639 70.1424C179.639 70.2893 179.761 70.3628 180.007 70.3628C180.163 70.3628 180.314 70.3674 180.47 70.3796C180.63 70.3919 180.753 70.4123 180.843 70.4368C181.072 70.498 181.248 70.572 181.379 70.6577C181.51 70.7439 181.605 70.8582 181.666 71.0015C181.727 71.1403 181.765 71.3326 181.776 71.5658C181.785 71.7255 181.789 71.9097 181.797 72.1183C181.801 72.327 181.805 72.5928 181.809 72.9198C181.818 73.2514 181.818 73.6769 181.822 74.1968C181.826 74.7162 181.826 75.3707 181.826 76.1559V76.5982C181.826 76.6594 181.809 76.6962 181.785 76.7166C181.756 76.737 181.731 76.7457 181.703 76.7457H173.543ZM160.935 85.9993C159.952 86.0034 159.017 85.9299 158.137 85.7789C157.256 85.6314 156.429 85.3901 155.655 85.0585C154.884 84.7274 154.168 84.2856 153.512 83.7412C152.808 83.1397 152.255 82.4893 151.861 81.7939C151.468 81.0985 151.19 80.395 151.034 79.6746C150.879 78.9547 150.805 78.2548 150.809 77.5798C150.805 77.2201 150.841 76.8069 150.915 76.3446C150.989 75.8819 151.116 75.3911 151.3 74.8758C151.484 74.3601 151.742 73.8448 152.074 73.329C152.406 72.8137 152.828 72.3229 153.34 71.8602C153.86 71.398 154.446 71.0056 155.101 70.6781C155.757 70.347 156.502 70.0929 157.338 69.9174C158.174 69.7414 159.128 69.6516 160.197 69.6516C160.644 69.6516 161.045 69.6593 161.398 69.6797C161.75 69.7006 162.082 69.7251 162.393 69.7618C162.704 69.7945 163.02 69.8312 163.343 69.872C163.749 69.9337 164.13 69.999 164.49 70.0603C164.85 70.1261 165.187 70.1751 165.506 70.2159C165.629 70.2281 165.711 70.2567 165.76 70.3021C165.805 70.347 165.83 70.4 165.826 70.4613C165.826 70.5148 165.821 70.5842 165.813 70.674C165.801 70.7602 165.789 70.8786 165.777 71.026C165.76 71.177 165.744 71.3694 165.727 71.6148C165.715 71.7908 165.707 71.9831 165.699 72.2C165.691 72.4127 165.686 72.6295 165.683 72.8463C165.678 73.0632 165.674 73.2596 165.67 73.4397C165.666 73.6198 165.662 73.7667 165.653 73.8733C165.641 74.0249 165.617 74.1473 165.572 74.2417C165.527 74.3356 165.457 74.3845 165.359 74.3891C165.277 74.3891 165.215 74.3478 165.182 74.2703C165.154 74.1927 165.137 74.082 165.137 73.9473C165.125 73.6116 165.051 73.2718 164.912 72.9326C164.777 72.5887 164.572 72.2821 164.302 72.0081C163.929 71.6439 163.393 71.349 162.684 71.1281C161.975 70.9031 161.123 70.7847 160.124 70.7806C159.497 70.7806 158.936 70.8174 158.444 70.899C157.952 70.9811 157.51 71.1077 157.117 71.2837C156.728 71.4556 156.367 71.6806 156.043 71.9586C155.515 72.4209 155.106 72.9407 154.819 73.5213C154.528 74.1024 154.328 74.7202 154.213 75.3748C154.102 76.0334 154.049 76.7002 154.053 77.3834C154.061 78.3736 154.2 79.2613 154.475 80.047C154.75 80.8327 155.122 81.5158 155.589 82.101C156.056 82.6816 156.58 83.1683 157.162 83.553C157.748 83.9376 158.35 84.2239 158.972 84.4121C159.595 84.6045 160.201 84.6983 160.787 84.6983C161.422 84.7029 161.975 84.6779 162.442 84.6249C162.909 84.5718 163.318 84.4652 163.671 84.306C164.023 84.1463 164.339 83.9091 164.621 83.5943C164.744 83.4509 164.859 83.2994 164.961 83.1316C165.064 82.9683 165.15 82.8045 165.215 82.6408C165.285 82.477 165.334 82.3301 165.359 82.1949C165.383 82.0393 165.412 81.9291 165.449 81.8673C165.486 81.8061 165.547 81.7735 165.629 81.7775C165.702 81.7816 165.764 81.8224 165.809 81.8959C165.85 81.974 165.875 82.0556 165.875 82.1459C165.875 82.199 165.866 82.3051 165.846 82.4607C165.83 82.6163 165.805 82.8045 165.772 83.0214C165.744 83.2423 165.707 83.4713 165.67 83.7045C165.629 83.9417 165.588 84.1667 165.543 84.3795C165.498 84.5963 165.453 84.7723 165.408 84.9197C165.367 85.0958 165.306 85.2264 165.227 85.3085C165.15 85.3901 165.023 85.4677 164.843 85.5335C164.552 85.6478 164.187 85.7376 163.757 85.8075C163.331 85.8768 162.868 85.9258 162.381 85.9544C161.889 85.9835 161.41 85.9993 160.935 85.9993ZM141.371 82.0229C141.371 82.1418 141.371 82.3051 141.367 82.5219C141.367 82.7352 141.359 82.9806 141.35 83.2504C141.338 83.5244 141.322 83.8111 141.297 84.1096C141.277 84.4162 141.215 84.6657 141.113 84.8539C141.01 85.0422 140.851 85.1651 140.634 85.2141C140.535 85.2386 140.421 85.259 140.289 85.2713C140.158 85.2835 140.019 85.2876 139.872 85.2876C139.748 85.2917 139.663 85.3162 139.609 85.3616C139.552 85.4065 139.528 85.4554 139.528 85.5085C139.528 85.5947 139.569 85.6518 139.65 85.6845C139.732 85.7172 139.847 85.7294 139.995 85.7294C140.204 85.7294 140.436 85.7253 140.699 85.7172C140.961 85.709 141.227 85.7008 141.498 85.6927C141.768 85.6845 142.018 85.6763 142.243 85.6682C142.473 85.66 142.657 85.6559 142.796 85.6559C143.001 85.6559 143.28 85.6641 143.636 85.6763C143.996 85.6886 144.398 85.6967 144.84 85.709C145.283 85.7212 145.734 85.7294 146.188 85.7294C146.335 85.7294 146.45 85.709 146.532 85.6723C146.614 85.6355 146.655 85.5825 146.655 85.5085C146.655 85.4554 146.627 85.4065 146.565 85.3616C146.503 85.3162 146.409 85.2917 146.286 85.2876C146.131 85.2876 145.954 85.2835 145.754 85.2713C145.553 85.259 145.373 85.2386 145.205 85.2141C144.894 85.1651 144.673 85.0422 144.541 84.8539C144.414 84.6657 144.341 84.4162 144.32 84.1096C144.304 83.8111 144.292 83.5244 144.288 83.2504C144.279 82.9806 144.275 82.7352 144.271 82.5219V82.0229V80.3536C144.267 80.1246 144.267 79.8996 144.271 79.6746C144.271 79.4537 144.292 79.2246 144.328 78.9955C144.365 78.7624 144.439 78.5211 144.541 78.267C144.611 78.1119 144.742 77.8665 144.939 77.5227C145.135 77.1834 145.373 76.7824 145.647 76.3283C145.922 75.8738 146.217 75.3993 146.524 74.9085C146.831 74.4172 147.13 73.9473 147.425 73.4968C147.72 73.0428 147.982 72.6499 148.212 72.3147C148.445 71.975 148.621 71.7336 148.744 71.5903C148.896 71.402 149.027 71.251 149.142 71.1321C149.252 71.0133 149.367 70.9153 149.477 70.8337C149.592 70.7561 149.723 70.6781 149.875 70.6087C150.039 70.5347 150.206 70.4735 150.378 70.4286C150.551 70.3878 150.694 70.3628 150.809 70.3628C150.936 70.3628 151.034 70.3388 151.112 70.2934C151.186 70.2526 151.226 70.1914 151.226 70.1174C151.226 70.0562 151.19 70.0113 151.124 69.9868C151.054 69.9582 150.956 69.946 150.833 69.946C150.723 69.946 150.567 69.9501 150.362 69.9541C150.157 69.9582 149.936 69.9623 149.699 69.9705C149.457 69.9786 149.232 69.9827 149.023 69.9868C148.81 69.9909 148.646 69.995 148.523 69.995C148.199 69.995 147.855 69.9868 147.494 69.9705C147.13 69.9541 146.77 69.946 146.409 69.946C146.286 69.946 146.196 69.9582 146.135 69.9868C146.073 70.0194 146.041 70.0684 146.041 70.1424C146.045 70.224 146.086 70.2812 146.163 70.3097C146.241 70.3388 146.331 70.3674 146.434 70.3878C146.614 70.4245 146.737 70.4898 146.806 70.5761C146.872 70.6577 146.905 70.7521 146.901 70.8541C146.901 70.9893 146.876 71.1485 146.823 71.3326C146.774 71.5168 146.692 71.7255 146.582 71.9586C146.524 72.0688 146.414 72.2693 146.25 72.5601C146.086 72.8504 145.893 73.1902 145.664 73.583C145.438 73.9754 145.201 74.3845 144.955 74.8105C144.705 75.2355 144.472 75.6406 144.246 76.0294C144.021 76.414 143.829 76.7416 143.673 77.0155C143.513 77.2854 143.411 77.4655 143.361 77.5553C143.296 77.4492 143.173 77.2446 142.997 76.9421C142.817 76.639 142.604 76.2748 142.354 75.8493C142.108 75.4279 141.846 74.982 141.576 74.5157C141.305 74.0534 141.047 73.6075 140.797 73.182C140.547 72.7525 140.33 72.3841 140.15 72.0775C139.97 71.7663 139.843 71.5536 139.773 71.4434C139.687 71.2959 139.622 71.1607 139.573 71.0424C139.528 70.9194 139.503 70.8174 139.503 70.7311C139.503 70.6454 139.532 70.5761 139.585 70.5266C139.638 70.4735 139.712 70.4368 139.798 70.4123C139.97 70.3674 140.093 70.3301 140.175 70.3057C140.253 70.2771 140.289 70.2199 140.289 70.1424C140.289 70.0684 140.261 70.0194 140.204 69.9868C140.146 69.9582 140.068 69.946 139.97 69.946C139.638 69.946 139.315 69.9501 138.999 69.9582C138.684 69.9664 138.397 69.9746 138.139 69.9827C137.881 69.9909 137.672 69.995 137.512 69.995C137.328 69.995 137.106 69.9909 136.84 69.9868C136.578 69.9827 136.308 69.9786 136.033 69.9705C135.755 69.9623 135.509 69.9582 135.288 69.9541C135.067 69.9501 134.907 69.946 134.809 69.946C134.673 69.946 134.571 69.9582 134.497 69.9868C134.428 70.0194 134.39 70.0684 134.39 70.1424C134.395 70.2159 134.424 70.2689 134.485 70.3057C134.546 70.3429 134.62 70.3628 134.71 70.3628C134.85 70.3628 135.001 70.3919 135.165 70.4409C135.329 70.4939 135.48 70.5551 135.619 70.6332C135.828 70.7439 136.046 70.9194 136.275 71.1653C136.504 71.4107 136.75 71.7255 137.021 72.1061C137.151 72.2943 137.332 72.5642 137.561 72.9122C137.79 73.2596 138.044 73.6524 138.327 74.0861C138.61 74.5197 138.893 74.9575 139.179 75.4074C139.47 75.8533 139.736 76.2748 139.982 76.6635C140.232 77.0563 140.433 77.3793 140.596 77.6415C140.756 77.8992 140.851 78.0583 140.879 78.1201C140.977 78.3206 141.064 78.517 141.137 78.7088C141.211 78.9012 141.269 79.1226 141.309 79.3721C141.35 79.6215 141.371 79.9322 141.371 80.3047V82.0229ZM128.099 85.9993C127.677 85.9993 127.259 85.9835 126.837 85.9503C126.42 85.9177 126.018 85.8646 125.633 85.7871C125.248 85.7049 124.9 85.5988 124.584 85.4595C124.469 85.4146 124.384 85.3656 124.322 85.3121C124.26 85.2631 124.22 85.1937 124.199 85.1075C124.175 85.0218 124.166 84.8993 124.166 84.7478C124.166 84.4616 124.171 84.1749 124.183 83.8846C124.191 83.5984 124.203 83.3239 124.22 83.0663C124.232 82.8086 124.248 82.5836 124.26 82.3954C124.273 82.203 124.281 82.0638 124.289 81.974C124.289 81.8102 124.314 81.6832 124.359 81.5852C124.408 81.4873 124.473 81.4378 124.56 81.4337C124.654 81.4378 124.716 81.4791 124.744 81.5526C124.773 81.6219 124.785 81.7 124.781 81.7775C124.781 81.9168 124.797 82.0842 124.834 82.2806C124.867 82.477 124.916 82.6693 124.978 82.8576C125.096 83.2423 125.281 83.5693 125.522 83.8315C125.764 84.0973 126.047 84.3101 126.366 84.4693C126.686 84.6289 127.021 84.7437 127.378 84.8131C127.73 84.8871 128.078 84.9197 128.419 84.9197C129.045 84.9157 129.578 84.7927 130.028 84.5596C130.475 84.3264 130.815 84.007 131.056 83.6101C131.294 83.2137 131.417 82.7632 131.417 82.2683C131.421 82.0434 131.401 81.8143 131.351 81.5852C131.306 81.3521 131.212 81.1189 131.069 80.8776C130.926 80.6404 130.708 80.3909 130.421 80.1327C130.135 79.8751 129.754 79.6052 129.279 79.3226L128.025 78.5864C127.177 78.0915 126.506 77.5961 126.01 77.1012C125.514 76.6064 125.158 76.0952 124.945 75.5631C124.732 75.0309 124.629 74.4585 124.633 73.8489C124.637 73.2065 124.781 72.6295 125.063 72.1142C125.346 71.599 125.739 71.1607 126.239 70.7929C126.739 70.4245 127.317 70.1424 127.972 69.946C128.632 69.7536 129.336 69.6516 130.089 69.6516C130.794 69.6552 131.413 69.6965 131.941 69.7659C132.466 69.8394 132.875 69.9174 133.162 69.995C133.26 70.0194 133.334 70.0521 133.383 70.0929C133.432 70.1342 133.457 70.1914 133.457 70.2648C133.457 70.3511 133.449 70.4858 133.436 70.6699C133.424 70.85 133.416 71.1117 133.404 71.4474C133.391 71.7826 133.383 72.2244 133.383 72.7688C133.383 72.9897 133.359 73.1535 133.314 73.2637C133.264 73.3744 133.199 73.4315 133.113 73.4315C132.965 73.4315 132.891 73.3086 132.891 73.0632C132.896 72.9938 132.879 72.8872 132.85 72.7402C132.818 72.5928 132.765 72.4249 132.683 72.2413C132.601 72.0571 132.482 71.8729 132.326 71.6888C132.224 71.5536 132.072 71.4107 131.872 71.2592C131.671 71.1077 131.413 70.9811 131.093 70.8745C130.774 70.7679 130.385 70.7107 129.918 70.7067C129.529 70.7067 129.156 70.7561 128.803 70.8541C128.451 70.9526 128.136 71.0995 127.861 71.2878C127.587 71.4801 127.37 71.7132 127.21 71.9913C127.054 72.2653 126.972 72.5846 126.968 72.9407C126.964 73.1739 126.993 73.3948 127.054 73.6116C127.112 73.8284 127.222 74.0412 127.382 74.258C127.546 74.4748 127.775 74.6998 128.078 74.9371C128.382 75.1702 128.77 75.4197 129.254 75.6901L130.139 76.1809C131.081 76.7043 131.827 77.2324 132.375 77.7681C132.92 78.3083 133.31 78.8603 133.539 79.4374C133.768 80.0103 133.883 80.6077 133.875 81.2378C133.879 81.7531 133.805 82.2357 133.662 82.6897C133.522 83.1438 133.289 83.5775 132.973 83.9825C132.654 84.3876 132.236 84.7723 131.712 85.1407C131.364 85.382 130.983 85.5661 130.573 85.6886C130.163 85.8156 129.746 85.8972 129.32 85.9427C128.894 85.9835 128.488 86.0034 128.099 85.9993ZM221.224 85.9995C220.802 85.9995 220.384 85.9832 219.962 85.9505C219.544 85.9179 219.143 85.8648 218.758 85.7867C218.373 85.7051 218.025 85.599 217.709 85.4597C217.594 85.4143 217.509 85.3653 217.447 85.3123C217.386 85.2633 217.345 85.1939 217.324 85.1077C217.3 85.022 217.292 84.899 217.292 84.7475C217.292 84.4613 217.296 84.1751 217.308 83.8843C217.316 83.5981 217.328 83.3241 217.345 83.0665C217.357 82.8083 217.373 82.5833 217.386 82.3956C217.398 82.2032 217.406 82.064 217.414 81.9737C217.414 81.8104 217.439 81.6834 217.484 81.5854C217.533 81.4869 217.599 81.438 217.685 81.4339C217.779 81.438 217.84 81.4788 217.869 81.5528C217.897 81.6221 217.91 81.6997 217.906 81.7772C217.906 81.9165 217.922 82.0844 217.959 82.2808C217.992 82.4772 218.041 82.6695 218.102 82.8578C218.221 83.242 218.406 83.5695 218.647 83.8312C218.889 84.097 219.171 84.3098 219.491 84.4695C219.81 84.6291 220.146 84.7434 220.503 84.8133C220.855 84.8868 221.203 84.9194 221.543 84.9194C222.17 84.9154 222.703 84.7929 223.153 84.5598C223.6 84.3261 223.939 84.0072 224.181 83.6103C224.419 83.2134 224.542 82.7634 224.542 82.2685C224.546 82.0436 224.526 81.8145 224.476 81.5854C224.431 81.3523 224.337 81.1186 224.194 80.8773C224.05 80.6401 223.833 80.3906 223.546 80.1329C223.259 79.8753 222.879 79.6049 222.403 79.3228L221.15 78.5866C220.302 78.0912 219.63 77.5963 219.135 77.1014C218.639 76.6061 218.283 76.0949 218.07 75.5633C217.856 75.0311 217.754 74.4582 217.758 73.8491C217.762 73.2062 217.906 72.6297 218.189 72.1144C218.471 71.5987 218.864 71.1609 219.364 70.7926C219.864 70.4242 220.441 70.1421 221.097 69.9457C221.756 69.7533 222.461 69.6513 223.214 69.6513C223.919 69.6554 224.537 69.6962 225.066 69.7661C225.59 69.8396 226 69.9171 226.287 69.9952C226.385 70.0197 226.459 70.0523 226.508 70.0931C226.557 70.1339 226.582 70.1911 226.582 70.265C226.582 70.3508 226.574 70.486 226.561 70.6696C226.549 70.8502 226.541 71.1114 226.529 71.4471C226.516 71.7828 226.508 72.2246 226.508 72.7685C226.508 72.9894 226.484 73.1532 226.438 73.2639C226.389 73.3741 226.324 73.4317 226.238 73.4317C226.09 73.4317 226.016 73.3088 226.016 73.0634C226.021 72.994 226.004 72.8874 225.975 72.7399C225.943 72.593 225.89 72.4251 225.807 72.241C225.726 72.0568 225.607 71.8726 225.451 71.6884C225.349 71.5538 225.197 71.4104 224.996 71.2594C224.796 71.1079 224.537 70.9808 224.218 70.8747C223.898 70.7681 223.51 70.7109 223.042 70.7069C222.654 70.7069 222.281 70.7558 221.928 70.8543C221.576 70.9523 221.261 71.0997 220.986 71.288C220.712 71.4798 220.495 71.7129 220.335 71.9915C220.179 72.2655 220.097 72.5848 220.093 72.9404C220.089 73.1736 220.118 73.3945 220.179 73.6118C220.236 73.8281 220.347 74.0409 220.507 74.2582C220.671 74.475 220.9 74.7 221.203 74.9373C221.506 75.1704 221.896 75.4199 222.379 75.6898L223.263 76.1806C224.206 76.7045 224.951 77.2321 225.5 77.7683C226.045 78.308 226.435 78.8605 226.663 79.4371C226.893 80.01 227.008 80.6074 227 81.2375C227.004 81.7528 226.93 82.2359 226.787 82.69C226.647 83.144 226.414 83.5777 226.098 83.9827C225.779 84.3873 225.361 84.772 224.837 85.1403C224.488 85.3817 224.107 85.5658 223.698 85.6888C223.288 85.8153 222.871 85.8975 222.445 85.9423C222.019 85.9832 221.613 86.0036 221.224 85.9995ZM209.328 85.9995C209.803 85.9995 210.283 85.9832 210.774 85.9546C211.262 85.926 211.725 85.877 212.151 85.8071C212.58 85.7378 212.945 85.648 213.236 85.5332C213.416 85.4679 213.543 85.3898 213.621 85.3082C213.699 85.2266 213.76 85.0955 213.801 84.9194C213.847 84.772 213.892 84.5965 213.936 84.3797C213.981 84.1669 214.022 83.9419 214.064 83.7042C214.1 83.471 214.137 83.242 214.166 83.0211C214.199 82.8047 214.223 82.616 214.239 82.4609C214.26 82.3053 214.268 82.1992 214.268 82.1456C214.268 82.0558 214.243 81.9737 214.203 81.8961C214.158 81.8226 214.096 81.7813 214.022 81.7772C213.941 81.7732 213.879 81.8058 213.842 81.8675C213.805 81.9288 213.777 82.0395 213.752 82.1951C213.728 82.3298 213.679 82.4772 213.609 82.641C213.543 82.8047 213.457 82.968 213.355 83.1318C213.253 83.2996 213.138 83.4511 213.015 83.594C212.732 83.9093 212.417 84.146 212.064 84.3057C211.712 84.4654 211.303 84.5715 210.835 84.6251C210.368 84.6781 209.816 84.7026 209.181 84.6985C208.595 84.6985 207.989 84.6047 207.366 84.4123C206.743 84.2241 206.141 83.9379 205.556 83.5532C204.974 83.1685 204.45 82.6818 203.983 82.1007C203.515 81.5155 203.143 80.8324 202.869 80.0472C202.594 79.2615 202.454 78.3738 202.446 77.3836C202.442 76.7004 202.496 76.0336 202.606 75.375C202.721 74.7199 202.922 74.1021 203.212 73.5215C203.499 72.9404 203.909 72.4211 204.437 71.9588C204.761 71.6803 205.121 71.4553 205.511 71.2839C205.904 71.1079 206.346 70.9808 206.838 70.8992C207.329 70.8171 207.89 70.7803 208.517 70.7803C209.517 70.7844 210.368 70.9033 211.077 71.1283C211.786 71.3492 212.323 71.6436 212.695 72.0078C212.965 72.2818 213.171 72.5889 213.306 72.9323C213.445 73.272 213.519 73.6118 213.531 73.947C213.531 74.0822 213.547 74.1924 213.576 74.27C213.609 74.348 213.67 74.3888 213.752 74.3888C213.851 74.3847 213.92 74.3358 213.965 74.2414C214.01 74.1475 214.035 74.0246 214.047 73.8735C214.055 73.7669 214.06 73.6195 214.064 73.4399C214.068 73.2598 214.072 73.0634 214.075 72.8466C214.08 72.6297 214.084 72.4129 214.092 72.2002C214.1 71.9833 214.109 71.791 214.121 71.615C214.137 71.3696 214.154 71.1772 214.17 71.0257C214.182 70.8788 214.194 70.7599 214.207 70.6742C214.215 70.5839 214.219 70.5145 214.219 70.4615C214.223 70.3997 214.199 70.3467 214.154 70.3018C214.105 70.2569 214.022 70.2283 213.9 70.2156C213.58 70.1747 213.244 70.1258 212.884 70.0605C212.523 69.9987 212.143 69.9334 211.737 69.8722C211.413 69.8314 211.098 69.7947 210.786 69.7615C210.475 69.7248 210.143 69.7003 209.791 69.6799C209.439 69.6595 209.037 69.6513 208.591 69.6513C207.522 69.6513 206.567 69.7411 205.732 69.9171C204.896 70.0931 204.15 70.3467 203.495 70.6783C202.84 71.0053 202.254 71.3982 201.734 71.8604C201.221 72.3231 200.8 72.8139 200.468 73.3292C200.136 73.845 199.878 74.3603 199.694 74.8755C199.51 75.3913 199.382 75.8821 199.309 76.3443C199.235 76.8066 199.198 77.2198 199.202 77.58C199.198 78.255 199.272 78.9544 199.427 79.6748C199.583 80.3947 199.861 81.0982 200.255 81.7941C200.648 82.4895 201.201 83.1399 201.906 83.7414C202.561 84.2853 203.278 84.7271 204.048 85.0587C204.822 85.3898 205.65 85.6316 206.53 85.7786C207.411 85.9301 208.345 86.0036 209.328 85.9995Z" fill="#BE53C8"/>
</svg>
