<svg width="48" height="48" viewBox="0 0 48 48" fill="none" xmlns="http://www.w3.org/2000/svg">
<circle cx="24.2507" cy="24.0007" r="19.8621" fill="white"/>
<path fill-rule="evenodd" clip-rule="evenodd" d="M22.7542 9.70336C21.85 10.9251 20.9183 12.65 20.1113 14.6719C21.4687 14.7984 22.7652 14.984 24.0007 15.2329C24.5625 13.2527 24.8558 11.453 24.87 10.0654C24.8989 7.25895 24.3338 7.56828 22.7542 9.70336Z" fill="#FCB6C3"/>
<path fill-rule="evenodd" clip-rule="evenodd" d="M19.044 7.90474C16.9287 7.94552 14.5369 8.1884 12.1755 8.59718C9.86166 8.99817 7.61568 9.62783 6.81279 12.113C6.21337 13.9686 6.92323 15.8855 8.23985 17.2489C10.8231 19.6168 14.0223 21.1547 16.7146 22.4026C16.4507 18.9582 18.1321 13.9754 19.7965 10.8789L20.6759 9.39457C21.0022 8.89918 21.356 8.418 21.7542 7.97806C20.9339 7.90886 20.0201 7.88595 19.044 7.90474Z" fill="#FFC4E0"/>
<path fill-rule="evenodd" clip-rule="evenodd" d="M14.0082 13.093C11.473 12.5935 9.02538 12.3075 6.78031 12.2168C6.24047 14.0393 6.94758 15.91 8.23945 17.2477C10.8227 19.6156 14.0219 21.1535 16.7147 22.4019C16.5314 20.0083 17.2871 16.8714 18.3237 14.1411C16.9562 13.7424 15.5113 13.3886 14.0082 13.093Z" fill="#FCB6C3"/>
<path fill-rule="evenodd" clip-rule="evenodd" d="M36.4084 27.9011C35.6944 27.71 34.9382 27.6803 34.1986 27.8269C34.8186 28.5285 35.1935 29.3488 35.342 30.1847C35.8057 32.7904 33.9296 35.5483 31.1543 35.3531C31.8284 36.3306 32.8109 36.9923 33.8934 37.2829C36.4844 37.9767 39.147 36.441 39.8417 33.8495C40.1639 32.6461 40.0278 31.3212 39.3583 30.1604C38.6896 29.0019 37.6109 28.2233 36.4084 27.9011Z" fill="#E8FEFF"/>
<path fill-rule="evenodd" clip-rule="evenodd" d="M34.2 27.8281C34.8195 28.5297 35.1935 29.3496 35.342 30.185C35.8057 32.7907 33.9296 35.5486 31.1543 35.3529C31.8289 36.3304 32.8109 36.9926 33.8934 37.2827C34.6756 37.4926 35.4639 37.4985 36.2026 37.3345C36.654 36.3139 36.9115 35.1412 36.9115 33.8933C36.9115 31.3293 35.8273 29.082 34.2 27.8281Z" fill="#A2E0E3"/>
<path fill-rule="evenodd" clip-rule="evenodd" d="M29.4927 36.4434C29.012 37.4915 28.0707 38.1844 26.8718 37.9085C25.4058 37.5708 24.5204 35.9993 24.4485 34.5801C23.0815 35.471 22.406 37.0859 22.6979 38.6646C22.8913 39.7086 23.4925 40.6325 24.3628 41.231C25.2056 41.8102 26.2715 42.0678 27.3608 41.8657C29.3318 41.5004 30.7273 39.7278 30.6223 37.727C30.2012 37.3549 29.8203 36.9264 29.4927 36.4434Z" fill="#E8FEFF"/>
<path fill-rule="evenodd" clip-rule="evenodd" d="M26.8713 37.9059C25.4066 37.5686 24.5213 36.0004 24.4489 34.582C24.4452 34.6819 24.4434 34.7818 24.4434 34.8827C24.4434 37.9801 26.0258 40.6147 28.2365 41.5945C29.73 40.9401 30.7102 39.414 30.6218 37.7244C30.2006 37.3523 29.8202 36.9238 29.4921 36.4408C29.0114 37.4888 28.0701 38.1817 26.8713 37.9059Z" fill="#A2E0E3"/>
<path fill-rule="evenodd" clip-rule="evenodd" d="M17.9777 36.3418C17.6853 36.5576 17.4328 36.8198 17.2294 37.1154C16.3206 38.4388 16.4732 40.2371 17.7729 41.2444C18.9057 42.122 20.5408 42.2136 21.681 41.2966C21.2388 40.6482 20.9184 39.9021 20.7576 39.0859C19.3269 39.0062 18.2027 37.6964 17.9777 36.3418Z" fill="#E8FEFF"/>
<path fill-rule="evenodd" clip-rule="evenodd" d="M17.9785 36.3438C18.0202 38.625 18.9203 40.641 20.2914 41.9081C20.7882 41.8302 21.2675 41.6304 21.6818 41.2972C21.2396 40.6492 20.9192 39.9031 20.7584 39.0865C19.3281 39.0072 18.204 37.6979 17.9785 36.3438Z" fill="#A2E0E3"/>
<path fill-rule="evenodd" clip-rule="evenodd" d="M27.8113 31.5375C27.2293 25.9122 23.9613 22.7785 18.7086 20.918C18.6679 21.4404 18.5831 23.1383 18.9139 23.4334C22.9307 25.4017 24.4554 28.0468 24.3018 32.4192C24.6794 32.2606 25.0777 32.1383 25.4952 32.0576C25.6931 32.0109 25.9076 32.0246 26.1097 32.1108C26.6138 32.3257 26.8484 32.9086 26.634 33.4132C26.2577 34.2944 26.4465 35.1184 26.8393 35.6133C26.9571 35.7618 27.2888 36.1078 27.4928 35.9181C27.8562 35.5803 28.0945 34.673 27.9776 32.9219C27.908 32.4737 27.8608 32.0127 27.8113 31.5375Z" fill="#E8FEFF"/>
<path fill-rule="evenodd" clip-rule="evenodd" d="M18.9141 23.4336C19.3115 23.6284 19.6849 23.83 20.0346 24.039C19.6258 23.7741 19.2203 23.523 18.8184 23.2852C18.8454 23.3498 18.877 23.4002 18.9141 23.4336Z" fill="#6DC0D5"/>
<path fill-rule="evenodd" clip-rule="evenodd" d="M27.8095 31.5377C27.7655 31.1092 27.705 30.6959 27.6299 30.2958C25.4792 28.1309 23.263 26.2671 21.1055 24.7617C23.4908 26.5792 24.422 28.9586 24.3001 32.4194C24.6777 32.2609 25.0759 32.1385 25.4934 32.0578C25.6914 32.0111 25.9059 32.0248 26.1079 32.111C26.612 32.3259 26.8467 32.9089 26.6322 33.4134C26.256 34.2947 26.4448 35.1186 26.8375 35.6136C26.9553 35.762 27.2871 36.108 27.491 35.9183C27.8544 35.5806 28.0927 34.6732 27.9759 32.9221C27.9062 32.474 27.859 32.0129 27.8095 31.5377Z" fill="#A2E0E3"/>
<path fill-rule="evenodd" clip-rule="evenodd" d="M19.6927 16.2559C19.3966 17.1852 19.1643 18.0821 18.9961 18.9184C25.1493 20.9687 29.1074 24.7788 29.7856 31.3357C29.8544 32.0002 29.9231 32.557 30.4739 33.0341C31.1948 33.6591 32.252 33.359 32.8331 32.689C33.3386 32.1051 33.5155 31.278 33.3821 30.5269C33.2116 29.5709 32.5966 28.8491 31.7576 28.4037C31.0234 28.0137 31.0715 26.9592 31.8103 26.621C33.0467 25.929 34.4077 25.6605 35.7225 25.7714C32.6782 19.1833 26.5777 16.7948 19.6927 16.2559Z" fill="#E8FEFF"/>
<path fill-rule="evenodd" clip-rule="evenodd" d="M18.998 18.918C25.1499 20.9687 29.1066 24.7788 29.7853 31.3348C29.8536 31.9993 29.9223 32.5556 30.4731 33.0332C31.194 33.6578 32.2517 33.3576 32.8328 32.6876C33.3378 32.1038 33.5147 31.2766 33.3813 30.526C33.2113 29.5695 32.5963 28.8482 31.7572 28.4028C31.0231 28.0128 31.0712 26.9579 31.8099 26.6201C33.0463 25.9277 34.4074 25.6591 35.7217 25.77C35.68 25.6788 35.6369 25.5886 35.5934 25.4992C29.569 21.5352 23.4726 19.2241 18.998 18.918Z" fill="#A2E0E3"/>
<path fill-rule="evenodd" clip-rule="evenodd" d="M24.2625 3.31055C20.413 3.31055 16.6625 4.37007 13.3882 6.39562C12.8657 6.47032 12.3428 6.55235 11.8222 6.64263C8.71013 7.18202 5.97288 8.25666 4.92344 11.5053C4.42439 13.0525 4.5527 14.6459 5.13883 16.0821C4.0981 18.5888 3.56055 21.299 3.56055 24.0129C3.56055 35.4463 12.8291 44.7153 24.2625 44.7153C29.9789 44.7153 35.1546 42.3978 38.901 38.6514C42.6469 34.9055 44.9644 29.7294 44.9644 24.0129C44.9644 12.58 35.6958 3.31055 24.2625 3.31055ZM6.81286 12.113C7.61575 9.62783 9.86173 8.99817 12.1755 8.59718C14.537 8.1884 16.9283 7.94552 19.0441 7.90474C20.0198 7.88595 20.9335 7.90886 21.7543 7.97806C21.3556 8.418 21.0023 8.89918 20.676 9.39457C18.1871 9.28138 14.2744 9.37074 9.24353 10.752C11.8158 10.4958 16.9782 10.3363 19.7966 10.8789C18.1317 13.9754 16.4507 18.9582 16.7147 22.4026C14.0224 21.1547 10.8227 19.6168 8.23946 17.2489C6.92285 15.8855 6.21344 13.9686 6.81286 12.113ZM33.3821 30.5249C33.5155 31.276 33.3386 32.1032 32.8331 32.687C32.252 33.357 31.1948 33.6572 30.4739 33.0321C29.9231 32.555 29.8544 31.9987 29.7856 31.3338C29.1074 24.7768 25.1497 20.9668 18.9961 18.9165C19.1643 18.0801 19.3966 17.1833 19.6927 16.2539C26.5777 16.7928 32.6787 19.1813 35.7225 25.7694C34.4077 25.6585 33.0467 25.9271 31.8103 26.6191C31.0715 26.9573 31.0234 28.0118 31.7576 28.4017C32.5966 28.8476 33.2121 29.569 33.3821 30.5249ZM26.1097 32.1108C25.9076 32.0246 25.6931 32.0109 25.4947 32.0576C25.0777 32.1378 24.679 32.2606 24.3018 32.4192C24.4554 28.0468 22.9307 25.4017 18.9139 23.4334C18.5831 23.1383 18.6679 21.4404 18.7086 20.918C23.9613 22.7781 27.2293 25.9117 27.8113 31.5375C27.8608 32.0122 27.908 32.4737 27.9772 32.9214C28.0945 34.673 27.8562 35.5803 27.4928 35.9176C27.2888 36.1073 26.9571 35.7618 26.8393 35.6133C26.4465 35.1184 26.2577 34.294 26.634 33.4132C26.8484 32.9082 26.6138 32.3252 26.1097 32.1108ZM23.8273 14.8167C22.7339 14.5959 21.5864 14.4313 20.3848 14.32C21.0992 12.5304 21.9236 11.0044 22.7242 9.92287C24.1224 8.03388 24.6219 7.75984 24.5967 10.2432C24.5839 11.4714 24.3245 13.0639 23.8273 14.8167ZM17.7731 41.2444C16.4734 40.2371 16.3203 38.4384 17.2295 37.1154C17.433 36.8198 17.6855 36.5572 17.9779 36.3418C18.2029 37.6964 19.3271 39.0062 20.7578 39.0855C20.9186 39.9021 21.239 40.6482 21.6807 41.2962C20.541 42.2136 18.9059 42.122 17.7731 41.2444ZM22.208 33.8993C21.412 34.7742 20.8799 35.8951 20.7085 37.0669C20.006 36.786 19.7677 35.8419 20.0537 35.1733C20.3745 34.4181 19.6907 33.6344 18.913 33.8177C17.513 34.0909 16.3499 34.9016 15.5984 35.995C14.7666 37.2053 14.4687 38.7391 14.8188 40.1689C9.0868 36.8116 5.55078 30.6873 5.55078 24.0117C5.55078 22.0411 5.8482 20.1063 6.45587 18.2324C8.67389 20.8381 13.1956 22.9618 16.2981 24.3971C21.4234 26.7677 22.7643 28.1819 22.208 33.8993ZM24.3637 41.2295C22.0325 39.6269 22.0563 36.1381 24.4499 34.5781C24.5214 35.9978 25.4067 37.5693 26.8727 37.907C28.072 38.1829 29.0133 37.49 29.4936 36.4419C29.8217 36.9249 30.2021 37.3534 30.6232 37.7255C30.7282 39.7263 29.3332 41.4989 27.3617 41.8642C26.2729 42.0663 25.2065 41.8087 24.3637 41.2295ZM31.6309 41.217C32.0845 40.5268 32.3971 39.7446 32.5355 38.916C33.277 39.2217 34.0684 39.3963 34.8704 39.4284C33.8581 40.1268 32.7742 40.7266 31.6309 41.217ZM39.8417 33.8492C39.69 34.4138 39.4458 34.928 39.1287 35.3808C37.8602 37.037 35.9625 37.8366 33.8934 37.2826C32.8109 36.9925 31.8289 36.3303 31.1543 35.3528C33.9296 35.548 35.8057 32.7902 35.342 30.1849C35.1935 29.3486 34.8191 28.5283 34.199 27.8271C37.6778 27.1356 40.7812 30.3425 39.8417 33.8492ZM41.7334 30.7271C41.2004 28.8565 39.8948 27.2892 38.1401 26.4363C35.9592 20.5274 31.7119 16.9488 25.7618 15.2829C26.2888 13.3985 26.5642 11.6498 26.5779 10.2617C26.5912 9.0051 26.3571 7.04829 24.9515 6.56619C23.6203 6.10837 21.6937 5.90353 19.4844 5.91727C21.0077 5.51629 22.6089 5.30273 24.2618 5.30273C34.5968 5.30273 42.9739 13.6799 42.9739 24.0144C42.9739 26.3804 42.5345 28.6438 41.7334 30.7271Z" fill="#3975E9"/>
<path fill-rule="evenodd" clip-rule="evenodd" d="M4.78125 17.0061C5.15841 17.7412 5.64555 18.4208 6.21793 19.0299C6.29171 18.7622 6.37099 18.4969 6.45623 18.2352C5.8811 17.562 5.44208 16.8352 5.13778 16.0859C5.01176 16.3889 4.89307 16.6954 4.78125 17.0061Z" fill="#3975E9"/>
<path fill-rule="evenodd" clip-rule="evenodd" d="M15.0508 5.47054C14.4812 5.75375 13.9271 6.06262 13.3887 6.39533C15.4 6.10891 17.4531 5.92743 19.4855 5.91552C20.5276 5.64147 21.605 5.45496 22.7113 5.36422C20.254 5.06864 17.5099 5.20428 15.0508 5.47054Z" fill="#3975E9"/>
</svg>
