<svg width="48" height="48" viewBox="0 0 48 48" fill="none" xmlns="http://www.w3.org/2000/svg">
<circle cx="24.6645" cy="24.4145" r="20.2759" fill="white"/>
<path fill-rule="evenodd" clip-rule="evenodd" d="M27.9329 5.95598C20.4744 5.16899 13.6009 10.6344 18.2312 19.1294C19.9866 22.35 23.3269 24.9409 27.2568 25.1643C31.4427 25.4017 33.8348 23.0453 34.3543 19.8941C34.2306 20.0672 34.0987 20.2291 33.959 20.379C32.707 21.724 30.8628 22.1237 29.1115 21.8045C22.7209 20.6381 23.145 12.8603 27.7455 12.5198C28.5435 12.461 29.3694 12.6882 30.1125 13.2776C31.7693 14.5925 31.2201 17.3199 29.4171 17.2782C29.9833 16.1137 29.1981 14.4245 27.8853 14.5212C25.5811 14.6915 25.4249 19.0974 29.4611 19.8345C30.5453 20.0325 31.7277 19.8493 32.5137 19.0054C33.3735 18.0814 33.778 16.358 33.1807 13.552C32.899 12.3514 34.5545 11.8383 35.0465 12.8917C38.5389 19.8428 35.3131 27.6289 27.1482 27.1658C23.599 26.9636 20.4827 25.1717 18.2825 22.6576C17.3265 25.5234 16.4593 29.5851 16.9179 32.6039C18.2376 33.4506 19.4685 34.2024 20.9691 34.6568C24.1088 31.4255 26.7831 32.6419 29.0877 35.7422C28.9819 35.0089 28.7941 34.0692 28.6118 33.1559C26.8596 24.3801 38.3762 27.0501 40.3144 33.9012C41.9937 31.0688 42.9594 27.7543 42.9594 24.2117C42.9594 15.7963 36.56 6.86603 27.9329 5.95598Z" fill="#E8FEFF"/>
<path fill-rule="evenodd" clip-rule="evenodd" d="M29.5781 28.4632C32.2726 26.0805 38.8873 28.8569 40.3133 33.8995C41.9656 31.1129 42.9266 27.8603 42.9573 24.383C38.1488 23.3614 32.9798 24.817 29.5781 28.4632Z" fill="#A2E0E3"/>
<path fill-rule="evenodd" clip-rule="evenodd" d="M27.6771 21.3908C23.7779 19.8034 23.46 15.2518 25.6689 13.3539C27.9272 11.4154 34.0999 10.2078 37.033 10.4336C34.5483 8.00462 31.4229 6.32284 27.9318 5.95502C15.7624 4.67114 17.4857 17.2176 27.6771 21.3908Z" fill="#A2E0E3"/>
<path fill-rule="evenodd" clip-rule="evenodd" d="M18.5936 24.2852L18.1571 26.6762C17.9995 27.54 18.6917 28.3214 19.7343 26.9987C18.7989 27.3975 18.5378 24.6261 18.5936 24.2852Z" fill="#3975E9"/>
<path fill-rule="evenodd" clip-rule="evenodd" d="M24.2544 3.31055C12.8257 3.31055 3.56055 12.6688 3.56055 24.2109C3.56055 35.7538 12.8257 45.1121 24.2544 45.1121C35.6826 45.1121 44.9478 35.7538 44.9478 24.2109C44.9478 12.6545 35.6739 3.31055 24.2544 3.31055ZM24.2552 43.1026C13.9245 43.1026 5.55078 34.6451 5.55078 24.2111C5.55078 15.8097 11.0473 8.4228 19.0014 6.07617C14.7578 9.015 13.0184 14.541 16.8558 20.7222C15.553 24.3139 14.7422 27.5687 14.8595 31.5115C14.8975 32.7995 15.1906 33.8577 15.5191 34.0774C16.0441 34.4286 17.8865 35.5931 19.3294 36.2385C20.6817 36.8428 21.4279 37.0283 22.3931 36.0548C24.8406 33.5833 26.4141 35.409 27.9216 37.5233C29.8882 40.2822 31.1887 38.63 31.0627 36.0724C31.0128 35.0578 30.7805 33.8947 30.5542 32.7621C29.6743 27.5372 37.7127 29.8815 38.7736 36.1219C35.2125 40.5436 29.912 43.1026 24.2552 43.1026ZM40.3139 33.9012C38.3762 27.0501 26.8596 24.3801 28.6118 33.1554C28.7941 34.0692 28.9819 35.0089 29.0877 35.7422C26.7831 32.6419 24.1084 31.4255 20.9687 34.6568C19.4685 34.2024 18.2376 33.4506 16.9179 32.6039C16.4593 29.5851 17.3265 25.5234 18.2825 22.6572C20.4827 25.1717 23.599 26.9636 27.1478 27.1658C35.3126 27.6289 38.5389 19.8428 35.0465 12.8917C34.554 11.8383 32.899 12.3514 33.1807 13.552C33.778 16.358 33.3735 18.081 32.5137 19.0049C31.7277 19.8493 30.5453 20.0325 29.4611 19.834C25.4244 19.0974 25.5811 14.6915 27.8853 14.5212C29.1981 14.4245 29.9833 16.1137 29.4171 17.2778C31.2196 17.3199 31.7693 14.5925 30.112 13.2776C29.3694 12.6882 28.5435 12.4605 27.7455 12.5198C23.145 12.8603 22.7209 20.6381 29.1115 21.8045C30.8628 22.1237 32.7066 21.724 33.9585 20.379C34.0987 20.2291 34.2306 20.0672 34.3538 19.8941C33.8348 23.0453 31.4427 25.4017 27.2568 25.1639C23.3269 24.9409 19.9866 22.35 18.2312 19.1294C13.6009 10.6344 20.4744 5.16899 27.9329 5.95598C36.56 6.86603 42.9594 15.7959 42.9594 24.2117C42.9594 27.7543 41.9933 31.0688 40.3139 33.9012Z" fill="#3975E9"/>
<path fill-rule="evenodd" clip-rule="evenodd" d="M22.3471 3.39853C20.0548 4.05551 17.9156 5.28943 16.3242 7.09752C17.1831 6.69038 18.0782 6.348 19.0026 6.07503C22.4845 3.66456 27.7259 3.18293 31.6429 4.68196C28.6837 3.53918 25.4991 3.10752 22.3471 3.39853Z" fill="#3975E9"/>
</svg>
