<svg width="48" height="48" viewBox="0 0 48 48" fill="none" xmlns="http://www.w3.org/2000/svg">
<circle cx="24.2507" cy="23.1726" r="19.8621" fill="white"/>
<path fill-rule="evenodd" clip-rule="evenodd" d="M39.931 12.5684C40.967 15.2391 40.9972 17.4834 40.4329 19.0558C39.6119 21.3442 37.4643 22.4531 35.1851 21.4395C33.7058 20.7817 32.1678 19.1736 30.9975 16.414C30.4873 18.9623 30.6899 21.6137 32.4639 23.655C34.9783 26.549 40.3931 27.4635 43.2127 24.625C45.1482 22.6768 44.687 19.6261 43.6377 17.3555C42.8533 15.6585 41.5918 13.9853 39.931 12.5684Z" fill="white"/>
<path fill-rule="evenodd" clip-rule="evenodd" d="M37.206 21.2604C34.1507 21.1733 32.3881 18.8574 30.9973 16.4141C30.4871 18.9624 30.3395 21.6532 32.1135 23.6941C35.5227 27.6176 40.3814 22.5316 40.7229 17.8645C40.661 18.2954 40.5625 18.6937 40.4328 19.0559C39.873 20.6149 38.6495 21.3016 37.206 21.2604Z" fill="#A2E0E3"/>
<path fill-rule="evenodd" clip-rule="evenodd" d="M18.6802 12.8206C16.2364 12.3324 15.122 10.182 15.7716 7.8427C16.2194 6.23276 17.5401 4.41883 19.9289 2.83594C13.8719 3.38282 6.13211 8.73935 12.6273 14.5199C16.9222 18.3408 22.7302 16.2486 25.0021 11.1327C22.452 12.7119 20.2672 13.1369 18.6802 12.8206Z" fill="white"/>
<path fill-rule="evenodd" clip-rule="evenodd" d="M15.6032 8.76367C14.4677 18.245 22.3547 18.5228 25.0002 11.1337C22.1314 12.9095 15.2145 13.4349 15.6032 8.76367Z" fill="#A2E0E3"/>
<path fill-rule="evenodd" clip-rule="evenodd" d="M39.114 9.51618C35.2033 5.49546 29.8788 3.24604 24.2693 3.24604C23.9213 3.24604 23.5757 3.25475 23.2323 3.27125C24.5906 2.65148 25.6908 1.21849 23.9369 0.968656C17.8873 0.099968 7.39836 3.24467 8.28309 10.7906C5.14665 14.5954 3.56055 19.0809 3.56055 23.9547C3.56055 35.3912 12.8324 44.6625 24.2693 44.6625C35.0199 44.6625 43.9979 36.4226 44.9023 25.7224C47.1696 23.1301 46.7969 19.455 45.4428 16.5235C44.2376 13.9151 42.0556 11.3631 39.114 9.51618ZM19.9288 2.83594C17.5405 4.41883 16.2194 6.23276 15.772 7.8427C15.1219 10.182 16.2368 12.3324 18.6801 12.8206C20.2676 13.1369 22.4519 12.7119 25.0025 11.1327C22.7302 16.2486 16.9221 18.3408 12.6273 14.5199C6.13203 8.73935 13.8723 3.38282 19.9288 2.83594ZM9.00144 13.123C9.50065 14.1031 10.2557 15.0727 11.3004 16.0028C10.505 17.1928 10.2112 20.0143 9.12613 20.6107C8.21848 21.1095 6.66034 19.6444 6.18359 19.1136C6.76532 16.9347 7.73027 14.9122 9.00144 13.123ZM5.72487 21.4082C6.65636 22.1719 7.87344 22.8499 9.12032 22.6757C9.31468 24.0569 10.3814 26.5672 9.83544 27.7086C8.58627 27.9387 7.35635 28.2945 6.17824 28.7689C5.54288 26.3769 5.39115 23.8607 5.72487 21.4082ZM24.2693 42.6721C16.502 42.6721 9.56257 37.8813 6.79102 30.665C16.1935 26.7877 26.9858 32.075 29.6836 41.8768C27.9696 42.3943 26.152 42.6721 24.2693 42.6721ZM29.6277 36.7054C28.5394 34.8704 27.1633 33.2655 25.5799 31.9283C25.9137 31.6936 26.1323 31.3054 26.1323 30.8662C26.1323 30.1506 25.5515 29.5703 24.8359 29.5703C24.2606 29.5703 23.7724 29.9462 23.6033 30.4651C22.0896 29.4891 20.443 28.7286 18.7184 28.2097C18.8335 28.0163 18.9 27.7898 18.9 27.5478C18.9 26.8322 18.3192 26.2523 17.6036 26.2523C16.8454 26.2523 16.2522 26.8982 16.3113 27.6518C14.8857 27.4171 13.4252 27.3433 11.9569 27.4428C12.2081 25.489 10.749 22.7615 11.1024 21.4793C11.9949 20.3498 12.5198 17.559 12.9631 17.1418C20.1436 20.9618 25.9755 16.1022 27.8436 8.95003C28.17 7.69995 27.0574 7.06001 26.2969 7.71049C23.1673 10.3968 20.6497 11.1857 19.0668 10.8699C17.7594 10.6086 17.3428 9.59502 17.6829 8.37244C17.8965 7.60322 18.3971 6.76204 19.2259 5.92544C20.8299 5.47757 22.5205 5.23828 24.268 5.23828C28.8452 5.23828 33.0387 6.88168 36.2907 9.60969C36.2889 9.95716 36.4429 10.1405 36.6107 10.4078C38.811 13.905 39.1691 16.7068 38.5658 18.3883C38.139 19.5787 37.208 20.1683 35.9932 19.6278C34.5203 18.9727 32.9209 16.8746 31.9165 12.8727C31.6736 11.8994 30.3057 11.8692 30.005 12.8121C28.4569 16.8177 27.9472 21.4844 30.9621 24.9545C32.7907 27.0586 35.7287 28.3404 38.5108 28.3468C37.3464 29.7972 35.2056 30.4816 34.9091 32.7631C33.2194 34.3749 30.5583 35.5282 29.6277 36.7054ZM31.555 41.2023C31.3235 40.3813 31.0379 39.5759 30.6973 38.7938C31.5669 37.1862 33.7214 36.7392 35.6128 35.0605C36.2129 35.8013 37.0816 36.3487 37.9379 36.7429C36.1496 38.6559 33.9671 40.1819 31.555 41.2023ZM39.2732 35.1497C38.5329 34.8737 36.7707 34.0211 36.8798 33.041C37.0623 31.399 40.78 30.1251 40.6778 28.0828C41.4154 27.9164 42.0791 27.6854 42.6719 27.3984C42.1392 30.2653 40.9528 32.9021 39.2732 35.1497ZM43.2129 24.6246C40.3928 27.4635 34.9785 26.5485 32.4641 23.655C30.6901 21.6137 30.487 18.9618 30.9977 16.414C32.1675 19.1736 33.706 20.7812 35.1853 21.4391C37.464 22.4531 39.6117 21.3437 40.4327 19.0558C40.997 17.483 40.9667 15.2386 39.9307 12.5684C41.5915 13.9853 42.8531 15.658 43.6374 17.3555C44.6872 19.6261 45.1479 22.6763 43.2129 24.6246Z" fill="#3975E9"/>
<path fill-rule="evenodd" clip-rule="evenodd" d="M9.00144 13.123C7.73027 14.9122 6.76532 16.9347 6.18359 19.1131C6.66034 19.6444 8.21802 21.109 9.12613 20.6107C10.2112 20.0143 10.505 17.1928 11.3004 16.0028C10.2557 15.0727 9.50065 14.1031 9.00144 13.123Z" fill="#E8FEFF"/>
<path fill-rule="evenodd" clip-rule="evenodd" d="M5.72476 21.4082C5.39104 23.8602 5.54323 26.3765 6.17813 28.7689C7.35625 28.2945 8.58616 27.9387 9.83579 27.7086C10.3813 26.5672 9.31458 24.0564 9.12021 22.6753C7.87379 22.8499 6.65671 22.1719 5.72476 21.4082Z" fill="#E8FEFF"/>
<path fill-rule="evenodd" clip-rule="evenodd" d="M20.9651 31.237C16.5194 28.9876 11.3861 28.7703 6.79102 30.6645C9.56257 37.8808 16.502 42.6716 24.2693 42.6716C26.152 42.6716 27.9696 42.3938 29.6836 41.8763C28.4078 37.2399 25.2654 33.4122 20.9651 31.237Z" fill="#E8FEFF"/>
<path fill-rule="evenodd" clip-rule="evenodd" d="M8.41992 33.918C11.7952 39.2855 17.7399 42.6722 24.2704 42.6722C26.1531 42.6722 27.9707 42.3944 29.6842 41.8769C26.8902 39.1173 22.4505 36.6437 17.16 35.1827C14.1088 34.3402 11.1282 33.9336 8.41992 33.918Z" fill="#A2E0E3"/>
<path fill-rule="evenodd" clip-rule="evenodd" d="M35.6128 35.0605C33.7219 36.7392 31.5673 37.1862 30.6973 38.7938C31.0383 39.5759 31.3235 40.3809 31.555 41.2019C33.9676 40.1819 36.1501 38.6559 37.9383 36.7425C37.0816 36.3487 36.2133 35.8013 35.6128 35.0605Z" fill="#E8FEFF"/>
<path fill-rule="evenodd" clip-rule="evenodd" d="M36.8779 33.041C36.7688 34.0206 38.5309 34.8737 39.2717 35.1492C40.9509 32.9021 42.1377 30.2649 42.6699 27.3984C42.0772 27.6854 41.4134 27.9164 40.6763 28.0828C40.7785 30.1251 37.0603 31.399 36.8779 33.041Z" fill="#E8FEFF"/>
<path fill-rule="evenodd" clip-rule="evenodd" d="M35.5176 8.99251C35.7812 9.191 36.0392 9.39591 36.2918 9.6077C36.2923 9.4578 36.3276 9.30561 36.4005 9.16258C36.6494 8.67529 37.2467 8.48184 37.734 8.73122C38.2103 8.97509 38.6705 9.23685 39.1129 9.5151C38.5 8.88479 37.8477 8.29435 37.1591 7.74609C36.4101 7.79652 35.766 8.2861 35.5176 8.99251Z" fill="#3975E9"/>
<path fill-rule="evenodd" clip-rule="evenodd" d="M42.6706 27.3971C42.6037 27.7547 42.5271 28.1086 42.4414 28.4583C43.2688 28.1301 44.0477 27.6882 44.739 27.1092C44.8091 26.6513 44.8641 26.1878 44.9035 25.7207C44.281 26.4326 43.5214 26.9864 42.6706 27.3971Z" fill="#3975E9"/>
<path fill-rule="evenodd" clip-rule="evenodd" d="M7.5918 11.6762C7.77333 12.4688 8.07863 13.2105 8.47699 13.9018C8.64568 13.6377 8.82034 13.3783 9.00141 13.1234C8.62872 12.3913 8.37751 11.6074 8.28216 10.791C8.04425 11.0798 7.81413 11.375 7.5918 11.6762Z" fill="#3975E9"/>
<path fill-rule="evenodd" clip-rule="evenodd" d="M23.2326 3.27183C21.4586 4.08184 20.142 5.0005 19.2266 5.92465C19.8014 5.76421 20.3873 5.63081 20.9827 5.52492C22.0971 4.72133 24.2787 3.55742 25.0704 3.26129C24.4584 3.23791 23.8446 3.24158 23.2326 3.27183Z" fill="#3975E9"/>
</svg>
