<svg width="48" height="48" viewBox="0 0 48 48" fill="none" xmlns="http://www.w3.org/2000/svg">
<circle cx="23.8364" cy="23.5864" r="20.2759" fill="white"/>
<path fill-rule="evenodd" clip-rule="evenodd" d="M28.5009 15.3304C28.2301 15.7671 27.9718 16.2299 27.726 16.7202C27.4817 17.2105 26.8855 17.4095 26.3954 17.1643C25.9052 16.92 25.7066 16.3239 25.9508 15.834C28.3327 11.0767 31.9843 8.26518 36.9563 6.7001C32.2862 7.54403 25.3877 10.794 23.2965 15.1892C23.0026 15.8058 22.8229 16.4306 22.7801 17.0527C22.7573 17.3821 22.5767 17.663 22.3174 17.8266C19.7264 19.6305 19.9743 21.4667 17.9749 23.7903C16.5687 25.4234 14.9035 26.8646 13.4016 28.4122C13.2629 28.5559 13.3682 28.9832 13.5748 29.4856C13.9399 30.3741 14.7183 31.4896 15.4099 32.1604C15.5773 32.2655 18.448 30.8398 21.4819 33.8937C21.6965 33.0642 22.0442 32.3776 22.4846 31.8127C23.2956 30.7714 26.9966 28.2294 30.6901 29.9779C29.03 30.3323 28.1324 30.4904 27.4239 30.8677C30.7234 33.513 32.5733 35.2876 34.2567 39.308C38.0482 36.8795 40.9805 33.0845 42.2376 28.3927C42.8105 26.2549 42.9889 24.1049 42.8175 22.0187C38.9948 18.8038 33.0672 18.2055 28.5009 15.3304Z" fill="#E8FEFF"/>
<path fill-rule="evenodd" clip-rule="evenodd" d="M23.6758 30.7809C28.7237 31.4496 32.2541 34.526 34.256 39.3076C37.398 37.2948 39.95 34.3434 41.4472 30.7215C36.2655 26.3636 28.925 26.5447 23.6758 30.7809Z" fill="#A2E0E3"/>
<path fill-rule="evenodd" clip-rule="evenodd" d="M20.3305 21.8981C19.9378 22.2798 19.9292 22.9087 20.3109 23.3015C20.6929 23.6947 21.3218 23.7033 21.7146 23.3212C21.5302 21.9904 21.9092 21.111 22.9251 20.0933C21.6492 20.4979 21.2205 21.0313 20.3305 21.8981Z" fill="#3975E9"/>
<path fill-rule="evenodd" clip-rule="evenodd" d="M44.0375 7.19111C44.9861 7.03571 45.1854 5.73373 44.3029 5.31502C41.8361 4.14054 38.6956 4.31132 36.0864 4.84943C36.2514 4.7508 36.4176 4.65485 36.5842 4.56091C38.2833 3.60051 40.0503 2.83151 41.7201 2.10958C42.6569 1.77685 42.5764 0.403659 41.5891 0.200352C38.1602 -0.499157 33.8396 1.10378 30.0847 3.70589C18.9063 0.36942 7.17554 6.91571 4.15506 18.1883C1.19498 29.2355 7.75126 40.5906 18.7984 43.5507C24.3218 45.0307 29.9221 44.1318 34.5119 41.4819C39.1021 38.8322 42.6808 34.4312 44.1608 28.9078C46.1522 21.4755 43.8653 13.6007 38.2644 8.38254C39.7269 7.86417 42.4119 7.4114 44.0375 7.19111ZM34.8119 3.29714C33.2973 4.21917 31.8474 5.30852 30.5615 6.66439C29.6316 7.08486 28.7251 7.55621 27.8494 8.0809C29.8356 6.15191 32.2844 4.43375 34.8119 3.29714ZM19.3136 41.6263C9.32826 38.9507 3.40256 28.6871 6.07801 18.7022C8.65689 9.07766 18.3329 3.15398 28.0684 5.24245C25.0103 7.80302 22.591 10.9429 21.7873 13.79C21.3258 14.6093 20.9851 15.5018 20.8481 16.4328C18.0107 18.5115 18.4815 20.1553 16.4702 22.4914C15.0973 24.0869 13.448 25.5134 11.9766 27.0303C11.168 27.8639 11.2483 29.0486 11.7376 30.2404C12.2126 31.3956 13.131 32.7128 14.0295 33.5838C14.6055 34.1425 15.2153 34.3833 15.6968 34.1858C18.3823 33.0811 20.2561 35.4274 21.0133 36.3758C21.7742 37.3281 23.2578 37.7195 23.2306 36.0834C23.2052 34.678 23.5296 33.6957 24.0503 33.028C24.4539 32.5097 24.9923 32.1618 25.585 31.9371C28.8994 34.6225 30.8196 36.1384 32.5199 40.2924C28.5717 42.2661 23.9129 42.8587 19.3136 41.6263ZM42.2376 28.3931C40.9804 33.0849 38.0481 36.8799 34.2566 39.3085C32.5732 35.2881 30.7233 33.5134 27.4238 30.8681C28.1323 30.4909 29.0299 30.3327 30.69 29.9784C26.996 28.2297 23.2951 30.7718 22.4845 31.8132C22.0441 32.3781 21.6964 33.0647 21.4818 33.8941C18.4479 30.8402 15.5772 32.266 15.4099 32.1604C14.7183 31.4896 13.9398 30.3745 13.5747 29.4861C13.3678 28.9831 13.2629 28.5563 13.4015 28.4127C14.903 26.8649 16.5686 25.4238 17.9749 23.7903C19.9742 21.4671 19.7263 19.631 22.317 17.8265C22.5766 17.6635 22.7572 17.3825 22.78 17.0531C22.8228 16.431 23.0026 15.8062 23.2959 15.1896C25.3876 10.7945 32.2858 7.54392 36.9564 6.70011C31.9842 8.26563 28.3326 11.0772 25.9507 15.8345C25.706 16.3242 25.9051 16.9204 26.3953 17.1648C26.8854 17.41 27.4813 17.2104 27.7259 16.7207C27.9713 16.2302 28.23 15.7675 28.5008 15.3308C33.0672 18.2055 38.9947 18.8042 42.8174 22.0192C42.9889 24.1049 42.8104 26.2553 42.2376 28.3931ZM29.6491 13.7069C31.3804 11.5692 33.5413 10.1108 36.0788 9.11214C39.2203 11.7098 41.4367 15.2798 42.3763 19.2442C38.4703 16.7919 33.771 16.2726 29.6491 13.7069Z" fill="#3975E9"/>
<path fill-rule="evenodd" clip-rule="evenodd" d="M27.8494 8.0809C28.7251 7.55621 29.6316 7.08486 30.5615 6.66439C31.8474 5.30852 33.2977 4.21928 34.8119 3.29714C32.2849 4.43387 29.8356 6.15191 27.8494 8.0809Z" fill="#E8FEFF"/>
<path fill-rule="evenodd" clip-rule="evenodd" d="M29.0511 3.42494C28.3501 3.93666 27.6719 4.48057 27.0251 5.04902C27.3731 5.10336 27.7213 5.16771 28.0695 5.24251C28.7158 4.70095 29.3905 4.18601 30.0851 3.70487C29.8972 3.64833 29.7084 3.5949 29.5184 3.544C29.3625 3.50224 29.2065 3.46281 29.0511 3.42494Z" fill="#3975E9"/>
<path fill-rule="evenodd" clip-rule="evenodd" d="M36.0793 9.11218C36.3197 9.31138 36.5552 9.51638 36.7846 9.7264C37.4926 9.46476 38.2161 9.24242 38.9476 9.04879C38.7252 8.82121 38.4968 8.59865 38.2635 8.38189C37.5241 8.59096 36.7945 8.83065 36.0793 9.11218Z" fill="#3975E9"/>
</svg>
