<svg width="48" height="48" viewBox="0 0 48 48" fill="none" xmlns="http://www.w3.org/2000/svg">
<circle cx="24.2507" cy="24.0007" r="19.8621" fill="white"/>
<path fill-rule="evenodd" clip-rule="evenodd" d="M27.1382 14.9078C26.3728 15.6425 25.6408 15.9398 24.973 15.245C24.2411 14.4823 23.4029 13.8141 22.4932 13.2759C22.2619 13.1389 22.0425 13.0134 21.8341 12.8984C18.3145 16.1844 18.1744 17.6332 18.0406 19.0265C17.8982 20.5078 17.7599 21.9401 15.3542 24.4465C15.5915 25.4583 15.231 27.1237 14.123 28.0979C14.4002 28.2592 14.7455 28.4488 15.1211 28.6558C16.7815 29.5701 17.9788 30.1545 19.0918 31.7077C19.717 32.5807 20.6102 33.828 21.1622 33.4986C23.3667 32.1832 25.2346 30.3221 27.3937 28.9416C29.05 27.8859 28.3451 21.6799 27.7528 19.8876C27.4757 19.0471 27.9901 18.323 28.6254 17.428C29.4311 16.2943 30.5666 14.6953 28.9103 13.0647C28.8384 12.9942 27.3305 14.7233 27.1382 14.9078Z" fill="#FFC4E0"/>
<path fill-rule="evenodd" clip-rule="evenodd" d="M28.9551 22.5247C29.0436 20.5625 27.5032 18.838 25.8652 17.8711C26.9489 20.5813 27.4917 26.8504 26.212 29.7581C29.688 29.4058 28.8874 24.0674 28.9551 22.5247Z" fill="#FCB6C3"/>
<path fill-rule="evenodd" clip-rule="evenodd" d="M33.5601 8.81375C32.2616 8.40289 30.7904 8.17112 29.1245 8.15234C35.7623 10.2465 39.3556 14.602 39.0373 21.9182C36.3601 11.9243 30.7239 8.77298 20.8995 8.94933C19.9592 8.96627 17.0951 8.89116 19.5625 9.7344C21.8394 10.5121 24.1145 11.6966 25.8843 13.357C26.7596 12.467 28.3293 10.0752 29.6508 11.087C34.7331 14.978 29.5633 19.0321 29.6407 19.2657C30.631 22.2654 30.7606 25.8939 29.5092 30.024C28.7498 32.5318 27.4769 35.2306 25.5715 38.0905C31.5896 34.4872 33.9531 26.8219 31.9126 20.1726C36.8763 26.7697 33.2702 38.7245 29.6196 43.843C32.6069 42.2669 35.0803 40.0628 36.6656 36.727C38.538 32.7865 39.0827 27.3958 39.292 24.0375C40.3734 27.8598 39.9108 32.7164 39.2759 35.1408C41.5867 32.0293 42.954 28.1754 42.954 24.0018C42.954 17.8586 39.7954 10.7865 33.5601 8.81375Z" fill="#E8FEFF"/>
<path fill-rule="evenodd" clip-rule="evenodd" d="M29.6211 43.8391C36.6744 37.9286 39.0686 26.9962 31.9122 20.1719C36.8755 26.7676 33.2712 38.7187 29.6211 43.8391Z" fill="#A2E0E3"/>
<path fill-rule="evenodd" clip-rule="evenodd" d="M21.8402 16.1582C20.8092 16.4298 19.9215 17.427 19.4786 18.4346C19.2468 18.9302 19.8235 19.9347 20.3186 20.166C20.38 20.1944 20.1455 19.4249 20.3869 18.6348C20.6773 17.6839 21.4715 16.6437 21.8402 16.1582Z" fill="#3975E9"/>
<path fill-rule="evenodd" clip-rule="evenodd" d="M19.6048 27.5234C19.2682 27.5234 18.9961 27.7964 18.9961 28.1322C18.9961 28.4688 19.2682 28.7409 19.6048 28.7409C19.941 28.7409 20.2131 28.4688 20.2131 28.1322C20.2131 27.7964 19.941 27.5234 19.6048 27.5234Z" fill="#466482"/>
<path fill-rule="evenodd" clip-rule="evenodd" d="M21.3001 28.5996C20.9639 28.5996 20.6914 28.8717 20.6914 29.2083C20.6914 29.5445 20.9639 29.8166 21.3001 29.8166C21.6363 29.8166 21.9089 29.5445 21.9089 29.2083C21.9089 28.8717 21.6363 28.5996 21.3001 28.5996Z" fill="#466482"/>
<path fill-rule="evenodd" clip-rule="evenodd" d="M21.7142 26.5527C21.3775 26.5527 21.1055 26.8253 21.1055 27.1615C21.1055 27.4977 21.3775 27.7697 21.7142 27.7697C22.0504 27.7697 22.3225 27.4977 22.3225 27.1615C22.3225 26.8253 22.0504 26.5527 21.7142 26.5527Z" fill="#466482"/>
<path fill-rule="evenodd" clip-rule="evenodd" d="M24.2519 3.31055C12.8248 3.31055 3.56055 12.5753 3.56055 24.0019C3.56055 35.4294 12.8248 44.6932 24.2519 44.6932C25.1872 44.6932 26.1079 44.6309 27.0102 44.5109C25.4813 48.0955 27.7307 47.0402 30.254 45.7481C32.4155 44.6406 35.0327 43.064 36.9789 40.3172C37.6481 39.795 38.2838 39.2325 38.8829 38.633C42.6279 34.889 44.9437 29.7154 44.9437 24.0019C44.9437 18.2883 42.6279 13.1153 38.8829 9.37083C35.139 5.62684 29.9654 3.31055 24.2519 3.31055ZM24.2529 42.705C13.9241 42.705 5.55078 34.3316 5.55078 24.0024C5.55078 13.6737 13.9241 5.30078 24.2529 5.30078C26.2472 5.30078 28.1691 5.6127 29.9715 6.1912C27.7628 6.07807 25.2505 6.319 22.391 6.98727C20.6926 6.91582 18.9392 7.00147 17.2719 7.32897C12.8945 8.18916 18.1665 11.2731 19.9231 11.979C16.398 15.4193 16.2294 17.1612 16.0678 18.8408C15.9592 19.9703 15.8539 21.0627 13.9255 23.0721C10.8649 26.2573 9.71617 27.947 14.166 30.3971C15.5145 31.1395 16.5766 31.6104 17.4762 32.8663C18.538 34.3495 20.0563 36.4683 22.1803 35.2014C23.7857 34.2432 25.2468 33.0111 26.7258 31.8669C25.6087 34.4937 23.897 37.3235 21.4534 40.3273C21.1085 40.7524 21.173 41.3771 21.5972 41.7225C21.9283 41.9913 22.3809 42.012 22.7281 41.8063C23.0519 41.635 23.4179 41.4559 23.8136 41.2617C25.9792 40.2004 28.9862 38.7255 31.27 35.845C30.3974 37.8708 29.2116 39.8523 28.0097 42.3271C26.7959 42.5744 25.54 42.705 24.2529 42.705ZM27.7513 19.8872C28.3431 21.6795 29.0485 27.8859 27.3918 28.9416C25.2331 30.3221 23.3652 32.1832 21.1607 33.4986C20.6087 33.8275 19.7151 32.5803 19.0903 31.7077C17.9773 30.1545 16.78 29.5701 15.1196 28.6558C14.744 28.4488 14.3987 28.2592 14.1211 28.0979C15.2291 27.1237 15.59 25.4583 15.3528 24.4465C17.7584 21.9396 17.8967 20.5073 18.0391 19.0265C18.1729 17.6332 18.3126 16.1839 21.8326 12.8984C22.041 13.0134 22.2604 13.1389 22.4913 13.2754C23.4014 13.8141 24.2391 14.4823 24.9715 15.245C25.6393 15.9398 26.3713 15.6425 27.1367 14.9078C27.3286 14.7233 28.8369 12.9942 28.9083 13.0647C30.5651 14.6953 29.4296 16.2943 28.6239 17.428C27.9886 18.323 27.4742 19.0467 27.7513 19.8872ZM39.2759 35.1408C39.9108 32.7164 40.3734 27.8598 39.2915 24.0375C39.0827 27.3958 38.5381 32.7865 36.6651 36.727C35.0799 40.0628 32.6065 42.2669 29.6196 43.843C33.2697 38.7245 36.8763 26.7697 31.9125 20.1726C33.9526 26.8219 31.5896 34.4872 25.5715 38.091C27.4769 35.2306 28.7498 32.5318 29.5092 30.024C30.7606 25.8939 30.631 22.2654 29.6407 19.2657C29.5633 19.0321 34.7331 14.978 29.6508 11.087C28.3293 10.0756 26.7592 12.467 25.8843 13.3575C24.1145 11.6971 21.8394 10.5126 19.5625 9.7344C17.0951 8.89161 19.9592 8.96627 20.8995 8.94933C30.7239 8.77298 36.3601 11.9243 39.0373 21.9182C39.5109 16.4671 36.8502 9.67669 29.1245 8.15234C30.7904 8.17112 32.2611 8.40289 33.5601 8.81375C39.7954 10.7865 42.954 17.8586 42.954 24.0018C42.954 28.1754 41.5867 32.0293 39.2759 35.1408Z" fill="#3975E9"/>
<path fill-rule="evenodd" clip-rule="evenodd" d="M19.6048 27.5234C19.2682 27.5234 18.9961 27.7964 18.9961 28.1322C18.9961 28.4688 19.2682 28.7409 19.6048 28.7409C19.941 28.7409 20.2131 28.4688 20.2131 28.1322C20.2131 27.7964 19.941 27.5234 19.6048 27.5234Z" fill="#3975E9"/>
<path fill-rule="evenodd" clip-rule="evenodd" d="M21.7142 26.5527C21.3775 26.5527 21.1055 26.8253 21.1055 27.1615C21.1055 27.4977 21.3775 27.7697 21.7142 27.7697C22.0504 27.7697 22.3225 27.4977 22.3225 27.1615C22.3225 26.8253 22.0504 26.5527 21.7142 26.5527Z" fill="#3975E9"/>
<path fill-rule="evenodd" clip-rule="evenodd" d="M21.3001 28.5996C20.9639 28.5996 20.6914 28.8717 20.6914 29.2083C20.6914 29.5445 20.9639 29.8166 21.3001 29.8166C21.6363 29.8166 21.9089 29.5445 21.9089 29.2083C21.9089 28.8717 21.6363 28.5996 21.3001 28.5996Z" fill="#3975E9"/>
<path fill-rule="evenodd" clip-rule="evenodd" d="M35.1287 6.39797C32.4377 5.39303 29.5296 5.20203 26.6875 5.45808C27.8156 5.60465 28.9126 5.85244 29.9684 6.19093C33.744 6.36407 36.8889 7.6397 39.671 10.2075C38.3509 8.72708 36.8142 7.44137 35.1287 6.39797Z" fill="#3975E9"/>
<path fill-rule="evenodd" clip-rule="evenodd" d="M25.7871 44.637C26.1984 44.6067 26.6061 44.5641 27.0101 44.511C27.3403 43.7369 27.6747 43.0128 28.0086 42.3262C27.5812 42.4132 27.1489 42.486 26.7123 42.5433C26.389 43.2322 26.0793 43.9279 25.7871 44.637Z" fill="#3975E9"/>
<path fill-rule="evenodd" clip-rule="evenodd" d="M36.9785 40.3159C37.6472 39.7938 38.2835 39.2313 38.8826 38.6317C39.085 38.4297 39.2829 38.2227 39.4766 38.0125C40.1678 36.3557 40.5695 34.6015 40.7527 32.8105C40.3171 33.6249 39.8229 34.4036 39.2756 35.1406C38.7804 37.2283 37.966 38.9226 36.9785 40.3159Z" fill="#3975E9"/>
</svg>
