<svg width="48" height="48" viewBox="0 0 48 48" fill="none" xmlns="http://www.w3.org/2000/svg">
<circle cx="24.2507" cy="24.0007" r="19.8621" fill="white"/>
<path fill-rule="evenodd" clip-rule="evenodd" d="M25.2645 3.235V0.995668C25.2645 0.445575 24.8189 0 24.2688 0C23.7187 0 23.2731 0.445575 23.2731 0.995668V3.235C12.2442 3.75713 3.56055 12.8713 3.56055 23.9199C3.56055 35.3563 12.8319 44.6286 24.2688 44.6286C35.7052 44.6286 44.977 35.3563 44.977 23.9199C44.977 12.8713 36.2934 3.75713 25.2645 3.235ZM8.47785 33.9709C6.62587 31.0673 5.55273 27.6187 5.55273 23.9198C5.55273 13.97 13.3457 5.74881 23.2744 5.22852V7.01128C19.0914 7.25928 15.3256 9.05716 12.5435 11.8393C9.42355 14.9597 7.68664 19.1527 7.68664 23.5654C7.68664 27.2442 10.6686 30.2266 14.3478 30.2266C17.7996 30.2266 20.6858 27.5834 20.9838 24.148C21.7498 19.6662 19.5384 14.4591 16.4441 11.2465C18.4432 9.97398 20.7724 9.17497 23.2744 9.00628V33.9709H8.47785ZM9.71094 22.5688C9.97636 18.6279 11.8233 14.9899 14.8282 12.4375C17.3889 15.0019 19.2106 18.9061 19.1354 22.5688H9.71094ZM18.9096 24.5605C18.4448 26.7013 16.5424 28.2352 14.3456 28.2352C12.1476 28.2352 10.2465 26.7013 9.78125 24.5605H18.9096ZM24.2689 42.6378C18.7212 42.6378 13.5036 40.2014 9.93945 35.9629H38.5984C35.0342 40.2014 29.8171 42.6378 24.2689 42.6378ZM40.0607 33.9709H25.2637V9.00628C27.7657 9.17497 30.0958 9.97398 32.094 11.2465C29.0002 14.4591 26.7883 19.6662 27.5543 24.148C27.8528 27.5834 30.7385 30.2266 34.1903 30.2266C37.8691 30.2266 40.8519 27.2442 40.8519 23.5654C40.8519 18.9863 38.9958 14.8405 35.9942 11.8393C33.2121 9.05716 29.4462 7.25928 25.2637 7.01128V5.22852C35.1924 5.74881 42.9858 13.97 42.9858 23.9198C42.9858 27.6187 41.9127 31.0673 40.0607 33.9709ZM29.4026 22.5688C29.3279 18.9061 31.1492 15.0019 33.7103 12.4375C36.7147 14.9899 38.5617 18.6279 38.8275 22.5688H29.4026ZM38.7544 24.5605C38.2895 26.7013 36.3881 28.2352 34.1904 28.2352C31.9933 28.2352 30.0918 26.7013 29.627 24.5605H38.7544Z" fill="#3975E9"/>
<path fill-rule="evenodd" clip-rule="evenodd" d="M14.3456 28.2352C16.5424 28.2352 18.4448 26.7018 18.9096 24.5605H9.78125C10.247 26.7018 12.148 28.2352 14.3456 28.2352Z" fill="#FFC4E0"/>
<path fill-rule="evenodd" clip-rule="evenodd" d="M16.8203 27.5246C17.8604 26.8751 18.6342 25.8235 18.9088 24.5605H12.4434C13.5325 25.6282 15.0114 26.6248 16.8203 27.5246Z" fill="#FCB6C3"/>
<path fill-rule="evenodd" clip-rule="evenodd" d="M24.2689 42.6363C29.8171 42.6363 35.0342 40.1999 38.5984 35.9609H9.93945C13.5036 40.1999 18.7208 42.6363 24.2689 42.6363Z" fill="#E8FEFF"/>
<path fill-rule="evenodd" clip-rule="evenodd" d="M14.6914 40.0061C17.5514 41.7109 20.8474 42.6383 24.269 42.6383C29.8171 42.6383 35.0343 40.2014 38.5984 35.9629H33.8136C26.2186 36.4603 19.5249 37.9263 14.6914 40.0061Z" fill="#A2E0E3"/>
<path fill-rule="evenodd" clip-rule="evenodd" d="M34.1909 28.2352C36.3881 28.2352 38.29 26.7018 38.7548 24.5605H29.627C30.0918 26.7018 31.9937 28.2352 34.1909 28.2352Z" fill="#FFC4E0"/>
<path fill-rule="evenodd" clip-rule="evenodd" d="M36.6675 27.5246C37.7076 26.8751 38.4819 25.8235 38.756 24.5605H32.291C33.3797 25.6282 34.8595 26.6248 36.6675 27.5246Z" fill="#FCB6C3"/>
<path fill-rule="evenodd" clip-rule="evenodd" d="M22.4023 5.29447C22.6907 5.26559 22.9809 5.24359 23.2733 5.22846V3.23438C22.9813 3.24859 22.6911 3.26876 22.4023 3.29443V5.29447Z" fill="#3975E9"/>
<path fill-rule="evenodd" clip-rule="evenodd" d="M25.2637 5.22846C25.5557 5.24313 25.8463 5.26559 26.1347 5.29447V3.29397C25.8459 3.2683 25.5552 3.24813 25.2637 3.23438V5.22846Z" fill="#3975E9"/>
</svg>
