<svg width="48" height="48" viewBox="0 0 48 48" fill="none" xmlns="http://www.w3.org/2000/svg">
<circle cx="24.2507" cy="24.0007" r="19.8621" fill="white"/>
<path fill-rule="evenodd" clip-rule="evenodd" d="M13.7074 13.5519C9.51431 17.7445 8.09232 23.9372 10.0149 29.5321C10.4123 28.8243 10.9615 28.2756 11.5817 27.8424C10.9533 26.6872 10.4082 24.6702 10.5838 22.9919C11.1146 24.716 11.6941 26.111 12.951 27.0952C13.7551 26.7514 14.5793 26.53 15.2903 26.3613C15.0854 26.2237 14.8763 26.0867 14.6696 25.9505C13.2792 25.0374 11.948 24.1627 11.6189 23.096C10.5242 19.5534 19.906 19.0822 22.0615 18.9185C26.8674 18.5527 31.2989 18.2135 34.9369 12.9385C28.845 7.50269 19.4045 7.85475 13.7074 13.5519Z" fill="#E8FEFF"/>
<path fill-rule="evenodd" clip-rule="evenodd" d="M9.56972 21.0169C8.93024 23.7884 9.05585 26.7346 10.0167 29.5319C10.4141 28.8241 10.9633 28.2749 11.5835 27.8417C10.955 26.6865 10.41 24.6695 10.5856 22.9917C11.1164 24.7153 11.6958 26.1103 12.9533 27.0945C13.7568 26.7507 14.5811 26.5293 15.2925 26.3606C15.0872 26.2231 14.8786 26.086 14.6718 25.9503C13.281 25.0367 11.9503 24.162 11.6207 23.0953C10.5264 19.5532 19.9083 19.0815 22.0633 18.9178C25.957 18.6212 29.605 18.3425 32.7846 15.4422C30.2216 13.6438 27.0242 12.5762 23.5558 12.5762C17.3008 12.5762 11.926 16.0482 9.56972 21.0169Z" fill="#A2E0E3"/>
<path fill-rule="evenodd" clip-rule="evenodd" d="M28.2794 12.1914C28.5883 11.8819 28.5883 11.3809 28.2794 11.0719C27.9695 10.7625 27.4689 10.7625 27.1595 11.0719C26.8505 11.3809 26.8505 11.8819 27.1595 12.1914C27.4689 12.5003 27.9695 12.5003 28.2794 12.1914Z" fill="#3975E9"/>
<path fill-rule="evenodd" clip-rule="evenodd" d="M36.9196 20.2249C37.5485 21.3805 38.0931 23.3975 37.918 25.0758C37.3876 23.3521 36.8073 21.9563 35.5503 20.9721C34.7467 21.3163 33.9225 21.5382 33.2115 21.7064C33.4164 21.844 33.625 21.981 33.8313 22.1172C35.2225 23.0308 36.5538 23.905 36.8829 24.9717C37.9776 28.5143 28.5953 28.9851 26.4403 29.1492C21.6343 29.5155 17.2029 29.8533 13.5645 35.1287C19.6567 40.565 29.0972 40.2134 34.7944 34.5158C38.9875 30.3223 40.409 24.1301 38.4869 18.5352C38.0894 19.2425 37.5403 19.7921 36.9196 20.2249Z" fill="#E8FEFF"/>
<path fill-rule="evenodd" clip-rule="evenodd" d="M36.9193 20.2249C37.5483 21.3805 38.0929 23.3975 37.9178 25.0758C37.3874 23.3521 36.807 21.9563 35.5501 20.9721C34.7465 21.3163 33.9222 21.5382 33.2112 21.7064C33.4162 21.844 33.6247 21.981 33.831 22.1172C35.2223 23.0308 36.5535 23.905 36.8827 24.9717C37.9773 28.5143 28.595 28.9851 26.4401 29.1492C22.5459 29.4463 18.8978 29.7245 15.7188 32.6249C18.2817 34.4228 21.4791 35.4913 24.9475 35.4913C31.2025 35.4913 36.5774 32.0189 38.9336 27.0506C39.5726 24.279 39.4475 21.3324 38.4866 18.5352C38.0892 19.2425 37.54 19.7921 36.9193 20.2249Z" fill="#A2E0E3"/>
<path fill-rule="evenodd" clip-rule="evenodd" d="M20.2259 35.8743C19.9169 36.1833 19.9169 36.6848 20.2259 36.9942C20.5348 37.3032 21.0363 37.3032 21.3458 36.9942C21.6547 36.6848 21.6547 36.1833 21.3458 35.8743C21.0363 35.5653 20.5348 35.5653 20.2259 35.8743Z" fill="#3975E9"/>
<path fill-rule="evenodd" clip-rule="evenodd" d="M24.2688 3.31055C18.5501 3.31055 13.3728 5.62873 9.62578 9.37624C5.87781 13.1237 3.56055 18.3006 3.56055 24.0188C3.56055 29.737 5.87781 34.9148 9.62578 38.6618C13.3728 42.4098 18.5501 44.728 24.2688 44.728C29.987 44.728 35.1638 42.4098 38.9118 38.6618C42.6589 34.9148 44.977 29.737 44.977 24.0188C44.977 18.3006 42.6589 13.1237 38.9118 9.37624C35.1638 5.62873 29.987 3.31055 24.2688 3.31055ZM24.2686 42.7375C19.0996 42.7375 14.4197 40.6421 11.0329 37.2553C7.64572 33.8686 5.55078 29.1891 5.55078 24.0196C5.55078 18.8511 7.64572 14.1716 11.0329 10.7849C14.4197 7.39767 19.0996 5.30273 24.2686 5.30273C29.4372 5.30273 34.1166 7.39767 37.5043 10.7849C40.8906 14.1716 42.986 18.8511 42.986 24.0196C42.986 29.1891 40.8906 33.8686 37.5043 37.2553C34.1166 40.6421 29.4372 42.7375 24.2686 42.7375Z" fill="#3975E9"/>
<path fill-rule="evenodd" clip-rule="evenodd" d="M12.3005 12.1439C6.81154 17.6329 5.59996 26.1135 9.34884 32.9145C10.1029 34.2869 11.4245 33.6383 11.3617 32.6408C11.144 29.3329 14.4963 28.5733 16.2864 28.1681C17.4192 27.9114 19.4325 27.1128 17.8551 25.7834C17.25 25.2732 16.4955 24.7772 15.7597 24.2936C15.173 23.8971 14.5967 23.512 14.1732 23.1819C13.5584 22.7043 13.6089 22.4095 13.9641 22.2083C15.1225 21.5527 20.7646 21.0109 22.2096 20.9009C27.5583 20.4934 32.4871 20.1175 36.6536 13.9482C37.3032 12.9855 37.448 12.5532 36.5679 11.7304C29.7522 5.36397 18.9429 5.50149 12.3005 12.1439ZM22.0617 18.9181C19.9062 19.0817 10.5244 19.5534 11.6186 23.0956C11.9482 24.1623 13.279 25.037 14.6698 25.9506C14.8765 26.0863 15.0851 26.2233 15.2905 26.3608C14.5795 26.5295 13.7548 26.751 12.9512 27.0948C11.6938 26.1106 11.1144 24.7156 10.5835 22.992C10.408 24.6698 10.953 26.6868 11.5819 27.842C10.9617 28.2752 10.4121 28.8243 10.0151 29.5321C8.09252 23.9372 9.51451 17.7446 13.7076 13.5515C15.4523 11.8068 17.5284 10.5658 19.7444 9.8333C18.7836 12.9523 20.3362 16.4211 22.3248 18.0939C20.9266 16.031 20.4068 10.95 21.799 9.30613C26.3652 8.45945 31.2569 9.65407 34.9371 12.9381C31.2991 18.2135 26.8677 18.5523 22.0617 18.9181Z" fill="#3975E9"/>
<path fill-rule="evenodd" clip-rule="evenodd" d="M37.1409 15.4264C37.3596 18.7353 34.0068 19.4944 32.2171 19.8996C31.0835 20.1563 29.0706 20.9549 30.6475 22.2847C31.2526 22.7949 32.0072 23.2905 32.7438 23.7741C33.3301 24.1706 33.9064 24.5562 34.3299 24.8853C34.9447 25.3639 34.8947 25.6586 34.539 25.8594C33.3806 26.5149 27.7389 27.0572 26.2931 27.1668C20.9443 27.5743 16.016 27.9502 11.8495 34.12C11.1994 35.0817 11.055 35.5145 11.9356 36.3373C18.7504 42.7042 29.5602 42.5667 36.2025 35.9243C41.692 30.4344 42.9036 21.9547 39.1538 15.1528C38.4006 13.7812 37.0786 14.4294 37.1409 15.4264ZM34.7944 34.5178C33.0497 36.262 30.9735 37.5029 28.7571 38.2359C29.7179 35.1174 28.1658 31.6486 26.1767 29.9758C27.5749 32.0387 28.0952 37.1197 26.703 38.7636C22.1367 39.6098 17.2446 38.4152 13.5645 35.1307C17.2029 29.8557 21.6339 29.5174 26.4403 29.1512C28.5948 28.9875 37.9771 28.5163 36.8829 24.9737C36.5533 23.9069 35.2225 23.0327 33.8313 22.1191C33.6245 21.983 33.4164 21.8459 33.211 21.7089C33.9225 21.5402 34.7462 21.3187 35.5498 20.9745C36.8073 21.9587 37.3871 23.3541 37.918 25.0777C38.0931 23.3995 37.5485 21.3829 36.9196 20.2268C37.5403 19.7941 38.0894 19.2449 38.4869 18.5371C40.409 24.132 38.9875 30.3247 34.7944 34.5178Z" fill="#3975E9"/>
</svg>
