<svg width="48" height="48" viewBox="0 0 48 48" fill="none" xmlns="http://www.w3.org/2000/svg">
<circle cx="24.6645" cy="23.5864" r="20.2759" fill="white"/>
<path fill-rule="evenodd" clip-rule="evenodd" d="M8.47656 24.6728L9.33471 24.9978C10.8915 25.47 10.2002 26.1218 9.62259 27.2046L11.8207 26.2869L12.8539 24.351L10.7539 23.7129L8.47656 24.6728Z" fill="#FFC4E0"/>
<path fill-rule="evenodd" clip-rule="evenodd" d="M44.0524 12.2012C44.5493 11.5736 44.1253 10.6197 43.3043 10.5949L40.1477 10.4964C36.2035 5.78895 30.4225 3.08066 24.2693 3.08066C19.4734 3.08066 15.0579 4.71215 11.5474 7.4484C11.3054 7.23432 11.1165 6.98678 11.0184 6.70348C10.5632 5.38968 11.7432 4.62413 12.8952 4.46139C14.1888 4.28216 13.9165 2.31512 12.6224 2.4939C10.1708 2.84045 8.27118 4.83179 9.14445 7.34892C9.34523 7.92744 9.63449 8.39823 9.99663 8.78513C5.87506 12.7091 3.56055 18.0959 3.56055 23.7894C3.56055 35.2263 12.8328 44.4981 24.2693 44.4981C40.0143 44.4981 49.789 27.6721 42.5667 14.0839L44.0524 12.2012ZM41.2736 12.5168L38.5177 16.0025L37.043 12.3848L41.2736 12.5168ZM24.2688 5.07227C29.3636 5.07227 33.9825 7.10807 37.3573 10.4095L35.6053 10.3545C34.8874 10.311 34.3497 11.0389 34.6271 11.7201L35.576 14.0475L27.9778 17.1367C27.3823 15.7221 26.6122 14.4321 25.6981 13.4034C22.8541 10.2028 19.1002 9.51289 15.9367 8.93117C15.2111 8.79823 14.5221 8.67171 13.9 8.52135C13.7941 8.49568 13.6818 8.4668 13.5645 8.43333C16.5978 6.31502 20.2884 5.07227 24.2688 5.07227ZM12.612 10.2346C13.5045 10.5014 14.5098 10.6861 15.5788 10.8828C18.4324 11.4072 21.8178 12.0288 24.2134 14.7243C24.9772 15.5842 25.6272 16.6762 26.1374 17.8841L13.9703 22.8303C12.9911 22.52 11.8588 22.1207 10.9296 21.9098L12.612 10.2346ZM12.5476 24.4729L12.5503 24.4798C12.5572 24.4967 12.5645 24.5123 12.5719 24.5288L11.6922 26.1773L9.96489 26.9098L10.2784 26.323C10.5746 25.7688 10.2587 25.0079 9.6573 24.8254L9.02148 24.632L10.7607 23.9297L12.5476 24.4729ZM10.4746 11.1406L8.82755 22.5706L5.55312 23.9028C5.52287 19.1651 7.2717 14.631 10.4746 11.1406ZM17.5124 41.2502C10.9622 38.7133 6.34694 32.6871 5.64648 25.6738L7.99401 26.3931L6.91766 28.4087C6.42853 29.2192 7.26422 30.2167 8.15628 29.8367L10.5684 28.813L18.1116 38.0578C17.5198 39.037 17.2677 40.1197 17.5124 41.2502ZM12.4707 28.0051C12.8292 27.8534 13.1189 27.7663 13.3004 27.3766L14.7499 24.6619L26.7942 19.7656C27.3237 21.619 27.5588 23.785 27.2742 25.6993C26.6594 29.8438 23.7811 32.4265 21.3822 34.5783C20.6561 35.2301 19.968 35.8476 19.3753 36.466L12.4707 28.0051ZM24.269 42.5074C23.9797 42.5074 23.6919 42.5005 23.4063 42.4876C23.3907 41.7863 22.6563 41.31 22.004 41.6034C21.4411 41.8573 20.6659 42.0599 20.0924 41.7413C19.7229 41.5369 19.5015 41.1486 19.4392 40.7388C19.204 39.1953 20.7924 37.7701 22.7031 36.0561C25.3481 33.6834 28.5217 30.8362 29.2409 25.9871C29.5792 23.7075 29.29 21.2155 28.6441 19.0129L36.327 15.8893L37.2993 18.2753C37.5487 19.0101 38.5269 19.1949 39.0207 18.5714L41.2041 15.8086C46.9846 28.0532 38.1043 42.5074 24.269 42.5074Z" fill="#3975E9"/>
<path fill-rule="evenodd" clip-rule="evenodd" d="M38.5177 16.0025L41.2732 12.5168L37.043 12.3848L38.5177 16.0025Z" fill="#FFC4E0"/>
<path fill-rule="evenodd" clip-rule="evenodd" d="M38.5169 16.0033L41.2724 12.5176L37.7793 14.1944L38.5169 16.0033Z" fill="#FCB6C3"/>
<path fill-rule="evenodd" clip-rule="evenodd" d="M9.96484 26.9114L11.6917 26.1784L12.5938 24.4883L10.3004 25.4363C10.5461 26.035 10.2353 26.4054 9.96484 26.9114Z" fill="#FCB6C3"/>
<path fill-rule="evenodd" clip-rule="evenodd" d="M9.47266 9.30087C9.61522 9.45169 9.76925 9.59425 9.93428 9.72811L9.58038 12.1861C9.86551 11.8263 10.163 11.4765 10.4734 11.1386L10.7237 9.39805C10.4569 9.21973 10.213 9.01757 9.9957 8.78516C9.8183 8.95385 9.6441 9.12576 9.47266 9.30087Z" fill="#3975E9"/>
<path fill-rule="evenodd" clip-rule="evenodd" d="M11.5469 7.44763C12.0896 7.92804 12.9006 8.24389 13.5639 8.43138C13.8371 8.24114 14.1154 8.05731 14.3986 7.88128C13.656 7.71672 12.7502 7.45267 12.1483 6.99609C11.9448 7.14279 11.744 7.29314 11.5469 7.44763Z" fill="#3975E9"/>
<path fill-rule="evenodd" clip-rule="evenodd" d="M36.6914 9.78711C36.9183 9.98881 37.1411 10.1965 37.3579 10.4087L40.1483 10.4958C39.9727 10.2863 39.7935 10.0805 39.6096 9.87833L36.6914 9.78711Z" fill="#3975E9"/>
<path fill-rule="evenodd" clip-rule="evenodd" d="M41.2051 15.8076C41.3009 16.0111 41.3939 16.217 41.4824 16.4246L42.8682 14.6721C42.771 14.4741 42.6711 14.2784 42.5675 14.084L41.2051 15.8076Z" fill="#3975E9"/>
</svg>
