<svg width="48" height="48" viewBox="0 0 48 48" fill="none" xmlns="http://www.w3.org/2000/svg">
<circle cx="24.6645" cy="24.4145" r="20.2759" fill="white"/>
<path fill-rule="evenodd" clip-rule="evenodd" d="M22.2974 4.85137C20.8941 5.44956 19.8811 6.71816 19.1801 8.02983C18.2546 9.76235 18.1573 12.156 20.114 13.201C22.1007 14.2627 24.7249 13.4626 26.6802 12.6825C28.6808 11.8843 30.5175 11.1523 32.3176 12.2445C31.6078 10.2365 30.5378 8.49653 29.2785 7.16866C27.5413 5.33705 24.8462 3.76425 22.2974 4.85137Z" fill="#FFC4E0"/>
<path fill-rule="evenodd" clip-rule="evenodd" d="M18.5671 9.98341C18.1453 10.9955 18.5995 12.8044 19.8783 13.4874C21.8646 14.5481 24.6722 13.9314 26.6274 13.1517C28.6178 12.3572 30.4985 11.1576 32.2907 12.2266C29.6068 10.5182 26.3061 9.50977 22.7364 9.50977C21.2955 9.50977 19.8978 9.67459 18.5671 9.98341Z" fill="#FCB6C3"/>
<path fill-rule="evenodd" clip-rule="evenodd" d="M24.3621 32.0484C23.7699 34.1199 21.7323 36.0302 19.9414 37.1812C23.7607 40.7963 31.4112 40.286 35.1147 36.7951C35.3096 35.0648 34.4998 31.8373 33.253 30.5993C30.9102 28.2746 27.0975 32.7915 24.3621 32.0484Z" fill="#E8FEFF"/>
<path fill-rule="evenodd" clip-rule="evenodd" d="M24.3613 32.0484C25.6776 35.5839 31.1933 37.8859 35.1139 36.7951C35.5112 34.0388 34.3171 31.6567 33.2522 30.5993C30.9095 28.2746 27.0967 32.7915 24.3613 32.0484Z" fill="#A2E0E3"/>
<path fill-rule="evenodd" clip-rule="evenodd" d="M27.9053 3.56234C25.9565 2.47801 23.7105 2.06641 21.5113 3.00397C21.0807 3.18778 20.6594 3.42206 20.2529 3.70911C10.5545 5.69768 3.56055 14.2691 3.56055 24.1976C3.56055 35.7488 12.9255 45.1129 24.4763 45.1129C36.0271 45.1129 45.3921 35.7488 45.3921 24.1976C45.3921 13.9644 37.9777 5.22357 27.9053 3.56234ZM19.1799 8.02964C19.8809 6.71797 20.8944 5.44983 22.2973 4.85118C24.8465 3.76453 27.5411 5.33686 29.2788 7.16847C30.5381 8.49634 31.6076 10.2367 32.3179 12.2447C30.5173 11.1521 28.6806 11.8845 26.6804 12.6823C24.7252 13.4624 22.1005 14.2625 20.1142 13.2008C18.1576 12.1563 18.2544 9.76263 19.1799 8.02964ZM16.7821 8.65039C16.0469 11.3103 16.9696 14.0526 19.6059 15.1758C18.4568 17.1561 18.0868 21.248 16.1552 22.3083C14.7237 23.0944 12.7601 21.6647 11.7424 20.7503C10.8197 19.9206 10.4419 19.3238 9.74414 18.4043C10.5998 14.2836 13.5773 11.164 16.7821 8.65039ZM22.4141 31.563C21.7571 33.6812 19.5695 34.9831 17.8054 36.0841C12.719 34.3298 9.69702 26.6455 9.7248 21.5938C11.4777 23.3925 14.3691 25.3982 16.9327 24.1648C18.0235 26.7566 23.3331 28.5965 22.4141 31.563ZM24.364 32.0484C27.0989 32.7915 30.9117 28.2746 33.2545 30.5993C34.5018 31.8373 35.3116 35.0648 35.1162 36.7951C31.4131 40.286 23.7626 40.7963 19.9434 37.1812C21.7338 36.0297 23.7719 34.1199 24.364 32.0484ZM24.4768 43.1023C14.0358 43.1023 5.57227 34.6388 5.57227 24.1973C5.57227 18.0714 8.51645 12.3747 13.4774 8.82031C10.6958 11.3765 8.48034 14.3901 7.7451 18.1784C7.66593 18.5034 7.77057 18.8793 7.90298 19.1761C6.9043 25.7544 10.5958 35.9523 17.393 38.058C17.5722 38.1135 17.7842 38.12 18.0185 38.0816C22.1725 42.6713 30.1962 42.6037 35.1141 39.346C35.3567 39.3354 35.6044 39.3187 35.8563 39.2946C32.6903 41.6846 28.7493 43.1023 24.4768 43.1023ZM38.6235 36.7366C38.105 36.8811 37.5924 37.0005 37.0956 37.0936C37.4086 34.9884 36.4576 31.4307 35.1543 29.7334C38.0577 28.6416 40.5334 26.4012 43.3581 25.1465C43.1382 29.5848 41.3881 33.6207 38.6235 36.7366ZM33.1158 28.1772C29.4656 26.8771 26.1052 30.9685 24.4051 29.8453C23.6235 26.9771 18.5079 24.4167 18.7255 22.6115C19.8131 21.0924 20.9298 15.8407 22.0322 15.6897C24.0143 15.7698 25.6056 15.2661 27.4178 14.5429C29.4911 13.7155 31.3148 12.9881 33.1371 16.2333C33.9437 17.6736 35.2553 16.9129 35.1632 15.9295C34.8178 12.271 33.3983 9.01101 31.4699 6.62891C38.2375 9.32539 42.8869 15.6994 43.3434 22.9995C40.4631 24.0019 35.403 28.1744 33.1158 28.1772Z" fill="#3975E9"/>
<path fill-rule="evenodd" clip-rule="evenodd" d="M16.7821 8.65039C13.5773 11.164 10.5998 14.2836 9.74414 18.4043C10.4419 19.3238 10.8197 19.9201 11.7424 20.7498C12.7601 21.6647 14.7237 23.094 16.1552 22.3083C18.0868 21.248 18.4568 17.1561 19.6059 15.1754C16.9696 14.0526 16.0469 11.3103 16.7821 8.65039Z" fill="#E8FEFF"/>
<path fill-rule="evenodd" clip-rule="evenodd" d="M9.74414 18.4047C10.4419 19.3242 10.8197 19.9206 11.7424 20.7502C12.7601 21.6651 14.7237 23.0944 16.1552 22.3087C18.0868 21.2484 18.4572 17.1569 19.6059 15.1763C17.2595 14.9063 10.3405 15.5304 9.74414 18.4047Z" fill="#A2E0E3"/>
<path fill-rule="evenodd" clip-rule="evenodd" d="M16.9327 24.1648C14.3691 25.3982 11.4782 23.3925 9.72479 21.5938C9.69748 26.646 12.7194 34.3298 17.8054 36.0841C19.5695 34.9831 21.7576 33.6816 22.4141 31.563C23.3331 28.597 18.0235 26.7571 16.9327 24.1648Z" fill="#E8FEFF"/>
<path fill-rule="evenodd" clip-rule="evenodd" d="M16.9324 24.1641C15.2637 27.0087 13.9974 34.7699 17.8051 36.0829C19.5691 34.9819 21.7572 33.68 22.4138 31.5618C23.3328 28.5954 18.0236 26.7554 16.9324 24.1641Z" fill="#A2E0E3"/>
<path fill-rule="evenodd" clip-rule="evenodd" d="M37.0952 37.0956C37.592 37.002 38.1045 36.883 38.6231 36.7386C41.3876 33.6226 43.1377 29.5862 43.3576 25.1484C40.5329 26.4032 38.0573 28.6436 35.1543 29.7353C36.4572 31.4327 37.4086 34.9903 37.0952 37.0956Z" fill="#E8FEFF"/>
<path fill-rule="evenodd" clip-rule="evenodd" d="M41.3316 32.7675C42.5062 30.4608 43.222 27.8806 43.3576 25.1484C40.5329 26.4032 38.0573 28.6436 35.1543 29.7353C36.271 31.1905 39.4643 34.3 41.3316 32.7675Z" fill="#A2E0E3"/>
<path fill-rule="evenodd" clip-rule="evenodd" d="M11.3399 9.9571C10.0162 11.4067 8.91338 12.9763 8.12305 14.7065C8.94857 13.2865 9.95419 11.9836 11.1084 10.8294C11.8404 10.0969 12.6326 9.42466 13.4767 8.81952C15.2481 7.1921 17.3478 5.66004 19.6863 4.15022C19.8715 3.99095 20.0604 3.84372 20.2521 3.70898C19.5947 3.84325 18.9483 4.00901 18.315 4.20393C15.8171 5.87163 13.3535 7.75186 11.3399 9.9571Z" fill="#3975E9"/>
<path fill-rule="evenodd" clip-rule="evenodd" d="M29.7807 3.96078C29.1709 3.80151 28.5501 3.66863 27.9199 3.56445C28.9121 4.11727 29.8631 4.86871 30.7312 5.78498C30.9849 6.05212 31.2317 6.33409 31.4706 6.62902C31.9183 6.80773 32.3587 7.00265 32.7888 7.21378C32.323 6.53503 31.8082 5.89285 31.2442 5.29837C30.7928 4.82148 30.3025 4.37099 29.7807 3.96078Z" fill="#3975E9"/>
</svg>
