<svg width="48" height="48" viewBox="0 0 48 48" fill="none" xmlns="http://www.w3.org/2000/svg">
<circle cx="23.8364" cy="23.5864" r="20.2759" fill="white"/>
<path fill-rule="evenodd" clip-rule="evenodd" d="M19.091 4.60352C14.5 7.8818 12.9691 14.3907 19.5474 16.602C20.6857 16.9843 20.4774 16.9024 21.4967 16.3048C18.4953 13.0538 17.0862 8.84695 19.091 4.60352Z" fill="#E8FEFF"/>
<path fill-rule="evenodd" clip-rule="evenodd" d="M19.0865 4.61328C17.6172 7.07778 16.7891 9.8626 16.7891 12.8118C16.7891 13.6311 16.8539 14.437 16.9775 15.2277C17.6376 15.7762 18.4865 16.2451 19.5475 16.6015C20.6853 16.9844 20.4775 16.9024 21.4968 16.3048C18.4976 13.0566 17.089 8.85301 19.0865 4.61328Z" fill="#A2E0E3"/>
<path fill-rule="evenodd" clip-rule="evenodd" d="M21.2312 18.7823C20.6475 19.191 19.5383 18.7133 18.9111 18.5027C16.5957 17.7241 14.2511 16.3766 12.6837 14.3037C11.5394 12.7895 10.8126 10.912 10.8108 8.62109C8.01158 13.6413 9.92662 17.875 14.8533 20.6459C17.0623 21.8888 19.3027 22.4786 20.4081 22.3684C20.959 22.3142 21.4501 22.717 21.5038 23.2674C21.558 23.8182 21.1553 24.3084 20.6049 24.3626C20.1309 24.4103 19.5152 24.3691 18.8116 24.2408C18.3186 25.3958 17.8839 25.8249 18.0853 27.0525L18.4801 29.4494C18.5857 29.6966 18.5852 29.9619 18.4991 30.1952L17.1461 34.8737L21.6529 35.8583C25.0381 32.6911 28.1317 28.2237 32.7343 26.9035C31.2702 28.2524 29.9583 29.7327 29.4662 30.1716C33.4398 31.9185 35.6057 33.0624 38.3447 36.6221C41.4651 33.2512 43.3732 28.7412 43.3732 23.7849C43.3732 19.7164 42.0868 15.9479 39.9001 12.8636C32.6468 9.50524 28.9718 14.2431 21.2312 18.7823Z" fill="#E8FEFF"/>
<path fill-rule="evenodd" clip-rule="evenodd" d="M38.3457 36.6237C41.4296 33.2926 43.3284 28.8478 43.3728 23.9609C37.0468 23.9887 31.3679 26.3292 27.4531 30.0347C32.2335 30.7601 37.007 35.2937 38.3457 36.6237Z" fill="#A2E0E3"/>
<path fill-rule="evenodd" clip-rule="evenodd" d="M18.9359 26.5177C18.4369 27.2412 18.7545 28.2401 20.258 27.4639C19.2322 27.4412 20.127 24.804 20.3177 24.5156L18.9359 26.5177Z" fill="#3975E9"/>
<path fill-rule="evenodd" clip-rule="evenodd" d="M22.5761 2.95892C22.7048 2.80987 22.8386 2.66081 22.9779 2.51222C24.2019 1.22489 23.0391 0.232424 20.9051 1.24479C18.7345 2.27475 17.1134 3.44173 15.9395 4.68879C14.9531 5.1304 14.0073 5.64608 13.1089 6.22841C13.2098 5.79606 13.3278 5.36972 13.4676 4.94802C13.8828 3.91991 12.5395 3.06817 11.7905 3.90093C9.65282 6.28118 8.23818 8.79428 7.72992 11.2546C5.1122 14.7468 3.56055 19.0851 3.56055 23.7854C3.56055 35.3339 12.9237 44.6971 24.4717 44.6971C36.0207 44.6971 45.3834 35.3339 45.3834 23.7854C45.3834 11.4643 34.806 1.85953 22.5761 2.95892ZM21.0498 5.1932C27.0717 4.09149 33.2547 5.95699 37.6551 10.2421C31.0652 8.54786 28.4794 12.2094 23.2708 15.2637C20.1962 12.1442 19.3084 8.62563 21.0498 5.1932ZM19.0908 4.60352C17.0864 8.84695 18.495 13.0543 21.4965 16.3052C20.4776 16.9029 20.6855 16.9843 19.5477 16.602C12.9693 14.3907 14.4997 7.8818 19.0908 4.60352ZM13.7888 8.19141C13.4263 9.26349 13.2934 10.3444 13.3379 11.4086C13.043 10.6587 12.8625 9.82314 12.8301 8.89456C13.1416 8.65014 13.4615 8.41591 13.7888 8.19141ZM24.4731 42.6856C14.0346 42.6856 5.57227 34.2238 5.57227 23.7848C5.57227 20.6339 6.34346 17.6629 7.70718 15.0508C8.28534 17.8055 10.2411 20.3543 13.8735 22.3975C14.8678 22.9572 15.8904 23.4006 16.8528 23.7247C16.2186 25.2106 15.752 25.5416 16.0205 27.1238L16.4959 29.9165L14.8836 35.4903C14.5975 36.4786 15.5043 36.7484 16.22 36.81L21.9206 37.8983C22.2511 37.927 22.5585 37.7918 22.7622 37.5599L28.2541 31.8292C32.1221 33.5484 34.2163 34.4853 36.9006 38.0261C33.5784 40.9275 29.2312 42.6856 24.4731 42.6856ZM43.373 23.7853C43.373 28.7412 41.4654 33.2513 38.345 36.6226C35.6055 33.0628 33.44 31.919 29.466 30.1716C29.9585 29.7332 31.2704 28.2524 32.7341 26.9039C28.1315 28.2241 25.0383 32.6916 21.6527 35.8583L17.1463 34.8742L18.4989 30.1956C18.5855 29.9623 18.5859 29.6966 18.4799 29.4499L18.0855 27.0525C17.8837 25.8249 18.3188 25.3962 18.8114 24.2413C19.5155 24.3695 20.1311 24.4103 20.6051 24.363C21.1555 24.3089 21.5578 23.8187 21.5041 23.2678C21.4499 22.717 20.9592 22.3142 20.4084 22.3689C19.303 22.479 17.0621 21.8893 14.8531 20.6464C9.92641 17.8755 8.01184 13.6417 10.8106 8.62109C10.8152 13.6663 14.3624 16.9737 18.9109 18.5032C19.5381 18.7138 20.6472 19.1915 21.231 18.7827C28.9721 14.2435 32.6466 9.5057 39.9003 12.8641C42.0871 15.9484 43.373 19.7169 43.373 23.7853Z" fill="#3975E9"/>
<path fill-rule="evenodd" clip-rule="evenodd" d="M12.8296 8.89493C13.1411 8.65098 13.4614 8.41629 13.7887 8.19178C14.2363 6.86788 14.9835 5.70506 15.9394 4.68945C14.9529 5.1306 14.0072 5.64627 13.1087 6.22861C12.8865 7.19237 12.8009 8.07929 12.8296 8.89493Z" fill="#3975E9"/>
<path fill-rule="evenodd" clip-rule="evenodd" d="M6.64473 12.8505C6.59844 14.0211 6.75213 15.1701 7.12106 16.2783C7.30159 15.8612 7.49694 15.452 7.70571 15.0516C7.44694 13.8179 7.46407 12.5436 7.73024 11.2539C7.34464 11.7682 6.98219 12.301 6.64473 12.8505Z" fill="#3975E9"/>
<path fill-rule="evenodd" clip-rule="evenodd" d="M21.0488 5.19512C21.415 5.12799 21.7848 5.07152 22.1579 5.02569C22.6875 4.15127 23.2379 3.643 23.8304 2.88477C23.4087 2.89773 22.9893 2.92272 22.5741 2.96022C21.9367 3.69762 21.4298 4.44429 21.0488 5.19512Z" fill="#3975E9"/>
</svg>
