<svg width="48" height="48" viewBox="0 0 48 48" fill="none" xmlns="http://www.w3.org/2000/svg">
<circle cx="24.2507" cy="24.0007" r="19.8621" fill="white"/>
<path fill-rule="evenodd" clip-rule="evenodd" d="M7.02316 31.3134C10.9421 32.3481 6.71786 21.2233 6.42815 18.334C5.08271 22.5587 5.29358 27.2299 7.02316 31.3134Z" fill="#A2E0E3"/>
<path fill-rule="evenodd" clip-rule="evenodd" d="M19.184 6C16.4611 6.76646 13.9898 8.13299 11.9219 9.94829C12.8117 9.76584 21.3271 7.76259 19.184 6Z" fill="#A2E0E3"/>
<path fill-rule="evenodd" clip-rule="evenodd" d="M21.3484 5.52646C23.4195 9.4908 13.797 11.633 11.7177 12.0056C9.89594 12.332 9.00845 13.1801 8.61881 14.2486C6.89518 18.9726 14.8995 33.7751 7.42969 33.4744C8.1251 35.3644 10.2462 37.6973 12.4951 37.2109C12.9416 37.1142 13.312 36.8781 13.5357 36.5004C13.7851 36.0795 13.8869 35.4864 13.7782 34.7121C12.86 30.2215 11.1002 28.0436 10.6977 22.7925C9.68507 9.59623 28.8549 13.5665 26.0948 7.47608C32.403 14.8973 11.9221 10.9962 12.7518 22.7824C13.2226 29.4693 16.746 32.5287 16.0029 39.1197C15.8686 40.3102 15.5 41.6932 14.5309 42.4849C15.9465 42.9452 17.6614 42.9924 18.933 42.1205C21.3388 40.4707 20.3119 36.9478 19.2558 34.8304C13.5504 23.3843 15.7416 19.3132 19.8778 17.2512C23.8005 15.2961 30.2654 15.9104 30.6936 10.8275C31.1309 5.65253 25.812 4.82784 21.3484 5.52646Z" fill="#E8FEFF"/>
<path fill-rule="evenodd" clip-rule="evenodd" d="M10.6972 22.7929C10.6523 22.2057 10.6486 21.6537 10.6798 21.1321C10.0509 20.5274 9.42698 20.0112 8.81546 19.5918C10.0293 25.6987 12.9402 33.6962 7.42969 33.4748C8.1251 35.3648 10.2457 37.6976 12.4951 37.2113C12.9416 37.1145 13.312 36.8785 13.5353 36.5007C13.7846 36.0799 13.8869 35.4867 13.7778 34.7125C12.86 30.2219 11.0997 28.044 10.6972 22.7929Z" fill="#A2E0E3"/>
<path fill-rule="evenodd" clip-rule="evenodd" d="M12.8164 23.502C13.4756 29.6983 16.7193 32.7701 16.0033 39.1205C15.8694 40.311 15.5009 41.694 14.5318 42.4857C15.9469 42.9459 17.6623 42.9936 18.9334 42.1212C23.0018 39.3318 18.9307 34.3805 17.7705 31.5984C16.2439 28.4276 14.5419 25.6702 12.8164 23.502Z" fill="#A2E0E3"/>
<path fill-rule="evenodd" clip-rule="evenodd" d="M31.9777 24.4163C31.1003 23.7393 28.9233 23.2726 29.3753 21.3317C29.538 20.634 30.7175 20.5854 31.0324 20.2879C30.563 20.4822 29.6022 20.1834 29.3757 19.7552C28.9118 18.8774 28.9632 17.5658 29.2309 16.2383C26.5606 17.5269 23.3985 17.7194 20.7645 19.0328C17.6083 20.606 16.0644 23.9708 21.0363 33.9449C22.352 36.5835 23.0987 40.1031 21.3508 42.5098C22.07 42.6221 22.8026 42.6941 23.5457 42.722C22.3969 41.135 22.566 38.6752 23.5021 36.8879C24.8356 34.3428 27.124 34.3551 29.4642 34.0902C31.1241 33.9022 31.6485 33.5772 30.8115 31.7083C30.5282 31.0752 30.7129 30.5366 31.1764 30.0685C31.6756 29.5638 31.4986 29.1581 30.9893 28.6365C31.3547 28.6264 32.0858 28.0401 31.561 27.6637C30.5158 26.9124 30.8679 25.5491 31.9364 25.0567C32.3604 24.8614 32.2555 24.6318 31.9777 24.4163Z" fill="#FFC4E0"/>
<path fill-rule="evenodd" clip-rule="evenodd" d="M21.3516 42.5103C22.0708 42.6226 22.8033 42.6941 23.5464 42.7225C22.3977 41.1355 22.5668 38.6757 23.5029 36.8883C24.439 35.101 25.8467 34.5748 27.4122 34.3281C25.3558 34.6293 23.5066 35.4687 22.0607 36.6775C22.5751 38.7183 22.5411 40.8719 21.3516 42.5103Z" fill="#FCB6C3"/>
<path fill-rule="evenodd" clip-rule="evenodd" d="M27.4908 20.3926C27.8323 21.3497 25.0768 21.4552 24.7422 21.3805L27.0833 21.9503C27.9286 22.1561 28.7404 21.5084 27.4908 20.3926Z" fill="#3975E9"/>
<path fill-rule="evenodd" clip-rule="evenodd" d="M13.9894 39.7294C14.071 39.359 14.1237 38.9812 14.1585 38.6035C13.8175 38.8061 13.4466 38.9629 13.0547 39.0743C13.3609 39.2998 13.6722 39.5185 13.9894 39.7294Z" fill="#6DC0D5"/>
<path fill-rule="evenodd" clip-rule="evenodd" d="M24.266 3.31055C18.5478 3.31055 13.37 5.62873 9.62299 9.37624C3.74158 15.2572 1.95332 24.1499 5.07968 31.826C5.05355 31.9415 5.04714 32.0653 5.06639 32.1941C5.46383 34.8579 7.29656 37.789 9.81919 38.8562C10.6425 39.6579 11.5323 40.3909 12.4794 41.0478C12.1452 40.9708 11.7372 40.7838 11.2435 40.4657C10.2515 39.7592 9.0949 41.1583 9.98789 41.9986C12.4 44.2636 16.236 45.7209 19.3922 44.1508C20.9549 44.5276 22.5868 44.7275 24.266 44.7275C35.7024 44.7275 44.9743 35.4557 44.9743 24.0193C44.9743 12.5828 35.7024 3.31055 24.266 3.31055ZM19.1842 6.0002C21.3268 7.76233 12.8119 9.76605 11.9221 9.94804C13.9895 8.13319 16.4608 6.76666 19.1842 6.0002ZM7.02302 31.3139C5.29389 27.2304 5.08257 22.5592 6.428 18.334C6.71818 21.2238 10.942 32.3485 7.02302 31.3139ZM13.912 39.6136C13.6598 39.4462 13.4118 39.2721 13.168 39.0928C13.4801 39.0039 13.7749 38.8792 14.0463 38.7188C14.0188 39.0186 13.9766 39.3188 13.912 39.6136ZM18.9326 42.1205C17.6614 42.9924 15.946 42.9452 14.5309 42.4845C15.5 41.6928 15.8686 40.3102 16.0024 39.1197C16.746 32.5287 13.2226 29.4693 12.7518 22.7824C11.9221 10.9962 32.4025 14.8973 26.0948 7.47608C28.8549 13.5661 9.68507 9.59623 10.6972 22.7925C11.1002 28.0436 12.86 30.2215 13.7782 34.7121C13.8869 35.4864 13.7851 36.0795 13.5357 36.5004C13.312 36.8781 12.9416 37.1142 12.4951 37.2109C10.2457 37.6973 8.1251 35.3644 7.42969 33.4744C14.899 33.7747 6.89518 18.9721 8.6188 14.2486C9.00845 13.1801 9.89594 12.332 11.7177 12.0056C13.797 11.633 23.4195 9.4908 21.3484 5.52646C25.812 4.82784 31.1309 5.65253 30.6936 10.8275C30.2654 15.9104 23.8005 15.2961 19.8778 17.2512C15.7416 19.3132 13.5499 23.3843 19.2558 34.8304C20.3119 36.9478 21.3388 40.4707 18.9326 42.1205ZM23.5023 36.8879C22.5662 38.6752 22.397 41.135 23.5458 42.722C22.8027 42.6941 22.0702 42.6221 21.3509 42.5098C23.0989 40.1031 22.3521 36.583 21.0365 33.9449C16.0645 23.9708 17.608 20.606 20.7646 19.0328C23.3987 17.7194 26.5608 17.5269 29.231 16.2383C28.9633 17.5658 28.912 18.8774 29.3759 19.7552C29.6023 20.1834 30.5632 20.4822 31.0326 20.2879C30.7177 20.5854 29.5382 20.634 29.3754 21.3312C28.9234 23.2726 31.1004 23.7393 31.9778 24.4163C32.2556 24.6318 32.3606 24.8614 31.9366 25.0567C30.868 25.5491 30.5159 26.9124 31.5607 27.6637C32.086 28.0401 31.3544 28.6264 30.9895 28.6365C31.4983 29.1581 31.6757 29.5638 31.1765 30.0685C30.7131 30.5366 30.5283 31.0752 30.8116 31.7083C31.6487 33.5772 31.1243 33.9022 29.4644 34.0902C27.1242 34.3551 24.8358 34.3428 23.5023 36.8879ZM25.6248 42.6879C24.6956 41.7147 24.4962 40.4178 24.8556 38.4251C25.1595 37.5321 25.6431 36.9279 26.4806 36.5754C27.4506 36.1674 28.631 36.1638 29.6579 36.0478C32.374 35.7397 33.8496 34.3526 32.6398 31.2716C32.2286 30.2846 33.972 29.8826 32.4349 28.942C33.0258 28.8553 33.5699 27.729 32.9323 27.2435C32.6375 27.0189 32.2461 26.8246 32.4578 26.6233C35.9317 24.3216 33.7386 23.8921 31.8482 22.3207C31.751 22.24 30.8804 21.4236 30.9767 21.4093C32.5064 21.1852 32.8516 20.3312 33.3068 19.65C30.3941 20.664 31.0675 18.3132 31.3379 16.3911C31.4232 15.7828 31.7175 15.191 32.054 14.5868C33.8358 11.3857 33.5131 8.84568 32.0709 7.00195C38.7069 10.0495 42.9843 16.6804 42.9843 24.0195C42.9843 33.8291 35.3999 41.9874 25.6248 42.6879Z" fill="#3975E9"/>
<path fill-rule="evenodd" clip-rule="evenodd" d="M4.73633 30.9255C4.8436 31.2285 4.95774 31.5283 5.07876 31.8249C5.20987 31.2514 5.84477 30.8879 6.4297 31.1309C6.64515 31.2042 6.84273 31.2647 7.02151 31.3124C6.89957 31.0236 6.78451 30.7311 6.67586 30.435C5.94928 30.1512 5.19107 30.4011 4.73633 30.9255Z" fill="#3975E9"/>
<path fill-rule="evenodd" clip-rule="evenodd" d="M20.0531 43.7636C19.8432 43.9076 19.6222 44.0373 19.3926 44.1515C19.7451 44.2363 20.1008 44.3124 20.4598 44.3793L20.4703 44.3719C21.2038 43.8695 21.7607 43.2759 22.171 42.6217C21.896 42.591 21.6227 42.5544 21.3514 42.5117C21.0158 42.9747 20.5872 43.3969 20.0531 43.7636Z" fill="#3975E9"/>
<path fill-rule="evenodd" clip-rule="evenodd" d="M9.82031 38.8555C10.6432 39.6572 11.5325 40.3907 12.4796 41.0476C13.439 41.2685 13.7388 40.4035 13.9121 39.6137C13.6595 39.4459 13.412 39.2726 13.1681 39.0925C12.0624 39.4065 10.8742 39.301 9.82031 38.8555Z" fill="#3975E9"/>
</svg>
