<svg width="24" height="24" viewBox="0 0 24 24" fill="none" xmlns="http://www.w3.org/2000/svg">
<path d="M19.682 16.1716C20.5259 16.9217 21 17.9391 21 19C21 20.1046 20.1046 21 19 21H5C3.89543 21 3 20.1046 3 19C3 17.9391 3.47411 16.9217 4.31802 16.1716C5.1707 15.4136 6.70685 14.7405 7.71041 14.3515C8.10037 14.2003 8.17761 13.6438 7.874 13.3562C6.71987 12.2627 6 10.7154 6 9C6 5.68629 8.68629 3 12 3C15.3137 3 18 5.68629 18 9C18 10.7154 17.2801 12.2627 16.126 13.3562C15.8224 13.6438 15.8996 14.2003 16.2896 14.3515C17.2932 14.7405 18.8293 15.4136 19.682 16.1716Z" stroke="#3975E9" stroke-width="1.5" stroke-linecap="round"/>
</svg>
