<svg width="24" height="24" viewBox="0 0 24 24" fill="none" xmlns="http://www.w3.org/2000/svg">
<path d="M6.12358 3.33887C5.64651 3.33887 5.17183 3.41057 4.70784 3.55515C4.70765 3.55515 4.70746 3.55515 4.70727 3.55515C2.33541 4.29769 0.835938 6.76406 0.835938 9.76789C0.835938 12.6762 2.76925 15.3251 5.09118 17.4872C7.41312 19.6492 10.1474 21.3357 11.8583 22.2927C11.9022 22.3173 11.9518 22.3302 12.0023 22.3302C12.0528 22.3302 12.1024 22.3173 12.1463 22.2927C13.8564 21.3357 16.5906 19.6497 18.9123 17.4877C21.234 15.3258 23.167 12.6766 23.1664 9.76789C23.1664 6.76406 21.6669 4.29772 19.2962 3.55515C19.296 3.55515 19.2958 3.55515 19.2956 3.55515C16.8003 2.77553 14.0823 4.21684 12.0281 7.12917C12.0277 7.12974 12.0274 7.13031 12.027 7.13088C12.019 7.1423 12.0107 7.15756 12.0012 7.17197C11.9916 7.15756 11.9833 7.1423 11.9753 7.13088C11.975 7.13031 11.9746 7.12974 11.9742 7.12917C10.305 4.76065 8.21271 3.33887 6.12358 3.33887ZM6.12358 3.92322C7.9411 3.92322 9.89345 5.19465 11.4933 7.46471C11.5249 7.51048 11.6556 7.72143 11.7073 7.80483V9.76674C11.7073 9.84423 11.7383 9.91854 11.7934 9.97334C11.8485 10.0281 11.9232 10.0589 12.0012 10.0589H12.1205C12.1917 10.0588 12.2604 10.0331 12.3139 9.98645C12.4724 9.84873 12.6646 9.76674 12.8826 9.76674C13.3729 9.76674 13.7641 10.1558 13.7641 10.6433C13.7641 11.1308 13.3729 11.5198 12.8826 11.5198C12.6646 11.5198 12.4724 11.4378 12.3139 11.3001C12.2604 11.2535 12.1917 11.2277 12.1205 11.2276H12.0012C11.9232 11.2276 11.8485 11.2584 11.7934 11.3132C11.7383 11.368 11.7073 11.4423 11.7073 11.5198V13.8572H9.80381C9.88686 13.6781 9.9444 13.4847 9.9444 13.2729C9.9444 12.4695 9.28316 11.812 8.4753 11.812C7.66743 11.812 7.00619 12.4695 7.00619 13.2729C7.00619 13.4847 7.06374 13.6781 7.14679 13.8572H2.7607C1.93925 12.5573 1.42358 11.1788 1.42358 9.76789C1.42358 6.95588 2.80009 4.76518 4.88344 4.11268C5.29151 3.98553 5.70567 3.92322 6.12358 3.92322ZM17.8684 3.93007C18.2919 3.92499 18.7107 3.98497 19.1194 4.11268C21.2019 4.76496 22.5787 6.95565 22.5787 9.76789C22.579 11.179 22.064 12.5574 21.2428 13.8572H16.4085C16.3306 13.8572 16.2558 13.888 16.2007 13.9428C16.1456 13.9976 16.1147 14.0719 16.1147 14.1494V14.2681C16.1147 14.3388 16.1406 14.4072 16.1875 14.4604C16.326 14.618 16.4085 14.8091 16.4085 15.0259C16.4085 15.5134 16.0172 15.9024 15.527 15.9024C15.0368 15.9024 14.6455 15.5134 14.6455 15.0259C14.6455 14.8091 14.728 14.618 14.8665 14.4604C14.9134 14.4072 14.9393 14.3388 14.9394 14.2681V14.1494C14.9394 14.0719 14.9084 13.9976 14.8533 13.9428C14.7982 13.888 14.7235 13.8572 14.6455 13.8572H12.295V11.9643C12.4751 12.0469 12.6696 12.1042 12.8826 12.1042C13.6905 12.1042 14.3517 11.4466 14.3517 10.6433C14.3517 9.83993 13.6905 9.18239 12.8826 9.18239C12.6696 9.18239 12.4751 9.23962 12.295 9.3222V7.80483C12.3467 7.72143 12.4774 7.51048 12.509 7.46471V7.46414C12.5092 7.46397 12.5101 7.46318 12.5102 7.463C14.1088 5.19734 16.0334 3.95208 17.8684 3.93007ZM6.03176 4.79975C5.71139 4.79975 5.39369 4.84893 5.08602 4.9447C3.38198 5.47799 2.30562 7.35631 2.30562 9.69028C2.30562 9.77216 2.31172 9.84891 2.3148 9.91968C2.31479 9.93943 2.3188 9.95897 2.3266 9.97714C2.33439 9.9953 2.34581 10.0117 2.36016 10.0254C2.37451 10.039 2.39149 10.0496 2.41009 10.0566C2.42868 10.0635 2.44849 10.0666 2.46833 10.0657C2.48817 10.0648 2.50762 10.06 2.52551 10.0514C2.5434 10.0428 2.55936 10.0307 2.57242 10.0159C2.58548 10.001 2.59537 9.98362 2.60149 9.96483C2.60762 9.94605 2.60985 9.92622 2.60805 9.90655C2.60467 9.8289 2.59944 9.75682 2.59944 9.69028C2.59944 7.44525 3.62526 5.70782 5.17382 5.22318C5.45379 5.13603 5.74156 5.09192 6.03176 5.09192C7.41931 5.09192 9.0213 6.12306 10.3851 8.05649C10.4385 8.13303 10.4977 8.19842 10.5544 8.25907C10.5673 8.27407 10.5831 8.28632 10.6008 8.2951C10.6185 8.30388 10.6379 8.309 10.6577 8.31015C10.6774 8.3113 10.6973 8.30846 10.7159 8.3018C10.7346 8.29514 10.7517 8.28479 10.7662 8.27139C10.7807 8.25799 10.7924 8.2418 10.8004 8.2238C10.8085 8.2058 10.8128 8.18637 10.8132 8.16666C10.8135 8.14696 10.8098 8.1274 10.8023 8.10915C10.7948 8.0909 10.7837 8.07435 10.7696 8.06048C10.7161 8.00327 10.6667 7.94742 10.6262 7.88928C10.6262 7.88909 10.6262 7.8889 10.6262 7.88871C9.22866 5.90757 7.56362 4.79975 6.03176 4.79975ZM17.9706 4.79975C16.4384 4.79975 14.7739 5.90758 13.3761 7.88871C13.376 7.8889 13.3758 7.88909 13.3756 7.88928C13.3348 7.94751 13.2863 8.00317 13.2327 8.06048C13.2186 8.07435 13.2075 8.0909 13.2 8.10915C13.1925 8.1274 13.1888 8.14696 13.1892 8.16666C13.1895 8.18637 13.1938 8.2058 13.2019 8.2238C13.2099 8.2418 13.2216 8.25799 13.2361 8.27139C13.2506 8.28479 13.2677 8.29514 13.2864 8.3018C13.305 8.30846 13.3249 8.3113 13.3446 8.31015C13.3644 8.309 13.3838 8.30388 13.4015 8.2951C13.4193 8.28632 13.435 8.27407 13.4479 8.25907C13.5051 8.19794 13.5634 8.13236 13.6166 8.05649L13.6172 8.05592C14.9812 6.12293 16.5829 5.09192 17.9706 5.09192C18.2608 5.09192 18.5485 5.13604 18.8285 5.22318C19.8556 5.54443 20.6479 6.41424 21.07 7.62336C21.0756 7.64238 21.085 7.66008 21.0977 7.67537C21.1104 7.69066 21.126 7.70323 21.1437 7.71232C21.1614 7.7214 21.1808 7.7268 21.2007 7.7282C21.2206 7.7296 21.2405 7.72697 21.2593 7.72046C21.2782 7.71395 21.2955 7.7037 21.3102 7.69034C21.3249 7.67698 21.3367 7.66078 21.3449 7.64273C21.3531 7.62467 21.3576 7.60515 21.358 7.58534C21.3584 7.56553 21.3547 7.54585 21.3472 7.52749C20.9019 6.25194 20.047 5.29837 18.9163 4.9447C18.6086 4.84893 18.2909 4.79975 17.9706 4.79975ZM21.3719 8.01197C21.3501 8.01287 21.3289 8.01856 21.3096 8.02864C21.2903 8.03871 21.2735 8.05292 21.2605 8.07023C21.2474 8.08754 21.2384 8.10753 21.234 8.12874C21.2297 8.14995 21.2301 8.17185 21.2353 8.19287C21.2989 8.46569 21.3439 8.7519 21.3713 9.04943C21.373 9.06854 21.3785 9.08713 21.3875 9.10412C21.3964 9.12112 21.4087 9.1362 21.4235 9.14849C21.4383 9.16079 21.4554 9.17006 21.4738 9.17578C21.4923 9.18151 21.5116 9.18356 21.5308 9.18184C21.5501 9.18012 21.5688 9.17465 21.5858 9.16574C21.6029 9.15683 21.6181 9.14466 21.6305 9.12993C21.6428 9.1152 21.6521 9.09819 21.6579 9.07987C21.6637 9.06155 21.6657 9.04229 21.664 9.02318C21.6355 8.71356 21.5885 8.41367 21.5217 8.12668C21.5143 8.09309 21.4952 8.06317 21.4678 8.04219C21.4404 8.02121 21.4064 8.01051 21.3719 8.01197V8.01197ZM21.544 9.47229C21.5247 9.4728 21.5057 9.4771 21.4881 9.48492C21.4705 9.49275 21.4546 9.50395 21.4413 9.51789C21.4281 9.53182 21.4177 9.54823 21.4108 9.56615C21.4039 9.58408 21.4006 9.60318 21.4011 9.62237C21.4015 9.65187 21.4034 9.67382 21.4034 9.69028C21.4034 9.75752 21.3979 9.82908 21.3943 9.90598C21.3933 9.92518 21.3962 9.94436 21.4028 9.96244C21.4093 9.98052 21.4194 9.99713 21.4324 10.0113C21.4454 10.0256 21.4611 10.0371 21.4786 10.0453C21.496 10.0534 21.515 10.0581 21.5343 10.059C21.5536 10.0599 21.5729 10.057 21.591 10.0505C21.6092 10.044 21.6259 10.034 21.6402 10.021C21.6545 10.0081 21.6661 9.99248 21.6743 9.97509C21.6825 9.9577 21.6872 9.93887 21.6881 9.91968C21.6915 9.84816 21.6973 9.77204 21.6973 9.69028C21.6973 9.6594 21.6952 9.63619 21.695 9.61894C21.6951 9.59937 21.6912 9.57998 21.6836 9.56193C21.676 9.54387 21.6648 9.52752 21.6507 9.51384C21.6367 9.50016 21.62 9.48943 21.6016 9.48229C21.5833 9.47516 21.5637 9.47175 21.544 9.47229V9.47229ZM8.4753 12.3963C8.96553 12.3963 9.35676 12.7854 9.35676 13.2729C9.35676 13.4896 9.27432 13.6808 9.13582 13.8384C9.08891 13.8916 9.06301 13.9599 9.06294 14.0307V14.1494C9.06295 14.2269 9.09391 14.3012 9.14901 14.356C9.20411 14.4108 9.27884 14.4416 9.35676 14.4416H11.7073V16.3344C11.5272 16.2518 11.3328 16.1946 11.1197 16.1946C10.3118 16.1946 9.65058 16.8522 9.65058 17.6555C9.65058 18.4588 10.3118 19.1164 11.1197 19.1164C11.3328 19.1164 11.5272 19.0592 11.7073 18.9766V21.5246C10.0166 20.5544 7.58452 19.0085 5.49289 17.0609C4.61734 16.2456 3.81235 15.3663 3.15208 14.4416H7.59383C7.67176 14.4416 7.74649 14.4108 7.80159 14.356C7.85669 14.3012 7.88765 14.2269 7.88765 14.1494V14.0307C7.88758 13.9599 7.86168 13.8916 7.81477 13.8384C7.67628 13.6808 7.59383 13.4896 7.59383 13.2729C7.59383 12.7854 7.98506 12.3963 8.4753 12.3963ZM12.295 14.4416H14.1985C14.1155 14.6207 14.0579 14.814 14.0579 15.0259C14.0579 15.8293 14.7191 16.4868 15.527 16.4868C16.3349 16.4868 16.9961 15.8293 16.9961 15.0259C16.9961 14.814 16.9386 14.6207 16.8555 14.4416H20.8514C20.1912 15.3662 19.386 16.2457 18.5106 17.0609C16.4182 19.0093 13.9852 20.5561 12.295 21.5263V18.532C12.295 18.4545 12.264 18.3802 12.2089 18.3254C12.1538 18.2706 12.0791 18.2399 12.0012 18.2399H11.8818C11.8106 18.2399 11.7419 18.2657 11.6884 18.3123C11.53 18.45 11.3377 18.532 11.1197 18.532C10.6295 18.532 10.2382 18.143 10.2382 17.6555C10.2382 17.168 10.6295 16.779 11.1197 16.779C11.3377 16.779 11.53 16.861 11.6884 16.9987C11.7419 17.0453 11.8106 17.0711 11.8818 17.0711H12.0012C12.0791 17.0711 12.1538 17.0404 12.2089 16.9856C12.264 16.9308 12.295 16.8565 12.295 16.779V14.4416Z" fill="white" stroke="white" stroke-width="0.3"/>
</svg>
