<svg width="24" height="24" viewBox="0 0 24 24" fill="none" xmlns="http://www.w3.org/2000/svg">
<path d="M11.7023 16.2844C11.0998 16.8278 10.5263 17.3933 10.0215 18H9.97558C7.10526 14.5467 2 12.4242 2 8.16224C2 5.61679 3.69221 4 6.10526 4C8.22947 4 9.99747 6.48945 9.99747 6.48945C9.99747 6.48945 11.7693 4 13.8952 4C16.3061 4 18 5.61679 18 8.16224C18 8.88088 17.8548 9.53864 17.5996 10.1522" stroke="#3975E9" stroke-width="1.5" stroke-linecap="round" stroke-linejoin="round"/>
<path d="M19.8371 10.1051C18.2973 9.58563 16.4067 10.9028 16.4067 10.9028C16.4067 10.9028 15.733 8.72071 14.1945 8.20167C12.4462 7.61174 10.8262 8.33489 10.2055 10.1242C9.16599 13.1203 12.3465 15.8601 13.5833 18.989L13.6168 19C16.5399 17.2746 20.7561 17.0302 21.7956 14.0341C22.4163 12.2448 21.5837 10.6942 19.8371 10.1051Z" stroke="#3975E9" stroke-width="1.5" stroke-linecap="round" stroke-linejoin="round"/>
</svg>
