<svg width="24" height="24" viewBox="0 0 24 24" fill="none" xmlns="http://www.w3.org/2000/svg">
<path d="M8 8V4.37068C8 3.61694 8.67457 3 9.50029 3C10.3243 3 11 3.61694 11 4.37068" stroke="#3975E9" stroke-width="1.5" stroke-linecap="round" stroke-linejoin="round"/>
<path d="M11 11V3.22508C11 2.55186 11.6742 2 12.5003 2C13.3252 2 14 2.55186 14 3.22508V11" stroke="#3975E9" stroke-width="1.5" stroke-linecap="round" stroke-linejoin="round"/>
<path d="M14 4.29787C14 3.58416 14.6752 3 15.5003 3C16.3248 3 17 3.58416 17 4.29787V7" stroke="#3975E9" stroke-width="1.5" stroke-linecap="round" stroke-linejoin="round"/>
<path d="M14 22C17.406 21.5231 20 19.1618 20 16.3436L19.9994 6.23067C19.9994 5.55392 19.32 5 18.4902 5C17.6605 5 16.9811 5.55392 16.9811 6.23067V11.1501" stroke="#3975E9" stroke-width="1.5" stroke-linecap="round" stroke-linejoin="round"/>
<path d="M9.95054 22C7 22 4 19 4 16.6306V9.63989C4 9.0809 4.89545 8.83053 5.51987 9.12359L6.12161 9.43355C6.81469 9.88181 7.19137 10.4595 7.19137 11.0185V14.0425L7.20032 14.0505C7.20032 14.0505 11 15.2449 11 17.5187" stroke="#3975E9" stroke-width="1.5" stroke-linecap="round" stroke-linejoin="round"/>
</svg>
