<svg width="24" height="24" viewBox="0 0 24 24" fill="none" xmlns="http://www.w3.org/2000/svg">
<path d="M20.1881 9C21.9362 9.95569 23 11.2184 23 12.6037C23 15.5841 18.0752 18 12 18C5.92479 18 1 15.5841 1 12.6037C1 11.26 2.001 10.0312 3.65696 9.08634" stroke="#3975E9" stroke-width="1.5" stroke-linecap="round" stroke-linejoin="round"/>
<path d="M6.5 7.07907C9 6.57908 9 8.57907 7.25511 9.46823C9.59525 10.6171 8.5 12.5791 6 11.5791" stroke="#3975E9" stroke-width="1.5" stroke-linecap="round" stroke-linejoin="round"/>
<path d="M12.9994 7.24086C12.2151 6.92357 11.0256 6.57348 10.6491 8.09645C10.4857 8.75761 10.4358 9.41877 10.4994 10.0002M10.4994 10.0002C10.6189 11.0929 10.6662 12.0002 11.5876 12.0002C12.9994 12.0002 12.9994 11.0483 12.9994 10.5724C12.9994 10.0964 12.9112 9.00018 11.4994 9.00018C10.37 9.00018 10.5493 9.68289 10.4994 10.0002Z" stroke="#3975E9" stroke-width="1.5" stroke-linecap="round" stroke-linejoin="round"/>
<ellipse cx="16.5" cy="9.5" rx="1.5" ry="2.5" stroke="#3975E9" stroke-width="1.5" stroke-linecap="round" stroke-linejoin="round"/>
<path d="M19.5 6C19.7761 6 20 5.77614 20 5.5C20 5.22386 19.7761 5 19.5 5C19.2239 5 19 5.22386 19 5.5C19 5.77614 19.2239 6 19.5 6Z" stroke="#3975E9" stroke-width="1.5" stroke-linecap="round" stroke-linejoin="round"/>
</svg>
