<svg width="24" height="24" viewBox="0 0 24 24" fill="none" xmlns="http://www.w3.org/2000/svg">
<path d="M21 11.9998C21 16.9703 16.9706 20.9998 12 20.9998C7.02944 20.9998 3 16.9703 3 11.9998M21 11.9998C21 11.9998 18 14.9998 12 14.9998C6 14.9998 3 11.9998 3 11.9998M21 11.9998C21 11.9998 19.5 10.4998 16.5 9.62109M3 11.9998C3 11.9998 4.5 10.4998 7.5 9.62109" stroke="#3975E9" stroke-width="1.5" stroke-linecap="round" stroke-linejoin="round"/>
<path d="M11 7.8C11 9.2 11.6667 9.2 12 9.2C12.4 9.2 13 9.2 13 7.8C13 6.4 12 5 12 5C12 5 11 6.4 11 7.8Z" fill="#3975E9"/>
<path d="M12 12V9.2M12 9.2C11.6667 9.2 11 9.2 11 7.8C11 6.4 12 5 12 5C12 5 13 6.4 13 7.8C13 9.2 12.4 9.2 12 9.2Z" stroke="#3975E9" stroke-width="1.5" stroke-linecap="round" stroke-linejoin="round"/>
</svg>
