<svg width="24" height="24" viewBox="0 0 24 24" fill="none" xmlns="http://www.w3.org/2000/svg">
<path d="M8.01562 3.67001L8.39779 2.47061C8.66703 1.63098 9.57432 1.16447 10.414 1.4337L19.0661 4.20657C19.9062 4.4758 20.3727 5.3831 20.1035 6.22273L17.7757 13.3977" stroke="#3975E9" stroke-width="1.5" stroke-linecap="round" stroke-linejoin="round"/>
<path fill-rule="evenodd" clip-rule="evenodd" d="M16.1507 20.9004C16.1507 21.7824 15.4292 22.5039 14.5477 22.5039H5.46044C4.57887 22.5039 3.85742 21.7824 3.85742 20.9004V6.71629C3.85742 5.83473 4.57887 5.11328 5.46044 5.11328H14.5477C15.4292 5.11328 16.1507 5.83473 16.1507 6.71629V20.9004Z" stroke="#3975E9" stroke-width="0.71478" stroke-linecap="round" stroke-linejoin="round"/>
<path fill-rule="evenodd" clip-rule="evenodd" d="M16.1507 20.9004C16.1507 21.7824 15.4292 22.5039 14.5477 22.5039H5.46044C4.57887 22.5039 3.85742 21.7824 3.85742 20.9004V6.71629C3.85742 5.83473 4.57887 5.11328 5.46044 5.11328H14.5477C15.4292 5.11328 16.1507 5.83473 16.1507 6.71629V20.9004Z" stroke="#3975E9" stroke-width="1.5" stroke-linecap="round" stroke-linejoin="round"/>
<path d="M7 12.9638C7 14.9879 10 16 10 16C10 16 13 14.9879 13 12.9638C13 10.9396 11 10.2748 10 11.9517C9 10.2748 7 10.9396 7 12.9638Z" fill="#3975E9" stroke="#3975E9" stroke-width="1.5" stroke-linecap="round" stroke-linejoin="round"/>
</svg>
