<svg width="24" height="24" viewBox="0 0 24 24" fill="none" xmlns="http://www.w3.org/2000/svg">
<path d="M18.4 8.40039H5.8C4.80589 8.40039 4 9.20628 4 10.2004V19.2004C4 20.1945 4.80589 21.0004 5.8 21.0004H18.4C19.3941 21.0004 20.2 20.1945 20.2 19.2004V10.2004C20.2 9.20628 19.3941 8.40039 18.4 8.40039Z" stroke="#3975E9" stroke-width="1.5" stroke-linecap="round" stroke-linejoin="round"/>
<path d="M12.1 8.4C12.1 7.86599 11.9416 4.64397 11.645 4.19996C11.3483 3.75595 10.9266 3.40988 10.4332 3.20553C9.93988 3.00117 9.397 2.9477 8.87326 3.05188C8.34951 3.15606 7.86841 3.41321 7.49081 3.79081C7.11321 4.16841 6.85606 4.64951 6.75188 5.17326C6.6477 5.69701 6.70117 6.23989 6.90553 6.73325C7.10988 7.22661 7.45595 7.64829 7.89996 7.94497C8.34397 8.24165 8.86599 8.4 9.4 8.4H12.1ZM12.1 8.4C12.1 7.86599 12.2584 4.64397 12.555 4.19996C12.8517 3.75595 13.2734 3.40988 13.7668 3.20553C14.2601 3.00117 14.803 2.9477 15.3267 3.05188C15.8505 3.15606 16.3316 3.41321 16.7092 3.79081C17.0868 4.16841 17.3439 4.64951 17.4481 5.17326C17.5523 5.69701 17.4988 6.23989 17.2945 6.73325C17.0901 7.22661 16.7441 7.64829 16.3 7.94497C15.856 8.24165 15.334 8.4 14.8 8.4H12.1ZM12.1 8.4V21M20.2 14.7H4" stroke="#3975E9" stroke-width="1.5" stroke-linecap="round" stroke-linejoin="round"/>
</svg>
