<svg width="61" height="60" viewBox="0 0 61 60" fill="none" xmlns="http://www.w3.org/2000/svg">
<path fill-rule="evenodd" clip-rule="evenodd" d="M28.1353 9.20244C26.8334 10.9615 25.492 13.4451 24.3301 16.3562C26.2845 16.5383 28.1511 16.8056 29.93 17.1638C30.7389 14.3127 31.1612 11.7216 31.1817 9.72369C31.2232 5.68295 30.4097 6.12833 28.1353 9.20244Z" fill="#FCB6C3"/>
<path fill-rule="evenodd" clip-rule="evenodd" d="M22.7934 6.61258C19.7477 6.67131 16.3041 7.02101 12.904 7.60957C9.57259 8.18692 6.33881 9.09351 5.1828 12.6717C4.31975 15.3433 5.34182 18.1034 7.23748 20.0663C10.9569 23.4756 15.5631 25.69 19.4395 27.4867C19.0595 22.5275 21.4804 15.3532 23.8768 10.8948L25.143 8.75766C25.6128 8.04439 26.1222 7.35158 26.6956 6.71815C25.5145 6.61852 24.1988 6.58553 22.7934 6.61258Z" fill="#FFC4E0"/>
<path fill-rule="evenodd" clip-rule="evenodd" d="M15.5427 14.0858C11.8926 13.3666 8.3685 12.9549 5.13604 12.8242C4.35877 15.4483 5.37687 18.1417 7.23691 20.0677C10.9563 23.477 15.5625 25.6914 19.4396 27.4887C19.1757 24.0425 20.2638 19.526 21.7563 15.5948C19.7874 15.0208 17.7069 14.5114 15.5427 14.0858Z" fill="#FCB6C3"/>
<path fill-rule="evenodd" clip-rule="evenodd" d="M47.7934 35.4042C46.7654 35.129 45.6767 35.0861 44.6117 35.2973C45.5044 36.3075 46.0442 37.4886 46.258 38.6921C46.9257 42.4438 44.2244 46.4146 40.2285 46.1335C41.1991 47.5409 42.6138 48.4937 44.1723 48.912C47.9029 49.911 51.7365 47.6999 52.7367 43.9687C53.2006 42.236 53.0046 40.3284 52.0406 38.6571C51.0779 36.9891 49.5247 35.868 47.7934 35.4042Z" fill="#E8FEFF"/>
<path fill-rule="evenodd" clip-rule="evenodd" d="M44.6137 35.2988C45.5058 36.309 46.0442 37.4894 46.258 38.6923C46.9257 42.444 44.2244 46.4148 40.2285 46.1331C41.1998 47.5405 42.6138 48.4939 44.1723 48.9116C45.2986 49.2138 46.4335 49.2224 47.4971 48.9862C48.147 47.5167 48.5178 45.8282 48.5178 44.0316C48.5178 40.3399 46.9567 37.1041 44.6137 35.2988Z" fill="#A2E0E3"/>
<path fill-rule="evenodd" clip-rule="evenodd" d="M37.8367 47.7024C37.1446 49.2114 35.7893 50.209 34.0632 49.8118C31.9524 49.3255 30.6777 47.063 30.5741 45.0195C28.6058 46.3022 27.6333 48.6274 28.0536 50.9005C28.332 52.4036 29.1977 53.7338 30.4507 54.5955C31.6641 55.4295 33.1988 55.8003 34.7672 55.5094C37.6051 54.9835 39.6143 52.4313 39.4632 49.5505C38.8568 49.0147 38.3085 48.3978 37.8367 47.7024Z" fill="#E8FEFF"/>
<path fill-rule="evenodd" clip-rule="evenodd" d="M34.0641 49.813C31.9553 49.3274 30.6805 47.0695 30.5763 45.0273C30.571 45.1712 30.5684 45.315 30.5684 45.4602C30.5684 49.9199 32.8467 53.7132 36.0297 55.1239C38.1801 54.1817 39.5914 51.9845 39.4641 49.5517C38.8577 49.016 38.31 48.399 37.8376 47.7036C37.1455 49.2126 35.7902 50.2102 34.0641 49.813Z" fill="#A2E0E3"/>
<path fill-rule="evenodd" clip-rule="evenodd" d="M21.2598 47.5586C20.8389 47.8694 20.4753 48.2468 20.1823 48.6724C18.8739 50.5779 19.0936 53.1671 20.9649 54.6174C22.596 55.8809 24.9502 56.0129 26.5918 54.6926C25.9551 53.7589 25.4939 52.6847 25.2623 51.5096C23.2023 51.3948 21.5838 49.509 21.2598 47.5586Z" fill="#E8FEFF"/>
<path fill-rule="evenodd" clip-rule="evenodd" d="M21.2598 47.5605C21.3198 50.8451 22.6157 53.7477 24.5899 55.5721C25.3051 55.4599 25.9953 55.1722 26.5918 54.6925C25.9551 53.7596 25.4938 52.6854 25.2622 51.5096C23.2029 51.3954 21.5844 49.5103 21.2598 47.5605Z" fill="#A2E0E3"/>
<path fill-rule="evenodd" clip-rule="evenodd" d="M35.4165 40.6416C34.5786 32.5423 29.8734 28.0304 22.3105 25.3516C22.2518 26.1038 22.1297 28.5484 22.6061 28.9733C28.3894 31.8072 30.5847 35.6157 30.3636 41.9111C30.9073 41.6828 31.4807 41.5066 32.0818 41.3905C32.3668 41.3232 32.6756 41.343 32.9666 41.467C33.6924 41.7765 34.0303 42.6158 33.7215 43.3422C33.1797 44.6111 33.4516 45.7974 34.0171 46.51C34.1866 46.7238 34.6643 47.222 34.958 46.9488C35.4812 46.4625 35.8243 45.1561 35.6561 42.6349C35.5558 41.9896 35.4878 41.3258 35.4165 40.6416Z" fill="#E8FEFF"/>
<path fill-rule="evenodd" clip-rule="evenodd" d="M22.6047 28.9735C23.1768 29.254 23.7145 29.5443 24.218 29.8452C23.6294 29.4638 23.0455 29.1022 22.4668 28.7598C22.5057 28.8528 22.5513 28.9254 22.6047 28.9735Z" fill="#6DC0D5"/>
<path fill-rule="evenodd" clip-rule="evenodd" d="M35.4162 40.6409C35.3528 40.0239 35.2658 39.4288 35.1575 38.8528C32.061 35.7358 28.8701 33.0523 25.7637 30.8848C29.198 33.5016 30.5388 36.9274 30.3633 41.9104C30.907 41.6821 31.4804 41.5059 32.0815 41.3898C32.3665 41.3225 32.6753 41.3423 32.9663 41.4663C33.6921 41.7758 34.0299 42.6151 33.7211 43.3415C33.1794 44.6104 33.4512 45.7967 34.0167 46.5093C34.1863 46.7231 34.664 47.2213 34.9576 46.9481C35.4809 46.4618 35.824 45.1554 35.6557 42.6342C35.5554 41.9889 35.4875 41.3251 35.4162 40.6409Z" fill="#A2E0E3"/>
<path fill-rule="evenodd" clip-rule="evenodd" d="M23.7275 18.6387C23.3013 19.9768 22.9668 21.2681 22.7246 22.4722C31.584 25.4243 37.2829 30.91 38.2594 40.3507C38.3584 41.3075 38.4574 42.1092 39.2505 42.796C40.2884 43.696 41.8106 43.2638 42.6472 42.2992C43.375 41.4586 43.6297 40.2676 43.4377 39.1862C43.1923 37.8098 42.3068 36.7705 41.0986 36.1292C40.0416 35.5677 40.1109 34.0494 41.1745 33.5625C42.9547 32.5662 44.9144 32.1795 46.8074 32.3392C42.4242 22.8536 33.6407 19.4146 23.7275 18.6387Z" fill="#E8FEFF"/>
<path fill-rule="evenodd" clip-rule="evenodd" d="M22.7285 22.4727C31.5859 25.4254 37.2828 30.9111 38.26 40.3505C38.3584 41.3072 38.4573 42.1083 39.2504 42.7958C40.2883 43.6951 41.8112 43.263 42.6478 42.2983C43.375 41.4577 43.6297 40.2667 43.4377 39.1859C43.1929 37.8089 42.3074 36.7703 41.0992 36.129C40.0422 35.5675 40.1115 34.0486 41.1751 33.5623C42.9553 32.5653 44.915 32.1786 46.8074 32.3383C46.7473 32.207 46.6853 32.077 46.6226 31.9483C37.9486 26.2409 29.171 22.9134 22.7285 22.4727Z" fill="#A2E0E3"/>
<path fill-rule="evenodd" clip-rule="evenodd" d="M30.3067 0C24.7642 0 19.3643 1.52551 14.6499 4.44191C13.8977 4.54946 13.1448 4.66757 12.3952 4.79756C7.91441 5.57417 3.9733 7.12145 2.46231 11.7989C1.74376 14.0265 1.92851 16.3207 2.77242 18.3885C1.27397 21.9978 0.5 25.8999 0.5 29.8074C0.5 46.2693 13.8449 59.6148 30.3067 59.6148C38.5373 59.6148 45.9894 56.2781 51.3834 50.8841C56.7768 45.4907 60.1135 38.038 60.1135 29.8074C60.1135 13.3462 46.7686 0 30.3067 0ZM5.1829 12.6717C6.33891 9.09351 9.57269 8.18692 12.9041 7.60957C16.3042 7.02101 19.7471 6.67131 22.7935 6.61258C24.1983 6.58553 25.514 6.61852 26.6957 6.71815C26.1217 7.35158 25.6129 8.04439 25.1431 8.75766C21.5597 8.59468 15.9261 8.72335 8.68259 10.712C12.3862 10.3432 19.819 10.1136 23.8769 10.8948C21.4798 15.3532 19.0596 22.5275 19.4396 27.4867C15.5632 25.69 10.9563 23.4756 7.23692 20.0663C5.34126 18.1034 4.31985 15.3433 5.1829 12.6717ZM43.4377 39.1861C43.6297 40.2676 43.375 41.4586 42.6472 42.2992C41.8106 43.2638 40.2884 43.696 39.2505 42.796C38.4574 42.1092 38.3584 41.3081 38.2594 40.3507C37.2829 30.91 31.5847 25.4243 22.7246 22.4722C22.9668 21.2681 23.3013 19.9768 23.7275 18.6387C33.6407 19.4146 42.4249 22.8536 46.8074 32.3392C44.9144 32.1795 42.9547 32.5662 41.1745 33.5625C40.1109 34.0494 40.0416 35.5677 41.0986 36.1292C42.3068 36.7712 43.1929 37.8098 43.4377 39.1861ZM32.9666 41.467C32.6756 41.343 32.3668 41.3232 32.0811 41.3905C31.4807 41.506 30.9067 41.6828 30.3636 41.9111C30.5847 35.6157 28.3894 31.8072 22.6061 28.9733C22.1297 28.5484 22.2518 26.1038 22.3105 25.3516C29.8734 28.0298 34.5786 32.5416 35.4165 40.6416C35.4878 41.3252 35.5558 41.9896 35.6554 42.6342C35.8243 45.1561 35.4812 46.4625 34.958 46.9482C34.6643 47.2213 34.1866 46.7238 34.0171 46.51C33.4516 45.7974 33.1797 44.6104 33.7215 43.3422C34.0303 42.6151 33.6924 41.7758 32.9666 41.467ZM29.6792 16.569C28.1049 16.251 26.4527 16.0141 24.7227 15.8538C25.7513 13.2772 26.9383 11.08 28.091 9.52279C30.1042 6.80301 30.8234 6.40844 30.7871 9.98401C30.7686 11.7523 30.3951 14.0452 29.6792 16.569ZM20.965 54.6173C19.0938 53.167 18.8734 50.5772 20.1825 48.6723C20.4754 48.2468 20.839 47.8687 21.2599 47.5586C21.5839 49.509 23.2025 51.3948 25.2624 51.5089C25.494 52.6847 25.9552 53.7589 26.5913 54.6919C24.9503 56.0128 22.5961 55.8809 20.965 54.6173ZM27.3484 44.0436C26.2023 45.3032 25.4362 46.9171 25.1895 48.6043C24.178 48.1998 23.8349 46.8406 24.2466 45.8779C24.7085 44.7905 23.724 43.6622 22.6043 43.9262C20.5885 44.3194 18.9139 45.4866 17.8318 47.061C16.6342 48.8036 16.2053 51.012 16.7094 53.0706C8.45641 48.2368 3.36523 39.4189 3.36523 29.8073C3.36523 26.9701 3.79346 24.1843 4.66838 21.4863C7.86191 25.2381 14.3724 28.2957 18.8394 30.3622C26.2188 33.7755 28.1494 35.8117 27.3484 44.0436ZM30.4503 54.5962C27.0938 52.2888 27.1281 47.2656 30.5743 45.0195C30.6773 47.0637 31.952 49.3262 34.0628 49.8125C35.7896 50.2097 37.1448 49.212 37.8363 47.703C38.3088 48.3985 38.8564 49.0154 39.4628 49.5512C39.6139 52.432 37.6054 54.9841 34.7668 55.51C33.1991 55.801 31.6637 55.4302 30.4503 54.5962ZM40.916 54.5786C41.5692 53.5849 42.0192 52.4586 42.2185 51.2656C43.2861 51.7057 44.4256 51.9571 45.5803 52.0033C44.1227 53.0089 42.5623 53.8726 40.916 54.5786ZM52.7367 43.9691C52.5183 44.782 52.1667 45.5224 51.7101 46.1743C49.8837 48.5588 47.1514 49.7102 44.1723 48.9125C42.6138 48.4948 41.1998 47.5414 40.2285 46.134C44.2244 46.4151 46.9257 42.4443 46.258 38.6932C46.0442 37.489 45.5051 36.308 44.6124 35.2984C49.6211 34.3028 54.0894 38.9202 52.7367 43.9691ZM55.462 39.4734C54.6947 36.78 52.8148 34.5234 50.2884 33.2955C47.1483 24.7878 41.0331 19.6352 32.466 17.2368C33.2248 14.5236 33.6213 12.0057 33.6411 10.0071C33.6602 8.19788 33.3231 5.38045 31.2994 4.68631C29.3826 4.02715 26.6087 3.73221 23.4277 3.75201C25.621 3.17466 27.9264 2.86719 30.3064 2.86719C45.1866 2.86719 57.2482 14.9287 57.2482 29.8083C57.2482 33.215 56.6154 36.4738 55.462 39.4734Z" fill="#3975E9"/>
<path fill-rule="evenodd" clip-rule="evenodd" d="M2.25586 19.7195C2.79889 20.7778 3.50028 21.7563 4.3244 22.6332C4.43063 22.2479 4.54478 21.8658 4.6675 21.4891C3.83943 20.5198 3.20732 19.4733 2.7692 18.3945C2.58775 18.8307 2.41686 19.2721 2.25586 19.7195Z" fill="#3975E9"/>
<path fill-rule="evenodd" clip-rule="evenodd" d="M17.0436 3.11026C16.2234 3.51803 15.4257 3.96274 14.6504 4.44177C17.5463 4.02939 20.5023 3.7681 23.4286 3.75094C24.9291 3.35637 26.4803 3.08782 28.0731 2.95718C24.5352 2.53159 20.5842 2.7269 17.0436 3.11026Z" fill="#3975E9"/>
</svg>
