<svg width="61" height="61" viewBox="0 0 61 61" fill="none" xmlns="http://www.w3.org/2000/svg">
<path fill-rule="evenodd" clip-rule="evenodd" d="M35.5927 3.80738C24.8529 2.67416 14.9554 10.5441 21.6228 22.7764C24.1504 27.4139 28.9603 31.1447 34.6192 31.4665C40.6467 31.8082 44.0912 28.4152 44.8392 23.8777C44.6611 24.1268 44.4712 24.36 44.27 24.5758C42.4673 26.5125 39.8116 27.0881 37.2899 26.6284C28.0877 24.9489 28.6985 13.7492 35.323 13.2589C36.472 13.1743 37.6613 13.5014 38.7312 14.3502C41.117 16.2435 40.3261 20.1709 37.7299 20.1109C38.5452 18.434 37.4146 16.0017 35.5241 16.1409C32.2063 16.3861 31.9814 22.7304 37.7932 23.7917C39.3545 24.0768 41.057 23.813 42.1889 22.5979C43.427 21.2674 44.0094 18.7858 43.1493 14.7452C42.7436 13.0164 45.1275 12.2776 45.8359 13.7945C50.8648 23.8037 46.2198 35.0154 34.4628 34.3485C29.3521 34.0574 24.8648 31.4771 21.6966 27.8569C20.32 31.9834 19.0714 37.8321 19.7317 42.1791C21.632 43.3983 23.4044 44.4809 25.5653 45.1351C30.0863 40.4823 33.9371 42.2338 37.2556 46.698C37.1033 45.6421 36.8328 44.289 36.5703 42.9739C34.0473 30.3372 50.6306 34.1819 53.4215 44.0472C55.8396 39.9686 57.2301 35.1959 57.2301 30.0947C57.2301 17.977 48.0153 5.11782 35.5927 3.80738Z" fill="#E8FEFF"/>
<path fill-rule="evenodd" clip-rule="evenodd" d="M37.9629 36.2207C41.8427 32.7897 51.3676 36.7876 53.421 44.0487C55.8002 40.0361 57.1841 35.3526 57.2283 30.3454C50.3043 28.8744 42.8612 30.9703 37.9629 36.2207Z" fill="#A2E0E3"/>
<path fill-rule="evenodd" clip-rule="evenodd" d="M35.2263 26.0347C29.6117 23.7489 29.1539 17.1947 32.3345 14.4619C35.5864 11.6705 44.4747 9.9317 48.6983 10.2568C45.1205 6.7592 40.62 4.33752 35.593 3.80789C18.0697 1.95915 20.5512 20.0255 35.2263 26.0347Z" fill="#A2E0E3"/>
<path fill-rule="evenodd" clip-rule="evenodd" d="M22.1471 30.2012L21.5185 33.6441C21.2916 34.888 22.2883 36.0132 23.7895 34.1085C22.4426 34.6828 22.0666 30.6922 22.1471 30.2012Z" fill="#3975E9"/>
<path fill-rule="evenodd" clip-rule="evenodd" d="M30.2981 0C13.8414 0 0.5 13.4754 0.5 30.0954C0.5 46.7167 13.8414 60.1921 30.2981 60.1921C46.7542 60.1921 60.0955 46.7167 60.0955 30.0954C60.0955 13.4548 46.7416 0 30.2981 0ZM30.2986 57.2986C15.423 57.2986 3.36523 45.1203 3.36523 30.0959C3.36523 17.9982 11.28 7.36144 22.7335 3.98242C16.6228 8.21419 14.1183 16.1714 19.6439 25.072C17.7679 30.2438 16.6004 34.9306 16.7693 40.608C16.824 42.4628 17.2462 43.9864 17.7191 44.3028C18.475 44.8085 21.128 46.4853 23.2058 47.4147C25.153 48.2848 26.2275 48.5519 27.6173 47.1502C31.1416 43.5913 33.4074 46.2202 35.5782 49.2648C38.4099 53.2374 40.2825 50.8583 40.1012 47.1755C40.0293 45.7145 39.6948 44.0397 39.369 42.4088C38.1019 34.8853 49.6768 38.261 51.2044 47.2468C46.0766 53.6138 38.4442 57.2986 30.2986 57.2986ZM53.4208 44.0472C50.6306 34.1819 34.0473 30.3372 36.5703 42.9733C36.8328 44.289 37.1033 45.6421 37.2556 46.698C33.9371 42.2338 30.0856 40.4823 25.5646 45.1351C23.4044 44.4809 21.632 43.3983 19.7317 42.1791C19.0714 37.8321 20.32 31.9834 21.6966 27.8563C24.8648 31.4771 29.3521 34.0574 34.4622 34.3485C46.2191 35.0154 50.8648 23.8037 45.8359 13.7945C45.1268 12.2776 42.7436 13.0164 43.1493 14.7452C44.0094 18.7858 43.427 21.2668 42.1889 22.5972C41.057 23.813 39.3545 24.0768 37.7932 23.791C31.9807 22.7304 32.2063 16.3861 35.5241 16.1409C37.4146 16.0017 38.5452 18.434 37.7299 20.1102C40.3255 20.1709 41.117 16.2435 38.7305 14.3502C37.6613 13.5014 36.472 13.1736 35.323 13.2589C28.6985 13.7492 28.0877 24.9489 37.2899 26.6284C39.8116 27.0881 42.4666 26.5125 44.2693 24.5758C44.4712 24.36 44.6611 24.1268 44.8386 23.8777C44.0912 28.4152 40.6467 31.8082 34.6192 31.4658C28.9603 31.1447 24.1504 27.4139 21.6228 22.7764C14.9554 10.5441 24.8529 2.67416 35.5928 3.80738C48.0153 5.11782 57.2301 17.9764 57.2301 30.0947C57.2301 35.1959 55.839 39.9686 53.4208 44.0472Z" fill="#3975E9"/>
<path fill-rule="evenodd" clip-rule="evenodd" d="M27.5496 0.126695C24.2489 1.07271 21.1685 2.8495 18.877 5.45305C20.1137 4.86679 21.4026 4.37379 22.7337 3.98072C27.7475 0.509767 35.2948 -0.183759 40.9351 1.97476C36.674 0.329223 32.0884 -0.292351 27.5496 0.126695Z" fill="#3975E9"/>
</svg>
