<svg width="63" height="64" viewBox="0 0 63 64" fill="none" xmlns="http://www.w3.org/2000/svg">
<path fill-rule="evenodd" clip-rule="evenodd" d="M53.1448 16.9941C54.6444 20.8599 54.6882 24.1085 53.8714 26.3845C52.683 29.6968 49.5743 31.3019 46.2752 29.8348C44.134 28.8827 41.9079 26.555 40.2139 22.5605C39.4754 26.2491 39.7686 30.087 42.3365 33.0417C45.976 37.2306 53.8136 38.5543 57.895 34.4457C60.6965 31.6257 60.0289 27.2099 58.5101 23.9234C57.3748 21.467 55.5488 19.0451 53.1448 16.9941Z" fill="white"/>
<path fill-rule="evenodd" clip-rule="evenodd" d="M49.2023 29.5735C44.7799 29.4474 42.2286 26.0952 40.2154 22.5586C39.4769 26.2472 39.2633 30.1421 41.8311 33.0962C46.7658 38.7753 53.7986 31.4134 54.2929 24.658C54.2033 25.2817 54.0607 25.8583 53.8729 26.3825C53.0627 28.6392 51.2918 29.6332 49.2023 29.5735Z" fill="#A2E0E3"/>
<path fill-rule="evenodd" clip-rule="evenodd" d="M22.3825 17.3587C18.8452 16.652 17.2322 13.5394 18.1724 10.1534C18.8207 7.82303 20.7323 5.19743 24.19 2.90625C15.4227 3.69784 4.21966 11.4512 13.6213 19.8184C19.8379 25.3489 28.2448 22.3205 31.5333 14.9155C27.8421 17.2014 24.6797 17.8165 22.3825 17.3587Z" fill="white"/>
<path fill-rule="evenodd" clip-rule="evenodd" d="M17.9322 11.4863C16.2886 25.2102 27.7047 25.6123 31.5339 14.9168C27.3816 17.4873 17.3695 18.2477 17.9322 11.4863Z" fill="#A2E0E3"/>
<path fill-rule="evenodd" clip-rule="evenodd" d="M51.9622 12.5756C46.3017 6.7558 38.5947 3.49984 30.4751 3.49984C29.9715 3.49984 29.4712 3.51245 28.9742 3.53634C30.9402 2.63924 32.5327 0.565039 29.994 0.203414C21.2374 -1.05398 6.05509 3.49785 7.33571 14.4203C2.79582 19.9276 0.5 26.4202 0.5 33.4749C0.5 50.0287 13.9206 63.4487 30.4751 63.4487C46.0362 63.4487 59.0315 51.5217 60.3407 36.0335C63.6225 32.2812 63.0831 26.9617 61.123 22.7184C59.3786 18.9429 56.2201 15.249 51.9622 12.5756ZM24.1899 2.90625C20.7329 5.19743 18.8206 7.82303 18.173 10.1534C17.2321 13.5394 18.8458 16.652 22.3824 17.3587C24.6802 17.8165 27.842 17.2014 31.5339 14.9155C28.2447 22.3205 19.8378 25.3489 13.6211 19.8184C4.21956 11.4512 15.4233 3.69784 24.1899 2.90625ZM8.37561 17.7969C9.0982 19.2155 10.191 20.6189 11.7032 21.9652C10.552 23.6877 10.1267 27.7718 8.55609 28.635C7.2423 29.3569 4.98695 27.2363 4.29688 26.4679C5.1389 23.3141 6.53563 20.3866 8.37561 17.7969ZM3.63197 29.7891C4.98027 30.8945 6.74195 31.8759 8.54676 31.6237C8.82809 33.623 10.3721 37.2565 9.58187 38.9087C7.77374 39.2417 5.99348 39.7566 4.28821 40.4434C3.36855 36.9811 3.14892 33.339 3.63197 29.7891ZM30.4749 60.5661C19.2321 60.5661 9.1875 53.6315 5.17578 43.1862C18.7855 37.574 34.407 45.2272 38.3119 59.4148C35.831 60.164 33.2001 60.5661 30.4749 60.5661ZM38.2329 51.9303C36.6577 49.2742 34.6658 46.9512 32.374 45.0157C32.857 44.6759 33.1735 44.1139 33.1735 43.4783C33.1735 42.4425 32.3328 41.6025 31.297 41.6025C30.4643 41.6025 29.7576 42.1465 29.5128 42.8977C27.3218 41.485 24.9384 40.3842 22.4422 39.6331C22.6087 39.3531 22.705 39.0253 22.705 38.6749C22.705 37.6392 21.8643 36.7998 20.8285 36.7998C19.731 36.7998 18.8724 37.7347 18.958 38.8256C16.8944 38.4858 14.7804 38.379 12.6551 38.523C13.0187 35.695 10.9067 31.747 11.4183 29.8911C12.7102 28.2562 13.4699 24.2166 14.1115 23.6128C24.5051 29.142 32.9466 22.1079 35.6505 11.7554C36.1229 9.94598 34.5125 9.01969 33.4117 9.96124C28.8818 13.8495 25.2377 14.9915 22.9465 14.5343C21.0541 14.1561 20.4509 12.689 20.9433 10.9194C21.2525 9.80598 21.9771 8.58839 23.1767 7.37745C25.4984 6.72918 27.9455 6.38281 30.4749 6.38281C37.1003 6.38281 43.1703 8.76158 47.8774 12.7103C47.8747 13.2132 48.0977 13.4786 48.3405 13.8655C51.5255 18.9276 52.0437 22.9831 51.1705 25.4169C50.5527 27.1401 49.2051 27.9934 47.4468 27.2111C45.3148 26.2629 42.9998 23.2259 41.546 17.4333C41.1943 16.0246 39.2143 15.9808 38.779 17.3457C36.5383 23.1436 35.8004 29.8984 40.1645 34.9213C42.8113 37.967 47.0639 39.8222 51.0909 39.8315C49.4055 41.9309 46.3068 42.9216 45.8775 46.224C43.4317 48.5569 39.5799 50.2264 38.2329 51.9303ZM41.0208 58.4388C40.6857 57.2505 40.2723 56.0846 39.7793 54.9526C41.038 52.6256 44.1566 51.9787 46.8944 49.5488C47.7629 50.6211 49.0203 51.4134 50.2598 51.984C47.6714 54.7529 44.5123 56.9618 41.0208 58.4388ZM52.1901 49.6787C51.1185 49.2792 48.5678 48.045 48.7258 46.6264C48.9898 44.2496 54.3711 42.4057 54.2231 39.4496C55.2908 39.2088 56.2515 38.8744 57.1095 38.459C56.3385 42.6087 54.6213 46.4254 52.1901 49.6787ZM57.8953 34.445C53.8133 38.5543 45.9763 37.2299 42.3368 33.0417C39.7689 30.087 39.475 26.2484 40.2142 22.5605C41.9075 26.555 44.1343 28.882 46.2755 29.8342C49.574 31.3019 52.6826 29.6961 53.871 26.3845C54.6878 24.1079 54.644 20.8592 53.1444 16.9941C55.5484 19.0451 57.3744 21.4663 58.5098 23.9234C60.0292 27.2099 60.6961 31.625 57.8953 34.445Z" fill="#3975E9"/>
<path fill-rule="evenodd" clip-rule="evenodd" d="M8.37561 17.7969C6.53563 20.3866 5.1389 23.3141 4.29688 26.4673C4.98695 27.2363 7.24163 29.3563 8.55609 28.635C10.1267 27.7718 10.552 23.6877 11.7032 21.9652C10.191 20.6189 9.0982 19.2155 8.37561 17.7969Z" fill="#E8FEFF"/>
<path fill-rule="evenodd" clip-rule="evenodd" d="M3.63182 29.7891C3.14877 33.3383 3.36906 36.9804 4.28805 40.4434C5.99333 39.7566 7.77359 39.2417 9.58238 38.9087C10.372 37.2565 8.82794 33.6223 8.5466 31.6231C6.74246 31.8759 4.98078 30.8945 3.63182 29.7891Z" fill="#E8FEFF"/>
<path fill-rule="evenodd" clip-rule="evenodd" d="M25.6922 44.016C19.2573 40.76 11.827 40.4455 5.17578 43.1872C9.1875 53.6325 19.2321 60.5671 30.4749 60.5671C33.2001 60.5671 35.831 60.165 38.3119 59.4159C36.4653 52.7049 31.9168 47.1644 25.6922 44.016Z" fill="#E8FEFF"/>
<path fill-rule="evenodd" clip-rule="evenodd" d="M7.5332 47.8945C12.4188 55.6638 21.0235 60.566 30.4762 60.566C33.2013 60.566 35.8322 60.1639 38.3125 59.4148C34.2683 55.4203 27.8419 51.8399 20.1841 49.7252C15.7676 48.5056 11.4534 47.9171 7.5332 47.8945Z" fill="#A2E0E3"/>
<path fill-rule="evenodd" clip-rule="evenodd" d="M46.8924 49.5488C44.1553 51.9787 41.0367 52.6256 39.7773 54.9526C40.271 56.0846 40.6837 57.2498 41.0188 58.4382C44.511 56.9618 47.6701 54.7529 50.2585 51.9833C49.0184 51.4134 47.7616 50.6211 46.8924 49.5488Z" fill="#E8FEFF"/>
<path fill-rule="evenodd" clip-rule="evenodd" d="M48.7258 46.6264C48.5678 48.0444 51.1185 49.2792 52.1907 49.678C54.6212 46.4254 56.3391 42.6081 57.1095 38.459C56.2515 38.8744 55.2908 39.2088 54.2238 39.4496C54.3718 42.4057 48.9898 44.2496 48.7258 46.6264Z" fill="#E8FEFF"/>
<path fill-rule="evenodd" clip-rule="evenodd" d="M46.7559 11.8178C47.1374 12.1051 47.511 12.4017 47.8766 12.7083C47.8772 12.4913 47.9283 12.271 48.0338 12.064C48.3941 11.3587 49.2587 11.0786 49.964 11.4396C50.6534 11.7926 51.3196 12.1715 51.9599 12.5742C51.0728 11.6619 50.1286 10.8073 49.132 10.0137C48.0478 10.0867 47.1155 10.7953 46.7559 11.8178Z" fill="#3975E9"/>
<path fill-rule="evenodd" clip-rule="evenodd" d="M57.1091 38.4578C57.0122 38.9753 56.9014 39.4876 56.7773 39.9939C57.975 39.5188 59.1024 38.8791 60.103 38.0411C60.2045 37.3782 60.2841 36.7074 60.3412 36.0312C59.4401 37.0617 58.3406 37.8633 57.1091 38.4578Z" fill="#3975E9"/>
<path fill-rule="evenodd" clip-rule="evenodd" d="M6.33594 15.7012C6.5987 16.8485 7.04061 17.922 7.61722 18.9227C7.8614 18.5405 8.1142 18.1649 8.3763 17.796C7.83685 16.7363 7.47323 15.6017 7.33522 14.4199C6.99084 14.8379 6.65775 15.2653 6.33594 15.7012Z" fill="#3975E9"/>
<path fill-rule="evenodd" clip-rule="evenodd" d="M28.9744 3.53725C26.4065 4.70972 24.5009 6.03943 23.1758 7.37712C24.0079 7.14488 24.8558 6.95179 25.7178 6.79852C27.3308 5.63534 30.4886 3.95063 31.6345 3.52199C30.7487 3.48815 29.8602 3.49346 28.9744 3.53725Z" fill="#3975E9"/>
</svg>
