<svg width="77" height="83" viewBox="0 0 77 83" fill="none" xmlns="http://www.w3.org/2000/svg">
<path fill-rule="evenodd" clip-rule="evenodd" d="M43.5023 33.9429C43.113 34.5708 42.7415 35.2363 42.3881 35.9414C42.0368 36.6463 41.1795 36.9325 40.4749 36.5799C39.7699 36.2286 39.4843 35.3714 39.8355 34.6671C43.2605 27.8265 48.5112 23.7837 55.6606 21.5333C48.9453 22.7468 39.0259 27.42 36.0188 33.74C35.5963 34.6265 35.3379 35.5249 35.2763 36.4194C35.2435 36.8931 34.9838 37.2971 34.611 37.5322C30.8853 40.1262 31.2418 42.7664 28.3668 46.1076C26.3448 48.4558 23.9505 50.5281 21.7908 52.7535C21.5914 52.96 21.7428 53.5745 22.0398 54.2969C22.5648 55.5745 23.6841 57.1785 24.6786 58.1431C24.9192 58.2942 29.0471 56.2441 33.4096 60.6354C33.7183 59.4427 34.2182 58.4554 34.8515 57.6431C36.0176 56.1459 41.3392 52.4906 46.6503 55.0048C44.2631 55.5144 42.9725 55.7418 41.9537 56.2842C46.6981 60.0879 49.3581 62.6398 51.7787 68.4208C57.2306 64.9287 61.447 59.4718 63.2547 52.7254C64.0783 49.6514 64.3348 46.5599 64.0884 43.5602C58.5917 38.9374 50.0683 38.077 43.5023 33.9429Z" fill="#E8FEFF"/>
<path fill-rule="evenodd" clip-rule="evenodd" d="M36.5663 56.1595C43.8247 57.1211 48.9012 61.5447 51.7798 68.4201C56.2976 65.526 59.9672 61.282 62.1201 56.0741C54.6692 49.8078 44.1142 50.0682 36.5663 56.1595Z" fill="#A2E0E3"/>
<path fill-rule="evenodd" clip-rule="evenodd" d="M31.7566 43.3867C31.1919 43.9355 31.1796 44.8398 31.7284 45.4045C32.2777 45.97 33.182 45.9824 33.7469 45.4329C33.4817 43.5193 34.0266 42.2548 35.4874 40.7914C33.6528 41.3732 33.0364 42.1403 31.7566 43.3867Z" fill="#3975E9"/>
<path fill-rule="evenodd" clip-rule="evenodd" d="M57.5419 23.9531C59.6449 23.2077 63.5057 22.5566 65.8432 22.2399C67.2072 22.0164 67.4939 20.1443 66.2249 19.5422C62.6778 17.8534 58.162 18.099 54.4102 18.8728C54.6475 18.7309 54.8865 18.593 55.126 18.4579C57.5692 17.0769 60.1099 15.9712 62.5111 14.9331C63.858 14.4546 63.7422 12.4801 62.3227 12.1878C57.3922 11.1819 51.1796 13.4868 45.7802 17.2284C29.7066 12.4309 12.8388 21.8439 8.49562 38.0529C4.23926 53.9378 13.6667 70.2656 29.5516 74.522C37.4937 76.6501 45.5465 75.3576 52.1462 71.5472C58.7465 67.7371 63.8924 61.4088 66.0205 53.4667C68.8841 42.7797 65.5956 31.4564 57.5419 23.9531ZM52.5802 16.6417C50.4023 17.9675 48.3175 19.5339 46.4685 21.4836C45.1314 22.0882 43.8279 22.7659 42.5687 23.5204C45.4246 20.7466 48.9459 18.2761 52.5802 16.6417ZM30.2919 71.7576C15.9337 67.9103 7.41307 53.1521 11.2601 38.7946C14.9684 24.9554 28.8817 16.4376 42.8805 19.4407C38.4833 23.1225 35.0045 27.6374 33.8488 31.7313C33.1851 32.9094 32.6952 34.1928 32.4983 35.5314C28.4184 38.5204 29.0953 40.8841 26.2033 44.2432C24.2292 46.5374 21.8575 48.5886 19.7418 50.7697C18.5792 51.9684 18.6946 53.6719 19.3982 55.3856C20.0812 57.0467 21.4018 58.9408 22.6938 60.1932C23.5219 60.9965 24.3989 61.3427 25.0912 61.0587C28.9527 59.4702 31.6471 62.844 32.7359 64.2078C33.83 65.5772 35.9632 66.1399 35.9241 63.7874C35.8876 61.7665 36.3541 60.3541 37.1027 59.3939C37.6832 58.6486 38.4573 58.1484 39.3096 57.8254C44.0754 61.6867 46.8365 63.8664 49.2814 69.8395C43.6042 72.6775 36.9052 73.5296 30.2919 71.7576ZM63.2545 52.726C61.4468 59.4725 57.2305 64.9293 51.7786 68.4214C49.358 62.6404 46.698 60.0886 41.9535 56.2849C42.9724 55.7424 44.263 55.515 46.6501 55.0055C41.3385 52.491 36.0169 56.1463 34.8513 57.6438C34.2181 58.4561 33.7181 59.4433 33.4095 60.636C29.047 56.2448 24.9191 58.2949 24.6786 58.1431C23.6842 57.1785 22.5647 55.5751 22.0397 54.2976C21.7422 53.5743 21.5913 52.9607 21.7907 52.7541C23.9497 50.5286 26.3447 48.4564 28.3669 46.1076C31.2416 42.767 30.8852 40.1268 34.6104 37.5321C34.9837 37.2977 35.2434 36.8937 35.2762 36.42C35.3377 35.5255 35.5962 34.6271 36.018 33.7404C39.0257 27.4206 48.9447 22.7466 55.6606 21.5333C48.5111 23.7844 43.2603 27.8272 39.8354 34.6677C39.4836 35.3719 39.7698 36.2293 40.4747 36.5806C41.1794 36.9331 42.0362 36.6462 42.388 35.942C42.7408 35.2367 43.1128 34.5715 43.5022 33.9436C50.0683 38.077 58.5916 38.938 64.0882 43.5609C64.3349 46.5599 64.0782 49.6521 63.2545 52.726ZM45.1567 31.6105C47.6461 28.5365 50.7534 26.4395 54.4021 25.0035C58.9192 28.7388 62.1063 33.8722 63.4573 39.5727C57.8408 36.0464 51.0837 35.2997 45.1567 31.6105Z" fill="#3975E9"/>
<path fill-rule="evenodd" clip-rule="evenodd" d="M42.5687 23.5204C43.8279 22.7659 45.1314 22.0882 46.4685 21.4836C48.3175 19.5339 50.4029 17.9677 52.5802 16.6417C48.9465 18.2762 45.4246 20.7466 42.5687 23.5204Z" fill="#E8FEFF"/>
<path fill-rule="evenodd" clip-rule="evenodd" d="M44.2941 16.8262C43.2862 17.562 42.311 18.3441 41.3809 19.1615C41.8813 19.2397 42.382 19.3322 42.8827 19.4397C43.812 18.661 44.7822 17.9206 45.781 17.2287C45.5107 17.1475 45.2393 17.0706 44.9661 16.9974C44.742 16.9374 44.5177 16.8807 44.2941 16.8262Z" fill="#3975E9"/>
<path fill-rule="evenodd" clip-rule="evenodd" d="M54.4021 25.0032C54.7478 25.2896 55.0864 25.5844 55.4163 25.8864C56.4343 25.5102 57.4746 25.1905 58.5264 24.9121C58.2067 24.5848 57.8782 24.2648 57.5428 23.9531C56.4795 24.2537 55.4304 24.5984 54.4021 25.0032Z" fill="#3975E9"/>
</svg>
