<svg width="61" height="64" viewBox="0 0 61 64" fill="none" xmlns="http://www.w3.org/2000/svg">
<path fill-rule="evenodd" clip-rule="evenodd" d="M34.6864 16.816C33.5766 17.8813 32.5152 18.3123 31.5469 17.3048C30.4856 16.199 29.2702 15.23 27.9512 14.4496C27.6158 14.251 27.2977 14.069 26.9955 13.9023C21.8921 18.667 21.6889 20.7677 21.495 22.788C21.2884 24.9359 21.0878 27.0127 17.5997 30.647C17.9437 32.1141 17.421 34.5289 15.8145 35.9416C16.2163 36.1754 16.717 36.4503 17.2616 36.7505C19.6692 38.0762 21.4053 38.9236 23.0192 41.1758C23.9258 42.4417 25.2209 44.2502 26.0212 43.7726C29.2177 41.8652 31.9261 39.1667 35.057 37.165C37.4585 35.6341 36.4364 26.6355 35.5777 24.0367C35.1758 22.8179 35.9217 21.7679 36.8429 20.4702C38.0111 18.8264 39.6575 16.5078 37.256 14.1434C37.1517 14.0412 34.9653 16.5483 34.6864 16.816Z" fill="#FFC4E0"/>
<path fill-rule="evenodd" clip-rule="evenodd" d="M37.3222 27.8591C37.4504 25.0139 35.2168 22.5134 32.8418 21.1113C34.4132 25.0411 35.2002 34.1314 33.3446 38.3474C38.3848 37.8367 37.2239 30.096 37.3222 27.8591Z" fill="#FCB6C3"/>
<path fill-rule="evenodd" clip-rule="evenodd" d="M44.0005 7.98052C42.1177 7.38478 39.9844 7.04871 37.5689 7.02148C47.1938 10.058 52.4041 16.3734 51.9425 26.9819C48.0605 12.4908 39.8881 7.92141 25.6427 8.17711C24.2792 8.20168 20.1262 8.09276 23.704 9.31547C27.0055 10.4432 30.3044 12.1607 32.8707 14.5683C34.1399 13.2778 36.4159 9.8096 38.332 11.2767C45.7014 16.9187 38.2051 22.7971 38.3174 23.1358C39.7533 27.4854 39.9412 32.7468 38.1268 38.7355C37.0256 42.3717 35.1799 46.2849 32.417 50.4319C41.1433 45.207 44.5704 34.0924 41.6116 24.4509C48.809 34.0166 43.5801 51.351 38.2868 58.773C42.6184 56.4876 46.2049 53.2917 48.5035 48.4547C51.2186 42.741 52.0082 34.9245 52.3117 30.055C53.8798 35.5973 53.209 42.6393 52.2885 46.1547C55.6392 41.6431 57.6217 36.0549 57.6217 30.0032C57.6217 21.0956 53.0417 10.841 44.0005 7.98052Z" fill="#E8FEFF"/>
<path fill-rule="evenodd" clip-rule="evenodd" d="M38.2891 58.7686C48.5164 50.1984 51.9879 34.3464 41.6112 24.4512C48.8079 34.015 43.5817 51.3441 38.2891 58.7686Z" fill="#A2E0E3"/>
<path fill-rule="evenodd" clip-rule="evenodd" d="M27.0049 18.6309C25.5099 19.0247 24.2227 20.4706 23.5805 21.9317C23.2444 22.6503 24.0806 24.1068 24.7986 24.4422C24.8876 24.4834 24.5475 23.3676 24.8975 22.2219C25.3186 20.8432 26.4702 19.3349 27.0049 18.6309Z" fill="#3975E9"/>
<path fill-rule="evenodd" clip-rule="evenodd" d="M23.7616 35.1094C23.2734 35.1094 22.8789 35.5052 22.8789 35.992C22.8789 36.4802 23.2734 36.8747 23.7616 36.8747C24.2491 36.8747 24.6436 36.4802 24.6436 35.992C24.6436 35.5052 24.2491 35.1094 23.7616 35.1094Z" fill="#466482"/>
<path fill-rule="evenodd" clip-rule="evenodd" d="M26.2225 36.668C25.735 36.668 25.3398 37.0625 25.3398 37.5506C25.3398 38.0381 25.735 38.4326 26.2225 38.4326C26.71 38.4326 27.1052 38.0381 27.1052 37.5506C27.1052 37.0625 26.71 36.668 26.2225 36.668Z" fill="#466482"/>
<path fill-rule="evenodd" clip-rule="evenodd" d="M26.8241 33.7012C26.3359 33.7012 25.9414 34.0963 25.9414 34.5838C25.9414 35.0713 26.3359 35.4658 26.8241 35.4658C27.3116 35.4658 27.7061 35.0713 27.7061 34.5838C27.7061 34.0963 27.3116 33.7012 26.8241 33.7012Z" fill="#466482"/>
<path fill-rule="evenodd" clip-rule="evenodd" d="M30.5024 0C13.9332 0 0.5 13.4338 0.5 30.0024C0.5 46.5724 13.9332 60.0049 30.5024 60.0049C31.8587 60.0049 33.1936 59.9146 34.502 59.7406C32.285 64.9382 35.5467 63.408 39.2055 61.5344C42.3396 59.9285 46.1346 57.6425 48.9566 53.6596C49.9269 52.9024 50.8488 52.0869 51.7175 51.2175C57.1476 45.7887 60.5056 38.2871 60.5056 30.0024C60.5056 21.7178 57.1476 14.2169 51.7175 8.78741C46.2887 3.35862 38.7871 0 30.5024 0ZM30.5028 57.1208C15.5261 57.1208 3.38477 44.9795 3.38477 30.0021C3.38477 15.0255 15.5261 2.88477 30.5028 2.88477C33.3945 2.88477 36.1813 3.33705 38.7948 4.17588C35.5922 4.01183 31.9493 4.36118 27.803 5.33018C25.3403 5.22657 22.798 5.35077 20.3804 5.82563C14.0331 7.07291 21.6775 11.5447 24.2246 12.5681C19.1132 17.5566 18.8688 20.0823 18.6344 22.5178C18.477 24.1556 18.3242 25.7396 15.5281 28.6532C11.0903 33.2718 9.42457 35.7218 15.8768 39.2744C17.8321 40.351 19.3723 41.0337 20.6767 42.8548C22.2162 45.0054 24.4178 48.0777 27.4975 46.2407C29.8254 44.8513 31.944 43.0647 34.0886 41.4056C32.4687 45.2146 29.9868 49.3177 26.4435 53.6732C25.9434 54.2895 26.037 55.1955 26.652 55.6962C27.1322 56.0861 27.7884 56.116 28.2918 55.8178C28.7614 55.5694 29.292 55.3097 29.8659 55.0281C33.006 53.4892 37.3662 51.3507 40.6776 47.1738C39.4124 50.1114 37.6929 52.9845 35.9502 56.5729C34.1902 56.9315 32.3691 57.1208 30.5028 57.1208ZM35.5783 24.036C36.4364 26.6348 37.4592 35.6341 35.057 37.165C31.9268 39.1667 29.2184 41.8652 26.0218 43.7726C25.2215 44.2495 23.9258 42.441 23.0198 41.1758C21.406 38.9236 19.6699 38.0762 17.2623 36.7505C16.7177 36.4503 16.2169 36.1754 15.8145 35.9416C17.421 34.5289 17.9444 32.1141 17.6004 30.647C21.0885 27.0121 21.2891 24.9353 21.4956 22.788C21.6896 20.7677 21.8921 18.6663 26.9961 13.9023C27.2983 14.069 27.6165 14.251 27.9512 14.4489C29.2709 15.23 30.4856 16.199 31.5476 17.3048C32.5159 18.3123 33.5772 17.8813 34.687 16.816C34.9653 16.5483 37.1524 14.0412 37.256 14.1434C39.6582 16.5078 38.0118 18.8264 36.8435 20.4702C35.9224 21.7679 35.1765 22.8173 35.5783 24.036ZM52.2885 46.1547C53.209 42.6393 53.8798 35.5973 52.3111 30.055C52.0082 34.9245 51.2186 42.741 48.5028 48.4547C46.2042 53.2917 42.6178 56.4876 38.2868 58.773C43.5795 51.351 48.809 34.0166 41.6116 24.4509C44.5697 34.0924 41.1433 45.207 32.417 50.4325C35.1799 46.2849 37.0256 42.3717 38.1268 38.7355C39.9412 32.7468 39.7533 27.4854 38.3174 23.1358C38.2051 22.7971 45.7014 16.9187 38.332 11.2767C36.4159 9.81026 34.1392 13.2778 32.8707 14.5689C30.3044 12.1614 27.0055 10.4439 23.704 9.31547C20.1262 8.09343 24.2792 8.20168 25.6427 8.17711C39.8881 7.92141 48.0605 12.4908 51.9425 26.9819C52.6292 19.0779 48.7711 9.23179 37.5689 7.02148C39.9844 7.04871 42.117 7.38478 44.0005 7.98052C53.0417 10.841 57.6217 21.0956 57.6217 30.0032C57.6217 36.0549 55.6392 41.6431 52.2885 46.1547Z" fill="#3975E9"/>
<path fill-rule="evenodd" clip-rule="evenodd" d="M23.7616 35.1094C23.2734 35.1094 22.8789 35.5052 22.8789 35.992C22.8789 36.4802 23.2734 36.8747 23.7616 36.8747C24.2491 36.8747 24.6436 36.4802 24.6436 35.992C24.6436 35.5052 24.2491 35.1094 23.7616 35.1094Z" fill="#3975E9"/>
<path fill-rule="evenodd" clip-rule="evenodd" d="M26.8241 33.7012C26.3359 33.7012 25.9414 34.0963 25.9414 34.5838C25.9414 35.0713 26.3359 35.4658 26.8241 35.4658C27.3116 35.4658 27.7061 35.0713 27.7061 34.5838C27.7061 34.0963 27.3116 33.7012 26.8241 33.7012Z" fill="#3975E9"/>
<path fill-rule="evenodd" clip-rule="evenodd" d="M26.2225 36.668C25.735 36.668 25.3398 37.0625 25.3398 37.5506C25.3398 38.0381 25.735 38.4326 26.2225 38.4326C26.71 38.4326 27.1052 38.0381 27.1052 37.5506C27.1052 37.0625 26.71 36.668 26.2225 36.668Z" fill="#3975E9"/>
<path fill-rule="evenodd" clip-rule="evenodd" d="M46.2748 4.47646C42.3729 3.01931 38.1562 2.74236 34.0352 3.11362C35.671 3.32615 37.2616 3.68546 38.7925 4.17627C44.2671 4.42732 48.8272 6.27698 52.8612 10.0002C50.9471 7.85368 48.7189 5.98941 46.2748 4.47646Z" fill="#3975E9"/>
<path fill-rule="evenodd" clip-rule="evenodd" d="M32.7285 59.9229C33.3249 59.8791 33.916 59.8173 34.5018 59.7403C34.9807 58.6179 35.4655 57.5678 35.9497 56.5723C35.33 56.6985 34.703 56.8041 34.0701 56.8871C33.6012 57.886 33.1522 58.8948 32.7285 59.9229Z" fill="#3975E9"/>
<path fill-rule="evenodd" clip-rule="evenodd" d="M48.957 53.6602C49.9267 52.903 50.8492 52.0874 51.7179 51.2181C52.0115 50.9252 52.2984 50.625 52.5793 50.3201C53.5815 47.9179 54.164 45.3742 54.4297 42.7773C53.798 43.9582 53.0814 45.0873 52.2878 46.1559C51.5698 49.1831 50.3889 51.6398 48.957 53.6602Z" fill="#3975E9"/>
</svg>
