<svg width="61" height="64" viewBox="0 0 61 64" fill="none" xmlns="http://www.w3.org/2000/svg">
<path fill-rule="evenodd" clip-rule="evenodd" d="M31.9424 4.63919V1.42785C31.9424 0.638981 31.2969 0 30.5 0C29.7031 0 29.0576 0.638981 29.0576 1.42785V4.63919C13.08 5.38795 0.5 18.4581 0.5 34.3025C0.5 50.703 13.9314 64 30.5 64C47.0679 64 60.5 50.703 60.5 34.3025C60.5 18.4581 47.92 5.38795 31.9424 4.63919ZM7.62238 48.7163C4.93942 44.5524 3.38477 39.6068 3.38477 34.3024C3.38477 20.0338 14.6744 8.24418 29.0582 7.49805V10.0546C22.9983 10.4103 17.5427 12.9886 13.5123 16.9782C8.99242 21.4531 6.47615 27.4662 6.47615 33.7942C6.47615 39.0698 10.7961 43.3467 16.1262 43.3467C21.1268 43.3467 25.308 39.5562 25.7397 34.6298C26.8494 28.2025 23.6458 20.7352 19.1631 16.1282C22.0592 14.3033 25.4335 13.1575 29.0582 12.9156V48.7163H7.62238ZM9.4082 32.3668C9.79272 26.7153 12.4684 21.4982 16.8215 17.8379C20.5312 21.5153 23.1703 27.1143 23.0614 32.3668H9.4082ZM22.7379 35.2227C22.0645 38.2927 19.3085 40.4923 16.1261 40.4923C12.9417 40.4923 10.1877 38.2927 9.51367 35.2227H22.7379ZM30.4993 61.1445C22.4624 61.1445 14.9036 57.6505 9.74023 51.5723H51.2584C46.095 57.6505 38.5369 61.1445 30.4993 61.1445ZM53.3798 48.7163H31.9434V12.9156C35.568 13.1575 38.9436 14.3033 41.8384 16.1282C37.3564 20.7352 34.1522 28.2025 35.2619 34.6298C35.6942 39.5562 39.8747 43.3467 44.8754 43.3467C50.2048 43.3467 54.526 39.0698 54.526 33.7942C54.526 27.2276 51.8371 21.2822 47.4886 16.9782C43.4582 12.9886 38.0026 10.4103 31.9434 10.0546V7.49805C46.3271 8.24418 57.6174 20.0338 57.6174 34.3024C57.6174 39.6068 56.0628 44.5524 53.3798 48.7163ZM37.9388 32.3668C37.8305 27.1143 40.469 21.5153 44.1793 17.8379C48.5318 21.4982 51.2075 26.7153 51.5926 32.3668H37.9388ZM51.4865 35.2227C50.8131 38.2927 48.0585 40.4923 44.8748 40.4923C41.6917 40.4923 38.9371 38.2927 38.2637 35.2227H51.4865Z" fill="#3975E9"/>
<path fill-rule="evenodd" clip-rule="evenodd" d="M16.0003 40C19.1287 40 21.838 37.9135 22.5 35H9.5C10.1633 37.9135 12.8706 40 16.0003 40Z" fill="#FFC4E0"/>
<path fill-rule="evenodd" clip-rule="evenodd" d="M19.5927 39C21.0406 38.1234 22.1178 36.7043 22.5 35H13.5C15.0162 36.4408 17.0747 37.7856 19.5927 39Z" fill="#FCB6C3"/>
<path fill-rule="evenodd" clip-rule="evenodd" d="M30 62C37.9373 62 45.4011 58.3501 50.5 52H9.5C14.5989 58.3501 22.0627 62 30 62Z" fill="#E8FEFF"/>
<path fill-rule="evenodd" clip-rule="evenodd" d="M16.5 58.0569C20.5675 60.6108 25.2549 62 30.121 62C38.0114 62 45.4312 58.3494 50.5 52H43.695C32.8937 52.7451 23.3741 54.9412 16.5 58.0569Z" fill="#A2E0E3"/>
<path fill-rule="evenodd" clip-rule="evenodd" d="M45 40C48.1292 40 50.838 37.9135 51.5 35H38.5C39.162 37.9135 41.8708 40 45 40Z" fill="#FFC4E0"/>
<path fill-rule="evenodd" clip-rule="evenodd" d="M47.5925 39C49.0405 38.1234 50.1184 36.7043 50.5 35H41.5C43.0156 36.4408 45.0756 37.7856 47.5925 39Z" fill="#FCB6C3"/>
<path fill-rule="evenodd" clip-rule="evenodd" d="M27.5 8C27.8311 7.95794 28.1642 7.9259 28.5 7.90387V5C28.1647 5.02069 27.8316 5.05007 27.5 5.08745V8Z" fill="#3975E9"/>
<path fill-rule="evenodd" clip-rule="evenodd" d="M31.5 7.90387C31.8353 7.92523 32.1689 7.95794 32.5 8V5.08678C32.1684 5.0494 31.8347 5.02003 31.5 5V7.90387Z" fill="#3975E9"/>
</svg>
