<svg width="61" height="60" viewBox="0 0 61 60" fill="none" xmlns="http://www.w3.org/2000/svg">
<path fill-rule="evenodd" clip-rule="evenodd" d="M15.1341 14.7668C9.08755 20.8126 7.037 29.7426 9.8094 37.8106C10.3825 36.79 11.1745 35.9987 12.0688 35.374C11.1626 33.7082 10.3766 30.7996 10.6298 28.3796C11.3952 30.8657 12.2308 32.8773 14.0434 34.2965C15.2028 33.8008 16.3914 33.4815 17.4167 33.2382C17.1212 33.0399 16.8197 32.8422 16.5216 32.6459C14.5167 31.3291 12.597 30.0679 12.1224 28.5296C10.5438 23.4211 24.0727 22.7416 27.1809 22.5056C34.1112 21.9781 40.5015 21.4889 45.7475 13.8823C36.9629 6.04369 23.3495 6.55137 15.1341 14.7668Z" fill="#E8FEFF"/>
<path fill-rule="evenodd" clip-rule="evenodd" d="M9.16464 25.5331C8.24249 29.5297 8.42362 33.7782 9.80916 37.8119C10.3823 36.7912 11.1742 35.9993 12.0686 35.3746C11.1623 33.7088 10.3763 30.8002 10.6295 28.3808C11.395 30.8663 12.2305 32.8779 14.0438 34.2971C15.2026 33.8013 16.3911 33.4821 17.4171 33.2388C17.1209 33.0405 16.8201 32.8428 16.522 32.6472C14.5164 31.3297 12.5974 30.0684 12.1221 28.5302C10.5442 23.4224 24.0731 22.7421 27.1806 22.5062C32.7955 22.0785 38.056 21.6765 42.641 17.4941C38.9451 14.9009 34.3344 13.3613 29.333 13.3613C20.3131 13.3613 12.5624 18.368 9.16464 25.5331Z" fill="#A2E0E3"/>
<path fill-rule="evenodd" clip-rule="evenodd" d="M36.1444 12.8063C36.5899 12.3601 36.5899 11.6376 36.1444 11.1921C35.6975 10.7459 34.9757 10.7459 34.5295 11.1921C34.0839 11.6376 34.0839 12.3601 34.5295 12.8063C34.9757 13.2519 35.6975 13.2519 36.1444 12.8063Z" fill="#3975E9"/>
<path fill-rule="evenodd" clip-rule="evenodd" d="M48.6064 24.3897C49.5133 26.0562 50.2987 28.9648 50.0461 31.3848C49.2813 28.8993 48.4444 26.8865 46.6319 25.4672C45.4731 25.9637 44.2845 26.2836 43.2592 26.5262C43.5547 26.7245 43.8555 26.9222 44.153 27.1185C46.1592 28.4359 48.0789 29.6965 48.5535 31.2348C50.1321 36.3433 36.6026 37.0222 33.495 37.2588C26.5647 37.787 20.1744 38.2742 14.9277 45.8814C23.713 53.7207 37.3264 53.2137 45.5418 44.9976C51.5883 38.9504 53.6382 30.0211 50.8665 21.9531C50.2934 22.9731 49.5014 23.7657 48.6064 24.3897Z" fill="#E8FEFF"/>
<path fill-rule="evenodd" clip-rule="evenodd" d="M48.605 24.3897C49.5119 26.0562 50.2972 28.9648 50.0447 31.3848C49.2799 28.8993 48.443 26.8865 46.6304 25.4672C45.4716 25.9637 44.2831 26.2836 43.2578 26.5262C43.5533 26.7245 43.8541 26.9222 44.1515 27.1185C46.1578 28.4359 48.0775 29.6965 48.5521 31.2348C50.1307 36.3433 36.6012 37.0222 33.4936 37.2588C27.8781 37.6872 22.6175 38.0884 18.0332 42.2708C21.7291 44.8634 26.3398 46.4043 31.3413 46.4043C40.3611 46.4043 48.1118 41.3969 51.5096 34.2326C52.4311 30.236 52.2506 25.9868 50.8651 21.9531C50.2919 22.9731 49.5 23.7657 48.605 24.3897Z" fill="#A2E0E3"/>
<path fill-rule="evenodd" clip-rule="evenodd" d="M24.5314 46.9592C24.0859 47.4047 24.0859 48.1279 24.5314 48.5741C24.977 49.0196 25.7001 49.0196 26.1463 48.5741C26.5919 48.1279 26.5919 47.4047 26.1463 46.9592C25.7001 46.5136 24.977 46.5136 24.5314 46.9592Z" fill="#3975E9"/>
<path fill-rule="evenodd" clip-rule="evenodd" d="M30.3618 0C22.1153 0 14.6496 3.34288 9.24622 8.74688C3.84156 14.1509 0.5 21.616 0.5 29.8618C0.5 38.1076 3.84156 45.5741 9.24622 50.9774C14.6496 56.3821 22.1153 59.7249 30.3618 59.7249C38.6076 59.7249 46.0727 56.3821 51.4774 50.9774C56.8807 45.5741 60.2236 38.1076 60.2236 29.8618C60.2236 21.616 56.8807 14.1509 51.4774 8.74688C46.0727 3.34288 38.6076 0 30.3618 0ZM30.3627 56.8529C22.9088 56.8529 16.1602 53.8313 11.2765 48.9476C6.39205 44.0638 3.37109 37.3159 3.37109 29.8613C3.37109 22.4081 6.39205 15.6602 11.2765 10.7765C16.1602 5.89205 22.9088 2.87109 30.3627 2.87109C37.8159 2.87109 44.5638 5.89205 49.4489 10.7765C54.332 15.6602 57.3536 22.4081 57.3536 29.8613C57.3536 37.3159 54.332 44.0638 49.4489 48.9476C44.5638 53.8313 37.8159 56.8529 30.3627 56.8529Z" fill="#3975E9"/>
<path fill-rule="evenodd" clip-rule="evenodd" d="M13.1045 12.7382C5.18918 20.6535 3.44206 32.8828 8.84804 42.69C9.93545 44.6691 11.8412 43.7337 11.7507 42.2953C11.4367 37.5253 16.2709 36.4299 18.8522 35.8456C20.4856 35.4754 23.3889 34.3238 21.1143 32.4068C20.2417 31.6711 19.1537 30.9558 18.0927 30.2584C17.2466 29.6866 16.4156 29.1314 15.8048 28.6554C14.9184 27.9666 14.9911 27.5416 15.5034 27.2514C17.1738 26.3061 25.3099 25.5247 27.3935 25.3661C35.1065 24.7784 42.214 24.2364 48.2222 15.3401C49.1589 13.9519 49.3678 13.3286 48.0986 12.142C38.2703 2.96147 22.6829 3.15978 13.1045 12.7382ZM27.1809 22.5055C24.0727 22.7415 10.5438 23.4217 12.1217 28.5296C12.597 30.0678 14.516 31.3291 16.5216 32.6465C16.8197 32.8422 17.1205 33.0398 17.4167 33.2381C16.3914 33.4814 15.2022 33.8007 14.0434 34.2965C12.2301 32.8772 11.3946 30.8657 10.6291 28.3802C10.3759 30.7996 11.1619 33.7081 12.0688 35.374C11.1745 35.9986 10.3819 36.7906 9.8094 37.8112C7.037 29.7432 9.08755 20.8132 15.1341 14.7667C17.65 12.2508 20.6438 10.4614 23.8393 9.40502C22.4538 13.9027 24.6927 18.9048 27.5603 21.317C25.5441 18.3423 24.7945 11.0153 26.8021 8.64482C33.3867 7.42388 40.4407 9.14655 45.7475 13.8822C40.5015 21.4895 34.1112 21.978 27.1809 22.5055Z" fill="#3975E9"/>
<path fill-rule="evenodd" clip-rule="evenodd" d="M48.9243 17.47C49.2396 22.2414 44.4047 23.336 41.824 23.9204C40.1893 24.2906 37.2866 25.4421 39.5606 27.3598C40.4332 28.0955 41.5213 28.8101 42.5836 29.5075C43.429 30.0793 44.26 30.6352 44.8708 31.1099C45.7572 31.8 45.6852 32.225 45.1722 32.5146C43.5017 33.4599 35.3663 34.2419 33.2814 34.3999C25.5684 34.9875 18.4616 35.5296 12.4534 44.4265C11.516 45.8134 11.3078 46.4374 12.5776 47.624C22.4047 56.8051 37.9926 56.6068 47.5711 47.0284C55.4871 39.1117 57.2342 26.8838 51.8269 17.0753C50.7408 15.0975 48.8344 16.0322 48.9243 17.47ZM45.5418 44.9976C43.0259 47.5129 40.032 49.3023 36.8359 50.3593C38.2215 45.8623 35.9832 40.8602 33.1149 38.4481C35.1311 41.4227 35.8814 48.7497 33.8738 51.1202C27.2892 52.3405 20.2346 50.6178 14.9277 45.8814C20.1744 38.2749 26.564 37.787 33.495 37.2588C36.6019 37.0229 50.1314 36.3433 48.5535 31.2348C48.0782 29.6965 46.1592 28.4359 44.153 27.1185C43.8548 26.9222 43.5547 26.7245 43.2586 26.5269C44.2845 26.2836 45.4724 25.9643 46.6312 25.4679C48.4444 26.8871 49.2807 28.8993 50.0461 31.3848C50.2987 28.9648 49.5133 26.0569 48.6064 24.3897C49.5014 23.7657 50.2934 22.9738 50.8665 21.9531C53.6382 30.0211 51.5883 38.9511 45.5418 44.9976Z" fill="#3975E9"/>
</svg>
