<svg width="61" height="61" viewBox="0 0 61 61" fill="none" xmlns="http://www.w3.org/2000/svg">
<path fill-rule="evenodd" clip-rule="evenodd" d="M7.57812 31.9566L8.81393 32.4246C11.0558 33.1046 10.0603 34.0433 9.22851 35.6026L12.3939 34.281L13.8819 31.4932L10.8578 30.5742L7.57812 31.9566Z" fill="#FFC4E0"/>
<path fill-rule="evenodd" clip-rule="evenodd" d="M58.812 13.9959C59.5276 13.0922 58.917 11.7184 57.7347 11.6828L53.1888 11.5408C47.5089 4.76171 39.1837 0.861519 30.3224 0.861519C23.4159 0.861519 17.0573 3.21101 12.0019 7.15146C11.6533 6.84317 11.3813 6.48669 11.24 6.07871C10.5845 4.18671 12.2837 3.08426 13.9427 2.8499C15.8057 2.59178 15.4135 -0.240937 13.5499 0.0165227C10.0194 0.515599 7.28374 3.38331 8.54133 7.00821C8.83048 7.84132 9.24703 8.5193 9.76856 9.07647C3.83312 14.7274 0.5 22.4848 0.5 30.684C0.5 47.1541 13.8529 60.5064 30.3224 60.5064C52.9967 60.5064 67.0732 36.2755 56.6725 16.7072L58.812 13.9959ZM54.8074 14.4499L50.8386 19.4697L48.7148 14.2598L54.8074 14.4499ZM30.3215 3.72852C37.6584 3.72852 44.3102 6.66026 49.1702 11.4147L46.6471 11.3355C45.6133 11.2727 44.8389 12.3211 45.2383 13.3021L46.6048 16.6537L35.6628 21.1024C34.8053 19.0652 33.6962 17.2075 32.3799 15.7261C28.2843 11.117 22.8783 10.1234 18.3225 9.28569C17.2775 9.09424 16.2853 8.91204 15.3895 8.69551C15.237 8.65854 15.0752 8.61695 14.9062 8.56876C19.2745 5.51819 24.5894 3.72852 30.3215 3.72852ZM13.536 11.1641C14.8214 11.5483 16.2691 11.8143 17.8086 12.0975C21.918 12.8527 26.7932 13.7479 30.2432 17.6296C31.343 18.8681 32.2791 20.4405 33.0139 22.18L15.4921 29.3031C14.082 28.8562 12.4514 28.2812 11.1133 27.9775L13.536 11.1641ZM13.4412 31.669L13.4451 31.6789C13.455 31.7033 13.4656 31.7258 13.4762 31.7495L12.2093 34.1235L9.72188 35.1784L10.1734 34.3334C10.5999 33.5353 10.145 32.4394 9.27891 32.1767L8.36328 31.8981L10.8679 30.8867L13.4412 31.669ZM10.4571 12.4668L8.08517 28.9271L3.3697 30.8455C3.32613 24.0228 5.84461 17.4932 10.4571 12.4668ZM20.592 55.8278C11.159 52.1746 4.51262 43.4962 3.50391 33.3965L6.88455 34.4323L5.33451 37.335C4.63013 38.5021 5.83359 39.9386 7.11825 39.3913L10.592 37.9172L21.4548 51.2305C20.6025 52.6406 20.2395 54.1999 20.592 55.8278ZM13.3301 36.7541C13.8463 36.5356 14.2635 36.4101 14.525 35.849L16.6124 31.9396L33.9572 24.8885C34.7197 27.5575 35.0584 30.6767 34.6484 33.4335C33.7632 39.4019 29.6181 43.1213 26.1635 46.22C25.1178 47.1587 24.1269 48.048 23.2733 48.9385L13.3301 36.7541ZM30.3227 57.6381C29.9062 57.6381 29.4916 57.6282 29.0803 57.6097C29.0579 56.5997 28.0003 55.9138 27.0609 56.3363C26.2502 56.702 25.1339 56.9938 24.3081 56.535C23.776 56.2406 23.4571 55.6814 23.3673 55.0912C23.0287 52.8685 25.3161 50.8161 28.0676 48.3478C31.8767 44.9308 36.447 40.8306 37.4827 33.8475C37.9699 30.5646 37.5534 26.976 36.6232 23.8039L47.6874 19.3056L49.0876 22.7417C49.4467 23.8 50.8555 24.066 51.5665 23.1682L54.7108 19.1895C63.0353 36.8228 50.2468 57.6381 30.3227 57.6381Z" fill="#3975E9"/>
<path fill-rule="evenodd" clip-rule="evenodd" d="M50.8405 19.4697L54.8087 14.4499L48.7168 14.2598L50.8405 19.4697Z" fill="#FFC4E0"/>
<path fill-rule="evenodd" clip-rule="evenodd" d="M50.8395 19.469L54.8077 14.4492L49.7773 16.8641L50.8395 19.469Z" fill="#FCB6C3"/>
<path fill-rule="evenodd" clip-rule="evenodd" d="M9.72266 35.179L12.2095 34.1234L13.5086 31.6895L10.2059 33.0547C10.5597 33.9168 10.1121 34.4502 9.72266 35.179Z" fill="#FCB6C3"/>
<path fill-rule="evenodd" clip-rule="evenodd" d="M9.01562 9.81884C9.22093 10.036 9.44274 10.2413 9.6804 10.4341L9.17076 13.9739C9.58138 13.4556 10.0098 12.9519 10.4567 12.4654L10.8172 9.9588C10.433 9.702 10.0818 9.41087 9.76886 9.07617C9.51338 9.31911 9.26252 9.56667 9.01562 9.81884Z" fill="#3975E9"/>
<path fill-rule="evenodd" clip-rule="evenodd" d="M12.002 7.1522C12.7836 7.84405 13.9514 8.29889 14.9066 8.56889C15.3001 8.29493 15.7008 8.03021 16.1088 7.77671C15.0393 7.53971 13.7349 7.15947 12.8681 6.50195C12.575 6.7132 12.2858 6.92973 12.002 7.1522Z" fill="#3975E9"/>
<path fill-rule="evenodd" clip-rule="evenodd" d="M48.2109 10.5195C48.5377 10.81 48.8585 11.109 49.1708 11.4147L53.1892 11.5401C52.9363 11.2384 52.6782 10.942 52.4135 10.6509L48.2109 10.5195Z" fill="#3975E9"/>
<path fill-rule="evenodd" clip-rule="evenodd" d="M54.7109 19.1892C54.8489 19.4823 54.9829 19.7787 55.1103 20.0778L57.106 17.554C56.966 17.2688 56.8221 16.9869 56.6729 16.707L54.7109 19.1892Z" fill="#3975E9"/>
</svg>
