<svg width="61" height="62" viewBox="0 0 61 62" fill="none" xmlns="http://www.w3.org/2000/svg">
<path fill-rule="evenodd" clip-rule="evenodd" d="M27.3979 3.39957C25.3832 4.25835 23.9289 6.07962 22.9225 7.9627C21.5938 10.45 21.4542 13.8865 24.2632 15.3867C27.1154 16.9108 30.8829 15.7622 33.6899 14.6422C36.5621 13.4963 39.1989 12.4454 41.7832 14.0134C40.7643 11.1306 39.2282 8.63272 37.4202 6.72637C34.9262 4.09683 31.0571 1.83886 27.3979 3.39957Z" fill="#FFC4E0"/>
<path fill-rule="evenodd" clip-rule="evenodd" d="M22.0439 10.7698C21.4384 12.2229 22.0905 14.8198 23.9264 15.8002C26.7779 17.3231 30.8086 16.4377 33.6156 15.3183C36.4731 14.1777 39.1731 12.4555 41.7462 13.9903C37.8929 11.5376 33.1543 10.0898 28.0295 10.0898C25.961 10.0898 23.9543 10.3265 22.0439 10.7698Z" fill="#FCB6C3"/>
<path fill-rule="evenodd" clip-rule="evenodd" d="M30.3641 42.4489C29.5139 45.4227 26.5886 48.1652 24.0176 49.8177C29.5007 55.0076 40.4841 54.2751 45.801 49.2633C46.0808 46.7793 44.9183 42.1458 43.1282 40.3684C39.7649 37.0309 34.2911 43.5157 30.3641 42.4489Z" fill="#E8FEFF"/>
<path fill-rule="evenodd" clip-rule="evenodd" d="M30.3633 42.4489C32.253 47.5245 40.1715 50.8293 45.8002 49.2633C46.3705 45.3064 44.6562 41.8865 43.1274 40.3684C39.7641 37.0309 34.2903 43.5157 30.3633 42.4489Z" fill="#A2E0E3"/>
<path fill-rule="evenodd" clip-rule="evenodd" d="M35.4504 1.55038C32.6527 -0.00633597 29.4282 -0.59725 26.2709 0.748758C25.6527 1.01264 25.0479 1.34898 24.4643 1.76109C10.5409 4.61596 0.5 16.9215 0.5 31.1752C0.5 47.7587 13.9448 61.2022 30.5276 61.2022C47.1105 61.2022 60.5553 47.7587 60.5553 31.1752C60.5553 16.4841 49.9108 3.93531 35.4504 1.55038ZM22.9223 7.96243C23.9286 6.07935 25.3836 4.25875 27.3976 3.3993C31.0575 1.83926 34.926 4.09656 37.4206 6.7261C39.2286 8.63245 40.764 11.131 41.7837 14.0138C39.1987 12.4451 36.5618 13.4967 33.6903 14.642C30.8833 15.762 27.1152 16.9106 24.2636 15.3864C21.4546 13.8869 21.5935 10.4504 22.9223 7.96243ZM19.4829 8.85547C18.4274 12.6741 19.7521 16.6111 23.5369 18.2237C21.8871 21.0666 21.3561 26.9412 18.5829 28.4633C16.5277 29.592 13.7087 27.5394 12.2477 26.2266C10.923 25.0355 10.3806 24.1787 9.37891 22.8586C10.6073 16.9428 14.8819 12.4641 19.4829 8.85547ZM27.5691 41.7497C26.6259 44.7907 23.4853 46.6598 20.9528 48.2405C13.6504 45.7219 9.31195 34.69 9.35184 27.4375C11.8684 30.0198 16.0194 32.8993 19.6998 31.1286C21.2658 34.8495 28.8886 37.491 27.5691 41.7497ZM30.3641 42.4489C34.2905 43.5157 39.7642 37.0309 43.1276 40.3684C44.9183 42.1458 46.0808 46.7794 45.8003 49.2633C40.4841 54.2751 29.5007 55.0076 24.0176 49.8177C26.588 48.1646 29.5139 45.4227 30.3641 42.4489ZM30.5269 58.3163C15.5374 58.3163 3.38672 46.1657 3.38672 31.1755C3.38672 22.3809 7.61352 14.2025 14.7357 9.09961C10.7422 12.7694 7.56167 17.0959 6.50614 22.5344C6.39247 23.0011 6.54269 23.5408 6.7328 23.9669C5.29905 33.4109 10.5987 48.0514 20.3571 51.0745C20.6143 51.1542 20.9187 51.1635 21.2551 51.1084C27.2187 57.6975 38.7379 57.6005 45.7983 52.9237C46.1466 52.9084 46.5022 52.8844 46.8638 52.8499C42.3186 56.281 36.6607 58.3163 30.5269 58.3163ZM50.838 49.1784C50.0935 49.3858 49.3577 49.5573 48.6445 49.6909C49.0938 46.6685 47.7285 41.561 45.8574 39.1242C50.0257 37.5569 53.5799 34.3404 57.6352 32.5391C57.3194 38.9108 54.8069 44.705 50.838 49.1784ZM42.9308 36.8887C37.6903 35.0223 32.866 40.8962 30.4252 39.2836C29.3032 35.1658 21.959 31.4901 22.2714 28.8984C23.8328 26.7176 25.436 19.1779 27.0187 18.9612C29.8642 19.0762 32.1488 18.353 34.7504 17.3148C37.7269 16.127 40.3451 15.0827 42.9614 19.7416C44.1193 21.8094 46.0024 20.7173 45.8701 19.3055C45.3742 14.0531 43.3363 9.37298 40.5678 5.95312C50.2837 9.82431 56.9585 18.9752 57.6139 29.4554C53.4789 30.8945 46.2144 36.8847 42.9308 36.8887Z" fill="#3975E9"/>
<path fill-rule="evenodd" clip-rule="evenodd" d="M19.4829 8.85547C14.8819 12.4641 10.6073 16.9428 9.37891 22.8586C10.3806 24.1787 10.923 25.0348 12.2477 26.226C13.7087 27.5394 16.5277 29.5913 18.5829 28.4633C21.3561 26.9412 21.8871 21.0666 23.5369 18.223C19.7521 16.6111 18.4274 12.6741 19.4829 8.85547Z" fill="#E8FEFF"/>
<path fill-rule="evenodd" clip-rule="evenodd" d="M9.37891 22.8575C10.3806 24.1776 10.923 25.0338 12.2477 26.2249C13.7087 27.5383 16.5277 29.5902 18.5829 28.4623C21.3561 26.9401 21.8878 21.0662 23.5369 18.2226C20.1682 17.8351 10.235 18.7311 9.37891 22.8575Z" fill="#A2E0E3"/>
<path fill-rule="evenodd" clip-rule="evenodd" d="M19.6998 31.1286C16.0194 32.8993 11.869 30.0198 9.35183 27.4375C9.31261 34.6907 13.6511 45.7219 20.9528 48.2405C23.4853 46.6598 26.6266 44.7914 27.5691 41.7497C28.8886 37.4917 21.2658 34.8502 19.6998 31.1286Z" fill="#E8FEFF"/>
<path fill-rule="evenodd" clip-rule="evenodd" d="M19.6986 31.1289C17.303 35.2128 15.4851 46.3551 20.9515 48.2402C23.484 46.6595 26.6254 44.7904 27.5679 41.7494C28.8874 37.4907 21.2653 34.8492 19.6986 31.1289Z" fill="#A2E0E3"/>
<path fill-rule="evenodd" clip-rule="evenodd" d="M48.6438 49.6909C49.357 49.5566 50.0929 49.3858 50.8373 49.1784C54.8062 44.705 57.3188 38.9102 57.6345 32.5391C53.5792 34.3404 50.0251 37.5568 45.8574 39.1242C47.7279 41.561 49.0938 46.6685 48.6438 49.6909Z" fill="#E8FEFF"/>
<path fill-rule="evenodd" clip-rule="evenodd" d="M54.7258 43.4773C56.4121 40.1658 57.4397 36.4614 57.6345 32.5391C53.5792 34.3404 50.0251 37.5568 45.8574 39.1242C47.4607 41.2133 52.0451 45.6774 54.7258 43.4773Z" fill="#A2E0E3"/>
<path fill-rule="evenodd" clip-rule="evenodd" d="M11.6691 10.7318C9.76872 12.8129 8.18542 15.0663 7.05078 17.5502C8.23593 15.5116 9.67965 13.6412 11.3367 11.9841C12.3876 10.9325 13.5249 9.96739 14.7367 9.09863C17.2798 6.76222 20.2942 4.56275 23.6516 2.39517C23.9174 2.16652 24.1886 1.95515 24.4638 1.76172C23.5199 1.95448 22.592 2.19244 21.6827 2.47228C18.0967 4.86651 14.5598 7.56584 11.6691 10.7318Z" fill="#3975E9"/>
<path fill-rule="evenodd" clip-rule="evenodd" d="M38.1421 2.12171C37.2667 1.89306 36.3754 1.70229 35.4707 1.55273C36.8951 2.34638 38.2604 3.42518 39.5067 4.74061C39.871 5.12414 40.2253 5.52894 40.5683 5.95235C41.211 6.20893 41.8431 6.48876 42.4606 6.79187C41.792 5.81742 41.0528 4.89549 40.2432 4.04202C39.5951 3.35738 38.8912 2.71063 38.1421 2.12171Z" fill="#3975E9"/>
</svg>
