<svg width="61" height="63" viewBox="0 0 61 63" fill="none" xmlns="http://www.w3.org/2000/svg">
<path fill-rule="evenodd" clip-rule="evenodd" d="M22.6114 5.37695C16.0746 10.0446 13.895 19.3121 23.2613 22.4606C24.882 23.005 24.5854 22.8883 26.0367 22.0374C21.7632 17.4087 19.7569 11.4188 22.6114 5.37695Z" fill="#E8FEFF"/>
<path fill-rule="evenodd" clip-rule="evenodd" d="M22.6051 5.39062C20.5131 8.89962 19.334 12.8647 19.334 17.0638C19.334 18.2304 19.4263 19.3778 19.6022 20.5036C20.5421 21.2846 21.7509 21.9523 23.2615 22.4598C24.8815 23.0048 24.5856 22.8882 26.0369 22.0373C21.7667 17.4124 19.7611 11.4272 22.6051 5.39062Z" fill="#A2E0E3"/>
<path fill-rule="evenodd" clip-rule="evenodd" d="M25.6593 25.5634C24.8282 26.1454 23.249 25.4652 22.356 25.1653C19.0592 24.0567 15.7209 22.1381 13.4892 19.1867C11.86 17.0308 10.8252 14.3575 10.8226 11.0957C6.83703 18.2435 9.56369 24.2716 16.5784 28.2169C19.7236 29.9866 22.9136 30.8262 24.4875 30.6694C25.2718 30.5923 25.9711 31.1657 26.0475 31.9493C26.1247 32.7336 25.5513 33.4316 24.7676 33.5087C24.0927 33.5766 23.2161 33.518 22.2143 33.3354C21.5123 34.9798 20.8935 35.5908 21.1802 37.3387L21.7424 40.7515C21.8926 41.1034 21.892 41.4811 21.7694 41.8133L19.8429 48.4747L26.2598 49.8766C31.0797 45.3671 35.4844 39.0062 42.0377 37.1265C39.953 39.0471 38.0852 41.1548 37.3846 41.7797C43.0422 44.2671 46.1261 45.8957 50.0259 50.9641C54.4688 46.1646 57.1856 39.7431 57.1856 32.6862C57.1856 26.8934 55.354 21.5278 52.2405 17.1363C41.9132 12.3546 36.6807 19.1004 25.6593 25.5634Z" fill="#E8FEFF"/>
<path fill-rule="evenodd" clip-rule="evenodd" d="M50.0266 50.965C54.4175 46.2222 57.1211 39.8936 57.1844 32.9355C48.1772 32.9751 40.0915 36.3075 34.5176 41.5835C41.324 42.6163 48.1205 49.0714 50.0266 50.965Z" fill="#A2E0E3"/>
<path fill-rule="evenodd" clip-rule="evenodd" d="M22.394 36.5791C21.6835 37.6092 22.1357 39.0316 24.2764 37.9263C22.8159 37.894 24.0899 34.1391 24.3614 33.7285L22.394 36.5791Z" fill="#3975E9"/>
<path fill-rule="evenodd" clip-rule="evenodd" d="M27.5748 3.03387C27.758 2.82165 27.9485 2.60942 28.1469 2.39785C29.8895 0.564919 28.2339 -0.848171 25.1955 0.59326C22.105 2.05974 19.7969 3.7213 18.1254 5.49689C16.7209 6.12567 15.3744 6.85989 14.0951 7.68903C14.2387 7.07344 14.4068 6.46642 14.6059 5.86598C15.1971 4.40214 13.2844 3.18942 12.218 4.37512C9.17429 7.76417 7.16011 11.3424 6.43643 14.8454C2.70927 19.8176 0.5 25.9946 0.5 32.687C0.5 49.13 13.8314 62.4614 30.2738 62.4614C46.7174 62.4614 60.0482 49.13 60.0482 32.687C60.0482 15.144 44.988 1.46853 27.5748 3.03387ZM25.404 6.21538C33.9781 4.64674 42.7816 7.30288 49.0469 13.4041C39.6641 10.9918 35.9824 16.2052 28.5663 20.5539C24.1886 16.1123 22.9245 11.1025 25.404 6.21538ZM22.6111 5.37695C19.7572 11.4188 21.7628 17.4093 26.0364 22.0381C24.5857 22.889 24.8817 23.005 23.2616 22.4606C13.8953 19.3121 16.0742 10.0446 22.6111 5.37695ZM15.0622 10.4844C14.5462 12.0108 14.357 13.5498 14.4203 15.0651C14.0004 13.9973 13.7434 12.8077 13.6973 11.4855C14.1408 11.1375 14.5963 10.804 15.0622 10.4844ZM30.2746 59.599C15.4121 59.599 3.36328 47.5508 3.36328 32.6877C3.36328 28.2012 4.46133 23.9712 6.40301 20.252C7.22621 24.1742 10.0109 27.8032 15.1828 30.7124C16.5985 31.5092 18.0544 32.1406 19.4247 32.602C18.5217 34.7177 17.8573 35.1889 18.2396 37.4417L18.9165 41.418L16.6209 49.3541C16.2136 50.7613 17.5047 51.1455 18.5237 51.2332L26.6404 52.7827C27.111 52.8236 27.5486 52.6311 27.8386 52.3009L35.6581 44.1413C41.1654 46.5892 44.1471 47.9232 47.9692 52.9646C43.2389 57.0958 37.0494 59.599 30.2746 59.599ZM57.1853 32.6869C57.1853 39.7431 54.4692 46.1646 50.0263 50.9648C46.1258 45.8963 43.0426 44.2677 37.3843 41.7797C38.0855 41.1555 39.9534 39.0471 42.0375 37.1271C35.4841 39.0069 31.0801 45.3678 26.2595 49.8766L19.8432 48.4754L21.7691 41.8139C21.8923 41.4818 21.893 41.1034 21.7421 40.7521L21.1805 37.3387C20.8932 35.5908 21.5127 34.9805 22.214 33.3361C23.2165 33.5186 24.0931 33.5766 24.768 33.5094C25.5516 33.4323 26.1244 32.7343 26.0479 31.95C25.9708 31.1657 25.2722 30.5923 24.4878 30.67C22.9139 30.8269 19.7233 29.9872 16.5781 28.2176C9.5634 24.2722 6.8374 18.2442 10.8223 11.0957C10.8289 18.2791 15.8795 22.9883 22.3557 25.166C23.2488 25.4659 24.8279 26.146 25.659 25.5641C36.681 19.101 41.9129 12.3552 52.2408 17.1369C55.3544 21.5284 57.1853 26.8941 57.1853 32.6869Z" fill="#3975E9"/>
<path fill-rule="evenodd" clip-rule="evenodd" d="M13.6971 11.4859C14.1407 11.1385 14.5967 10.8044 15.0627 10.4847C15.7001 8.59973 16.7638 6.94409 18.1249 5.49805C16.7203 6.12616 15.3738 6.86039 14.0945 7.68952C13.7782 9.06175 13.6562 10.3246 13.6971 11.4859Z" fill="#3975E9"/>
<path fill-rule="evenodd" clip-rule="evenodd" d="M4.89227 17.117C4.82636 18.7838 5.04518 20.4197 5.57047 21.9975C5.82752 21.4037 6.10565 20.821 6.4029 20.2509C6.03447 18.4945 6.05886 16.68 6.43784 14.8438C5.88881 15.576 5.37275 16.3346 4.89227 17.117Z" fill="#3975E9"/>
</svg>
