<svg width="86" height="86" viewBox="0 0 86 86" fill="none" xmlns="http://www.w3.org/2000/svg">
<path fill-rule="evenodd" clip-rule="evenodd" d="M7.86231 57.5233C15.9125 59.6486 7.23517 36.7966 6.64004 30.8613C3.87629 39.5396 4.30945 49.135 7.86231 57.5233Z" fill="#A2E0E3"/>
<path fill-rule="evenodd" clip-rule="evenodd" d="M32.8454 5.52344C27.252 7.09788 22.1755 9.90494 17.9277 13.6339C19.7555 13.2591 37.2476 9.14409 32.8454 5.52344Z" fill="#A2E0E3"/>
<path fill-rule="evenodd" clip-rule="evenodd" d="M37.2887 4.55475C41.543 12.6982 21.7768 17.0985 17.5055 17.8641C13.7634 18.5345 11.9403 20.2766 11.1399 22.4716C7.5993 32.1753 24.0415 62.5822 8.69727 61.9645C10.1258 65.8469 14.4828 70.639 19.1025 69.6399C20.0197 69.4412 20.7805 68.9562 21.2401 68.1803C21.7523 67.3159 21.9614 66.0974 21.7382 64.5069C19.8521 55.2825 16.2371 50.8087 15.4103 40.0221C13.3302 12.9147 52.7082 21.0704 47.0385 8.5596C59.9966 23.804 17.9255 15.7905 19.6298 40.0014C20.5969 53.7372 27.8345 60.0218 26.308 73.5609C26.0321 76.0064 25.2751 78.8473 23.2844 80.4736C26.1922 81.419 29.7149 81.516 32.3271 79.725C37.2689 76.336 35.1596 69.0994 32.99 64.7499C21.2702 41.2377 25.7713 32.8749 34.2678 28.6394C42.3255 24.6232 55.6057 25.8851 56.4852 15.444C57.3835 4.8137 46.4575 3.11967 37.2887 4.55475Z" fill="#E8FEFF"/>
<path fill-rule="evenodd" clip-rule="evenodd" d="M15.4113 40.0228C15.319 38.8166 15.3115 37.6828 15.3755 36.6112C14.0836 35.3692 12.802 34.3089 11.5458 33.4473C14.0393 45.992 20.0188 62.42 8.69922 61.9652C10.1277 65.8476 14.4838 70.6397 19.1045 69.6406C20.0216 69.4419 20.7825 68.957 21.2411 68.181C21.7533 67.3166 21.9633 66.0981 21.7392 64.5077C19.854 55.2832 16.2381 50.8094 15.4113 40.0228Z" fill="#A2E0E3"/>
<path fill-rule="evenodd" clip-rule="evenodd" d="M19.7617 41.4785C21.1158 54.2068 27.7789 60.5168 26.3081 73.5615C26.0331 76.007 25.276 78.848 23.2854 80.4742C26.1923 81.4196 29.7159 81.5176 32.3271 79.7256C40.6843 73.9956 32.3215 63.8249 29.9382 58.11C26.8025 51.5966 23.3061 45.9325 19.7617 41.4785Z" fill="#A2E0E3"/>
<path fill-rule="evenodd" clip-rule="evenodd" d="M59.1238 43.3557C57.3215 41.9649 52.8496 41.0063 53.778 37.0193C54.1123 35.5861 56.5352 35.4863 57.1821 34.8752C56.2178 35.2745 54.2441 34.6605 53.779 33.781C52.826 31.9777 52.9315 29.2837 53.4814 26.5566C47.9963 29.2036 41.5008 29.5991 36.09 32.297C29.6068 35.5287 26.4353 42.4404 36.6484 62.9289C39.351 68.349 40.8849 75.5791 37.2944 80.5227C38.7719 80.7534 40.2766 80.9013 41.803 80.9587C39.4433 77.6987 39.7907 72.6458 41.7136 68.9743C44.4528 63.7463 49.1536 63.7717 53.9607 63.2274C57.3704 62.8413 58.4477 62.1737 56.7282 58.3346C56.1463 57.0342 56.5258 55.9277 57.4778 54.9663C58.5032 53.9295 58.1398 53.0962 57.0936 52.0246C57.8441 52.0038 59.346 50.7995 58.2678 50.0264C56.1209 48.483 56.844 45.6825 59.039 44.6712C59.9101 44.2701 59.6944 43.7983 59.1238 43.3557Z" fill="#FFC4E0"/>
<path fill-rule="evenodd" clip-rule="evenodd" d="M37.2949 80.5243C38.7724 80.7551 40.2771 80.9019 41.8036 80.9603C39.4438 77.7003 39.7912 72.6474 41.7141 68.9759C43.6369 65.3044 46.5288 64.2234 49.7445 63.7168C45.5203 64.3355 41.7216 66.0596 38.7517 68.5428C39.8082 72.735 39.7385 77.1589 37.2949 80.5243Z" fill="#FCB6C3"/>
<path fill-rule="evenodd" clip-rule="evenodd" d="M49.904 35.0898C50.6055 37.056 44.9452 37.2726 44.2578 37.1191L49.0668 38.2896C50.8032 38.7124 52.4709 37.3818 49.904 35.0898Z" fill="#3975E9"/>
<path fill-rule="evenodd" clip-rule="evenodd" d="M22.1739 74.8107C22.3415 74.0499 22.4498 73.274 22.5214 72.498C21.8208 72.9143 21.059 73.2363 20.2539 73.4651C20.8829 73.9284 21.5223 74.3776 22.1739 74.8107Z" fill="#6DC0D5"/>
<path fill-rule="evenodd" clip-rule="evenodd" d="M43.2825 0C31.5363 0 20.9003 4.76194 13.2033 12.4599C1.12188 24.5404 -2.55151 42.8075 3.87056 58.5755C3.81689 58.8128 3.8037 59.067 3.84325 59.3316C4.65967 64.8036 8.42439 70.8245 13.6063 73.0167C15.2975 74.6636 17.1253 76.1693 19.0707 77.5187C18.3842 77.3605 17.5462 76.9763 16.532 76.3228C14.4943 74.8717 12.1185 77.7456 13.9528 79.4717C18.9078 84.1244 26.7875 87.1179 33.2708 83.8927C36.4809 84.6668 39.8332 85.0773 43.2825 85.0773C66.7748 85.0773 85.8207 66.0315 85.8207 42.5391C85.8207 19.0468 66.7748 0 43.2825 0ZM32.8452 5.52467C37.2465 9.14438 19.7553 13.2603 17.9275 13.6342C22.1744 9.90618 27.2508 7.09912 32.8452 5.52467ZM7.86222 57.5227C4.31031 49.1345 3.87621 39.539 6.63996 30.8598C7.23603 36.796 15.9124 59.648 7.86222 57.5227ZM22.0134 74.5732C21.4955 74.2295 20.986 73.8717 20.4851 73.5035C21.1263 73.3208 21.7318 73.0647 22.2893 72.7351C22.2328 73.3509 22.1461 73.9677 22.0134 74.5732ZM32.3273 79.725C29.7161 81.516 26.1924 81.419 23.2855 80.4727C25.2762 78.8464 26.0333 76.0064 26.3082 73.5609C27.8356 60.0219 20.5981 53.7373 19.631 40.0014C17.9266 15.7906 59.9968 23.804 47.0397 8.55962C52.7094 21.0695 13.3313 12.9148 15.4105 40.0221C16.2382 50.8087 19.8532 55.2825 21.7394 64.5069C21.9625 66.0974 21.7535 67.3159 21.2412 68.1803C20.7817 68.9563 20.0208 69.4412 19.1037 69.6399C14.483 70.639 10.1269 65.8469 8.69841 61.9645C24.0417 62.5813 7.60045 32.1744 11.1411 22.4716C11.9415 20.2766 13.7645 18.5345 17.5066 17.8641C21.778 17.0985 41.5442 12.6982 37.2898 4.55477C46.4587 3.11969 57.3847 4.81373 56.4863 15.444C55.6068 25.8851 42.3267 24.6233 34.269 28.6394C25.7724 32.875 21.2704 41.2378 32.9912 64.7499C35.1607 69.0994 37.27 76.336 32.3273 79.725ZM41.7146 68.9751C39.7918 72.6466 39.4443 77.6995 41.8041 80.9595C40.2777 80.902 38.7729 80.7542 37.2954 80.5235C40.886 75.5798 39.352 68.3489 36.6495 62.9297C26.4363 42.4412 29.6069 35.5295 36.0911 32.2977C41.5018 29.5999 47.9973 29.2044 53.4824 26.5574C52.9325 29.2844 52.8271 31.9785 53.78 33.7818C54.2452 34.6613 56.2189 35.2752 57.1831 34.876C56.5362 35.4871 54.1134 35.5869 53.7791 37.0192C52.8506 41.0071 57.3225 41.9657 59.1248 43.3565C59.6955 43.7991 59.9111 44.2708 59.0401 44.672C56.8451 45.6833 56.1219 48.4838 58.2679 50.0272C59.3471 50.8003 57.8442 52.0046 57.0946 52.0253C58.1399 53.0969 58.5043 53.9303 57.4788 54.9671C56.5268 55.9285 56.1473 57.0349 56.7293 58.3354C58.4487 62.1745 57.3715 62.8421 53.9618 63.2282C49.1546 63.7725 44.4539 63.747 41.7146 68.9751ZM46.0716 80.887C44.1629 78.8878 43.7533 76.2239 44.4916 72.1306C45.1159 70.2962 46.1093 69.0551 47.8297 68.331C49.8222 67.4929 52.247 67.4854 54.3563 67.2471C59.9356 66.6144 62.9668 63.7649 60.4817 57.4361C59.6371 55.4087 63.2182 54.5829 60.0608 52.6506C61.2746 52.4726 62.3924 50.159 61.0825 49.1618C60.477 48.7004 59.6729 48.3011 60.1079 47.8877C67.2438 43.1597 62.7389 42.2774 58.8555 39.0494C58.6559 38.8836 56.8677 37.2066 57.0654 37.1774C60.2077 36.7169 60.9168 34.9626 61.8519 33.5633C55.8686 35.6462 57.2519 30.8175 57.8075 26.8691C57.9826 25.6195 58.5871 24.4039 59.2783 23.1628C62.9385 16.5872 62.2756 11.3695 59.3132 7.58218C72.9445 13.8423 81.7311 27.4633 81.7311 42.5391C81.7311 62.6896 66.1514 79.4481 46.0716 80.887Z" fill="#3975E9"/>
<path fill-rule="evenodd" clip-rule="evenodd" d="M3.16797 56.7277C3.38832 57.3502 3.62279 57.966 3.87138 58.5752C4.1407 57.3972 5.44488 56.6505 6.64643 57.1496C7.08901 57.3002 7.49486 57.4245 7.8621 57.5225C7.61163 56.9292 7.37527 56.3285 7.1521 55.7202C5.65958 55.1373 4.10209 55.6505 3.16797 56.7277Z" fill="#3975E9"/>
<path fill-rule="evenodd" clip-rule="evenodd" d="M34.6284 83.0951C34.1971 83.3908 33.7433 83.6573 33.2715 83.8917C33.9956 84.0659 34.7263 84.2222 35.4637 84.3597L35.4853 84.3447C36.992 83.3126 38.1361 82.0932 38.9788 80.7494C38.4138 80.6863 37.8526 80.611 37.2952 80.5234C36.6059 81.4745 35.7254 82.3418 34.6284 83.0951Z" fill="#3975E9"/>
<path fill-rule="evenodd" clip-rule="evenodd" d="M13.6094 73.0156C15.2996 74.6626 17.1264 76.1692 19.0719 77.5186C21.0428 77.9725 21.6586 76.1956 22.0146 74.5731C21.4957 74.2285 20.9872 73.8725 20.4863 73.5025C18.215 74.1475 15.7742 73.9309 13.6094 73.0156Z" fill="#3975E9"/>
</svg>
