<svg width="16" height="17" viewBox="0 0 16 17" fill="none" xmlns="http://www.w3.org/2000/svg">
<g clip-path="url(#clip0_16362_54980)">
<path d="M14.2948 7.86726L8.16816 13.9939C7.4176 14.7445 6.39962 15.1662 5.33816 15.1662C4.27671 15.1662 3.25872 14.7445 2.50816 13.9939C1.7576 13.2434 1.33594 12.2254 1.33594 11.1639C1.33594 10.1025 1.7576 9.08449 2.50816 8.33393L8.63483 2.20726C9.1352 1.70689 9.81386 1.42578 10.5215 1.42578C11.2291 1.42578 11.9078 1.70689 12.4082 2.20726C12.9085 2.70764 13.1896 3.38629 13.1896 4.09393C13.1896 4.80157 12.9085 5.48022 12.4082 5.9806L6.27483 12.1073C6.02464 12.3575 5.68531 12.498 5.3315 12.498C4.97768 12.498 4.63835 12.3575 4.38816 12.1073C4.13797 11.8571 3.99742 11.5177 3.99742 11.1639C3.99742 10.8101 4.13797 10.4708 4.38816 10.2206L10.0482 4.56726" stroke="#9396A3" stroke-width="1.5" stroke-linecap="round"/>
</g>
<defs>
<clipPath id="clip0_16362_54980">
<rect width="16" height="16" fill="white" transform="translate(0 0.5)"/>
</clipPath>
</defs>
</svg>
