<svg width="24" height="24" viewBox="0 0 24 24" fill="none" xmlns="http://www.w3.org/2000/svg">
<path d="M21.4328 11.376L12.5151 20.2938C11.4226 21.3862 9.94083 22 8.39581 22C6.85079 22 5.36905 21.3862 4.27656 20.2938C3.18407 19.2013 2.57031 17.7195 2.57031 16.1745C2.57031 14.6295 3.18407 13.1477 4.27656 12.0553L13.1943 3.1375C13.9226 2.40917 14.9105 2 15.9405 2C16.9705 2 17.9583 2.40917 18.6866 3.1375C19.415 3.86583 19.8241 4.85365 19.8241 5.88366C19.8241 6.91367 19.415 7.9015 18.6866 8.62983L9.75919 17.5476C9.39502 17.9118 8.90111 18.1163 8.3861 18.1163C7.8711 18.1163 7.37719 17.9118 7.01302 17.5476C6.64886 17.1834 6.44427 16.6895 6.44427 16.1745C6.44427 15.6595 6.64886 15.1656 7.01302 14.8014L15.2515 6.57263" stroke="#9C93A3" stroke-width="1.5" stroke-linecap="round" stroke-linejoin="round"/>
</svg>
