<svg width="16" height="16" viewBox="0 0 16 16" fill="none" xmlns="http://www.w3.org/2000/svg">
<path d="M5.34375 2.44765L5.59853 1.64805C5.77802 1.08829 6.38288 0.777284 6.94263 0.956774L12.7108 2.80535C13.2708 2.98484 13.5818 3.58971 13.4023 4.14946L11.8505 8.93276" stroke="#9396A3" stroke-linecap="round" stroke-linejoin="round"/>
<path fill-rule="evenodd" clip-rule="evenodd" d="M10.7658 13.9346C10.7658 14.5226 10.2849 15.0036 9.69715 15.0036H3.63899C3.05128 15.0036 2.57031 14.5226 2.57031 13.9346V4.4785C2.57031 3.8908 3.05128 3.40983 3.63899 3.40983H9.69715C10.2849 3.40983 10.7658 3.8908 10.7658 4.4785V13.9346Z" stroke="#9396A3" stroke-width="0.71478" stroke-linecap="round" stroke-linejoin="round"/>
<path fill-rule="evenodd" clip-rule="evenodd" d="M10.7658 13.9346C10.7658 14.5226 10.2849 15.0036 9.69715 15.0036H3.63899C3.05128 15.0036 2.57031 14.5226 2.57031 13.9346V4.4785C2.57031 3.8908 3.05128 3.40983 3.63899 3.40983H9.69715C10.2849 3.40983 10.7658 3.8908 10.7658 4.4785V13.9346Z" stroke="#9396A3" stroke-linecap="round" stroke-linejoin="round"/>
<path d="M4 8.52357C4 10.3228 6.66667 11.2224 6.66667 11.2224C6.66667 11.2224 9.33333 10.3228 9.33333 8.52357C9.33333 6.72432 7.55556 6.13337 6.66667 7.62395C5.77778 6.13337 4 6.72432 4 8.52357Z" fill="#9396A3"/>
</svg>
