<svg width="24" height="24" viewBox="0 0 24 24" fill="none" xmlns="http://www.w3.org/2000/svg">
<path d="M3 6H5H21" stroke="#9396A3" stroke-width="1.5" stroke-linecap="round"/>
<path d="M8.00012 6.00068V4.00068V4.00068C8.00012 2.89622 8.89566 2.00068 10.0001 2.00068V2.00068H14.0001V2.00068C15.1042 2.00068 16.0001 2.89658 16.0001 4.00068V4.00068V6.00068M19.0001 20.0007V8.00068C19.0001 6.89611 18.1047 6.00068 17.0001 6.00068H7.00012C5.89555 6.00068 5.00012 6.89611 5.00012 8.00068V20.0007V20.0007C5.00012 21.1052 5.89557 22.0007 7.00012 22.0007V22.0007H17.0001V22.0007C18.1047 22.0007 19.0001 21.1053 19.0001 20.0007V20.0007Z" stroke="#9396A3" stroke-width="1.5" stroke-linecap="round"/>
<path d="M10 11V17" stroke="#9396A3" stroke-width="1.5" stroke-linecap="round"/>
<path d="M14 11V17" stroke="#9396A3" stroke-width="1.5" stroke-linecap="round"/>
</svg>
