<svg width="24" height="24" viewBox="0 0 24 24" fill="none" xmlns="http://www.w3.org/2000/svg">
<path d="M17.5 14.502L20.5269 13.2237C21.2637 12.8282 22.1281 12.9871 22.4848 13.6504C22.8405 14.3138 22.5285 15.1812 21.7912 15.5767L13.8789 19.818L13.4608 19.9231L6.08126 20.1223C6.08126 20.1223 5.13038 20.3882 3.98894 21.6818" stroke="#ED4F55" stroke-width="1.5" stroke-linecap="round" stroke-linejoin="round"/>
<path d="M1.36728 17.8026L4.7148 14.7215C6.35064 13.6184 8.29032 14.2271 8.29032 14.2271C9.2292 14.4743 10.974 14.5304 10.974 14.5304L13.8703 14.53C14.7329 14.53 15.4385 15.1463 15.4385 15.8994C15.4385 16.6525 14.7329 17.2684 13.8703 17.2684H9.86328" stroke="#ED4F55" stroke-width="1.5" stroke-linecap="round" stroke-linejoin="round"/>
<path d="M13 8L12 6.92857V5" stroke="#ED4F55" stroke-width="1.5" stroke-linecap="round" stroke-linejoin="round"/>
<path d="M17 7C17 8.32608 16.4732 9.59785 15.5355 10.5355C14.5979 11.4732 13.3261 12 12 12C10.6739 12 9.40215 11.4732 8.46447 10.5355C7.52678 9.59785 7 8.32608 7 7C7 5.67392 7.52678 4.40215 8.46447 3.46447C9.40215 2.52678 10.6739 2 12 2C13.3261 2 14.5979 2.52678 15.5355 3.46447C16.4732 4.40215 17 5.67392 17 7Z" stroke="#ED4F55" stroke-width="1.5" stroke-linecap="round" stroke-linejoin="round"/>
<rect width="1.5" height="28" transform="matrix(0.707055 0.707158 -0.707055 0.707158 20.8379 1.03906)" fill="#ED4F55"/>
<rect width="1.5" height="28" transform="matrix(0.707055 0.707158 -0.707055 0.707158 21.8984 2.09961)" fill="#F1F4FB"/>
</svg>
