<svg width="327" height="227" viewBox="0 0 327 227" fill="none" xmlns="http://www.w3.org/2000/svg">
<g clip-path="url(#clip0_74_6480)">
<path d="M59.7895 94.0823C58.3928 94.4377 56.9367 94.3192 55.6292 93.7268C55.1835 93.5194 54.6486 93.7268 54.4405 94.1711C54.2325 94.6155 54.4405 95.1487 54.8863 95.356C55.9264 95.8004 57.0556 96.0374 58.1848 96.0374C58.8683 96.0374 59.5518 95.9485 60.2055 95.8004C60.681 95.6819 60.9782 95.2079 60.8593 94.734C60.7701 94.26 60.265 93.9638 59.7895 94.0823Z" fill="#721C70"/>
<path d="M74.945 89.5203C74.6478 89.1352 74.0832 89.0759 73.6969 89.3722C73.3106 89.6684 73.2511 90.2312 73.5483 90.6163C74.8261 92.2456 76.8468 93.2231 78.8972 93.2231C79.0458 93.2231 79.2241 93.2231 79.3727 93.1935C79.8779 93.1639 80.2345 92.7195 80.2048 92.2456C80.1751 91.742 79.759 91.3865 79.2538 91.4161C77.6492 91.5346 75.9553 90.7941 74.945 89.5203Z" fill="#721C70"/>
<path d="M80.5316 86.7357C80.7099 86.9727 80.9774 87.0912 81.2448 87.0912C81.4231 87.0912 81.6311 87.032 81.7797 86.9135C82.166 86.6172 82.2254 86.0544 81.9283 85.6693C80.8882 84.3363 79.2538 83.4772 77.56 83.418C77.0548 83.3884 76.6388 83.7735 76.6388 84.277C76.609 84.7806 76.9953 85.1954 77.5005 85.1954C78.6595 85.1954 79.8184 85.7878 80.5316 86.7357Z" fill="#721C70"/>
<path d="M88.3174 89.0759C87.9608 89.4314 87.9608 89.9942 88.3174 90.3201C90.0409 92.0382 92.3885 93.1343 94.8253 93.3416C94.855 93.3416 94.8847 93.3416 94.8847 93.3416C95.3602 93.3416 95.7465 92.9861 95.7762 92.5122C95.8059 92.0086 95.4493 91.5939 94.9441 91.5642C92.9531 91.4161 90.9621 90.4978 89.5655 89.0759C89.2386 88.7501 88.674 88.7501 88.3174 89.0759Z" fill="#721C70"/>
<path d="M96.4596 86.9431C96.6379 87.0912 96.8459 87.18 97.0539 87.18C97.2917 87.18 97.5294 87.0912 97.7077 86.8838C98.0346 86.5283 98.0346 85.9655 97.6483 85.6396C96.4596 84.5436 95.0035 83.7142 93.4285 83.2698C92.9531 83.1217 92.4479 83.4179 92.329 83.8919C92.1804 84.3659 92.4776 84.8695 92.9531 84.9879C94.2606 85.3434 95.4492 86.0247 96.4596 86.9431Z" fill="#721C70"/>
<path d="M105.82 99.5329C105.553 99.1181 104.988 98.9997 104.572 99.2663C104.156 99.5329 104.037 100.096 104.305 100.51C105.018 101.606 105.909 102.939 107.306 103.739C108.079 104.184 108.97 104.421 109.862 104.421C109.951 104.421 110.04 104.421 110.129 104.421C110.634 104.391 110.991 103.976 110.961 103.473C110.932 102.969 110.516 102.614 110.01 102.643C109.357 102.673 108.703 102.525 108.138 102.199C107.187 101.606 106.444 100.51 105.82 99.5329Z" fill="#721C70"/>
<path d="M110.932 97.4593C111.645 98.1702 112.328 98.9404 112.982 99.7106C113.16 99.918 113.428 100.036 113.666 100.036C113.874 100.036 114.052 99.9772 114.23 99.8291C114.616 99.5329 114.676 98.97 114.379 98.5849C113.695 97.7555 112.982 96.926 112.209 96.1855C111.437 95.4153 110.397 94.5562 109.059 94.6155C108.554 94.6451 108.198 95.0598 108.227 95.5634C108.257 96.067 108.673 96.4224 109.178 96.3928C109.773 96.3928 110.426 96.9557 110.932 97.4593Z" fill="#721C70"/>
<path d="M131.198 142.427C130.782 141.923 130.336 141.449 129.831 141.034C127.335 138.902 124.423 138.487 122.432 138.339C118.688 138.072 115.894 138.457 113.19 138.842C111.853 139.02 110.605 139.198 109.297 139.287C101.838 139.79 96.6677 138.665 95.1224 136.176C92.0616 131.259 101.541 119.321 105.583 114.196C107.247 112.093 109 110.108 110.842 108.035C114.319 104.095 117.915 100.007 121.332 94.7042C121.451 94.5265 122.313 93.0157 124.987 88.3057C127.721 83.4772 129.237 80.8111 129.148 77.6711C129.148 77.1379 129.059 76.6047 128.969 76.0715V76.0418C129.118 75.1235 129.326 73.7609 128.435 72.576C127.721 71.5984 126.384 71.0356 125.225 71.4207C124.423 71.6873 123.947 72.1612 123.086 73.1388C123.026 73.2277 122.967 73.2869 122.878 73.3758C121.57 74.5015 120.292 75.6864 119.104 76.9009C116.34 79.7151 114.824 81.8775 113.19 84.1585C112.001 85.847 110.753 87.6244 108.881 89.8165C107.574 91.3569 107.068 91.8308 106.326 92.5121C105.464 93.2823 104.305 94.3488 101.452 97.4295C100.293 98.6737 99.253 99.8586 98.3021 100.895C95.1818 104.361 92.2399 107.62 91.2593 107.146C91.2295 107.146 91.1998 107.116 91.1998 107.116C90.7541 106.583 93.2206 102.939 94.855 100.51C96.2516 98.4367 97.8563 96.0965 99.4907 93.4008C100.293 92.0974 100.501 91.6531 100.858 90.9125C101.274 90.1127 101.868 88.8982 103.71 85.61C104.067 84.9287 104.453 84.277 104.81 83.6253C107.425 78.9449 109.921 74.5014 112.12 68.7546C112.923 66.6218 114.468 62.6523 112.536 59.4234C112.388 59.1864 112.239 58.9791 112.091 58.7717C112.091 58.7125 112.09 58.6532 112.061 58.5644C111.823 57.3202 110.575 56.4611 109.327 56.4019C108.079 56.3723 106.86 57.024 106.028 57.9719C104.899 58.831 104.275 59.8085 104.037 60.1936C101.749 63.7187 100.62 65.4665 100.115 66.5033C98.0643 70.7986 95.8653 73.909 92.8342 78.2339C91.4376 80.2187 90.8432 80.9 90.2489 81.5517C89.6249 82.2626 89.0305 82.9143 87.6636 84.8694C86.8018 86.1136 85.94 87.417 85.1674 88.6612C85.7914 87.2097 86.3858 85.7581 86.9504 84.4251C88.7631 80.1298 89.7437 77.76 89.8626 77.4934C90.3975 76.2788 90.9027 75.0939 91.3781 73.9979C94.9738 65.7627 97.0243 61.1119 95.0333 58.0904C95.0035 57.4979 94.855 56.9351 94.5281 56.4315C94.0823 55.7502 93.3394 55.2762 92.5371 55.1577C91.705 55.0392 90.9918 55.3355 90.6055 55.6021C90.5164 55.6021 90.4569 55.5724 90.3678 55.5724C87.3961 55.6317 85.7617 59.2161 82.4929 66.3255C81.9283 67.5401 81.3043 68.9027 80.6505 70.3246C79.6698 72.4278 78.7189 74.2645 77.1737 77.3156L76.3713 78.9153C75.1232 81.3443 73.2214 84.9583 70.6955 89.6387C68.021 94.645 65.5248 99.2662 64.3064 101.103C64.3064 100.155 64.3659 98.5848 64.455 96.7186C64.5145 95.5929 64.5739 94.2599 64.6333 92.7195C64.8413 87.9206 64.8413 86.1432 64.8413 85.0768C64.8413 84.1881 64.8413 83.7734 64.9602 82.4108C65.1682 79.7743 65.4951 77.5526 65.7625 75.5679C66.446 70.6505 66.8621 67.6882 64.6928 65.6146C64.3956 65.3184 64.039 65.0814 63.6527 64.8444C63.5932 64.637 63.4744 64.4593 63.3555 64.3112C62.7315 63.5706 61.3942 63.4225 60.5622 63.9261C59.9975 64.2519 59.7895 64.9629 59.3735 66.3255C59.2249 66.7995 59.1358 67.2735 59.0466 67.8363C58.9575 68.0733 58.8386 68.3103 58.7197 68.5473C58.1551 69.7618 57.3825 71.4503 56.8476 73.3462C56.1344 75.8641 55.9264 77.4341 55.6589 79.4188C55.4806 80.7519 55.2726 82.233 54.8863 84.3659C54.4406 86.6468 54.1434 87.7725 53.8165 88.9278C53.4896 90.1127 53.133 91.3272 52.6873 93.7563C51.9444 97.6369 51.6472 100.54 51.4689 102.258L51.4095 102.969C50.6369 110.197 48.2893 115.233 45.7931 120.624C43.4158 125.779 40.9493 131.081 39.8498 138.516L39.7904 138.872C39.5526 140.56 39.1366 143.404 37.7399 146.929C36.8781 149.121 36.1649 150.277 35.0951 151.995C34.4711 153.002 33.7579 154.157 32.8367 155.787C30.8457 159.312 29.4787 162.452 26.7745 168.702C25.2887 172.109 24.4864 174.153 23.7137 176.108C23.268 177.204 22.8817 178.241 22.3765 179.455C19.8209 185.617 16.7007 191.867 13.0753 197.97C12.8375 198.384 12.9564 198.947 13.4021 199.184C13.5507 199.273 13.6993 199.303 13.8479 199.303C14.145 199.303 14.4422 199.154 14.6205 198.858C18.2756 192.667 21.4256 186.387 24.0109 180.137C24.5161 178.922 24.9321 177.856 25.3779 176.76C26.1505 174.804 26.9528 172.76 28.4387 169.383C31.1131 163.192 32.4801 160.112 34.4117 156.646C35.3032 155.046 36.0164 153.92 36.6404 152.913C37.7399 151.165 38.5125 149.892 39.4338 147.551C40.8899 143.849 41.3356 140.886 41.6031 139.109L41.6625 138.753C42.762 131.555 45.1393 126.341 47.4869 121.335C49.9237 116.092 52.4198 110.641 53.2519 103.147L53.3411 102.436C53.5194 100.747 53.8165 97.9035 54.5594 94.0822C54.9755 91.9789 55.2726 90.794 55.5698 89.7572C55.7184 90.1719 56.1344 90.4385 56.5802 90.3497C58.1254 90.0535 59.7895 90.2904 61.1565 91.031C61.2754 91.0903 61.4239 91.1199 61.5725 91.1199C61.8994 91.1199 62.1966 90.9421 62.3749 90.6459C62.6126 90.2016 62.4343 89.6684 61.9886 89.4314C60.2353 88.5131 58.1848 88.2168 56.2236 88.6019C56.075 88.6316 55.9264 88.7204 55.8075 88.8093C56.075 87.8021 56.3721 86.6468 56.7585 84.6621C57.1745 82.4996 57.3825 80.9889 57.5608 79.6262C57.7985 77.7303 58.0065 76.2196 58.69 73.8201C58.8089 73.3462 58.9575 72.9018 59.1358 72.4575C59.3735 72.9018 59.7895 73.2869 60.2947 73.3758C60.9485 73.4943 61.632 73.1388 62.048 72.6352C62.464 72.1316 62.7017 71.4799 62.88 70.8282C63.2664 69.5841 63.5635 68.3103 63.7715 67.0365C65.1088 68.5176 64.7819 70.9763 64.1579 75.3013C63.8904 77.286 63.5635 79.5373 63.3555 82.233C63.2366 83.6845 63.2366 84.1289 63.2366 85.0472C63.2366 86.084 63.2366 87.8317 63.0286 92.601C62.9692 94.1414 62.9098 95.4448 62.8503 96.5705C62.5829 102.14 62.5532 103.147 63.7418 103.502C63.8607 103.532 64.0093 103.561 64.1281 103.561C64.9602 103.561 65.614 102.614 66.5055 101.162C67.5455 99.4439 69.2691 96.3335 72.4487 90.4089C74.9746 85.7285 76.8765 82.0849 78.1246 79.6558L78.9269 78.0562C80.5019 75.005 81.4528 73.1388 82.4335 71.0356C83.117 69.5841 83.741 68.251 84.3056 67.0069C86.2372 62.8004 87.6339 59.7789 88.9117 58.2977C88.8225 58.5051 88.7334 58.7125 88.6442 58.9198C87.723 61.023 87.6339 61.4674 87.5744 61.8525C87.4258 62.8597 87.3367 63.8076 87.9013 64.7259C88.4362 65.5553 89.506 66.0886 90.4569 65.7923C91.2296 65.5553 91.7347 64.8444 92.2102 64.1927C92.5965 63.6595 92.9531 63.1263 93.3394 62.5931C93.6366 62.1487 93.9635 61.734 94.2309 61.26C94.0823 63.8372 92.3588 67.7178 89.9815 73.198C89.506 74.2941 89.0008 75.4494 88.4659 76.6935C88.3471 76.9305 87.4853 79.0041 85.5537 83.6549C83.8599 87.6836 82.1066 91.8604 80.7694 95.119C80.0264 96.8963 79.4915 98.2294 79.1349 99.1477C78.4812 100.866 78.2137 101.517 79.0755 101.873C79.2241 101.932 79.343 101.962 79.4618 101.962C79.9967 101.962 80.3236 101.399 80.4425 101.132C80.5613 100.895 80.7396 100.54 80.9774 100.096C81.1854 99.6513 81.4528 99.1477 81.7797 98.5256C82.9089 96.3335 85.9103 90.7348 89.3871 85.7285C90.6649 83.8623 91.2296 83.2402 91.8239 82.5885C92.4479 81.8775 93.1017 81.1666 94.5281 79.093C97.4997 74.8865 99.8473 71.5392 101.957 67.0957C102.284 66.4144 102.938 65.348 104.126 63.5114C104.156 63.6299 104.156 63.778 104.186 63.8965C104.394 64.874 105.048 65.8219 106.028 66.0589C106.712 66.2367 107.455 66.0589 108.079 65.6738C108.673 65.2887 109.178 64.7555 109.624 64.2223C110.397 63.2448 111.08 62.208 111.674 61.1415C111.704 61.1119 111.704 61.0823 111.734 61.0527C112.388 63.067 111.674 65.5257 110.783 67.9252C108.614 73.5831 106.177 77.9377 103.592 82.5589C103.235 83.2106 102.849 83.8623 102.492 84.5436C100.65 87.8614 100.026 89.1055 99.6096 89.935C99.253 90.6459 99.045 91.0606 98.3021 92.3048C96.6974 94.9708 95.1224 97.3111 93.7257 99.355C90.5758 103.976 88.8522 106.553 90.1895 108.094C90.4569 108.39 90.7541 108.538 90.873 108.597C91.1701 108.745 91.4673 108.805 91.7942 108.805C93.7852 108.805 96.1328 106.198 99.9959 101.903C100.947 100.866 101.987 99.6809 103.116 98.4664C105.909 95.4448 107.039 94.408 107.871 93.6674C108.643 92.9565 109.208 92.4529 110.605 90.794C112.507 88.5131 113.784 86.7357 115.003 85.0176C116.578 82.7959 118.064 80.6926 120.738 77.9673C120.857 77.8488 120.946 77.76 121.065 77.6415C120.916 78.382 120.827 79.2115 121.035 80.0705C121.213 80.9 121.54 81.2258 121.748 81.4036C122.164 81.7294 122.61 81.7887 122.937 81.8183C122.996 81.8183 123.591 81.9072 124.245 81.7294C125.671 81.374 126.919 80.0409 127.484 79.3596C127.038 81.3147 125.849 83.5364 123.739 87.2393C121.57 91.0606 120.263 93.3712 120.144 93.5786C116.815 98.7922 113.249 102.821 109.802 106.701C107.93 108.805 106.177 110.819 104.483 112.952C99.4907 119.262 90.1895 130.992 93.904 136.976C96.3705 140.916 103.859 141.301 109.713 140.916C111.08 140.827 112.358 140.649 113.725 140.442C116.34 140.086 119.014 139.701 122.58 139.968C124.334 140.086 126.533 140.442 128.494 141.893C128.227 141.893 128.019 141.923 127.929 141.923C126.444 142.071 125.433 142.664 124.779 143.049C124.155 143.404 123.591 143.849 123.234 144.471C122.878 145.093 122.818 145.893 123.234 146.485C123.353 146.663 123.502 146.781 123.65 146.9C123.145 147.048 122.64 147.226 122.105 147.374C120.857 147.729 119.698 148.025 118.628 148.262C118.539 147.64 118.39 147.018 118.182 146.396C118.004 145.922 117.499 145.685 117.053 145.863C116.578 146.041 116.34 146.544 116.518 146.989C116.697 147.522 116.845 148.055 116.905 148.618C116.221 148.766 115.567 148.884 114.884 149.003C114.795 148.085 114.854 147.107 115.092 146.218C115.211 145.744 114.943 145.27 114.468 145.122C113.992 145.004 113.517 145.27 113.368 145.744C113.071 146.9 112.982 148.114 113.131 149.299C112.239 149.447 111.348 149.625 110.367 149.803C107.574 150.336 103.354 151.254 98.9558 152.558C89.7437 155.283 83.2953 158.778 78.6001 161.296C75.2718 163.074 74.2317 163.844 73.5185 164.407C68.4073 168.465 66.238 173.471 65.1979 175.871L64.7819 176.256C62.88 180.64 61.9886 181.973 60.7405 183.839C59.0466 186.357 56.7287 189.823 50.5774 202.739C47.0115 210.263 43.5643 217.995 40.3252 225.785C40.1469 226.23 40.355 226.763 40.8007 226.941C40.9196 227 41.0384 227 41.1276 227C41.4842 227 41.8111 226.793 41.9597 226.437C45.169 218.676 48.6161 210.944 52.1524 203.479C58.2146 190.682 60.5027 187.276 62.1669 184.817C63.4744 182.892 64.3956 181.47 66.3569 176.967L66.446 176.789C67.4267 174.508 69.4771 169.769 74.2615 166.006C74.9152 165.473 75.8959 164.792 79.0755 163.074C83.7113 160.585 90.0706 157.149 99.1044 154.454C103.413 153.18 107.603 152.261 110.337 151.728C111.377 151.521 112.358 151.343 113.309 151.195C116.102 150.691 118.717 150.217 122.283 149.21C123.888 148.736 125.463 148.233 127.038 147.67C127.276 147.67 127.543 147.64 127.811 147.611C129.712 147.433 130.663 147.344 131.258 146.84C132.149 146.1 132.773 144.589 132.268 143.493C132.09 142.99 131.674 142.664 131.198 142.427Z" fill="#721C70"/>
<path d="M299.869 179.455C299.631 178.863 299.393 178.3 299.156 177.737C301.682 175.397 304.059 172.583 303.851 169.087C303.821 168.406 303.524 166.007 301.592 164.2C299.423 162.156 296.065 161.622 292.826 162.748C291.608 160.023 290.597 157.979 289.379 155.787C288.458 154.157 287.745 153.002 287.121 151.995C286.051 150.247 285.308 149.122 284.446 146.929C283.049 143.404 282.633 140.561 282.396 138.872L282.336 138.517C281.207 131.081 278.74 125.749 276.393 120.624C273.926 115.263 271.579 110.197 270.776 102.969L270.717 102.258C270.539 100.54 270.242 97.637 269.499 93.7564C269.023 91.3273 268.696 90.1128 268.369 88.9279C268.043 87.743 267.745 86.6469 267.3 84.366C266.913 82.2628 266.705 80.752 266.527 79.419C266.26 77.4342 266.052 75.8938 265.338 73.3463C264.803 71.4504 264.031 69.7619 263.466 68.5474C263.347 68.2808 263.228 68.0438 263.139 67.8068C263.05 67.244 262.931 66.7996 262.812 66.296C262.396 64.9334 262.188 64.2521 261.624 63.8966C260.792 63.393 259.454 63.5707 258.83 64.2817C258.712 64.4298 258.593 64.6075 258.533 64.8149C258.147 65.0222 257.79 65.2888 257.493 65.5851C255.324 67.6587 255.74 70.621 256.423 75.5384C256.691 77.4935 257.018 79.7152 257.226 82.3812C257.345 83.7439 257.345 84.1586 257.345 85.0473C257.345 86.1137 257.345 87.8615 257.553 92.69C257.612 94.2304 257.672 95.5634 257.731 96.6891C257.82 98.5849 257.88 100.125 257.88 101.073C256.661 99.2367 254.165 94.6155 251.49 89.6092C248.965 84.9288 247.063 81.3148 245.815 78.8857L244.983 77.2565C243.437 74.235 242.486 72.3983 241.506 70.3247C240.822 68.8732 240.228 67.5402 239.663 66.3257C236.395 59.2162 234.76 55.6318 231.788 55.5726C231.699 55.5726 231.64 55.5726 231.551 55.6022C231.135 55.3652 230.451 55.0393 229.619 55.1578C228.817 55.2763 228.074 55.7503 227.628 56.4316C227.301 56.9352 227.153 57.498 227.123 58.0905C225.132 61.112 227.153 65.7628 230.778 73.998C231.254 75.094 231.759 76.2493 232.294 77.4935C232.413 77.7305 233.393 80.1299 235.206 84.4252C235.77 85.7582 236.365 87.2098 236.989 88.6613C236.187 87.3875 235.354 86.1137 234.493 84.8696C233.126 82.9145 232.531 82.2628 231.907 81.5518C231.313 80.9001 230.719 80.2188 229.322 78.234C226.291 73.9091 224.092 70.7987 222.041 66.5034C221.536 65.4666 220.407 63.6892 218.119 60.1937C217.851 59.8086 217.227 58.8311 216.128 57.972C215.296 57.0241 214.077 56.3724 212.829 56.402C211.581 56.4316 210.333 57.3203 210.095 58.5645C210.095 58.6237 210.066 58.683 210.066 58.7718C209.887 58.9792 209.739 59.1865 209.62 59.4235C207.688 62.6228 209.204 66.5923 210.036 68.7547C212.235 74.5312 214.731 78.945 217.346 83.6254C217.703 84.2771 218.089 84.9288 218.446 85.6101C220.258 88.8983 220.883 90.1128 221.299 90.9126C221.655 91.6532 221.893 92.0975 222.666 93.401C224.3 96.1263 225.875 98.4665 227.301 100.51C228.936 102.94 231.402 106.583 230.956 107.116L230.897 107.146C229.887 107.59 226.945 104.332 223.854 100.896C222.903 99.8587 221.833 98.6738 220.704 97.4297C217.851 94.3489 216.692 93.2825 215.831 92.5123C215.088 91.8309 214.583 91.357 213.275 89.8166C211.403 87.5949 210.155 85.8471 208.966 84.1586C207.362 81.8777 205.816 79.7152 203.053 76.901C201.864 75.6569 200.586 74.4719 199.279 73.3759C199.219 73.287 199.16 73.2278 199.071 73.1389C198.209 72.1317 197.733 71.6578 196.931 71.4208C195.772 71.0653 194.435 71.5985 193.722 72.5761C192.86 73.761 193.038 75.1236 193.187 76.042V76.0716C193.098 76.6048 193.038 77.138 193.008 77.6712C192.919 80.8409 194.435 83.5069 197.169 88.3058C199.843 93.0159 200.705 94.5266 200.824 94.7044C204.241 100.036 207.837 104.095 211.314 108.035C213.156 110.138 214.91 112.093 216.574 114.226C220.615 119.321 230.095 131.289 227.034 136.206C225.489 138.665 220.318 139.79 212.859 139.316C211.552 139.228 210.303 139.05 208.966 138.872C206.262 138.487 203.469 138.102 199.724 138.368C197.733 138.517 194.821 138.961 192.325 141.064C191.82 141.479 191.374 141.953 190.958 142.456C190.453 142.693 190.037 143.019 189.829 143.523C189.353 144.619 189.948 146.1 190.839 146.87C191.434 147.374 192.384 147.433 194.286 147.64C194.583 147.67 194.821 147.7 195.059 147.7C196.604 148.262 198.209 148.796 199.814 149.24C203.35 150.277 205.995 150.751 208.788 151.225C209.739 151.403 210.72 151.58 211.76 151.758C214.493 152.291 218.684 153.18 222.992 154.483C232.026 157.179 238.386 160.586 243.021 163.104C246.201 164.822 247.182 165.533 247.835 166.036C252.59 169.798 254.64 174.538 255.651 176.819L255.74 176.997C256.453 178.626 257.018 179.811 257.523 180.818C256.156 181.766 254.284 183.484 253.363 186.15C253.006 187.187 252.144 189.616 253.273 191.927C253.303 191.986 254.106 193.615 256.037 194.711C257.166 195.333 258.622 195.6 260.287 195.6C261.951 195.6 263.823 195.333 265.754 194.919C266.913 197.199 268.31 200.014 269.974 203.539C273.54 211.033 276.957 218.735 280.167 226.496C280.315 226.852 280.642 227.059 280.999 227.059C281.118 227.059 281.237 227.03 281.326 227C281.772 226.822 282.009 226.289 281.801 225.845C278.562 218.054 275.115 210.322 271.549 202.798C269.944 199.451 268.607 196.726 267.478 194.504C271.192 193.526 274.937 192.104 277.671 190.949C283.465 188.52 290.894 184.995 297.789 179.07C297.937 179.426 298.086 179.811 298.264 180.226C300.85 186.476 304.029 192.786 307.655 198.947C307.833 199.243 308.13 199.392 308.427 199.392C308.576 199.392 308.724 199.362 308.873 199.273C309.289 199.036 309.438 198.473 309.2 198.059C305.545 191.838 302.424 185.617 299.869 179.455ZM300.374 165.473C301.86 166.895 302.068 168.821 302.068 169.176C302.216 171.753 300.523 173.946 298.442 175.96C297.67 174.034 296.868 172.02 295.441 168.673C294.728 167.043 294.104 165.621 293.569 164.348C296.125 163.518 298.74 163.903 300.374 165.473ZM256.81 193.112C255.383 192.312 254.789 191.127 254.789 191.127C253.987 189.468 254.611 187.661 254.967 186.713C255.71 184.61 257.166 183.217 258.296 182.388C258.83 183.306 259.306 184.047 259.871 184.847C260.97 186.476 262.307 188.49 264.803 193.26C261.119 193.971 258.325 193.971 256.81 193.112ZM276.928 189.231C273.094 190.831 269.588 192.045 266.586 192.815C263.912 187.661 262.486 185.528 261.327 183.84C260.079 181.973 259.187 180.64 257.285 176.256L257.196 176.078C256.156 173.679 253.987 168.643 248.875 164.614C248.162 164.051 247.122 163.281 243.794 161.504C239.069 158.956 232.621 155.49 223.408 152.765C219.04 151.462 214.791 150.543 211.997 150.01C211.017 149.833 210.125 149.655 209.234 149.507C209.382 148.322 209.293 147.107 208.996 145.952C208.877 145.478 208.372 145.182 207.896 145.33C207.421 145.448 207.124 145.952 207.272 146.426C207.51 147.344 207.57 148.292 207.48 149.21C206.827 149.092 206.143 148.973 205.46 148.825C205.519 148.262 205.668 147.729 205.846 147.196C206.024 146.722 205.787 146.219 205.311 146.07C204.836 145.893 204.33 146.13 204.182 146.604C203.974 147.196 203.825 147.818 203.736 148.47C202.666 148.233 201.507 147.937 200.259 147.581C199.754 147.433 199.219 147.285 198.714 147.107C198.892 146.989 199.011 146.87 199.13 146.692C199.546 146.13 199.487 145.3 199.13 144.678C198.773 144.056 198.209 143.612 197.585 143.256C196.931 142.871 195.891 142.279 194.435 142.131C194.316 142.131 194.108 142.101 193.87 142.101C195.832 140.649 198.031 140.324 199.784 140.175C203.32 139.909 206.024 140.294 208.639 140.649C210.006 140.827 211.284 141.035 212.651 141.123C218.505 141.508 225.994 141.153 228.46 137.184C232.175 131.2 222.874 119.469 217.881 113.159C216.187 111.027 214.434 109.012 212.562 106.909C209.115 103.028 205.579 98.9997 202.221 93.786C202.102 93.5787 200.794 91.2681 198.625 87.4468C196.515 83.7439 195.326 81.5222 194.881 79.5671C195.445 80.2484 196.693 81.611 198.12 81.9369C198.773 82.085 199.398 82.0258 199.427 82.0258C199.724 81.9961 200.2 81.9073 200.616 81.611C200.854 81.4333 201.151 81.0778 201.329 80.278C201.507 79.419 201.448 78.5895 201.299 77.8489C201.418 77.9674 201.507 78.0563 201.626 78.1748C204.271 80.9001 205.757 83.0033 207.362 85.225C208.58 86.9432 209.858 88.7502 211.76 91.0015C213.127 92.6308 213.691 93.164 214.493 93.8749C215.326 94.6451 216.455 95.6819 219.248 98.6738C220.377 99.8884 221.447 101.073 222.398 102.11C226.261 106.376 228.609 109.012 230.6 109.012C230.927 109.012 231.224 108.953 231.521 108.805C231.64 108.746 231.937 108.627 232.204 108.301C233.542 106.731 231.818 104.184 228.668 99.5625C227.272 97.5185 225.697 95.2079 224.092 92.5123C223.349 91.2681 223.141 90.8534 222.784 90.1424C222.368 89.313 221.744 88.0688 219.902 84.7511C219.516 84.0697 219.159 83.418 218.802 82.7663C216.217 78.1452 213.751 73.761 211.611 68.1326C210.69 65.7332 209.977 63.3041 210.66 61.2601C210.69 61.2898 210.69 61.3194 210.72 61.349C211.314 62.4451 211.997 63.4819 212.77 64.4298C213.216 64.9926 213.691 65.5258 214.315 65.8813C214.91 66.2664 215.652 66.4441 216.366 66.2664C217.317 65.9998 218 65.0815 218.208 64.1039C218.238 63.9854 218.267 63.8373 218.267 63.7188C219.456 65.5555 220.11 66.6219 220.437 67.3032C222.547 71.7466 224.894 75.0644 227.866 79.3005C229.322 81.3741 229.946 82.085 230.57 82.796C231.164 83.4477 231.729 84.0994 233.007 85.936C236.484 90.9126 239.485 96.541 240.614 98.7331C240.911 99.3255 241.179 99.8587 241.417 100.303C241.654 100.747 241.833 101.103 241.951 101.34C242.07 101.577 242.397 102.169 242.932 102.169C243.051 102.169 243.17 102.14 243.318 102.08C244.18 101.695 243.913 101.073 243.259 99.3551C242.902 98.4072 242.368 97.1038 241.625 95.2968C240.287 92.0087 238.445 87.6541 236.84 83.8031C234.849 79.0339 234.017 77.1084 233.928 76.8714C233.393 75.6272 232.888 74.4719 232.413 73.3759C230.035 67.9253 228.312 64.0151 228.163 61.4379C228.431 61.8822 228.757 62.3266 229.055 62.7709C229.441 63.3041 229.797 63.8373 230.184 64.3705C230.659 65.0222 231.164 65.7332 231.937 65.9702C232.888 66.2664 233.958 65.7332 234.493 64.9038C235.057 63.9854 234.968 63.0375 234.82 62.0303C234.76 61.6452 234.671 61.2009 233.75 59.0977C233.661 58.8607 233.542 58.6533 233.482 58.4756C234.76 59.9567 236.157 62.9783 238.088 67.1847C238.653 68.4289 239.277 69.7619 239.96 71.2134C240.941 73.3167 241.892 75.1533 243.437 78.2044L244.269 79.8337C245.517 82.2628 247.419 85.9064 249.945 90.5868C253.125 96.5113 254.848 99.6217 255.889 101.34C256.78 102.791 257.434 103.739 258.266 103.739C258.385 103.739 258.504 103.71 258.652 103.68C259.841 103.325 259.811 102.317 259.544 96.7483C259.484 95.6227 259.425 94.3193 259.365 92.7492C259.157 87.98 259.157 86.2322 259.157 85.1954C259.157 84.2771 259.157 83.8031 259.038 82.3812C258.801 79.6856 258.504 77.4342 258.236 75.4495C257.642 71.1246 257.285 68.6659 258.622 67.1847C258.83 68.4585 259.128 69.7323 259.514 70.9764C259.692 71.5985 259.93 72.2502 260.346 72.7834C260.762 73.287 261.445 73.6425 262.099 73.524C262.604 73.4351 262.991 73.05 263.258 72.6057C263.407 73.05 263.555 73.4944 263.704 73.9683C264.387 76.3678 264.595 77.8786 264.833 79.7744C265.011 81.1075 265.219 82.6478 265.636 84.8103C266.022 86.795 266.319 87.9503 266.586 88.9575C266.468 88.8687 266.349 88.7798 266.17 88.7502C264.209 88.3651 262.159 88.6613 260.405 89.5796C259.96 89.8166 259.811 90.3498 260.049 90.7941C260.197 91.0904 260.524 91.2681 260.851 91.2681C261 91.2681 261.148 91.2385 261.267 91.1792C262.634 90.4387 264.328 90.2017 265.844 90.4979C266.289 90.5868 266.735 90.3202 266.854 89.9055C267.151 90.9423 267.448 92.1272 267.864 94.2304C268.607 98.0221 268.904 100.866 269.083 102.584L269.172 103.295C270.004 110.79 272.5 116.24 274.937 121.483C277.255 126.519 279.662 131.703 280.761 138.902L280.821 139.257C281.088 141.035 281.504 143.967 282.99 147.7C283.911 150.04 284.713 151.314 285.783 153.061C286.407 154.069 287.121 155.194 288.012 156.794C289.973 160.23 291.311 163.341 293.985 169.532C295.441 172.909 296.243 174.923 297.016 176.908C297.076 177.056 297.135 177.234 297.194 177.382C290.211 183.247 282.722 186.802 276.928 189.231Z" fill="#721C70"/>
<path d="M261.832 95.8004C262.486 95.9781 263.169 96.0374 263.853 96.0374C264.982 96.0374 266.111 95.8004 267.151 95.356C267.597 95.1487 267.805 94.6451 267.597 94.1711C267.389 93.7268 266.884 93.5194 266.408 93.7268C265.101 94.2896 263.615 94.4081 262.248 94.0823C261.772 93.9638 261.297 94.26 261.178 94.734C261.089 95.2079 261.356 95.6819 261.832 95.8004Z" fill="#721C70"/>
<path d="M248.519 90.6163C248.816 90.2312 248.757 89.6684 248.37 89.3722C247.984 89.0759 247.419 89.1352 247.122 89.5203C246.112 90.7941 244.418 91.5346 242.813 91.4161C242.308 91.3865 241.892 91.742 241.862 92.2456C241.833 92.7492 242.189 93.1639 242.694 93.1935C242.843 93.1935 243.021 93.2231 243.17 93.2231C245.22 93.2231 247.241 92.2456 248.519 90.6163Z" fill="#721C70"/>
<path d="M245.458 84.2178C245.428 83.7142 245.012 83.3588 244.537 83.3588C242.843 83.4476 241.209 84.2771 240.169 85.6101C239.871 85.9952 239.931 86.558 240.317 86.8543C240.466 86.9728 240.674 87.032 240.852 87.032C241.119 87.032 241.387 86.9135 241.565 86.6765C242.308 85.7286 243.437 85.1658 244.626 85.1065C245.101 85.1065 245.458 84.6918 245.458 84.2178Z" fill="#721C70"/>
<path d="M232.502 89.0759C231.075 90.4978 229.114 91.4161 227.123 91.5642C226.618 91.5939 226.261 92.0382 226.291 92.5122C226.321 92.9861 226.707 93.3416 227.182 93.3416C227.212 93.3416 227.242 93.3416 227.242 93.3416C229.679 93.1639 232.056 92.0678 233.75 90.3201C234.106 89.9646 234.106 89.4018 233.75 89.0759C233.423 88.7501 232.858 88.7501 232.502 89.0759Z" fill="#721C70"/>
<path d="M229.738 83.8624C229.589 83.3884 229.114 83.1218 228.639 83.2403C227.064 83.6847 225.607 84.5141 224.419 85.6101C224.062 85.936 224.033 86.4988 224.359 86.8543C224.538 87.032 224.775 87.1505 225.013 87.1505C225.221 87.1505 225.459 87.0617 225.607 86.9135C226.588 85.9952 227.807 85.3139 229.114 84.9288C229.619 84.8399 229.887 84.3364 229.738 83.8624Z" fill="#721C70"/>
<path d="M217.495 99.2663C217.079 98.9997 216.544 99.1181 216.247 99.5329C215.593 100.51 214.88 101.606 213.869 102.199C213.305 102.525 212.651 102.673 211.997 102.643C211.492 102.614 211.076 102.999 211.046 103.473C211.017 103.976 211.403 104.391 211.878 104.421C211.968 104.421 212.057 104.421 212.146 104.421C213.037 104.421 213.929 104.184 214.701 103.739C216.068 102.969 216.96 101.606 217.703 100.51C218.03 100.096 217.911 99.5329 217.495 99.2663Z" fill="#721C70"/>
<path d="M212.948 96.4224C213.424 96.452 213.869 96.0669 213.899 95.5929C213.929 95.0893 213.543 94.6746 213.067 94.645C211.73 94.5857 210.69 95.4448 209.917 96.215C209.145 96.9852 208.431 97.785 207.748 98.6145C207.451 98.9995 207.51 99.5624 207.867 99.8586C208.045 99.9771 208.223 100.066 208.431 100.066C208.699 100.066 208.937 99.9475 209.115 99.7401C209.739 98.9403 210.452 98.1997 211.165 97.4888C211.7 96.9259 212.324 96.3631 212.948 96.4224Z" fill="#721C70"/>
<path d="M44.1587 149.862C41.2168 155.846 43.3266 162.896 48.8539 165.592C54.3812 168.288 61.2457 165.592 64.1579 159.608C64.6928 158.542 65.0494 157.446 65.2574 156.349C61.84 160.26 56.4019 161.682 51.8553 159.46C47.3086 157.238 45.0799 152.084 46.0605 147.018C45.3474 147.848 44.6936 148.825 44.1587 149.862Z" fill="#721C70"/>
<path d="M53.2816 146.485C53.8462 146.929 54.6783 147.67 54.9754 148.529C55.2429 149.329 54.8863 150.81 54.6486 151.699C54.6188 151.817 54.7971 151.906 54.8566 151.788C55.3915 151.017 56.283 149.803 57.0556 149.477C57.9471 149.151 59.1357 149.358 59.8489 149.536C59.9678 149.566 60.0569 149.418 59.9381 149.329C59.4032 148.884 58.5711 148.174 58.274 147.433C57.9174 146.544 58.4225 144.678 58.7197 143.612C58.7494 143.493 58.5711 143.404 58.5117 143.523C57.8876 144.471 56.699 146.13 55.6886 146.396C54.9754 146.604 54.0245 146.426 53.3707 146.278C53.2519 146.248 53.1627 146.396 53.2816 146.485Z" fill="#721C70"/>
<path d="M42.4054 171.694C42.9403 172.139 43.7724 172.909 44.0695 173.738C44.337 174.538 43.9507 176.019 43.6832 176.908C43.6535 177.026 43.8318 177.115 43.8912 176.997C44.4261 176.226 45.3473 175.012 46.12 174.716C47.0115 174.39 48.2001 174.627 48.9133 174.805C49.0322 174.834 49.1213 174.686 49.0322 174.597C48.4973 174.153 47.6652 173.412 47.3978 172.672C47.0709 171.783 47.5761 169.917 47.903 168.85C47.9327 168.732 47.7544 168.643 47.6949 168.762C47.0709 169.68 45.8525 171.339 44.8422 171.605C44.129 171.783 43.178 171.605 42.5243 171.428C42.3757 171.457 42.3163 171.635 42.4054 171.694Z" fill="#721C70"/>
<path d="M42.3163 185.854C42.4054 185.883 42.4946 185.765 42.4054 185.676C41.9894 185.261 41.3356 184.61 41.1276 183.988C40.8899 183.217 41.4248 181.677 41.7516 180.818C41.7814 180.699 41.6625 180.64 41.5733 180.729C40.979 181.47 39.8795 182.773 39.0177 182.951C38.4234 183.069 37.6211 182.862 37.0862 182.684C36.997 182.655 36.9079 182.773 36.997 182.862C37.4428 183.277 38.0668 183.958 38.2748 184.669C38.4531 185.35 38.0668 186.565 37.7696 187.305C37.7399 187.424 37.8588 187.483 37.9479 187.394C38.4531 186.772 39.2852 185.824 39.9389 185.617C40.7413 185.409 41.7516 185.676 42.3163 185.854Z" fill="#721C70"/>
<path d="M62.7909 133.214C62.2857 134.014 61.3645 135.436 60.5027 135.702C59.9084 135.88 59.1061 135.762 58.5712 135.673C58.4523 135.643 58.3929 135.791 58.482 135.85C58.9575 136.206 59.6707 136.798 59.9678 137.509C60.2353 138.161 59.9678 139.435 59.7895 140.175C59.7598 140.294 59.9084 140.353 59.9678 140.264C60.3839 139.613 61.0971 138.546 61.7508 138.28C62.4937 137.983 63.5041 138.131 64.0984 138.25C64.2173 138.28 64.2767 138.131 64.1876 138.072C63.7121 137.717 62.9989 137.154 62.7315 136.532C62.4046 135.791 62.7612 134.221 62.9989 133.303C62.9989 133.184 62.8503 133.125 62.7909 133.214Z" fill="#721C70"/>
<path d="M267.894 126.43C267.983 126.223 267.983 126.016 267.894 125.808C267.805 125.601 267.656 125.453 267.448 125.394C263.912 124.268 260.197 124.09 256.691 124.801C248.727 126.46 244.269 132.207 242.724 134.636C242.605 134.814 242.576 135.051 242.635 135.258C242.665 135.347 242.724 135.436 242.784 135.525C242.873 135.613 242.962 135.673 243.081 135.732C245.042 136.532 252.025 138.902 259.246 135.288C264.268 132.77 266.824 128.652 267.894 126.43ZM244.477 134.695C245.725 132.918 248.103 130.193 251.698 128.208C250.718 130.044 250.896 132.385 252.322 134.073C252.828 134.695 253.452 135.14 254.135 135.465C249.975 136.236 246.349 135.317 244.477 134.695ZM258.83 133.599C257.226 134.932 254.789 134.725 253.452 133.125C252.085 131.526 252.322 129.096 253.927 127.763C255.532 126.43 257.969 126.638 259.306 128.237C260.673 129.837 260.465 132.236 258.83 133.599ZM261.475 132.118C261.921 130.489 261.624 128.682 260.435 127.289C259.96 126.727 259.395 126.282 258.801 125.986C261.237 125.719 263.734 125.927 266.141 126.579C265.309 128.149 263.823 130.281 261.475 132.118Z" fill="#721C70"/>
<path d="M255.116 129.156C254.284 129.837 254.165 131.081 254.878 131.911C255.562 132.74 256.81 132.858 257.642 132.148C258.474 131.466 258.593 130.222 257.88 129.393C257.196 128.593 255.978 128.474 255.116 129.156Z" fill="#721C70"/>
<path d="M266.884 132.71C266.586 132.444 266.111 132.444 265.844 132.74C265.576 133.007 265.576 133.451 265.814 133.718C265.844 133.747 265.844 133.747 265.873 133.777L268.161 135.969C268.459 136.236 268.934 136.236 269.201 135.939C269.469 135.643 269.469 135.169 269.172 134.903L266.884 132.71Z" fill="#721C70"/>
<path d="M264.09 135.317C263.853 134.991 263.377 134.903 263.05 135.14C262.723 135.376 262.634 135.85 262.872 136.176L264.714 138.724L264.744 138.753C264.982 139.05 265.428 139.109 265.754 138.872C266.081 138.635 266.17 138.161 265.933 137.835L264.09 135.317Z" fill="#721C70"/>
<path d="M260.792 137.391C260.613 137.035 260.168 136.858 259.811 137.035C259.454 137.213 259.276 137.657 259.454 138.013L260.792 140.886C260.821 140.946 260.851 141.005 260.911 141.064C261.119 141.301 261.475 141.39 261.802 141.271C262.159 141.094 262.337 140.649 262.159 140.294L260.792 137.391Z" fill="#721C70"/>
<path d="M257.255 138.783C257.166 138.398 256.75 138.161 256.364 138.25C255.978 138.339 255.74 138.753 255.829 139.139L256.572 142.19C256.602 142.308 256.661 142.397 256.721 142.486C256.899 142.693 257.196 142.812 257.463 142.723C257.85 142.634 258.087 142.219 257.998 141.834L257.255 138.783Z" fill="#721C70"/>
<path d="M252.62 138.813C252.204 138.842 251.906 139.198 251.936 139.583L252.144 142.723C252.144 142.901 252.204 143.019 252.322 143.138C252.471 143.315 252.679 143.404 252.947 143.404C253.363 143.375 253.66 143.019 253.63 142.634L253.422 139.494C253.392 139.109 253.036 138.783 252.62 138.813Z" fill="#721C70"/>
<path d="M248.905 138.754C248.489 138.724 248.133 139.02 248.103 139.405L247.776 142.545C247.746 142.753 247.806 142.96 247.954 143.108C248.073 143.256 248.251 143.345 248.459 143.375C248.875 143.404 249.232 143.108 249.262 142.723L249.589 139.583C249.589 139.139 249.291 138.783 248.905 138.754Z" fill="#721C70"/>
<path d="M245.28 128.919C245.547 128.622 245.547 128.148 245.25 127.882L242.932 125.749C242.635 125.482 242.159 125.482 241.892 125.779C241.625 126.045 241.625 126.46 241.862 126.756C241.892 126.786 241.892 126.815 241.922 126.815L244.24 128.948C244.537 129.244 244.982 129.215 245.28 128.919Z" fill="#721C70"/>
<path d="M245.22 122.757C244.893 122.994 244.834 123.468 245.072 123.794L246.974 126.312L247.003 126.341C247.241 126.638 247.687 126.697 248.014 126.46C248.341 126.223 248.4 125.749 248.162 125.423L246.26 122.905C245.993 122.579 245.547 122.49 245.22 122.757Z" fill="#721C70"/>
<path d="M248.578 121.543L249.945 124.386C249.975 124.446 250.005 124.505 250.034 124.535C250.242 124.801 250.599 124.89 250.926 124.712C251.282 124.535 251.461 124.09 251.282 123.735L249.916 120.891C249.737 120.535 249.291 120.358 248.935 120.535C248.549 120.743 248.4 121.187 248.578 121.543Z" fill="#721C70"/>
<path d="M253.481 122.935C253.511 123.053 253.571 123.142 253.63 123.201C253.808 123.409 254.105 123.527 254.403 123.438C254.789 123.32 255.027 122.935 254.938 122.52L254.106 119.469C253.987 119.084 253.6 118.847 253.214 118.936C252.828 119.054 252.59 119.439 252.679 119.854L253.481 122.935Z" fill="#721C70"/>
<path d="M257.493 122.55C257.642 122.728 257.88 122.846 258.117 122.816C258.533 122.787 258.83 122.431 258.801 122.017L258.533 118.847C258.504 118.432 258.147 118.136 257.731 118.166C257.315 118.195 257.018 118.551 257.047 118.965L257.315 122.105C257.315 122.283 257.374 122.431 257.493 122.55Z" fill="#721C70"/>
<path d="M261.832 122.816C262.248 122.846 262.604 122.55 262.634 122.135L262.902 118.995C262.931 118.58 262.634 118.225 262.218 118.195C261.802 118.166 261.446 118.462 261.416 118.877L261.148 122.017C261.119 122.224 261.208 122.402 261.327 122.55C261.446 122.698 261.624 122.787 261.832 122.816Z" fill="#721C70"/>
<path d="M163.916 26.5421C171.269 26.5421 177.229 20.6004 177.229 13.271C177.229 5.94165 171.269 0 163.916 0C156.563 0 150.603 5.94165 150.603 13.271C150.603 20.6004 156.563 26.5421 163.916 26.5421Z" fill="#721C70"/>
<path d="M110.367 43.8122C111.407 43.8122 112.447 43.6937 113.428 43.4568C107.544 42.0941 103.176 36.8212 103.176 30.5412C103.176 24.2611 107.544 18.9883 113.428 17.6256C112.447 17.3886 111.437 17.2701 110.367 17.2701C103.027 17.2701 97.054 23.2243 97.054 30.5412C97.054 37.8877 103.027 43.8122 110.367 43.8122Z" fill="#721C70"/>
<path d="M214.107 43.4568C215.088 43.6937 216.098 43.8122 217.168 43.8122C224.508 43.8122 230.481 37.858 230.481 30.5412C230.481 23.2243 224.508 17.2701 217.168 17.2701C216.128 17.2701 215.088 17.3886 214.107 17.6256C219.991 18.9883 224.359 24.2611 224.359 30.5412C224.359 36.8212 219.991 42.0941 214.107 43.4568Z" fill="#721C70"/>
<path d="M134.437 32.3186C136.577 32.3186 138.598 31.815 140.381 30.9263C136.012 28.7342 133.011 24.2612 133.011 19.0475C133.011 13.8635 136.012 9.36086 140.381 7.16876C138.598 6.28008 136.577 5.77649 134.437 5.77649C127.097 5.77649 121.124 11.7307 121.124 19.0475C121.124 26.3644 127.097 32.3186 134.437 32.3186Z" fill="#721C70"/>
<path d="M186.619 32.8222C188.402 33.7109 190.423 34.2144 192.563 34.2144C199.903 34.2144 205.876 28.2603 205.876 20.9434C205.876 13.6266 199.903 7.67236 192.563 7.67236C190.423 7.67236 188.402 8.17595 186.619 9.06464C190.988 11.2567 193.989 15.7298 193.989 20.9434C193.989 26.157 190.988 30.6597 186.619 32.8222Z" fill="#721C70"/>
<path d="M195.861 212.692C194.791 212.692 193.9 213.581 193.9 214.647C193.9 215.714 194.791 216.602 195.861 216.602C196.931 216.602 197.822 215.743 197.822 214.647C197.822 213.551 196.931 212.692 195.861 212.692Z" fill="#721C70"/>
<path d="M153.456 113.1C152.386 113.1 151.495 113.989 151.495 115.055C151.495 116.122 152.386 117.01 153.456 117.01C154.526 117.01 155.417 116.122 155.417 115.055C155.417 113.989 154.526 113.1 153.456 113.1Z" fill="#721C70"/>
<path d="M295.292 34.5699C296.362 34.5699 297.254 33.6812 297.254 32.6148C297.254 31.5484 296.362 30.6597 295.292 30.6597C294.223 30.6597 293.331 31.5484 293.331 32.6148C293.331 33.7108 294.193 34.5699 295.292 34.5699Z" fill="#721C70"/>
<path d="M84.4542 13.123C85.524 13.123 86.4155 12.2343 86.4155 11.1679C86.4155 10.1015 85.524 9.21277 84.4542 9.21277C83.3844 9.21277 82.4929 10.1015 82.4929 11.1679C82.4929 12.2639 83.3844 13.123 84.4542 13.123Z" fill="#721C70"/>
<path d="M152.148 51.0994C153.218 51.0994 154.11 50.2107 154.11 49.1443C154.11 48.0779 153.218 47.1892 152.148 47.1892C151.079 47.1892 150.187 48.0779 150.187 49.1443C150.187 50.2404 151.079 51.0994 152.148 51.0994Z" fill="#721C70"/>
<path d="M89.4763 209.078C88.4065 209.078 87.515 209.937 87.515 211.033C87.515 212.129 88.4065 212.988 89.4763 212.988C90.5461 212.988 91.4376 212.1 91.4376 211.033C91.4376 209.967 90.5461 209.078 89.4763 209.078Z" fill="#721C70"/>
<path d="M212.592 169.354C211.522 169.354 210.63 170.213 210.63 171.309C210.63 172.375 211.492 173.264 212.592 173.264C213.661 173.264 214.553 172.375 214.553 171.309C214.553 170.213 213.661 169.354 212.592 169.354Z" fill="#721C70"/>
<path d="M188.016 79.8929C189.086 79.8929 189.977 79.0042 189.977 77.9378C189.977 76.8714 189.086 75.9827 188.016 75.9827C186.946 75.9827 186.055 76.8714 186.055 77.9378C186.055 79.0042 186.917 79.8929 188.016 79.8929Z" fill="#721C70"/>
<path d="M44.4261 68.5177C44.4261 69.5842 45.3176 70.4728 46.3874 70.4728C47.4572 70.4728 48.3487 69.5842 48.3487 68.5177C48.3487 67.4513 47.4572 66.5626 46.3874 66.5626C45.3176 66.5922 44.4261 67.4513 44.4261 68.5177Z" fill="#721C70"/>
<path d="M171.256 90.5275C171.256 89.1056 170.097 87.9503 168.671 87.9503C167.244 87.9503 166.085 89.1056 166.085 90.5275C166.085 91.9494 167.244 93.1047 168.671 93.1047C170.127 93.1047 171.256 91.9494 171.256 90.5275Z" fill="#721C70"/>
<path d="M187.273 121.898C188.7 121.898 189.858 120.743 189.858 119.321C189.858 117.899 188.7 116.744 187.273 116.744C185.847 116.744 184.688 117.899 184.688 119.321C184.688 120.743 185.876 121.898 187.273 121.898Z" fill="#721C70"/>
<path d="M145.997 164.585C144.571 164.585 143.412 165.74 143.412 167.162C143.412 168.584 144.571 169.739 145.997 169.739C147.423 169.739 148.582 168.584 148.582 167.162C148.582 165.74 147.423 164.585 145.997 164.585Z" fill="#721C70"/>
<path d="M291.875 88.2466C293.302 88.2466 294.46 87.0913 294.46 85.6694C294.46 84.2475 293.302 83.0922 291.875 83.0922C290.449 83.0922 289.29 84.2475 289.29 85.6694C289.29 87.0913 290.449 88.2466 291.875 88.2466Z" fill="#721C70"/>
<path d="M249.054 31.6372C250.48 31.6372 251.639 30.4819 251.639 29.06C251.639 27.6381 250.48 26.4828 249.054 26.4828C247.627 26.4828 246.468 27.6381 246.468 29.06C246.468 30.4819 247.627 31.6372 249.054 31.6372Z" fill="#721C70"/>
<path d="M2.58533 135.376C4.01317 135.376 5.17067 134.223 5.17067 132.799C5.17067 131.376 4.01317 130.222 2.58533 130.222C1.15749 130.222 0 131.376 0 132.799C0 134.223 1.15749 135.376 2.58533 135.376Z" fill="#721C70"/>
<path d="M44.9907 33.7404C46.4171 33.7404 47.5761 32.5852 47.5761 31.1633C47.5761 29.7414 46.4171 28.5861 44.9907 28.5861C43.5643 28.5861 42.4054 29.7414 42.4054 31.1633C42.4351 32.5852 43.5643 33.7404 44.9907 33.7404Z" fill="#721C70"/>
<path d="M121.511 118.343C121.511 119.765 122.67 120.92 124.096 120.92C125.522 120.92 126.681 119.765 126.681 118.343C126.681 116.921 125.522 115.766 124.096 115.766C122.67 115.766 121.511 116.921 121.511 118.343Z" fill="#721C70"/>
<path d="M141.896 198.532C140.47 198.532 139.311 199.688 139.311 201.11C139.311 202.531 140.47 203.687 141.896 203.687C143.322 203.687 144.481 202.531 144.481 201.11C144.481 199.688 143.322 198.532 141.896 198.532Z" fill="#721C70"/>
<path d="M151.643 86.6173C151.792 85.6694 152.089 84.1586 152.683 83.5365C153.367 82.8552 154.555 82.5293 155.298 82.3516C155.417 82.322 155.417 82.1442 155.298 82.1146C154.615 81.9369 153.515 81.6407 152.921 81.0778C152.208 80.4261 151.851 78.4414 151.643 77.3453C151.613 77.1972 151.435 77.1972 151.405 77.3453C151.227 78.471 150.871 80.5446 150.068 81.2259C149.504 81.7295 148.523 81.9665 147.869 82.1146C147.75 82.1442 147.75 82.322 147.869 82.3516C148.582 82.5293 149.682 82.8552 150.306 83.5069C150.9 84.129 151.227 85.6397 151.376 86.5877C151.435 86.7358 151.643 86.7358 151.643 86.6173Z" fill="#721C70"/>
<path d="M194.286 49.5295C193.573 48.8778 193.216 46.893 193.008 45.797C192.979 45.6489 192.8 45.6489 192.771 45.797C192.592 46.9227 192.236 48.9963 191.433 49.6776C190.869 50.1812 189.888 50.4182 189.234 50.5663C189.116 50.5959 189.116 50.7736 189.234 50.8033C189.948 50.981 191.047 51.3069 191.671 51.9586C192.266 52.5806 192.592 54.0914 192.741 55.0393C192.771 55.1874 192.949 55.1874 192.979 55.0393C193.127 54.0914 193.424 52.5806 194.019 51.9586C194.702 51.2772 195.891 50.9514 196.634 50.7736C196.753 50.744 196.753 50.5663 196.634 50.5367C195.98 50.3885 194.881 50.0627 194.286 49.5295Z" fill="#721C70"/>
<path d="M265.665 39.3391C266.378 39.5168 267.478 39.8427 268.102 40.4944C268.696 41.1165 269.023 42.6272 269.172 43.5752C269.201 43.7233 269.38 43.7233 269.409 43.5752C269.558 42.6272 269.855 41.1165 270.45 40.4944C271.133 39.8131 272.322 39.4872 273.065 39.3095C273.183 39.2799 273.183 39.1021 273.065 39.0725C272.381 38.8948 271.282 38.5985 270.687 38.0357C269.974 37.384 269.617 35.3993 269.409 34.3032C269.38 34.1551 269.201 34.1551 269.172 34.3032C268.993 35.4289 268.637 37.5025 267.834 38.1838C267.27 38.6874 266.289 38.9244 265.635 39.0725C265.546 39.1318 265.546 39.3095 265.665 39.3391Z" fill="#721C70"/>
<path d="M29.2707 105.191C29.9839 105.369 31.0834 105.694 31.7074 106.346C32.3018 106.968 32.6287 108.479 32.7772 109.427C32.807 109.575 32.9852 109.575 33.015 109.427C33.1635 108.479 33.4607 106.968 34.055 106.346C34.7385 105.665 35.9272 105.339 36.6701 105.161C36.789 105.132 36.789 104.954 36.6701 104.924C35.9866 104.746 34.8871 104.45 34.2928 103.887C33.5796 103.236 33.223 101.251 33.015 100.155C32.9852 100.007 32.807 100.007 32.7772 100.155C32.5989 101.281 32.2423 103.354 31.44 104.035C30.8754 104.539 29.8947 104.776 29.241 104.924C29.1518 104.983 29.1518 105.161 29.2707 105.191Z" fill="#721C70"/>
<path d="M179.131 63.6596L174.525 62.4747L176.932 58.3867L172.861 60.8158L171.672 56.2242L170.483 60.8158L166.383 58.3867L168.79 62.4747L164.213 63.6596L168.79 64.8445L166.383 68.9028L170.483 66.5034L171.672 71.0949L172.861 66.5034L176.932 68.9028L174.525 64.8445L179.131 63.6596Z" fill="#721C70"/>
<path d="M169.948 143.049L171.731 140.027L168.7 141.805L167.839 138.398L166.947 141.805L163.916 140.027L165.729 143.049L162.311 143.908L165.729 144.797L163.916 147.818L166.947 146.041L167.839 149.418L168.7 146.041L171.731 147.818L169.948 144.797L173.366 143.908L169.948 143.049Z" fill="#721C70"/>
<path d="M327 56.4908L323.583 55.6021L325.366 52.5806L322.334 54.358L321.473 50.981L320.581 54.358L317.55 52.5806L319.333 55.6021L315.945 56.4908L319.333 57.3499L317.55 60.3714L320.581 58.594L321.473 62.0007L322.334 58.594L325.366 60.3714L323.583 57.3499L327 56.4908Z" fill="#721C70"/>
<path d="M308.605 121.72L310.418 118.699L307.387 120.476L306.496 117.099L305.634 120.476L302.603 118.699L304.386 121.72L300.968 122.609L304.386 123.468L302.603 126.49L305.634 124.712L306.496 128.119L307.387 124.712L310.418 126.49L308.605 123.468L312.023 122.609L308.605 121.72Z" fill="#721C70"/>
<path d="M77.0548 42.0348L75.2718 45.0563L78.3029 43.279L79.1646 46.6856L80.0561 43.279L83.0872 45.0563L81.3042 42.0348L84.6919 41.1757L81.3042 40.2871L83.0872 37.2655L80.0561 39.0725L79.1646 35.6659L78.3029 39.0725L75.2718 37.2655L77.0548 40.2871L73.6374 41.1757L77.0548 42.0348Z" fill="#721C70"/>
<path d="M18.127 57.735L16.3441 60.7565L19.3751 58.9791L20.2369 62.3561L21.1284 58.9791L24.1595 60.7565L22.3468 57.735L25.7642 56.8463L22.3468 55.9872L24.1595 52.9657L21.1284 54.7431L20.2369 51.3364L19.3751 54.7431L16.3441 52.9657L18.127 55.9872L14.7097 56.8463L18.127 57.735Z" fill="#721C70"/>
<path d="M138.419 56.0169L141.807 55.1578L138.419 54.2691L140.202 51.2476L137.171 53.0546L136.28 49.6479L135.418 53.0546L132.387 51.2476L134.17 54.2691L130.752 55.1578L134.17 56.0169L132.387 59.0384L135.418 57.261L136.28 60.6677L137.171 57.261L140.202 59.0384L138.419 56.0169Z" fill="#721C70"/>
<path d="M115.448 179.811L117.231 176.789L114.2 178.567L113.339 175.19L112.447 178.567L109.416 176.789L111.229 179.811L107.811 180.699L111.229 181.558L109.416 184.58L112.447 182.803L113.339 186.209L114.2 182.803L117.231 184.58L115.448 181.558L118.866 180.699L115.448 179.811Z" fill="#721C70"/>
<path d="M235.77 199.303L237.583 196.281L234.552 198.058L233.661 194.652L232.769 198.058L229.768 196.281L231.551 199.303L228.133 200.162L231.551 201.05L229.768 204.072L232.769 202.265L233.661 205.672L234.552 202.265L237.583 204.072L235.77 201.05L239.188 200.162L235.77 199.303Z" fill="#721C70"/>
<path d="M186.768 179.663L185.49 173.146L184.212 179.663L177.586 178.833L183.41 182.062L180.617 188.076L185.49 183.573L190.364 188.076L187.541 182.062L193.365 178.833L186.768 179.663Z" fill="#721C70"/>
<path d="M13.3724 85.4915L17.2058 83.3883L12.8672 83.9215L12.0054 79.6262L11.1734 83.9215L6.83478 83.3883L10.6682 85.4915L8.79606 89.461L12.0054 86.4691L15.2148 89.461L13.3724 85.4915Z" fill="#721C70"/>
<path d="M23.2383 145.893L22.4063 141.597L21.5742 145.893L17.2059 145.359L21.0393 147.463L19.1969 151.432L22.4063 148.44L25.6156 151.432L23.7435 147.463L27.5769 145.359L23.2383 145.893Z" fill="#721C70"/>
<path d="M318.055 79.0634L317.223 74.7681L316.391 79.0634L312.023 78.5302L315.856 80.663L314.014 84.6029L317.223 81.6406L320.433 84.6029L318.561 80.663L322.394 78.5302L318.055 79.0634Z" fill="#721C70"/>
<path d="M174.198 36.5843L173.366 32.3186L172.534 36.5843L168.165 36.0511L171.999 38.1839L170.156 42.1534L173.366 39.1615L176.575 42.1534L174.703 38.1839L178.537 36.0511L174.198 36.5843Z" fill="#721C70"/>
</g>
<defs>
<clipPath id="clip0_74_6480">
<rect width="327" height="227" fill="white"/>
</clipPath>
</defs>
</svg>
