<svg width="20" height="20" viewBox="0 0 20 20" fill="none" xmlns="http://www.w3.org/2000/svg">
<rect width="20" height="20" rx="10" fill="white"/>
<g clip-path="url(#clip0_14753_66724)">
<path d="M9.9987 16.6668C13.6806 16.6668 16.6654 13.6821 16.6654 10.0002C16.6654 6.31826 13.6806 3.3335 9.9987 3.3335C6.3168 3.3335 3.33203 6.31826 3.33203 10.0002C3.33203 13.6821 6.3168 16.6668 9.9987 16.6668Z" stroke="#3975E9" stroke-linecap="round" stroke-linejoin="round"/>
<path d="M3.33203 10H16.6654" stroke="#3975E9" stroke-linecap="round" stroke-linejoin="round"/>
<path d="M9.9987 3.3335C11.6662 5.15906 12.6139 7.52819 12.6654 10.0002C12.6139 12.4721 11.6662 14.8413 9.9987 16.6668C8.33118 14.8413 7.38353 12.4721 7.33203 10.0002C7.38353 7.52819 8.33118 5.15906 9.9987 3.3335V3.3335Z" stroke="#3975E9" stroke-linecap="round" stroke-linejoin="round"/>
</g>
<defs>
<clipPath id="clip0_14753_66724">
<rect width="16" height="16" fill="white" transform="translate(2 2)"/>
</clipPath>
</defs>
</svg>
