<svg width="24" height="24" viewBox="0 0 24 24" fill="none" xmlns="http://www.w3.org/2000/svg">
<path d="M20.7041 10.5136C21.0693 10.8435 21.1008 11.4116 20.7745 11.7823L20.5458 12.0419C20.2195 12.4129 19.7886 12.5623 19.5834 12.376C19.3778 12.1894 19.2112 12.0386 19.2112 12.0386L19.2112 20.0926C19.2112 20.5939 18.818 20.9996 18.3331 20.9996L14.9987 20.9996C14.5138 20.9996 14.1669 20.5939 14.1739 20.093V14.3777L10.1606 14.3777V20.093C10.1606 20.5942 9.76743 21 9.28254 21H6.13614C5.65125 21 5.25807 20.5942 5.25807 20.093L5.25807 11.9236L4.65483 12.4816C4.3219 12.7897 3.77922 12.7467 3.44348 12.3858L3.24111 12.1681C2.90496 11.8072 2.9225 11.2398 3.27995 10.9013L11.3517 3.25848C11.7092 2.91999 12.2946 2.91308 12.6597 3.2429L20.7041 10.5136Z" stroke="#3975E9" stroke-width="1.5" stroke-linecap="round" stroke-linejoin="round"/>
</svg>
