<svg width="24" height="24" viewBox="0 0 24 24" fill="none" xmlns="http://www.w3.org/2000/svg">
<g clip-path="url(#clip0_15355_31254)">
<path d="M0.446641 19L6.26664 5H8.12664L13.8666 19H12.1866L10.4266 14.6H3.82664L2.04664 19H0.446641ZM4.36664 13.28H9.88664L7.14664 6.44L4.36664 13.28ZM18.7409 19.18C17.6475 19.18 16.7542 18.9 16.0609 18.34C15.3809 17.78 15.0409 17.0533 15.0409 16.16C15.0409 15.2267 15.4009 14.4867 16.1209 13.94C16.8409 13.38 17.8142 13.1 19.0409 13.1C19.5742 13.1 20.0875 13.16 20.5809 13.28C21.0875 13.4 21.5542 13.5667 21.9809 13.78V12.46C21.9809 11.66 21.7542 11.06 21.3009 10.66C20.8475 10.2467 20.1875 10.04 19.3209 10.04C18.8275 10.04 18.3275 10.1133 17.8209 10.26C17.3275 10.3933 16.7809 10.6133 16.1809 10.92L15.6209 9.78C16.3409 9.43333 17.0075 9.18 17.6209 9.02C18.2342 8.86 18.8475 8.78 19.4609 8.78C20.7275 8.78 21.7009 9.08 22.3809 9.68C23.0742 10.28 23.4209 11.14 23.4209 12.26V19H21.9809V18.02C21.5275 18.4067 21.0275 18.7 20.4809 18.9C19.9475 19.0867 19.3675 19.18 18.7409 19.18ZM16.4609 16.12C16.4609 16.68 16.6942 17.14 17.1609 17.5C17.6409 17.8467 18.2542 18.02 19.0009 18.02C19.6009 18.02 20.1475 17.9267 20.6409 17.74C21.1342 17.5533 21.5809 17.26 21.9809 16.86V14.98C21.5675 14.7 21.1209 14.5 20.6409 14.38C20.1742 14.2467 19.6542 14.18 19.0809 14.18C18.2809 14.18 17.6409 14.36 17.1609 14.72C16.6942 15.0667 16.4609 15.5333 16.4609 16.12Z" fill="#9396A3"/>
</g>
<defs>
<clipPath id="clip0_15355_31254">
<rect width="24" height="24" fill="white"/>
</clipPath>
</defs>
</svg>
