<svg width="286" height="330" viewBox="0 0 286 330" fill="none" xmlns="http://www.w3.org/2000/svg">
<path d="M195.573 63.694C196.132 64.3139 196.691 64.9338 197.281 65.5227C196.225 65.5227 195.169 65.5537 194.114 65.6157C192.685 65.6777 191.288 65.7706 189.859 65.9876C191.288 66.1736 192.685 66.2976 194.114 66.3595C195.169 66.4215 196.225 66.4215 197.281 66.4525C196.691 67.0414 196.132 67.6613 195.573 68.2812C194.766 69.1801 193.989 70.0789 193.306 71.0707C194.3 70.3579 195.2 69.583 196.101 68.8081C196.722 68.2502 197.312 67.6923 197.933 67.1034C197.933 68.7771 197.964 70.4508 198.026 72.1245C198.088 74.1702 198.182 76.2158 198.399 78.2305C198.585 76.1848 198.709 74.1392 198.772 72.1245C198.834 70.4508 198.865 68.7771 198.865 67.1034C199.455 67.6923 200.076 68.2502 200.697 68.8081C201.597 69.614 202.498 70.3888 203.492 71.0707C202.777 70.0789 202.001 69.1801 201.225 68.2812C200.666 67.6613 200.107 67.0414 199.517 66.4525C200.573 66.4525 201.628 66.4215 202.684 66.3595C204.113 66.2976 205.51 66.2046 206.939 65.9876C205.51 65.8016 204.113 65.7087 202.684 65.6157C201.628 65.5537 200.573 65.5537 199.517 65.5227C200.107 64.9338 200.666 64.3139 201.225 63.694C202.032 62.7952 202.808 61.8963 203.492 60.9045C202.498 61.6174 201.597 62.3922 200.697 63.1671C200.076 63.725 199.486 64.2829 198.865 64.8718C198.865 63.1981 198.834 61.5244 198.772 59.8507C198.709 57.805 198.616 55.7594 198.399 53.7447C198.213 55.7904 198.119 57.836 198.026 59.8507C197.964 61.5244 197.933 63.1981 197.933 64.8718C197.343 64.2829 196.722 63.725 196.101 63.1671C195.2 62.3612 194.3 61.5864 193.306 60.9045C193.989 61.8963 194.766 62.7952 195.573 63.694Z" fill="#721C70"/>
<path d="M83.2536 144.745C83.5331 144.435 83.8126 144.125 84.0921 143.784C84.5889 143.195 85.0858 142.575 85.4895 141.894C84.8063 142.296 84.1852 142.792 83.5952 143.288C83.2847 143.567 82.9431 143.846 82.6636 144.125C82.6636 143.164 82.6326 142.172 82.5705 141.212C82.5084 139.879 82.4152 138.546 82.1978 137.213C82.0115 138.546 81.9183 139.879 81.8252 141.212C81.7631 142.172 81.7631 143.164 81.732 144.125C81.4215 143.846 81.111 143.567 80.8004 143.288C80.2104 142.792 79.5893 142.296 78.9062 141.894C79.3099 142.575 79.8067 143.195 80.3036 143.784C80.5831 144.094 80.8625 144.435 81.142 144.745C80.583 144.776 80.0241 144.776 79.4341 144.838C78.5025 144.9 77.6019 144.993 76.6703 145.21C77.6019 145.396 78.5025 145.52 79.4341 145.582C79.993 145.613 80.552 145.644 81.142 145.675C80.8625 145.985 80.5831 146.295 80.3036 146.636C79.8067 147.225 79.3099 147.844 78.9062 148.557C79.5893 148.154 80.2104 147.659 80.8315 147.163C81.142 146.884 81.4525 146.605 81.7631 146.326C81.7631 147.287 81.7941 148.278 81.8562 149.239C81.9183 150.572 82.0115 151.905 82.2289 153.238C82.4152 151.905 82.5394 150.572 82.6015 149.239C82.6636 148.278 82.6636 147.287 82.6947 146.326C83.0052 146.605 83.3157 146.884 83.6263 147.163C84.2163 147.659 84.8373 148.154 85.5516 148.557C85.1479 147.875 84.651 147.256 84.1542 146.636C83.8747 146.326 83.5952 145.985 83.3157 145.675C83.8747 145.644 84.4336 145.644 85.0237 145.582C85.9553 145.52 86.8558 145.427 87.7874 145.21C86.8558 145.024 85.9553 144.931 85.0237 144.838C84.3715 144.807 83.8126 144.776 83.2536 144.745Z" fill="#721C70"/>
<path d="M78.0677 61.5554L80.3967 59.3857L82.7257 61.5554L81.3904 58.6729L84.1852 57.1231L81.0178 57.5261L80.3967 54.3956L79.8067 57.5261L76.6393 57.1231L79.4341 58.6729L78.0677 61.5554Z" fill="#721C70"/>
<path d="M219.546 136.841L218.925 133.711L218.335 136.841L215.168 136.438L217.931 137.988L216.596 140.871L218.925 138.701L221.254 140.871L219.919 137.988L222.714 136.438L219.546 136.841Z" fill="#721C70"/>
<path d="M220.136 81.268L219.577 78.2925L218.987 81.268L215.975 80.896L218.646 82.3528L217.341 85.1113L219.577 83.0347L221.782 85.1113L220.509 82.3528L223.179 80.896L220.136 81.268Z" fill="#721C70"/>
<path d="M181.879 148.309L179.177 149.89L178.401 146.884L177.624 149.89L174.923 148.309L176.506 151.006L173.494 151.781L176.506 152.556L174.923 155.252L177.624 153.671L178.401 156.678L179.177 153.671L181.879 155.252L180.295 152.556L183.307 151.781L180.295 151.006L181.879 148.309Z" fill="#721C70"/>
<path d="M73.0682 123.297L69.1555 125.59L68.0376 121.22L66.9197 125.59L63.007 123.297L65.3049 127.202L60.9264 128.318L65.3049 129.434L63.007 133.339L66.9197 131.045L68.0376 135.416L69.1555 131.045L73.0682 133.339L70.7703 129.434L75.1488 128.318L70.7703 127.202L73.0682 123.297ZM73.2856 128.349L70.056 129.186L71.764 132.068L68.876 130.364L68.0376 133.587L67.1991 130.364L64.3112 132.068L66.0191 129.186L62.7896 128.349L66.0191 127.512L64.3112 124.629L67.1991 126.334L68.0376 123.111L68.876 126.334L71.764 124.629L70.056 127.512L73.2856 128.349Z" fill="#721C70"/>
<path d="M187.313 91.0313C186.04 83.8715 183.245 77.2387 179.27 71.4736C179.208 71.3497 179.146 71.2567 179.084 71.1947C170.078 58.3629 155.142 49.9324 138.249 49.9324C125.113 49.9324 113.158 55.0465 104.246 63.3531C104.152 63.415 104.059 63.508 103.966 63.601C98.035 69.211 93.5012 76.2778 90.8927 84.1815C78.223 84.8943 50.6478 87.4669 49.9957 96.2384C49.5299 102.623 63.5659 107.737 75.3972 110.899C80.0552 112.139 85.1479 113.285 90.6133 114.37C91.0169 115.641 91.4517 116.881 91.9485 118.09C91.9796 118.152 92.0107 118.214 92.0417 118.276C95.4265 126.551 101.047 133.928 108.22 139.352C116.915 145.923 127.287 149.394 138.249 149.394C155.887 149.394 172.19 139.972 181.102 125.032C181.133 125.001 181.133 124.97 181.164 124.939C181.91 123.669 182.624 122.367 183.245 121.003C188.959 120.724 194.331 120.29 199.237 119.701C211.41 118.245 226.036 115.176 226.471 108.791C227.123 99.9887 199.641 93.5108 187.313 91.0313ZM89.1848 90.8143C89.1848 90.8453 89.1848 90.8453 89.1848 90.8763C88.6569 93.7278 88.4085 96.6723 88.4085 99.7098C88.4085 99.8028 88.4085 99.8957 88.4085 99.9577C73.2856 96.1764 73.0061 93.2319 73.0371 92.8909C73.0682 92.55 73.7514 89.6365 89.7748 88.0248C89.5574 88.9546 89.3711 89.8845 89.1848 90.8143ZM90.2717 100.423C90.2717 100.175 90.2717 99.9577 90.2717 99.7098C90.2717 97.2302 90.458 94.8126 90.8306 92.426C106.823 99.9577 123.809 104.328 141.354 105.444C144.273 105.63 147.192 105.723 150.111 105.723C162.284 105.723 174.364 104.111 186.195 100.95C186.133 103.088 185.947 105.227 185.605 107.303C185.419 107.334 185.201 107.334 185.015 107.365C172.376 108.419 155.639 108.295 137.938 107.056C120.238 105.785 103.656 103.522 91.2964 100.702C90.9238 100.578 90.6133 100.485 90.2717 100.423ZM188.058 99.6788C188.058 98.0981 187.965 96.5173 187.841 94.9366C203.895 98.8419 204.175 101.879 204.144 102.22C204.113 102.561 203.43 105.475 187.499 107.056C187.872 104.669 188.058 102.189 188.058 99.6788ZM138.218 51.823C148.9 51.823 158.806 55.3254 166.787 61.2764C158.402 62.8881 149.925 62.9501 141.541 61.4934C134.616 60.2846 127.939 58.022 121.666 54.7985C126.852 52.8459 132.411 51.823 138.218 51.823ZM117.598 56.4722C117.63 56.4722 117.63 56.5032 117.661 56.5032C124.927 60.5945 132.784 63.384 140.951 64.8408C145.174 65.5847 149.397 65.9566 153.62 65.9566C159.148 65.9566 164.675 65.3367 170.141 64.0659C170.172 64.0659 170.172 64.0349 170.203 64.0349C172.656 66.2356 174.892 68.6841 176.848 71.3497C165.483 74.8211 153.279 76.0299 141.478 74.8831C129.212 73.7053 117.102 69.9239 106.295 63.9729C109.68 60.9665 113.468 58.4559 117.598 56.4722ZM104.867 65.3057C116.015 71.5666 128.591 75.503 141.292 76.7427C144.242 77.0217 147.192 77.1767 150.173 77.1767C159.582 77.1767 169.054 75.7509 177.997 72.9614C180.046 75.9989 181.754 79.2533 183.059 82.7247C169.799 87.3119 155.546 89.2956 141.603 88.4587C126.014 87.4979 110.58 83.0347 96.855 75.503C99.0908 71.7216 101.761 68.3122 104.867 65.3057ZM93.6254 82.0428C108.22 89.9775 124.617 94.7196 141.168 95.7425C143.435 95.8664 145.702 95.9594 147.969 95.9594C160.545 95.9594 173.246 93.8518 185.139 89.7605C185.76 92.736 186.133 95.8354 186.164 98.9969C171.538 102.995 156.508 104.514 141.447 103.584C123.964 102.468 107.04 98.098 91.1412 90.5354C91.4517 88.9236 91.8554 87.3119 92.3212 85.7622C92.4764 85.5762 92.6007 85.3283 92.5696 85.0803C92.5696 85.0493 92.5696 85.0183 92.5696 85.0183C92.9112 83.9955 93.2528 83.0037 93.6254 82.0428ZM138.218 147.566C125.486 147.566 113.531 142.42 104.742 133.897C112.506 137.306 120.642 139.724 129.088 141.057C134.212 141.862 139.429 142.265 144.615 142.265C150.794 142.265 156.974 141.677 163.06 140.561C155.732 145.055 147.161 147.566 138.218 147.566ZM170.078 135.447C156.943 139.011 143.031 139.786 129.678 137.678C118.903 135.974 108.624 132.471 99.0597 127.264C97.3829 124.908 95.8923 122.367 94.6502 119.67C111.015 126.737 128.188 130.332 145.702 130.332C145.95 130.332 146.167 130.332 146.416 130.332C157.129 130.27 167.812 128.845 178.245 126.086C175.916 129.589 173.184 132.719 170.078 135.447ZM179.705 123.762C168.805 126.83 157.626 128.411 146.416 128.473C128.219 128.566 110.487 124.753 93.5944 117.16C93.2838 116.385 93.0044 115.579 92.7249 114.773C105.954 117.222 121.108 119.143 136.976 120.259C147.565 121.003 157.874 121.375 167.563 121.375C172.252 121.375 176.786 121.282 181.133 121.096C180.668 122.026 180.202 122.925 179.705 123.762ZM224.608 108.729C224.328 112.604 214.764 116.044 198.989 117.904C182.313 119.887 160.328 120.073 137.069 118.4C113.81 116.726 92.0728 113.44 75.863 109.101C60.5227 105.01 51.5483 100.237 51.8278 96.3624C52.1073 92.612 62.3548 87.6839 90.2717 86.0721C84.651 86.599 80.1794 87.3739 77.012 88.3347C73.2235 89.4815 71.2982 90.9073 71.174 92.705C70.9255 96.0834 77.5399 99.3378 90.8306 102.406C103.283 105.258 119.959 107.551 137.752 108.822C147.472 109.504 156.912 109.876 165.545 109.876C172.718 109.876 179.363 109.628 185.139 109.163C198.741 108.016 205.759 105.754 205.976 102.375C206.1 100.547 204.392 98.8419 200.728 97.1682C197.654 95.7425 193.244 94.3477 187.623 93.0149C215.323 98.594 224.887 104.948 224.608 108.729Z" fill="#721C70"/>
<path d="M103.159 157.019C102.6 157.019 102.165 157.453 102.165 158.011C102.165 158.569 102.6 159.003 103.159 159.003C103.718 159.003 104.152 158.569 104.152 158.011C104.152 157.453 103.687 157.019 103.159 157.019Z" fill="#721C70"/>
<path d="M128.871 162.474C128.312 162.474 127.877 162.908 127.877 163.466C127.877 164.024 128.312 164.458 128.871 164.458C129.43 164.458 129.864 164.024 129.864 163.466C129.864 162.908 129.43 162.474 128.871 162.474Z" fill="#721C70"/>
<path d="M181.972 55.9763C182.531 55.9763 182.965 55.5424 182.965 54.9845C182.965 54.4266 182.531 53.9927 181.972 53.9927C181.413 53.9927 180.978 54.4266 180.978 54.9845C180.978 55.5424 181.413 55.9763 181.972 55.9763Z" fill="#721C70"/>
<path d="M204.858 82.1978C204.858 82.7557 205.293 83.1897 205.852 83.1897C206.411 83.1897 206.845 82.7557 206.845 82.1978C206.845 81.6399 206.411 81.206 205.852 81.206C205.293 81.206 204.858 81.6709 204.858 82.1978Z" fill="#721C70"/>
<path d="M85.2411 68.0332C85.2411 67.4753 84.8063 67.0414 84.2474 67.0414C83.6884 67.0414 83.2537 67.4753 83.2537 68.0332C83.2537 68.5911 83.6884 69.0251 84.2474 69.0251C84.8063 69.0251 85.2411 68.5911 85.2411 68.0332Z" fill="#721C70"/>
<path d="M105.798 51.5131C106.347 51.5131 106.792 51.069 106.792 50.5213C106.792 49.9735 106.347 49.5294 105.798 49.5294C105.249 49.5294 104.805 49.9735 104.805 50.5213C104.805 51.069 105.249 51.5131 105.798 51.5131Z" fill="#721C70"/>
<path d="M63.8454 98.346C64.3942 98.346 64.8391 97.902 64.8391 97.3542C64.8391 96.8064 64.3942 96.3624 63.8454 96.3624C63.2966 96.3624 62.8517 96.8064 62.8517 97.3542C62.8517 97.902 63.2966 98.346 63.8454 98.346Z" fill="#721C70"/>
<path d="M72.6955 116.385C72.6955 115.827 72.2608 115.393 71.7018 115.393C71.1429 115.393 70.7081 115.827 70.7081 116.385C70.7081 116.943 71.1429 117.377 71.7018 117.377C72.2608 117.377 72.6955 116.943 72.6955 116.385Z" fill="#721C70"/>
<path d="M103.5 109.566C102.941 109.566 102.507 110 102.507 110.558C102.507 111.116 102.941 111.55 103.5 111.55C104.059 111.55 104.494 111.116 104.494 110.558C104.494 110 104.059 109.566 103.5 109.566Z" fill="#721C70"/>
<path d="M132.659 124.474C133.208 124.474 133.653 124.03 133.653 123.483C133.653 122.935 133.208 122.491 132.659 122.491C132.11 122.491 131.666 122.935 131.666 123.483C131.666 124.03 132.11 124.474 132.659 124.474Z" fill="#721C70"/>
<path d="M142.037 118.307C142.586 118.307 143.031 117.863 143.031 117.315C143.031 116.767 142.586 116.323 142.037 116.323C141.489 116.323 141.044 116.767 141.044 117.315C141.044 117.863 141.489 118.307 142.037 118.307Z" fill="#721C70"/>
<path d="M152.627 118.121C153.175 118.121 153.62 117.677 153.62 117.129C153.62 116.581 153.175 116.137 152.627 116.137C152.078 116.137 151.633 116.581 151.633 117.129C151.633 117.677 152.078 118.121 152.627 118.121Z" fill="#721C70"/>
<path d="M187.437 126.334C187.986 126.334 188.431 125.89 188.431 125.342C188.431 124.795 187.986 124.351 187.437 124.351C186.888 124.351 186.443 124.795 186.443 125.342C186.443 125.89 186.888 126.334 187.437 126.334Z" fill="#721C70"/>
<path d="M201.908 117.036C202.457 117.036 202.902 116.592 202.902 116.044C202.902 115.496 202.457 115.052 201.908 115.052C201.359 115.052 200.914 115.496 200.914 116.044C200.914 116.592 201.359 117.036 201.908 117.036Z" fill="#721C70"/>
<path d="M230.228 114.587C229.669 114.587 229.235 115.021 229.235 115.579C229.235 116.137 229.669 116.571 230.228 116.571C230.787 116.571 231.222 116.137 231.222 115.579C231.222 115.021 230.787 114.587 230.228 114.587Z" fill="#721C70"/>
<path d="M227.558 97.7881C226.999 97.7881 226.564 98.222 226.564 98.7799C226.564 99.3378 226.999 99.7717 227.558 99.7717C228.117 99.7717 228.552 99.3378 228.552 98.7799C228.552 98.222 228.086 97.7881 227.558 97.7881Z" fill="#721C70"/>
<path d="M192.685 88.1488C192.685 88.7067 193.12 89.1406 193.679 89.1406C194.238 89.1406 194.673 88.7067 194.673 88.1488C194.673 87.5909 194.238 87.157 193.679 87.157C193.12 87.157 192.685 87.5909 192.685 88.1488Z" fill="#721C70"/>
<path d="M62.9759 80.7101C63.5348 80.7101 63.9696 80.2761 63.9696 79.7182C63.9696 79.1603 63.5348 78.7264 62.9759 78.7264C62.4169 78.7264 61.9822 79.1603 61.9822 79.7182C61.9822 80.2761 62.448 80.7101 62.9759 80.7101Z" fill="#721C70"/>
<path d="M50.9893 106.777C50.0888 106.777 49.3746 107.489 49.3746 108.388C49.3746 109.287 50.0888 110 50.9893 110C51.8899 110 52.6041 109.287 52.6041 108.388C52.6041 107.489 51.8899 106.777 50.9893 106.777Z" fill="#721C70"/>
<path d="M76.7635 104.514C75.863 104.514 75.1487 105.227 75.1487 106.126C75.1487 107.025 75.863 107.737 76.7635 107.737C77.6641 107.737 78.3783 107.025 78.3783 106.126C78.3783 105.227 77.6641 104.514 76.7635 104.514Z" fill="#721C70"/>
<path d="M83.7194 119.546C84.62 119.546 85.3342 118.833 85.3342 117.935C85.3342 117.036 84.62 116.323 83.7194 116.323C82.8189 116.323 82.1047 117.036 82.1047 117.935C82.1047 118.802 82.8189 119.546 83.7194 119.546Z" fill="#721C70"/>
<path d="M118.716 121.84C117.816 121.84 117.102 122.553 117.102 123.452C117.102 124.351 117.816 125.063 118.716 125.063C119.617 125.063 120.331 124.351 120.331 123.452C120.331 122.553 119.617 121.84 118.716 121.84Z" fill="#721C70"/>
<path d="M122.94 108.822C122.039 108.822 121.325 109.535 121.325 110.434C121.325 111.333 122.039 112.046 122.94 112.046C123.84 112.046 124.554 111.333 124.554 110.434C124.554 109.535 123.84 108.822 122.94 108.822Z" fill="#721C70"/>
<path d="M169.271 114.122C168.37 114.122 167.656 114.835 167.656 115.734C167.656 116.633 168.37 117.346 169.271 117.346C170.172 117.346 170.886 116.633 170.886 115.734C170.917 114.835 170.172 114.122 169.271 114.122Z" fill="#721C70"/>
<path d="M159.489 124.412C158.589 124.412 157.875 125.125 157.875 126.024C157.875 126.923 158.589 127.636 159.489 127.636C160.39 127.636 161.104 126.923 161.104 126.024C161.135 125.125 160.39 124.412 159.489 124.412Z" fill="#721C70"/>
<path d="M205.137 124.846C204.237 124.846 203.523 125.559 203.523 126.458C203.523 127.357 204.237 128.07 205.137 128.07C206.038 128.07 206.752 127.357 206.752 126.458C206.752 125.59 206.007 124.846 205.137 124.846Z" fill="#721C70"/>
<path d="M214.516 103.739C213.615 103.739 212.901 104.452 212.901 105.351C212.901 106.25 213.615 106.963 214.516 106.963C215.416 106.963 216.13 106.25 216.13 105.351C216.161 104.452 215.416 103.739 214.516 103.739Z" fill="#721C70"/>
<path d="M223.583 117.377C222.682 117.377 221.968 118.09 221.968 118.988C221.968 119.887 222.682 120.6 223.583 120.6C224.484 120.6 225.198 119.887 225.198 118.988C225.198 118.09 224.484 117.377 223.583 117.377Z" fill="#721C70"/>
<path d="M188.12 110.837C187.22 110.837 186.506 111.55 186.506 112.449C186.506 113.347 187.22 114.06 188.12 114.06C189.021 114.06 189.735 113.347 189.735 112.449C189.766 111.581 189.021 110.837 188.12 110.837Z" fill="#721C70"/>
<path d="M196.971 102.189C197.519 102.189 197.964 101.745 197.964 101.198C197.964 100.65 197.519 100.206 196.971 100.206C196.422 100.206 195.977 100.65 195.977 101.198C195.977 101.745 196.422 102.189 196.971 102.189Z" fill="#721C70"/>
<path d="M210.851 94.0378C211.4 94.0378 211.845 93.5937 211.845 93.0459C211.845 92.4982 211.4 92.0541 210.851 92.0541C210.302 92.0541 209.858 92.4982 209.858 93.0459C209.858 93.5937 210.302 94.0378 210.851 94.0378Z" fill="#721C70"/>
<path d="M82.6016 77.5176C82.6016 78.0755 83.0363 78.5094 83.5953 78.5094C84.1542 78.5094 84.589 78.0755 84.589 77.5176C84.589 76.9597 84.1542 76.5258 83.5953 76.5258C83.0363 76.5258 82.6016 76.9907 82.6016 77.5176Z" fill="#721C70"/>
<path d="M119.865 151.626C119.306 151.626 118.872 152.06 118.872 152.618C118.872 153.176 119.306 153.609 119.865 153.609C120.424 153.609 120.859 153.176 120.859 152.618C120.859 152.06 120.424 151.626 119.865 151.626Z" fill="#721C70"/>
<path d="M191.816 138.236C190.915 138.236 190.201 138.949 190.201 139.848C190.201 140.747 190.915 141.46 191.816 141.46C192.716 141.46 193.43 140.747 193.43 139.848C193.43 138.98 192.685 138.236 191.816 138.236Z" fill="#721C70"/>
<path d="M123.685 45.9651C123.685 46.8639 124.399 47.5768 125.3 47.5768C126.2 47.5768 126.914 46.8639 126.914 45.9651C126.914 45.0662 126.2 44.3533 125.3 44.3533C124.43 44.3533 123.685 45.0662 123.685 45.9651Z" fill="#721C70"/>
<path d="M182.158 66.7935C182.158 67.6923 182.872 68.4052 183.773 68.4052C184.673 68.4052 185.388 67.6923 185.388 66.7935C185.388 65.8946 184.673 65.1818 183.773 65.1818C182.872 65.1508 182.158 65.8946 182.158 66.7935Z" fill="#721C70"/>
<path d="M150.018 44.5703C150.577 44.5703 151.012 44.1364 151.012 43.5785C151.012 43.0206 150.577 42.5866 150.018 42.5866C149.459 42.5866 149.024 43.0206 149.024 43.5785C149.024 44.1364 149.49 44.5703 150.018 44.5703Z" fill="#721C70"/>
<path d="M149.148 47.3288C149.697 47.3288 150.142 46.8848 150.142 46.337C150.142 45.7892 149.697 45.3452 149.148 45.3452C148.6 45.3452 148.155 45.7892 148.155 46.337C148.155 46.8848 148.6 47.3288 149.148 47.3288Z" fill="#721C70"/>
<path d="M99.4013 57.96C99.9602 57.96 100.395 57.5261 100.395 56.9681C100.395 56.4102 99.9602 55.9763 99.4013 55.9763C98.8423 55.9763 98.4076 56.4102 98.4076 56.9681C98.4076 57.5261 98.8734 57.96 99.4013 57.96Z" fill="#721C70"/>
<path d="M170.296 55.5424C170.855 55.5424 171.289 55.1085 171.289 54.5506C171.289 53.9927 170.855 53.5587 170.296 53.5587C169.737 53.5587 169.302 53.9927 169.302 54.5506C169.302 55.1085 169.768 55.5424 170.296 55.5424Z" fill="#721C70"/>
<path d="M154.645 158.042C154.21 157.329 153.993 155.283 153.9 154.105C153.9 153.95 153.775 153.95 153.744 154.105C153.651 155.314 153.434 157.484 152.937 158.228C152.595 158.755 152.005 159.003 151.633 159.157C151.571 159.188 151.571 159.374 151.633 159.405C152.068 159.591 152.72 159.932 153.092 160.614C153.465 161.265 153.651 162.877 153.744 163.9C153.744 164.055 153.869 164.055 153.9 163.9C153.993 162.908 154.148 161.296 154.521 160.645C154.924 159.901 155.639 159.56 156.073 159.405C156.135 159.374 156.135 159.188 156.073 159.157C155.67 158.941 155.018 158.631 154.645 158.042Z" fill="#721C70"/>
<path d="M204.051 221.147C204.33 220.713 204.206 220.124 203.771 219.876C203.336 219.597 202.746 219.721 202.498 220.155C200.417 223.44 196.784 225.486 193.275 227.439L193.213 227.47C189.269 229.67 185.574 231.995 183.462 235.683C183.214 236.117 183.369 236.706 183.804 236.954C183.959 237.047 184.114 237.078 184.27 237.078C184.58 237.078 184.922 236.892 185.077 236.613C186.94 233.328 190.418 231.158 194.114 229.081L194.176 229.05C197.871 226.974 201.722 224.835 204.051 221.147Z" fill="#721C70"/>
<path d="M204.858 224.525C204.703 224.029 204.175 223.781 203.678 223.936C200.635 224.959 198.399 227.284 196.411 229.36C195.79 230.011 195.138 230.693 194.579 231.468C194.269 231.902 194.393 232.46 194.797 232.77C194.952 232.894 195.138 232.956 195.325 232.956C195.604 232.956 195.915 232.832 196.07 232.553C196.536 231.871 197.157 231.251 197.716 230.662C199.548 228.74 201.628 226.602 204.237 225.734C204.765 225.548 205.044 225.021 204.858 224.525Z" fill="#721C70"/>
<path d="M114.493 243.432C109.028 241.665 103.904 239.093 99.246 235.745C98.8423 235.435 98.2523 235.528 97.9418 235.962C97.6312 236.365 97.7244 236.954 98.1591 237.264C102.972 240.735 108.282 243.401 113.934 245.199C114.027 245.23 114.12 245.23 114.214 245.23C114.617 245.23 114.959 244.982 115.114 244.579C115.238 244.114 114.99 243.587 114.493 243.432Z" fill="#721C70"/>
<path d="M276.436 189.873C279.634 178.064 281.342 165.759 281.342 153.145C281.342 135.726 278.175 118.771 272.088 102.995C277.46 100.206 281.125 94.5957 281.125 88.1488C281.125 78.9124 273.61 71.4117 264.356 71.4117C261.468 71.4117 258.735 72.1555 256.344 73.4573C251.655 66.7315 246.314 60.3776 240.383 54.4576C217.993 32.1105 189.393 18.2868 158.464 14.5675C157.843 6.41589 151.012 0 142.689 0C134.46 0 127.691 6.29191 126.945 14.3195C95.0849 17.574 65.5844 31.5525 42.636 54.4576C37.0154 60.0676 31.9227 66.0806 27.3889 72.4345C25.5878 71.7836 23.6625 71.4426 21.6751 71.4426C12.4213 71.4426 4.90641 78.9434 4.90641 88.1798C4.90641 93.6038 7.51487 98.439 11.5207 101.507C5.06167 117.687 1.64582 135.137 1.64582 153.145C1.64582 166.317 3.50901 179.18 6.98697 191.392C2.76374 194.429 0 199.389 0 204.968C0 214.204 7.51487 221.705 16.7687 221.705C17.7314 221.705 18.663 221.612 19.5635 221.457C37.5123 253.381 67.8202 277.898 104.96 287.878C105.115 290.73 105.27 293.798 105.457 297.146C105.954 305.917 106.544 316.858 107.196 329.07C107.227 329.566 107.63 329.938 108.127 329.938C108.158 329.938 108.158 329.938 108.189 329.938C108.717 329.907 109.09 329.473 109.059 328.946C108.438 316.703 107.817 305.793 107.32 296.991C107.009 291.35 106.73 286.391 106.512 282.206C106.388 280.13 106.233 276.627 104.68 272.288C102.32 265.655 98.3455 261.595 92.8491 255.954C85.7689 248.67 79.1857 242.905 79.1236 242.843L78.813 242.595C76.5151 240.58 74.5277 238.845 73.2234 235.776C72.5403 234.196 72.4471 233.142 72.1987 226.23C71.9192 217.985 71.7639 213.429 71.8882 209.214C71.9503 207.695 71.9813 206.734 72.0434 206.021C72.1055 204.968 72.1366 204.379 72.0745 203.201C72.975 203.635 73.9998 203.852 74.9935 203.852C75.3661 203.852 75.7388 203.821 76.1114 203.759C76.6083 203.666 76.9498 203.201 76.8567 202.674C76.7635 202.178 76.2977 201.837 75.7698 201.93C74.4966 202.147 73.1303 201.837 72.1055 201.062C72.0434 201 71.9503 200.969 71.8882 200.938C71.8882 200.876 71.8882 200.814 71.8571 200.752C71.7018 199.141 71.6087 198.242 72.0434 197.219C72.4782 196.227 73.1924 195.607 74.3724 194.801C74.4035 194.832 74.4656 194.863 74.4966 194.863C75.3972 195.173 76.1424 196.041 76.3288 197.002C76.4219 197.436 76.7946 197.746 77.2293 197.746C77.2914 197.746 77.3535 197.746 77.4156 197.715C77.9125 197.622 78.2541 197.126 78.1609 196.63C77.9125 195.39 77.1362 194.305 76.1114 193.593C80.8936 190.4 84.62 188.261 86.0795 187.425L86.39 187.239C87.1353 188.292 88.2843 189.098 89.5264 189.47C89.6195 189.501 89.6816 189.501 89.7748 189.501C90.1785 189.501 90.5511 189.222 90.6754 188.819C90.7996 188.323 90.5201 187.797 90.0232 187.673C89.2469 187.456 88.5016 186.96 88.0048 186.309C90.2717 185.007 91.5448 184.356 93.408 183.736C94.8365 183.24 96.3581 182.868 97.8176 182.651C98.7802 182.496 99.7739 182.403 100.768 182.341C101.264 182.682 101.855 182.62 102.165 182.651C104.308 182.837 106.481 182.744 108.624 182.434C109.059 182.868 109.338 183.271 109.369 183.674C109.525 185.255 106.419 187.022 104.929 187.859C101.948 189.563 98.5008 190.586 94.7433 190.896C94.4328 190.927 94.1533 191.113 93.998 191.392C93.2217 192.818 92.3212 194.181 91.2964 195.421C89.5574 197.529 87.5079 199.327 85.1789 200.783C85.1168 200.814 85.0547 200.876 84.9926 200.938C84.9926 200.938 84.9616 200.969 84.9616 201C84.9305 201.031 84.9305 201.031 84.8995 201.062C84.8684 201.093 84.8684 201.124 84.8373 201.186C84.8373 201.186 84.8373 201.217 84.8063 201.217C84.7752 201.279 84.7442 201.372 84.7442 201.434C84.7442 201.465 84.7442 201.465 84.7442 201.496C84.7442 201.558 84.7442 201.651 84.7442 201.713V201.744C85.0547 203.728 85.1479 205.773 84.9616 207.788C84.8063 209.71 84.4026 211.631 83.7815 213.46C83.6263 213.956 83.8747 214.483 84.3716 214.638C84.4647 214.669 84.5579 214.7 84.651 214.7C85.0547 214.7 85.3963 214.452 85.5205 214.049C86.1726 212.065 86.6074 210.02 86.7626 207.943C86.8869 206.486 86.8869 205.03 86.7626 203.573C87.3216 203.976 87.8806 204.41 88.4085 204.813C89.7438 205.866 91.048 206.951 92.2901 208.098C91.6691 208.625 90.8617 209.524 88.6879 212.313C85.5516 216.281 83.9989 218.264 82.2599 220.775C80.3657 223.564 78.5646 226.447 76.9188 229.391C76.6704 229.825 76.8256 230.414 77.2914 230.662C77.4467 230.755 77.602 230.786 77.7572 230.786C78.0988 230.786 78.4093 230.6 78.5646 230.321C80.1794 227.439 81.9494 224.556 83.8126 221.829C85.4895 219.349 87.0421 217.396 90.1474 213.46C92.8801 209.989 93.2838 209.648 93.8428 209.245C95.116 208.377 96.0476 208.16 98.3144 207.571C99.246 207.323 100.426 207.044 101.886 206.641C104.246 205.99 105.395 205.587 106.14 205.309C106.233 206.517 106.761 207.664 107.63 208.532C107.817 208.718 108.065 208.811 108.283 208.811C108.531 208.811 108.748 208.718 108.935 208.532C109.307 208.16 109.307 207.571 108.935 207.23C108.283 206.579 107.941 205.68 107.972 204.782C108.034 204.782 108.096 204.751 108.189 204.751C111.077 204.193 114.152 204.317 117.381 205.061C117.536 205.185 117.723 205.278 117.878 205.371C119.741 206.3 121.791 206.889 123.871 207.137L123.84 207.819C123.778 207.943 123.685 208.16 123.499 208.377C122.256 209.834 119.275 210.702 118.251 210.888C117.288 211.074 116.294 211.198 115.301 211.229C113.934 211.29 112.599 211.198 111.264 211.012C110.953 210.95 110.643 211.074 110.425 211.321C108.997 212.933 107.289 214.235 105.364 215.196C103.935 215.909 102.445 216.405 100.861 216.684C100.799 216.653 100.737 216.622 100.674 216.622C100.022 216.467 99.4324 216.064 99.0597 215.537C98.7802 215.103 98.1902 215.01 97.7555 215.289C97.3207 215.568 97.2276 216.157 97.5071 216.591C98.0039 217.303 98.6871 217.861 99.4945 218.202C98.9976 220.186 98.0971 222.077 96.8549 223.688C95.5197 225.486 93.7807 226.974 91.8243 228.059C91.3585 228.307 91.2033 228.864 91.4517 229.329C91.6069 229.639 91.9485 229.825 92.2591 229.825C92.4143 229.825 92.5696 229.794 92.6938 229.701C93.2217 229.391 93.7496 229.081 94.2775 228.74C94.1533 229.484 93.9049 230.197 93.5322 230.848C92.8801 231.964 91.8554 232.832 90.6443 233.297C90.1785 233.483 89.9301 234.01 90.1164 234.505C90.2717 234.877 90.6132 235.094 90.9859 235.094C91.1101 235.094 91.2033 235.063 91.3275 235.032C92.9112 234.413 94.2465 233.266 95.116 231.84C95.4265 233.049 95.5507 234.103 95.4575 235.094C95.3023 236.768 94.4328 238.256 93.2217 238.938C92.787 239.186 92.6006 239.744 92.8491 240.208C93.0354 240.518 93.3459 240.673 93.6565 240.673C93.8117 240.673 93.967 240.642 94.1223 240.549C95.8923 239.558 97.0723 237.605 97.3207 235.28C97.476 233.731 97.2276 232.057 96.5444 230.073C97.1655 230.786 97.7865 231.499 98.4387 232.181C100.147 233.979 102.072 235.993 105.053 237.946C106.761 239.062 108.624 240.023 110.549 240.766C110.674 240.797 110.767 240.828 110.891 240.828C111.264 240.828 111.605 240.611 111.76 240.239C111.947 239.775 111.698 239.217 111.233 239.031C109.431 238.318 107.693 237.419 106.078 236.365C103.283 234.536 101.42 232.584 99.7739 230.879C98.5939 229.639 97.476 228.338 96.4202 226.974C97.1344 226.292 97.7555 225.579 98.3455 224.804C98.7181 224.339 99.0287 223.812 99.3392 223.316C101.264 223.564 103.066 224.711 104.09 226.354C104.277 226.633 104.556 226.788 104.898 226.788C105.053 226.788 105.239 226.757 105.395 226.664C105.829 226.385 105.985 225.827 105.705 225.393C104.525 223.471 102.507 222.077 100.271 221.581C100.737 220.589 101.078 219.566 101.358 218.512C102.538 218.295 103.687 217.954 104.805 217.489C107.071 219.69 109.338 221.984 111.574 224.246C122.381 235.373 123.747 238.101 124.461 239.589C126.014 242.781 126.635 245.571 127.815 251.119C129.119 257.163 129.492 261.75 129.771 265.128C129.802 265.624 129.865 266.089 129.896 266.554C130.268 270.738 130.641 272.505 132.659 282.206C133.249 285.089 133.995 288.684 134.926 293.24C136.789 302.26 138.653 311.589 140.485 320.981C140.578 321.414 140.95 321.724 141.385 321.724C141.447 321.724 141.509 321.724 141.572 321.693C142.068 321.6 142.41 321.105 142.317 320.609C140.485 311.217 138.59 301.857 136.758 292.837C136.727 292.744 136.727 292.62 136.696 292.527C138.249 292.589 139.833 292.62 141.416 292.62C152.968 292.62 164.427 291.195 175.544 288.436C175.42 296.061 175.357 303.779 175.357 311.527C175.357 312.054 175.761 312.457 176.289 312.457C176.817 312.457 177.221 312.054 177.221 311.527C177.221 297.084 177.438 282.733 177.904 268.941C178.152 261.471 178.494 254.528 180.015 245.385C181.071 239.093 182.158 232.584 184.425 226.664C188.369 216.343 196.412 207.044 207.653 199.637C207.839 200.752 208.056 201.837 208.367 202.922C208.584 203.666 208.802 204.379 209.081 205.123C208.584 206.021 208.15 206.982 207.839 207.974C207.715 208.067 207.591 208.16 207.529 208.315C205.417 212.189 202.746 215.692 199.548 218.729C196.412 221.736 192.809 224.246 188.897 226.168C188.431 226.385 188.245 226.943 188.462 227.408C188.617 227.749 188.959 227.935 189.3 227.935C189.425 227.935 189.58 227.904 189.704 227.842C193.803 225.827 197.529 223.223 200.821 220.062C203.181 217.799 205.262 215.289 207.094 212.592C207.063 215.196 207.653 217.83 208.895 220.124C209.05 220.434 209.392 220.62 209.702 220.62C209.858 220.62 210.013 220.589 210.137 220.496C210.603 220.248 210.758 219.69 210.51 219.225C208.584 215.63 208.398 211.167 209.982 207.416C210.448 208.408 210.944 209.338 211.503 210.268C211.69 210.547 212 210.733 212.311 210.733C212.466 210.733 212.652 210.702 212.777 210.609C213.211 210.33 213.367 209.772 213.087 209.338C211.783 207.199 210.789 204.875 210.106 202.457C209.454 200.194 209.112 197.839 209.081 195.483C209.423 195.607 209.764 195.731 210.106 195.824C210.199 195.855 210.261 195.855 210.323 195.855C210.727 195.855 211.131 195.576 211.224 195.142C211.348 194.646 211.038 194.15 210.541 193.995C210.044 193.872 209.547 193.686 209.081 193.438C206.411 192.043 204.982 189.005 203.864 186.557C203.554 185.906 203.398 185.503 203.274 185.162C203.057 184.635 202.933 184.294 202.529 183.705C201.784 182.62 201.069 182.156 200.262 181.598C199.703 181.226 199.051 180.792 198.182 180.017C196.225 178.281 194.797 176.607 193.989 175.027C193.741 174.562 193.492 173.973 193.461 173.198C193.461 173.012 193.461 172.826 193.461 172.671C193.524 172.702 193.586 172.764 193.679 172.795C195.418 173.756 197.374 174.252 199.362 174.283C199.517 174.283 199.641 174.283 199.796 174.283C200.293 174.593 200.79 174.872 201.287 175.151C202.529 175.864 203.492 176.36 204.206 176.7C203.585 177.196 203.057 177.816 202.684 178.56C202.436 179.025 202.622 179.583 203.088 179.831C203.212 179.893 203.367 179.924 203.523 179.924C203.864 179.924 204.175 179.738 204.361 179.428C204.734 178.715 205.355 178.095 206.1 177.723C206.411 177.94 206.721 178.188 207.001 178.467C206.473 178.963 205.79 179.304 205.044 179.366C204.516 179.397 204.144 179.862 204.206 180.358C204.237 180.854 204.641 181.195 205.137 181.195C205.169 181.195 205.2 181.195 205.231 181.195C206.349 181.102 207.404 180.606 208.243 179.862C208.429 180.11 208.646 180.358 208.864 180.637C209.795 181.815 210.944 183.302 212.745 185.348C214.236 186.991 215.106 187.859 215.696 188.416C216.41 189.098 216.658 189.346 217.186 190.214C218.273 191.981 218.615 193.345 219.174 195.607C219.36 196.32 219.546 197.126 219.795 198.025C220.602 201 221.596 203.976 222.776 206.92C222.931 207.292 223.273 207.509 223.645 207.509C223.769 207.509 223.863 207.478 223.987 207.447C224.453 207.261 224.701 206.734 224.515 206.238C223.366 203.356 222.403 200.411 221.596 197.529C221.347 196.63 221.161 195.855 220.975 195.142C220.509 193.345 220.167 191.981 219.484 190.555C219.608 188.416 219.981 186.588 220.54 185.1L220.571 185.038C220.664 184.79 220.819 184.356 220.912 183.86C221.068 183.891 221.223 183.891 221.378 183.891C222.155 183.891 222.931 183.643 223.552 183.147C223.956 182.837 224.018 182.249 223.707 181.846C223.397 181.443 222.807 181.381 222.403 181.691C221.999 182.032 221.378 182.094 220.881 181.939C220.633 181.04 220.136 180.42 219.639 179.769H219.515C219.174 179.335 218.832 178.87 218.49 178.374C218.056 177.754 217.621 177.103 217.093 176.514C215.851 175.058 214.484 172.857 213.056 169.944C213.367 169.758 213.646 169.541 213.863 169.262C214.36 168.673 214.671 167.898 214.671 167.123C214.671 166.596 214.267 166.193 213.77 166.162C213.242 166.162 212.839 166.565 212.808 167.061C212.808 167.402 212.652 167.774 212.435 168.053C212.28 168.239 212.062 168.394 211.845 168.487C210.448 167.65 209.019 166.937 207.56 166.379C206.286 165.914 205.262 165.635 204.33 165.387C202.746 164.953 201.691 164.675 200.511 163.652C199.237 162.536 198.927 161.513 198.865 161.234C198.647 160.273 198.865 159.405 199.113 158.848C199.206 158.879 199.268 158.879 199.362 158.91C201.597 159.405 203.864 159.746 206.131 159.932C206.442 159.963 206.907 159.932 207.311 159.808C210.758 160.583 213.77 161.916 216.255 163.776C218.273 165.294 220.509 167.526 223.335 170.347C224.453 171.493 224.98 172.02 225.322 172.423C225.726 172.857 225.974 173.136 226.657 173.725C227.868 174.81 228.893 175.585 229.732 176.205C231.284 177.382 231.936 177.909 232.247 178.994C232.309 179.242 232.34 179.242 232.278 180.451C232.247 180.916 232.216 181.567 232.185 182.434C232.123 184.511 232.092 185.782 232.092 186.805C232.092 187.425 232.092 187.921 232.061 188.509C231.967 191.95 231.44 195.08 230.912 198.118C230.756 199.11 230.57 200.101 230.446 201.062C229.763 205.618 229.452 210.361 229.514 215.227C228.552 216.684 227.465 218.047 226.378 219.442C222.962 223.75 220.26 227.036 218.118 229.701C212.155 237.016 210.137 239.496 208.243 244.207C206.566 248.391 206.069 251.707 205.572 255.21C202.902 273.404 206.38 294.604 209.733 309.172C209.826 309.605 210.23 309.884 210.634 309.884C210.696 309.884 210.789 309.884 210.851 309.853C211.348 309.729 211.659 309.234 211.534 308.738C209.454 299.78 207.373 288.343 206.69 276.658C231.284 263.702 250.879 244.145 263.797 220.868C265.474 221.426 267.306 221.767 269.169 221.767C278.423 221.767 285.938 214.266 285.938 205.03C286 198.335 282.087 192.57 276.436 189.873ZM272.833 219.411C270.38 218.884 268.144 217.768 266.281 216.25C265.66 215.723 265.07 215.165 264.542 214.545C262.337 212.034 260.971 208.842 260.816 205.401C260.536 198.49 265.256 192.198 272.026 190.369C272.616 190.493 273.206 190.617 273.765 190.803C274.51 191.051 275.225 191.33 275.939 191.702C280.814 194.15 284.137 199.172 284.137 204.968C284.137 211.941 279.324 217.799 272.833 219.411ZM279.23 88.1488C279.23 93.8208 276.032 98.7489 271.374 101.259C270.66 101.631 269.945 101.941 269.169 102.22C269.014 102.282 268.828 102.344 268.672 102.375C266.809 100.857 261.157 95.5565 261.499 87.2189C261.499 86.94 261.53 86.63 261.561 86.3511C261.685 85.0493 261.934 83.8405 262.275 82.7557C263.704 78.1685 266.747 75.162 268.3 73.8292C274.603 75.5649 279.23 81.3299 279.23 88.1488ZM17.6693 73.8292C18.8803 74.8521 20.9299 76.8357 22.4825 79.7802C22.9173 80.6171 23.321 81.5159 23.6315 82.5077C24.0973 83.9335 24.4078 85.4832 24.4699 87.1879C24.8115 95.5255 19.1598 100.826 17.2966 102.344C16.2408 102.034 15.2161 101.569 14.2534 101.043C13.5392 100.64 12.856 100.175 12.235 99.6478C8.88122 96.9203 6.73854 92.767 6.73854 88.1178C6.7696 81.3299 11.3965 75.5649 17.6693 73.8292ZM1.86319 204.968C1.86319 200.225 4.09902 196.01 7.57698 193.283C8.2291 192.787 8.88122 192.322 9.59544 191.95C10.9307 191.206 12.4213 190.679 13.9739 190.369C20.7435 192.198 25.4636 198.49 25.1841 205.401C24.9978 209.772 22.8241 213.77 19.4704 216.405C18.8493 216.901 18.2282 217.334 17.5451 217.706C16.2098 218.481 14.7192 219.039 13.1666 219.38C6.67644 217.799 1.86319 211.941 1.86319 204.968ZM70.3666 196.568C69.7144 198.056 69.8386 199.296 70.025 201.031C70.0871 201.682 70.1492 202.395 70.2113 203.263C70.2734 204.41 70.2423 204.906 70.1802 205.99C70.1492 206.703 70.0871 207.664 70.025 209.214C69.9008 213.491 70.056 218.078 70.3355 226.354C70.4287 228.864 70.4908 230.662 70.5839 231.995C69.5281 229.763 69.1555 227.346 68.7207 224.494C68.4723 222.913 68.2239 221.302 67.8202 219.473C67.137 216.25 66.2986 213.956 65.1807 210.795C63.628 206.393 62.7896 203.79 61.3301 199.079C61.9201 199.327 62.5722 199.544 63.1933 199.667C63.2554 199.667 63.3175 199.698 63.3796 199.698C63.8143 199.698 64.218 199.389 64.2801 198.955C64.3733 198.459 64.0317 197.963 63.5348 197.87C62.479 197.653 61.4543 197.219 60.5848 196.568C60.3985 195.638 60.3364 194.646 60.6159 193.562C60.8022 192.88 61.0506 192.477 61.4543 191.981L64.218 193.655C64.3733 193.748 64.5286 193.779 64.7149 193.779C65.0254 193.779 65.3359 193.624 65.5223 193.345C65.8017 192.911 65.6465 192.322 65.2117 192.074L62.7275 190.555C62.9448 190.307 63.1622 190.028 63.4106 189.718C64.4975 188.292 64.8701 187.549 65.4602 186.278C65.9881 185.131 66.7023 183.581 68.4102 180.668C68.9071 179.831 69.3107 179.118 69.6834 178.529C70.5839 179.304 71.7639 179.769 72.975 179.769C73.0682 179.769 73.1303 179.769 73.2234 179.769C73.7514 179.738 74.124 179.304 74.0929 178.777C74.0619 178.25 73.6271 177.878 73.1303 177.909C72.2297 177.94 71.3292 177.568 70.7081 176.917C71.0187 176.453 71.205 176.205 71.3292 176.05C71.7018 175.554 72.0745 175.089 72.4161 174.655C72.944 174.934 73.4098 175.399 73.6582 175.957C73.8135 176.298 74.155 176.514 74.5277 176.514C74.6519 176.514 74.7761 176.484 74.9003 176.453C75.3661 176.236 75.5835 175.709 75.3972 175.244C75.0556 174.407 74.4345 173.725 73.6892 173.229C74.124 172.733 74.5277 172.33 74.9003 171.958C76.5461 170.254 78.3162 168.673 80.1794 167.154C80.7383 167.123 81.2041 166.751 81.4525 166.596C83.2226 165.542 84.8684 164.303 86.359 162.908C86.98 163.497 87.4458 164.148 87.6942 164.83C89.0295 168.58 85.1789 174.438 78.3162 179.118C78.0677 179.304 77.9125 179.583 77.9125 179.893C77.9125 181.474 77.7262 182.992 77.3225 184.48C77.1051 185.224 76.7946 186.371 76.0803 187.735C75.8319 188.199 75.6145 188.571 75.3972 188.912C75.0556 189.439 74.7451 189.966 74.3724 190.772C74.0619 191.516 73.8445 192.291 73.6892 193.097C72.2608 194.088 71.0497 194.956 70.3666 196.568ZM55.1505 181.319C54.8089 180.947 54.2189 180.916 53.8463 181.288C53.2873 181.815 52.5731 182.187 51.7967 182.341C51.5173 181.877 51.2999 181.536 51.0825 181.195C50.7409 180.699 50.4925 180.296 50.1509 179.645C49.3746 178.095 48.8467 176.36 48.5983 174.5C48.5672 174.252 48.443 174.066 48.2877 173.911C48.2567 172.671 48.0083 171.462 47.6046 170.285C47.3872 169.696 47.1077 169.138 46.8593 168.58C47.294 168.425 47.7598 168.332 48.1946 168.332C48.1946 168.332 48.1946 168.332 48.2256 168.332C51.0515 168.332 53.3183 171.462 54.5294 173.136C55.6163 174.624 56.2373 175.895 56.8584 177.134C57.6037 178.653 58.3179 180.079 59.7153 181.66L59.8085 181.753C60.0569 182.032 60.5848 182.62 61.2369 183.426C61.9822 184.325 62.6964 185.286 63.3485 186.216C62.9759 186.991 62.6343 187.58 61.889 188.509C61.4232 189.098 61.0195 189.563 60.6469 189.966C59.8085 190.927 59.1874 191.609 58.8148 193.004C58.1937 195.266 58.7837 197.219 59.2495 198.676C59.5911 199.76 59.9016 200.752 60.1811 201.682C59.5911 200.969 59.1253 200.194 58.7527 199.389C58.4421 198.738 58.38 198.397 58.2248 197.808C58.1005 197.281 57.9453 196.599 57.5726 195.421C57.1068 193.995 56.7963 193.345 56.2684 192.229C55.8647 191.361 55.3058 190.183 54.4052 188.106C53.9705 187.115 53.691 186.402 53.4736 185.844C53.1631 185.069 52.9457 184.542 52.6662 183.984C53.5668 183.705 54.3742 183.24 55.0573 182.589C55.4921 182.279 55.5231 181.691 55.1505 181.319ZM232.34 201.31C232.495 200.349 232.651 199.389 232.806 198.397C233.334 195.297 233.862 192.105 233.955 188.54C233.986 187.952 233.986 187.425 233.986 186.805C233.986 185.782 233.986 184.542 234.079 182.496C234.11 181.629 234.141 181.009 234.172 180.544C234.234 179.304 234.234 179.025 234.079 178.467C233.551 176.762 232.495 175.957 230.912 174.748C230.104 174.159 229.142 173.415 227.962 172.361C227.34 171.803 227.154 171.586 226.75 171.183C226.378 170.78 225.85 170.223 224.701 169.045C221.813 166.162 219.546 163.9 217.403 162.319C216.13 161.358 214.733 160.552 213.242 159.87C213.242 159.87 213.242 159.87 213.211 159.87C211.628 158.941 210.137 157.856 208.833 156.616C206.783 154.663 205.293 153.269 205.169 151.316C205.137 150.665 205.231 150.045 205.479 149.394C205.541 149.456 205.634 149.549 205.727 149.611C206.286 150.045 206.628 150.138 208.181 150.603C210.199 151.223 210.541 151.44 212.062 151.781C212.839 151.874 213.677 151.998 214.267 151.874C215.54 152.866 216.658 153.671 217.621 154.291C217.124 155.035 216.813 155.934 216.751 156.833C216.72 157.36 217.124 157.794 217.621 157.825C217.652 157.825 217.652 157.825 217.683 157.825C218.18 157.825 218.583 157.453 218.615 156.957C218.646 156.368 218.863 155.81 219.174 155.345C219.267 155.407 219.329 155.469 219.422 155.5L219.795 155.748C220.105 155.965 220.54 156.275 221.409 157.019C221.285 157.236 221.161 157.453 221.006 157.67C220.819 157.918 220.633 158.104 220.509 158.197C220.385 158.29 220.229 158.352 220.074 158.383C219.577 158.507 219.267 159.034 219.422 159.529C219.546 159.932 219.919 160.211 220.322 160.211C220.416 160.211 220.478 160.211 220.571 160.18C220.944 160.087 221.254 159.932 221.565 159.746C221.875 159.529 222.186 159.219 222.527 158.786C222.651 158.631 222.745 158.445 222.838 158.29C223.521 158.879 223.987 159.25 224.328 159.529C224.949 160.056 225.198 160.242 225.726 160.8C225.912 160.986 226.067 161.172 226.192 161.327C226.223 161.42 226.254 161.544 226.285 161.637C226.378 161.978 226.626 162.226 226.968 162.288C226.999 162.319 227.03 162.381 227.061 162.443C227.123 162.598 227.216 162.753 227.34 162.877C227.651 163.311 228.055 163.869 228.769 164.675C229.638 165.666 230.228 166.193 230.787 166.72C231.315 167.185 231.843 167.681 232.651 168.58C232.93 168.89 233.241 169.231 233.582 169.603C233.023 170.068 232.495 170.564 231.998 171.09C231.626 171.462 231.657 172.051 232.03 172.392C232.216 172.578 232.433 172.64 232.682 172.64C232.93 172.64 233.178 172.547 233.365 172.361C233.831 171.896 234.327 171.431 234.824 170.997C235.29 171.586 235.694 172.144 236.004 172.609C236.346 173.167 236.532 173.725 236.656 174.314C235.787 174.562 234.855 174.593 233.986 174.438C233.489 174.345 232.992 174.686 232.899 175.182C232.806 175.678 233.147 176.174 233.644 176.267C234.11 176.36 234.607 176.391 235.073 176.391C235.632 176.391 236.222 176.329 236.781 176.205C236.719 177.568 236.439 179.304 236.035 181.753C235.911 182.527 235.756 183.364 235.632 184.263C235.011 188.199 234.141 193.624 233.644 199.389C233.427 201.992 233.365 203.511 233.334 204.596C233.303 205.959 233.272 206.61 232.961 207.943C232.62 209.4 232.154 210.702 231.595 211.879C231.533 208.253 231.843 204.72 232.34 201.31ZM228.489 146.233C228.924 147.689 229.607 148.278 230.725 150.231C230.974 150.665 231.222 151.099 231.657 151.378C231.75 151.44 231.843 151.471 231.967 151.533C232.806 153.238 233.52 154.911 234.11 156.492C234.234 156.864 234.452 157.453 234.638 158.104C235.135 159.746 235.383 161.017 235.507 161.73C235.849 163.497 236.004 164.458 236.097 165.263C236.191 165.976 236.315 166.627 236.501 167.557C236.874 169.293 237.246 170.471 237.526 171.307C237.65 171.648 237.743 171.958 237.836 172.268C237.836 172.299 237.836 172.33 237.868 172.361C237.743 172.144 237.65 171.896 237.495 171.648C236.656 170.254 235.104 168.549 233.986 167.278C233.147 166.317 232.557 165.821 231.998 165.294C231.471 164.799 230.943 164.334 230.197 163.466C230.415 163.466 230.632 163.466 230.818 163.435C231.315 163.373 231.688 162.908 231.626 162.381C231.564 161.854 231.098 161.513 230.57 161.575C230.228 161.606 229.887 161.637 229.545 161.575C229.204 161.544 228.893 161.451 228.552 161.327C228.365 161.048 228.148 160.738 227.868 160.397C227.185 157.515 226.782 154.694 226.688 152.029C226.626 150.262 226.75 148.991 227.434 147.658C227.744 147.163 228.086 146.667 228.489 146.233ZM206.628 274.055C206.38 267.763 206.566 261.44 207.466 255.427C207.963 252.017 208.429 248.825 210.013 244.827C211.783 240.394 213.77 237.977 219.608 230.817C221.782 228.152 224.484 224.835 227.899 220.527C229.048 219.07 230.228 217.613 231.284 215.971L231.315 215.94C232.713 213.77 233.955 211.352 234.669 208.346C235.042 206.827 235.073 206.052 235.104 204.627C235.135 203.542 235.197 202.085 235.414 199.513C235.911 193.841 236.75 188.447 237.402 184.542C237.433 184.325 237.464 184.139 237.495 183.922C239.886 179.211 240.631 175.089 239.7 171.741C239.607 171.431 239.513 171.09 239.389 170.688C239.11 169.82 238.768 168.766 238.426 167.123C238.24 166.255 238.147 165.666 238.054 164.954C237.93 164.148 237.774 163.125 237.433 161.327C237.215 160.242 236.967 159.034 236.501 157.515C236.284 156.833 236.066 156.213 235.942 155.81C235.321 154.043 234.483 152.153 233.52 150.262C233.458 150.169 233.396 150.076 233.334 150.014C233.303 149.797 233.272 149.58 233.241 149.301C233.178 148.929 232.899 147.504 231.812 145.551C231.812 145.551 230.85 143.846 229.949 143.629C229.825 143.598 229.669 143.598 229.669 143.598C229.266 143.598 228.862 143.753 228.614 144.001C228.396 144.001 228.148 144.063 227.962 144.218C227.092 144.962 226.378 145.861 225.881 146.822C224.887 148.712 224.856 150.479 224.918 152.122C224.98 154.043 225.198 155.996 225.539 158.042C225.011 157.608 224.328 157.019 223.086 155.934C221.906 154.88 221.285 154.446 220.881 154.198L220.509 153.95C220.136 153.702 219.826 153.485 219.639 153.361C219.608 153.331 219.546 153.3 219.515 153.3L219.484 153.269C218.304 152.525 216.751 151.409 214.826 149.921C214.64 149.797 214.453 149.735 214.236 149.735C212.777 148.557 211.131 147.566 209.516 146.698C208.74 146.295 207.901 145.892 207.001 145.892C206.317 145.892 205.572 146.171 205.137 146.698C204.889 146.76 204.672 146.884 204.547 147.101C203.678 148.495 203.274 149.921 203.367 151.347C203.554 154.043 205.448 155.81 207.622 157.887C207.653 157.918 207.653 157.918 207.684 157.918C207.435 157.856 207.156 157.825 206.907 157.763C206.224 157.391 205.386 157.112 204.796 156.926C203.461 156.492 202.032 156.244 200.635 156.027C199.983 155.903 199.268 155.81 198.647 156.027C197.995 156.244 197.436 156.864 197.56 157.515C197.56 157.608 197.592 157.67 197.623 157.732C197.033 158.972 196.846 160.335 197.126 161.606C197.281 162.288 197.778 163.621 199.362 165.015C200.883 166.348 202.281 166.72 203.926 167.154C204.796 167.402 205.79 167.65 206.97 168.115C208.398 168.642 209.764 169.324 211.1 170.161C211.131 170.192 211.131 170.192 211.162 170.223C212.777 173.539 214.329 176.081 215.758 177.723C216.223 178.25 216.627 178.839 217.031 179.428C217.372 179.924 217.745 180.451 218.118 180.916L218.211 181.04C218.708 181.66 219.049 182.094 219.174 182.682C219.329 183.426 219.049 184.077 218.925 184.48L218.894 184.542C218.49 185.596 218.18 186.774 217.993 188.076C217.714 187.766 217.435 187.487 217.062 187.115C216.472 186.557 215.665 185.751 214.205 184.139C212.435 182.156 211.317 180.699 210.417 179.552C208.957 177.661 208.056 176.514 206.131 175.523C206.007 175.461 205.883 175.399 205.696 175.306C205.013 174.965 203.895 174.407 202.343 173.539C201.815 173.229 201.287 172.919 200.759 172.609C200.666 172.485 200.573 172.392 200.479 172.299C198.772 170.657 196.536 169.603 194.176 169.262C193.43 169.169 192.406 169.2 192.064 170.006C191.94 170.285 192.002 170.626 192.095 170.966C191.816 171.741 191.691 172.547 191.754 173.353C191.816 174.469 192.188 175.306 192.499 175.926C193.865 178.622 196.318 180.761 197.126 181.474C198.088 182.311 198.834 182.806 199.424 183.209C200.169 183.705 200.635 184.015 201.194 184.821C201.473 185.255 201.566 185.441 201.753 185.906C201.877 186.247 202.063 186.681 202.405 187.394C203.554 189.842 204.951 192.818 207.591 194.615C207.497 194.77 207.435 194.956 207.435 195.142C207.435 195.979 207.497 196.816 207.56 197.653C195.573 205.34 187.033 215.165 182.841 226.075C180.512 232.15 179.394 238.752 178.339 245.168C176.817 254.404 176.475 261.409 176.227 268.972C176.041 274.613 175.885 280.316 175.761 286.081C164.644 288.901 153.154 290.358 141.603 290.358C139.864 290.358 138.125 290.327 136.417 290.265C135.734 286.917 135.144 284.159 134.678 281.865C132.69 272.257 132.318 270.521 131.945 266.43C131.914 265.996 131.852 265.5 131.821 265.035C131.541 261.626 131.138 256.946 129.833 250.778C128.591 245.075 128.001 242.223 126.324 238.814C125.269 236.644 123.281 233.452 113.096 223.006C111.015 220.868 108.904 218.76 106.823 216.715C108.655 215.754 110.301 214.483 111.698 212.964C112.972 213.119 114.276 213.181 115.58 213.119C116.667 213.088 117.754 212.933 118.778 212.747C118.965 212.716 123.188 211.879 125.113 209.617C125.61 209.028 125.828 208.377 125.828 208.315C125.859 208.253 125.859 208.16 125.859 208.098L125.89 207.292C126.014 207.292 126.169 207.261 126.293 207.23C126.48 207.168 126.666 207.013 126.697 206.796C126.728 206.548 126.573 206.3 126.387 206.114C124.896 204.503 122.94 203.914 120.828 203.697C120.238 203.635 119.617 203.604 118.996 203.573C118.965 203.542 118.934 203.542 118.872 203.542C115.052 202.519 111.388 202.333 108.003 202.984C106.978 203.17 106.512 203.356 105.798 203.604C105.053 203.883 103.997 204.255 101.575 204.937C100.116 205.34 98.9666 205.618 98.035 205.866C96.2649 206.3 95.1781 206.579 94.0602 207.137C92.6628 205.835 91.2343 204.596 89.7438 203.418C88.9985 202.829 88.2221 202.271 87.4148 201.713C89.4643 200.287 91.2654 198.614 92.8491 196.723C93.8428 195.514 94.7433 194.212 95.4886 192.849C99.3392 192.477 102.848 191.392 105.954 189.625C108.065 188.447 111.574 186.433 111.326 183.643C111.264 182.93 110.953 182.249 110.425 181.629C110.487 181.257 110.301 180.792 110.021 180.544C109.618 180.203 109.09 180.048 108.593 179.986C106.45 179.614 105.332 179.707 103.531 179.986C102.32 180.172 101.389 180.358 100.83 180.637C99.7739 180.699 98.6871 180.792 97.6623 180.947C96.1097 181.195 94.4949 181.598 92.9733 182.125C90.5822 182.93 89.0606 183.798 85.7689 185.689L85.3031 185.937C83.9057 186.743 80.552 188.664 76.1735 191.547C76.453 190.865 76.7325 190.431 77.043 189.966C77.2604 189.625 77.5088 189.222 77.8193 188.664C78.6578 187.115 78.9993 185.782 79.2167 185.007C79.6204 183.519 79.8378 181.97 79.8688 180.42C87.3837 175.151 91.2033 168.828 89.5574 164.241C89.1848 163.218 88.5327 162.257 87.6011 161.451C87.6011 161.389 87.6011 161.358 87.6011 161.296C87.57 160.769 87.0732 160.366 86.5453 160.335C86.0174 160.273 85.5205 160.49 85.0547 160.707C83.0984 161.668 82.2289 162.35 80.9246 163.652C80.0241 164.551 79.3409 165.232 79.0614 165.79C77.1362 167.34 75.3351 168.983 73.6582 170.719C72.7266 171.71 71.4224 173.043 69.9629 174.996C69.6523 175.399 68.7518 176.638 66.9196 179.769C65.6775 181.908 64.9633 183.333 64.4354 184.387C63.9075 183.705 63.3796 182.992 62.8517 182.341C62.1685 181.505 61.6096 180.916 61.3611 180.606L61.268 180.513C60.0258 179.149 59.4048 177.878 58.6906 176.422C58.0695 175.182 57.3863 173.756 56.2063 172.144C54.7779 170.192 52.1383 166.565 48.3498 166.565C47.6046 166.565 46.8903 166.72 46.1451 166.999C45.8656 166.782 45.555 166.658 45.1824 166.813C44.5924 167.061 44.4992 167.867 44.5924 168.518C44.8719 171.152 45.6793 173.725 46.9835 176.019C47.0456 176.112 47.1077 176.205 47.1698 176.298C47.4803 177.816 47.9772 179.242 48.6604 180.544C49.033 181.319 49.3435 181.784 49.6851 182.28C49.9957 182.744 50.3062 183.209 50.7409 184.015C51.2688 184.976 51.4862 185.472 51.952 186.619C52.1694 187.177 52.4799 187.921 52.9147 188.912C53.8152 191.051 54.3742 192.229 54.8089 193.128C55.3368 194.243 55.5852 194.801 56.02 196.103C56.3616 197.188 56.5168 197.808 56.641 198.335C56.7963 198.955 56.8895 199.451 57.2932 200.287C58.2248 202.271 59.6532 204.038 61.6096 205.495C62.2306 207.385 62.8517 209.214 63.6591 211.507C64.808 214.7 65.5533 216.808 66.2365 219.938C66.6091 221.705 66.8575 223.316 67.106 224.866C67.7581 229.05 68.317 232.646 71.1739 236.086C71.3913 236.334 71.5776 236.551 71.795 236.799C73.2856 240.178 75.4593 242.099 77.7883 244.145L78.0988 244.393C78.1609 244.455 84.6821 250.189 91.7001 257.411C97.0413 262.866 100.892 266.833 103.128 273.063C104.587 277.154 104.774 280.471 104.867 282.485C104.929 283.477 104.96 284.5 105.022 285.554C69.0623 275.635 39.686 251.893 22.1099 220.992C28.8484 218.822 33.7238 212.499 33.7238 205.092C33.7238 195.855 26.2089 188.354 16.955 188.354C14.1913 188.354 11.5828 189.036 9.25385 190.214C5.93116 178.374 4.16113 165.976 4.16113 153.238C4.16113 135.478 7.57698 118.493 13.7566 102.871C16.1477 104.204 18.9114 104.948 21.8304 104.948C31.0843 104.948 38.5991 97.4472 38.5991 88.2108C38.5991 81.8568 35.028 76.3398 29.8111 73.4883C51.921 42.3387 86.8558 20.8904 126.883 16.6751C127.349 24.9817 134.243 31.6145 142.689 31.6145C151.043 31.6145 157.874 25.1367 158.464 16.9541C198.057 21.8512 232.495 43.6095 254.295 74.7901C250.227 77.8585 247.587 82.6937 247.587 88.1798C247.587 97.4162 255.102 104.917 264.356 104.917C266.281 104.917 268.144 104.576 269.883 103.987C275.784 119.267 279.044 135.85 279.044 153.207C279.044 165.511 277.398 177.568 274.293 189.098C272.709 188.602 271.032 188.323 269.262 188.323C260.008 188.323 252.494 195.824 252.494 205.061C252.494 211.569 256.251 217.241 261.716 220C249.171 242.44 230.259 261.347 206.628 274.055Z" fill="#721C70"/>
<path d="M178.401 177.909C179.292 177.909 180.015 177.188 180.015 176.298C180.015 175.407 179.292 174.686 178.401 174.686C177.509 174.686 176.786 175.407 176.786 176.298C176.786 177.188 177.509 177.909 178.401 177.909Z" fill="#721C70"/>
<path d="M151.291 193.562C151.686 193.562 152.005 193.242 152.005 192.849C152.005 192.455 151.686 192.136 151.291 192.136C150.897 192.136 150.577 192.455 150.577 192.849C150.577 193.242 150.897 193.562 151.291 193.562Z" fill="#721C70"/>
<path d="M154.614 237.512C155.008 237.512 155.328 237.193 155.328 236.799C155.328 236.405 155.008 236.086 154.614 236.086C154.219 236.086 153.9 236.405 153.9 236.799C153.9 237.193 154.219 237.512 154.614 237.512Z" fill="#721C70"/>
<path d="M161.508 276.596C161.902 276.596 162.222 276.277 162.222 275.883C162.222 275.49 161.902 275.17 161.508 275.17C161.113 275.17 160.793 275.49 160.793 275.883C160.793 276.277 161.113 276.596 161.508 276.596Z" fill="#721C70"/>
<path d="M54.4673 242.347C54.871 242.347 55.1816 242.037 55.1816 241.634C55.1816 241.231 54.871 240.921 54.4673 240.921C54.0636 240.921 53.7531 241.231 53.7531 241.634C53.7531 242.037 54.0636 242.347 54.4673 242.347Z" fill="#721C70"/>
<path d="M28.2584 156.461C28.6529 156.461 28.9726 156.142 28.9726 155.748C28.9726 155.354 28.6529 155.035 28.2584 155.035C27.864 155.035 27.5442 155.354 27.5442 155.748C27.5442 156.142 27.864 156.461 28.2584 156.461Z" fill="#721C70"/>
<path d="M58.0074 62.8262C58.4111 62.8262 58.7216 62.5162 58.7216 62.1133C58.7216 61.7103 58.4111 61.4004 58.0074 61.4004C57.6037 61.4004 57.2932 61.7103 57.2932 62.1133C57.2932 62.5162 57.6347 62.8262 58.0074 62.8262Z" fill="#721C70"/>
<path d="M173.432 31.8005C173.836 31.8005 174.146 31.4906 174.146 31.0876C174.146 30.6847 173.836 30.3748 173.432 30.3748C173.028 30.3748 172.718 30.6847 172.718 31.0876C172.718 31.4906 173.028 31.8005 173.432 31.8005Z" fill="#721C70"/>
<path d="M232.495 60.9045C232.89 60.9045 233.21 60.5853 233.21 60.1916C233.21 59.7979 232.89 59.4787 232.495 59.4787C232.101 59.4787 231.781 59.7979 231.781 60.1916C231.781 60.5853 232.101 60.9045 232.495 60.9045Z" fill="#721C70"/>
<path d="M260.412 123.824C260.816 123.824 261.126 123.514 261.126 123.111C261.126 122.708 260.816 122.398 260.412 122.398C260.009 122.398 259.698 122.708 259.698 123.111C259.698 123.514 260.009 123.824 260.412 123.824Z" fill="#721C70"/>
<path d="M274.479 162.443C274.883 162.443 275.194 162.133 275.194 161.73C275.194 161.327 274.883 161.017 274.479 161.017C274.076 161.017 273.765 161.327 273.765 161.73C273.765 162.102 274.076 162.443 274.479 162.443Z" fill="#721C70"/>
<path d="M251.873 141.553C252.276 141.553 252.587 141.243 252.587 140.84C252.587 140.437 252.276 140.127 251.873 140.127C251.469 140.127 251.158 140.437 251.158 140.84C251.158 141.243 251.5 141.553 251.873 141.553Z" fill="#721C70"/>
<path d="M239.327 231.251C239.721 231.251 240.041 230.932 240.041 230.538C240.041 230.144 239.721 229.825 239.327 229.825C238.933 229.825 238.613 230.144 238.613 230.538C238.613 230.932 238.933 231.251 239.327 231.251Z" fill="#721C70"/>
<path d="M222.558 254.776C222.155 254.776 221.844 255.086 221.844 255.489C221.844 255.892 222.155 256.202 222.558 256.202C222.962 256.202 223.273 255.892 223.273 255.489C223.242 255.117 222.931 254.776 222.558 254.776Z" fill="#721C70"/>
<path d="M128.933 220.775C128.529 220.775 128.219 221.085 128.219 221.488C128.219 221.891 128.529 222.201 128.933 222.201C129.337 222.201 129.647 221.891 129.647 221.488C129.647 221.085 129.337 220.775 128.933 220.775Z" fill="#721C70"/>
<path d="M186.94 197.498C187.335 197.498 187.655 197.179 187.655 196.785C187.655 196.391 187.335 196.072 186.94 196.072C186.546 196.072 186.226 196.391 186.226 196.785C186.226 197.179 186.546 197.498 186.94 197.498Z" fill="#721C70"/>
<path d="M127.07 187.456C126.169 187.456 125.455 188.168 125.455 189.067C125.455 189.966 126.169 190.679 127.07 190.679C127.97 190.679 128.684 189.966 128.684 189.067C128.684 188.199 127.97 187.456 127.07 187.456Z" fill="#721C70"/>
<path d="M168.65 215.847C169.542 215.847 170.265 215.125 170.265 214.235C170.265 213.345 169.542 212.623 168.65 212.623C167.758 212.623 167.035 213.345 167.035 214.235C167.035 215.125 167.758 215.847 168.65 215.847Z" fill="#721C70"/>
<path d="M148.745 261.967C149.637 261.967 150.36 261.245 150.36 260.355C150.36 259.465 149.637 258.743 148.745 258.743C147.853 258.743 147.13 259.465 147.13 260.355C147.13 261.245 147.853 261.967 148.745 261.967Z" fill="#721C70"/>
<path d="M85.6137 260.944C86.5142 260.944 87.2284 260.231 87.2284 259.332C87.2284 258.433 86.5142 257.72 85.6137 257.72C84.7131 257.72 83.9989 258.433 83.9989 259.332C83.9989 260.2 84.7442 260.944 85.6137 260.944Z" fill="#721C70"/>
<path d="M46.3624 215.351C47.263 215.351 47.9772 214.638 47.9772 213.739C47.9772 212.84 47.263 212.127 46.3624 212.127C45.4619 212.127 44.7477 212.84 44.7477 213.739C44.7477 214.638 45.4619 215.351 46.3624 215.351Z" fill="#721C70"/>
<path d="M15.2782 139.321C16.1787 139.321 16.8929 138.608 16.8929 137.709C16.8929 136.81 16.1787 136.067 15.2782 136.067C14.3776 136.067 13.6634 136.779 13.6634 137.678C13.6634 138.577 14.3776 139.321 15.2782 139.321Z" fill="#721C70"/>
<path d="M54.3742 149.022C53.4736 149.022 52.7594 149.735 52.7594 150.634C52.7594 151.533 53.4736 152.246 54.3742 152.246C55.2747 152.246 55.9889 151.533 55.9889 150.634C55.9889 149.766 55.2747 149.022 54.3742 149.022Z" fill="#721C70"/>
<path d="M106.73 33.2573C107.63 33.2573 108.345 32.5444 108.345 31.6455C108.345 30.7467 107.63 30.0338 106.73 30.0338C105.829 30.0338 105.115 30.7467 105.115 31.6455C105.115 32.5444 105.829 33.2573 106.73 33.2573Z" fill="#721C70"/>
<path d="M204.113 47.0189C205.013 47.0189 205.727 46.306 205.727 45.4072C205.727 44.5083 205.013 43.7954 204.113 43.7954C203.212 43.7954 202.498 44.5083 202.498 45.4072C202.498 46.306 203.212 47.0189 204.113 47.0189Z" fill="#721C70"/>
<path d="M260.567 173.229C261.468 173.229 262.182 172.516 262.182 171.617C262.182 170.718 261.468 170.006 260.567 170.006C259.667 170.006 258.953 170.718 258.953 171.617C258.953 172.516 259.667 173.229 260.567 173.229Z" fill="#721C70"/>
<path d="M246.624 108.822C247.525 108.822 248.239 108.109 248.239 107.21C248.239 106.312 247.525 105.599 246.624 105.599C245.724 105.599 245.01 106.312 245.01 107.21C244.979 108.078 245.724 108.822 246.624 108.822Z" fill="#721C70"/>
<path d="M33.3822 175.647C32.9474 174.934 32.73 172.888 32.6369 171.71C32.6369 171.555 32.5127 171.555 32.4816 171.71C32.3885 172.919 32.1711 175.089 31.6742 175.833C31.3327 176.36 30.7426 176.607 30.37 176.762C30.3079 176.793 30.3079 176.979 30.37 177.01C30.8047 177.196 31.4569 177.537 31.8295 178.219C32.2021 178.87 32.3885 180.482 32.4816 181.505C32.4816 181.66 32.6058 181.66 32.6369 181.505C32.73 180.513 32.8853 178.901 33.258 178.25C33.6616 177.506 34.3759 177.165 34.8106 177.01C34.8727 176.979 34.8727 176.793 34.8106 176.762C34.3759 176.546 33.7238 176.236 33.3822 175.647Z" fill="#721C70"/>
<path d="M163.278 186.185C163.278 186.34 163.402 186.34 163.433 186.185C163.526 185.193 163.681 183.581 164.054 182.93C164.458 182.187 165.172 181.846 165.607 181.691C165.669 181.66 165.669 181.474 165.607 181.443C165.203 181.257 164.551 180.947 164.209 180.358C163.775 179.645 163.557 177.568 163.464 176.422C163.464 176.267 163.34 176.267 163.309 176.422C163.216 177.63 162.998 179.8 162.501 180.544C162.16 181.071 161.57 181.319 161.197 181.474C161.135 181.505 161.135 181.691 161.197 181.722C161.632 181.908 162.284 182.249 162.657 182.93C162.998 183.55 163.185 185.162 163.278 186.185Z" fill="#721C70"/>
<path d="M270.753 143.102C271.125 143.753 271.312 145.365 271.405 146.388C271.405 146.543 271.529 146.543 271.56 146.388C271.653 145.396 271.809 143.784 272.181 143.133C272.585 142.389 273.299 142.048 273.734 141.893C273.796 141.862 273.796 141.677 273.734 141.646C273.33 141.46 272.678 141.15 272.337 140.561C271.902 139.848 271.684 137.802 271.591 136.624C271.591 136.469 271.467 136.469 271.436 136.624C271.343 137.833 271.125 140.003 270.629 140.747C270.287 141.274 269.697 141.522 269.324 141.677C269.262 141.708 269.262 141.893 269.324 141.924C269.728 142.079 270.38 142.42 270.753 143.102Z" fill="#721C70"/>
<path d="M150.111 204.193L145.702 206.796L144.428 201.837L143.155 206.796L138.746 204.193L141.354 208.594L136.386 209.865L141.354 211.136L138.746 215.537L143.155 212.933L144.428 217.892L145.702 212.933L150.111 215.537L147.503 211.136L152.471 209.865L147.503 208.594L150.111 204.193ZM148.745 209.865L146.074 210.547L147.472 212.902L145.112 211.507L144.428 214.173L143.745 211.507L141.385 212.902L142.783 210.547L140.112 209.865L142.783 209.183L141.385 206.827L143.745 208.222L144.428 205.557L145.112 208.222L147.472 206.827L146.074 209.183L148.745 209.865Z" fill="#721C70"/>
<path d="M61.0195 259.022L66.4538 255.83L68.0376 261.936L69.6213 255.83L75.0556 259.022L71.8571 253.598L77.9746 252.017L71.8571 250.437L75.0556 245.013L69.6213 248.205L68.0376 242.099L66.4538 248.205L61.0195 245.013L64.218 250.437L58.1005 252.017L64.218 253.598L61.0195 259.022ZM66.2986 250.282L67.6339 251.088L68.0376 249.569L68.4412 251.088L69.7765 250.282L68.9691 251.615L70.4908 252.017L68.9691 252.42L69.7765 253.753L68.4412 252.947L68.0376 254.466L67.6339 252.947L66.2986 253.753L67.106 252.42L65.5844 252.017L67.106 251.615L66.2986 250.282Z" fill="#721C70"/>
<path d="M185.698 37.3486L183.4 41.2539L187.313 38.9603L188.431 43.3305L189.549 38.9603L193.461 41.2539L191.164 37.3486L195.542 36.2328L191.164 35.1169L193.461 31.2116L189.549 33.5052L188.431 29.135L187.313 33.5052L183.4 31.2116L185.698 35.1169L181.32 36.2328L185.698 37.3486ZM184.735 32.4824L187.623 34.1871L188.462 30.9637L189.3 34.1871L192.188 32.4824L190.48 35.3649L193.71 36.2018L190.48 37.0386L192.188 39.9211L189.3 38.2164L188.462 41.4399L187.623 38.2164L184.735 39.9211L186.443 37.0386L183.214 36.2018L186.443 35.3649L184.735 32.4824Z" fill="#721C70"/>
<path d="M236.24 234.683L230.806 237.875L229.222 231.77L227.638 237.875L222.204 234.683L225.403 240.107L219.285 241.688L225.403 243.269L222.204 248.693L227.638 245.5L229.222 251.606L230.806 245.5L236.24 248.693L233.042 243.269L239.159 241.688L233.042 240.107L236.24 234.683ZM230.961 243.424L229.626 242.618L229.222 244.136L228.818 242.618L227.483 243.424L228.291 242.091L226.769 241.688L228.291 241.285L227.483 239.952L228.818 240.758L229.222 239.239L229.626 240.758L230.961 239.952L230.154 241.285L231.675 241.688L230.154 242.091L230.961 243.424Z" fill="#721C70"/>
<path d="M137.783 182.249L140.95 179.273L144.118 182.249L142.286 178.312L146.105 176.205L141.789 176.731L140.95 172.485L140.143 176.731L135.827 176.205L139.615 178.312L137.783 182.249Z" fill="#721C70"/>
<path d="M39.9655 123.483L39.1581 127.729L34.8417 127.202L38.6302 129.279L36.798 133.215L39.9655 130.27L43.1329 133.215L41.3007 129.279L45.0892 127.202L40.8039 127.729L39.9655 123.483Z" fill="#721C70"/>
<path d="M82.8189 42.6176L85.9863 39.6421L89.1538 42.6176L87.3216 38.6813L91.1101 36.5737L86.8248 37.1006L85.9863 32.8543L85.1789 37.1006L80.8625 36.5737L84.651 38.6813L82.8189 42.6176Z" fill="#721C70"/>
<path d="M250.258 161.544L253.425 158.6L256.593 161.544L254.761 157.639L258.549 155.531L254.233 156.058L253.425 151.812L252.587 156.058L248.27 155.531L252.059 157.639L250.258 161.544Z" fill="#721C70"/>
<path d="M168.495 248.236L167.656 243.99L166.818 248.236L162.532 247.709L166.321 249.817L164.489 253.722L167.656 250.778L170.824 253.722L168.992 249.817L172.78 247.709L168.495 248.236Z" fill="#721C70"/>
<path d="M42.5739 224.06L41.7355 228.307L37.4501 227.78L41.2386 229.887L39.4065 233.793L42.5739 230.848L45.7413 233.793L43.9092 229.887L47.6977 227.78L43.3813 228.307L42.5739 224.06Z" fill="#721C70"/>
<path d="M241.221 76.0299L245.01 73.9222L240.693 74.4492L239.886 70.2029L239.048 74.4492L234.731 73.9222L238.52 76.0299L236.719 79.9352L239.886 76.9907L243.053 79.9352L241.221 76.0299Z" fill="#721C70"/>
<path d="M212.808 49.5295C213.739 49.7154 214.64 49.8394 215.571 49.9014C216.13 49.9324 216.689 49.9634 217.279 49.9944C217 50.3043 216.72 50.6143 216.441 50.9552C215.944 51.5441 215.447 52.164 215.043 52.8769C215.727 52.4739 216.348 51.978 216.969 51.4821C217.279 51.2032 217.59 50.9242 217.9 50.6453C217.9 51.6061 217.931 52.5979 217.993 53.5588C218.056 54.8915 218.149 56.2243 218.366 57.5571C218.552 56.2243 218.677 54.8915 218.739 53.5588C218.801 52.5979 218.801 51.6061 218.832 50.6453C219.142 50.9242 219.453 51.2032 219.764 51.4821C220.354 51.978 220.975 52.4739 221.689 52.8769C221.285 52.195 220.788 51.5751 220.291 50.9552C220.012 50.6453 219.732 50.3043 219.453 49.9944C220.012 49.9634 220.571 49.9634 221.161 49.9014C222.093 49.8394 222.993 49.7464 223.925 49.5295C222.993 49.3435 222.093 49.2505 221.161 49.1575C220.602 49.1265 220.043 49.0955 219.453 49.0645C219.732 48.7546 220.012 48.4446 220.291 48.1037C220.788 47.5148 221.285 46.8949 221.689 46.213C221.006 46.616 220.385 47.1119 219.795 47.6078C219.484 47.8867 219.142 48.1657 218.863 48.4446C218.863 47.4838 218.832 46.492 218.77 45.5311C218.708 44.1984 218.615 42.8656 218.397 41.5328C218.211 42.8656 218.118 44.1984 218.025 45.5311C217.962 46.492 217.962 47.4838 217.931 48.4446C217.621 48.1657 217.31 47.8867 217 47.6078C216.41 47.1119 215.789 46.616 215.106 46.213C215.509 46.8949 216.006 47.5148 216.503 48.1037C216.782 48.4137 217.062 48.7546 217.341 49.0645C216.782 49.0955 216.223 49.0955 215.633 49.1575C214.64 49.2195 213.739 49.3125 212.808 49.5295Z" fill="#721C70"/>
<path d="M114.338 31.5835C115.269 31.7695 116.17 31.8625 117.102 31.9555C117.661 31.9865 118.22 32.0175 118.81 32.0485C118.53 32.3584 118.251 32.6683 117.971 33.0093C117.474 33.5982 116.977 34.2181 116.574 34.931C117.257 34.528 117.878 34.0321 118.499 33.5362C118.81 33.2572 119.12 32.9783 119.431 32.6993C119.431 33.6602 119.462 34.652 119.524 35.6128C119.586 36.9456 119.679 38.2784 119.896 39.6111C120.083 38.2784 120.207 36.9456 120.269 35.6128C120.331 34.652 120.331 33.6602 120.362 32.6993C120.673 32.9783 120.983 33.2572 121.294 33.5362C121.884 34.0321 122.505 34.528 123.219 34.931C122.815 34.2491 122.319 33.6292 121.822 33.0093C121.542 32.6993 121.263 32.3584 120.983 32.0485C121.542 32.0175 122.101 32.0175 122.691 31.9555C123.623 31.8935 124.523 31.8005 125.455 31.5835C124.523 31.3976 123.623 31.3046 122.691 31.2116C122.132 31.1806 121.573 31.1496 120.983 31.1186C121.263 30.8087 121.542 30.4987 121.822 30.1578C122.319 29.5689 122.815 28.949 123.219 28.2671C122.536 28.67 121.915 29.1659 121.325 29.6619C121.014 29.9408 120.673 30.2198 120.393 30.4987C120.393 29.5379 120.362 28.5461 120.3 27.5852C120.238 26.2525 120.145 24.9197 119.927 23.5869C119.741 24.9197 119.648 26.2525 119.555 27.5852C119.493 28.5461 119.493 29.5379 119.462 30.4987C119.151 30.2198 118.841 29.9408 118.53 29.6619C117.94 29.1659 117.319 28.67 116.636 28.2671C117.04 28.949 117.536 29.5689 118.033 30.1578C118.313 30.4677 118.592 30.8087 118.872 31.1186C118.313 31.1496 117.754 31.1496 117.164 31.2116C116.17 31.3046 115.269 31.3976 114.338 31.5835Z" fill="#721C70"/>
<path d="M143.963 240.611C144.242 240.58 144.522 240.549 144.801 240.518C145.733 240.363 146.633 240.178 147.565 239.775C146.633 239.403 145.733 239.186 144.801 239.031C144.522 239 144.242 238.969 143.963 238.938C144.025 238.845 144.118 238.752 144.211 238.628C144.646 237.977 145.081 237.295 145.36 236.458C144.522 236.737 143.838 237.14 143.186 237.605C143.093 237.667 143.031 237.729 142.938 237.791C142.907 237.109 142.845 236.427 142.783 235.776C142.627 234.443 142.441 233.111 142.037 231.778C141.665 233.111 141.447 234.443 141.292 235.776C141.23 236.458 141.168 237.14 141.137 237.791C141.044 237.729 140.982 237.667 140.888 237.605C140.236 237.171 139.553 236.737 138.715 236.458C138.994 237.295 139.398 237.977 139.864 238.628C139.926 238.721 140.019 238.814 140.112 238.938C139.833 238.969 139.553 239 139.274 239.031C138.342 239.186 137.441 239.372 136.51 239.775C137.441 240.147 138.342 240.363 139.274 240.518C139.553 240.549 139.833 240.58 140.112 240.611C140.05 240.704 139.957 240.797 139.895 240.921C139.46 241.572 139.025 242.254 138.746 243.091C139.584 242.812 140.267 242.409 140.919 241.944C141.013 241.882 141.075 241.82 141.168 241.758C141.199 242.44 141.261 243.091 141.323 243.773C141.478 245.106 141.665 246.438 142.068 247.771C142.441 246.438 142.658 245.106 142.814 243.773C142.876 243.091 142.938 242.44 142.969 241.758C143.062 241.82 143.124 241.882 143.217 241.944C143.869 242.378 144.553 242.812 145.391 243.091C145.112 242.254 144.708 241.572 144.242 240.921C144.118 240.797 144.025 240.704 143.963 240.611Z" fill="#721C70"/>
<path d="M19.1909 167.092C18.2593 166.906 17.3587 166.813 16.4271 166.72C15.8682 166.689 15.3092 166.658 14.7192 166.627C14.9987 166.317 15.2782 166.007 15.5576 165.666C16.0545 165.077 16.5513 164.458 16.955 163.776C16.2719 164.179 15.6508 164.675 15.0608 165.17C14.7503 165.449 14.4087 165.728 14.1292 166.007C14.1292 165.046 14.0981 164.055 14.036 163.094C13.9739 161.761 13.8808 160.428 13.6634 159.096C13.4771 160.428 13.3839 161.761 13.2908 163.094C13.2287 164.055 13.2287 165.046 13.1976 166.007C12.8871 165.728 12.5765 165.449 12.266 165.17C11.676 164.675 11.0549 164.179 10.3718 163.776C10.7754 164.458 11.2723 165.077 11.7692 165.666C12.0486 165.976 12.3281 166.317 12.6076 166.627C12.0486 166.658 11.4897 166.658 10.8997 166.72C9.96806 166.782 9.06752 166.875 8.13593 167.092C9.06752 167.278 9.96806 167.402 10.8997 167.464C11.4586 167.495 12.0176 167.526 12.6076 167.557C12.3281 167.867 12.0486 168.177 11.7692 168.518C11.2723 169.107 10.7754 169.727 10.3718 170.44C11.0549 170.037 11.676 169.541 12.2971 169.045C12.6076 168.766 12.9181 168.487 13.2287 168.208C13.2287 169.169 13.2597 170.161 13.3218 171.121C13.3839 172.454 13.4771 173.787 13.6944 175.12C13.8808 173.787 14.005 172.454 14.0671 171.121C14.1292 170.161 14.1292 169.169 14.1602 168.208C14.4708 168.487 14.7813 168.766 15.0918 169.045C15.6819 169.541 16.3029 170.037 17.0171 170.44C16.6134 169.758 16.1166 169.138 15.6197 168.518C15.3403 168.208 15.0608 167.867 14.7813 167.557C15.3403 167.526 15.8992 167.526 16.4892 167.464C17.3587 167.402 18.2593 167.278 19.1909 167.092Z" fill="#721C70"/>
<path d="M250.537 191.826C249.606 191.64 248.705 191.547 247.773 191.454C247.215 191.423 246.656 191.392 246.066 191.361C246.345 191.051 246.625 190.741 246.904 190.4C247.401 189.811 247.898 189.191 248.301 188.509C247.618 188.912 246.997 189.408 246.407 189.904C246.097 190.183 245.755 190.462 245.476 190.741C245.476 189.78 245.444 188.788 245.382 187.828C245.32 186.495 245.227 185.162 245.01 183.829C244.823 185.162 244.73 186.495 244.637 187.828C244.575 188.788 244.575 189.78 244.544 190.741C244.233 190.462 243.923 190.183 243.612 189.904C243.022 189.408 242.401 188.912 241.718 188.509C242.122 189.191 242.619 189.811 243.116 190.4C243.395 190.71 243.674 191.051 243.954 191.361C243.395 191.392 242.836 191.392 242.246 191.454C241.314 191.516 240.414 191.609 239.482 191.826C240.414 192.012 241.314 192.136 242.246 192.198C242.805 192.229 243.364 192.26 243.954 192.291C243.674 192.601 243.395 192.911 243.116 193.252C242.619 193.84 242.122 194.46 241.718 195.173C242.401 194.77 243.022 194.274 243.643 193.779C243.954 193.5 244.296 193.221 244.575 192.942C244.575 193.902 244.606 194.894 244.668 195.855C244.73 197.188 244.823 198.521 245.041 199.853C245.227 198.521 245.351 197.188 245.413 195.855C245.476 194.894 245.476 193.902 245.507 192.942C245.817 193.221 246.128 193.5 246.438 193.779C247.028 194.274 247.649 194.77 248.364 195.173C247.96 194.491 247.463 193.871 246.966 193.252C246.687 192.942 246.407 192.601 246.128 192.291C246.687 192.26 247.246 192.26 247.836 192.198C248.705 192.136 249.606 192.043 250.537 191.826Z" fill="#721C70"/>
</svg>
