<svg width="22" height="19" viewBox="0 0 22 19" fill="none" xmlns="http://www.w3.org/2000/svg">
<path d="M5.22222 18H19C20.1046 18 21 17.1046 21 16V5.26667M1 12.3333V12.6C1 13.7046 1.89543 14.6 3 14.6H15.6667C16.7712 14.6 17.6667 13.7046 17.6667 12.6V12.3333M1 12.3333V3C1 1.89543 1.89543 1 3 1H15.6667C16.7712 1 17.6667 1.89543 17.6667 3V12.3333M1 12.3333L6.39796 7.32795C6.79499 6.9598 7.41292 6.97451 7.79197 7.36115L8.21489 7.79253C8.54361 8.12782 8.59478 8.64666 8.33789 9.0397L8.10656 9.39363C7.84967 9.78668 7.90083 10.3055 8.22955 10.6408L8.61926 11.0383C9.01132 11.4382 9.65534 11.4382 10.0474 11.0383L12.969 8.05827C13.3956 7.62317 14.1088 7.66746 14.4783 8.15199L17.6667 12.3333M11 4.4H11.5556" stroke="#3975E9" stroke-width="1.5" stroke-linecap="round"/>
</svg>
