<svg width="24" height="24" viewBox="0 0 24 24" fill="none" xmlns="http://www.w3.org/2000/svg">
<path d="M6.22222 21H20C21.1046 21 22 20.1046 22 19V8.26667M2 15.3333V15.6C2 16.7046 2.89543 17.6 4 17.6H16.6667C17.7712 17.6 18.6667 16.7046 18.6667 15.6V15.3333M2 15.3333V6C2 4.89543 2.89543 4 4 4H16.6667C17.7712 4 18.6667 4.89543 18.6667 6V15.3333M2 15.3333L7.39796 10.328C7.79499 9.9598 8.41292 9.97451 8.79197 10.3611L9.21489 10.7925C9.54361 11.1278 9.59478 11.6467 9.33789 12.0397L9.10656 12.3936C8.84967 12.7867 8.90083 13.3055 9.22955 13.6408L9.61926 14.0383C10.0113 14.4382 10.6553 14.4382 11.0474 14.0383L13.969 11.0583C14.3956 10.6232 15.1088 10.6675 15.4783 11.152L18.6667 15.3333M12 7.4H12.5556" stroke="#3975E9" stroke-width="1.5" stroke-linecap="round"/>
</svg>
