<svg width="24" height="24" viewBox="0 0 24 24" fill="none" xmlns="http://www.w3.org/2000/svg">
<path d="M20.9112 8.84022L8.56119 2.23022C8.28248 2.08225 7.97174 2.00488 7.65619 2.00488C7.34063 2.00488 7.02989 2.08225 6.75118 2.23022L3.10118 4.13022C2.77208 4.31057 2.49675 4.57505 2.30332 4.89664C2.10988 5.21822 2.00528 5.58539 2.00019 5.96064C1.99511 6.33589 2.08973 6.70576 2.27437 7.03247C2.45902 7.35918 2.72709 7.63102 3.05118 7.82022L15.2712 14.7502C15.568 14.9148 15.9018 15.0012 16.2412 15.0012C16.5806 15.0012 16.9144 14.9148 17.2112 14.7502L21.0012 12.5102C21.3186 12.3163 21.5794 12.0422 21.7574 11.7155C21.9354 11.3889 22.0243 11.0211 22.0151 10.6493C22.006 10.2774 21.8992 9.91443 21.7054 9.59689C21.5117 9.27935 21.2377 9.01839 20.9112 8.84022Z" stroke="#9396A3" stroke-width="1.5" stroke-linecap="round" stroke-linejoin="round"/>
<path d="M3.08896 8.84022L15.439 2.23022C15.7177 2.08225 16.0284 2.00488 16.344 2.00488C16.6595 2.00488 16.9703 2.08225 17.249 2.23022L20.899 4.13022C21.2307 4.30602 21.5098 4.56676 21.7078 4.8858C21.9057 5.20484 22.0154 5.57073 22.0256 5.94604C22.0357 6.32136 21.946 6.69265 21.7657 7.02194C21.5853 7.35123 21.3207 7.62671 20.999 7.82022L8.72896 14.7502C8.43216 14.9148 8.09835 15.0012 7.75896 15.0012C7.41957 15.0012 7.08576 14.9148 6.78896 14.7502L2.99896 12.5102C2.68154 12.3163 2.42074 12.0422 2.24276 11.7155C2.06479 11.3889 1.97589 11.0211 1.98501 10.6493C1.99413 10.2774 2.10094 9.91443 2.29472 9.59689C2.4885 9.27935 2.76241 9.01839 3.08896 8.84022Z" stroke="#9396A3" stroke-width="1.5" stroke-linecap="round" stroke-linejoin="round"/>
<path d="M12 22V13" stroke="#9396A3" stroke-width="1.5" stroke-linecap="round" stroke-linejoin="round"/>
<path d="M20 13.5V16.87C20.0004 17.2474 19.8971 17.6178 19.7013 17.9405C19.5056 18.2632 19.2249 18.5259 18.89 18.7L12.89 21.78C12.6151 21.9229 12.3098 21.9975 12 21.9975C11.6902 21.9975 11.3849 21.9229 11.11 21.78L5.11 18.7C4.77508 18.5259 4.49443 18.2632 4.29868 17.9405C4.10293 17.6178 3.99961 17.2474 4 16.87V13.5" stroke="#9396A3" stroke-width="1.5" stroke-linecap="round" stroke-linejoin="round"/>
</svg>
