<svg width="16" height="16" viewBox="0 0 16 16" fill="none" xmlns="http://www.w3.org/2000/svg">
<path d="M11.6667 9.66667L13.6846 8.81451C14.1758 8.55083 14.7521 8.65675 14.9899 9.09899C15.227 9.54123 15.019 10.1195 14.5275 10.3831L9.25257 13.2107L8.97385 13.2807L4.05417 13.4135C4.05417 13.4135 3.42025 13.5908 2.65929 14.4532" stroke="white" stroke-width="1.5" stroke-linecap="round" stroke-linejoin="round"/>
<path d="M0.912168 11.8664L3.14385 9.81237C4.23441 9.07701 5.52753 9.48277 5.52753 9.48277C6.15345 9.64757 7.31665 9.68501 7.31665 9.68501L9.24753 9.68469C9.82257 9.68469 10.293 10.0956 10.293 10.5976C10.293 11.0997 9.82257 11.5103 9.24753 11.5103H6.57617" stroke="white" stroke-width="1.5" stroke-linecap="round" stroke-linejoin="round"/>
<path fill-rule="evenodd" clip-rule="evenodd" d="M7.95796 7.36786C7.52178 7.35791 7.09293 7.30851 6.67735 7.15729C6.54386 7.10872 6.40891 7.1153 6.27905 7.17451C5.94679 7.326 5.6157 7.4805 5.28345 7.63195C5.24439 7.64976 5.20097 7.66521 5.15931 7.66598C5.03143 7.66834 4.9629 7.56737 5.00047 7.43662C5.09023 7.12409 5.17862 6.81105 5.27328 6.50026C5.31458 6.36462 5.29188 6.25132 5.21015 6.14336C4.98782 5.84974 4.82202 5.52268 4.73773 5.15331C4.55706 4.36175 4.72197 3.64753 5.18504 3.01666C5.69783 2.31806 6.38854 1.93108 7.18592 1.75885C8.09004 1.56357 8.96394 1.67205 9.7896 2.12535C10.3968 2.45871 10.8847 2.93491 11.1462 3.62806C11.4979 4.56027 11.3464 5.41746 10.7395 6.17208C10.263 6.76445 9.63621 7.08358 8.93796 7.25282C8.80298 7.28555 8.66576 7.31183 8.52825 7.32688C8.3388 7.34761 8.1481 7.35485 7.95796 7.36786Z" stroke="white" stroke-width="1.5"/>
</svg>
