<svg width="16" height="16" viewBox="0 0 16 16" fill="none" xmlns="http://www.w3.org/2000/svg">
<g clip-path="url(#clip0_23388_336308)">
<path fill-rule="evenodd" clip-rule="evenodd" d="M13.6533 12.3878L13.0984 12.9434C12.3981 13.6454 11.6153 14 10.7751 14C9.6417 14 8.41912 13.3539 7.14282 12.0764L3.92546 8.85546C2.91855 7.84796 2.29859 6.87008 2.08587 5.94764C1.82706 4.82631 2.15396 3.8002 3.05726 2.89637L3.61252 2.34121C3.97028 1.98323 4.54838 1.89522 4.99538 2.13303C5.83524 2.57732 6.7064 4.03631 6.80197 4.20134C6.9779 4.50684 7.03034 4.82166 6.95464 5.09332C6.89755 5.29981 6.76814 5.4678 6.57995 5.58374C6.3258 5.79658 6.02681 6.06358 5.97268 6.12959C5.65213 6.6035 5.68892 6.96741 6.10209 7.38081L8.61661 9.89681C9.03273 10.3149 9.3905 10.3487 9.87175 10.0233C9.93476 9.97213 10.1999 9.67297 10.4143 9.41866C10.5729 9.15462 10.8334 9.0099 11.151 9.0099C11.3591 9.0099 11.5815 9.07295 11.7925 9.19355C11.9592 9.29214 13.4173 10.1638 13.8613 11.0042C14.1053 11.4641 14.022 12.0193 13.6533 12.3878Z" stroke="white" stroke-width="1.5" stroke-linecap="square"/>
</g>
<defs>
<clipPath id="clip0_23388_336308">
<rect width="16" height="16" fill="white"/>
</clipPath>
</defs>
</svg>
