<svg width="16" height="16" viewBox="0 0 16 16" fill="none" xmlns="http://www.w3.org/2000/svg">
<g clip-path="url(#clip0_23388_336311)">
<path d="M5.33398 9.33398C7.54312 9.33398 9.33398 7.54312 9.33398 5.33398C9.33398 3.12485 7.54312 1.33398 5.33398 1.33398C3.12485 1.33398 1.33398 3.12485 1.33398 5.33398C1.33398 7.54312 3.12485 9.33398 5.33398 9.33398Z" stroke="white" stroke-width="1.5" stroke-linecap="round" stroke-linejoin="round"/>
<path d="M12.0592 6.91406C12.6895 7.14901 13.2502 7.53908 13.6897 8.04819C14.1293 8.55731 14.4333 9.16902 14.5737 9.82677C14.7142 10.4845 14.6865 11.1671 14.4933 11.8113C14.3 12.4555 13.9475 13.0406 13.4682 13.5125C12.9889 13.9843 12.3984 14.3277 11.7512 14.5109C11.1041 14.694 10.4212 14.7111 9.7657 14.5604C9.11022 14.4097 8.50332 14.0961 8.00113 13.6487C7.49894 13.2013 7.11767 12.6345 6.89258 12.0007" stroke="white" stroke-width="1.5" stroke-linecap="round" stroke-linejoin="round"/>
<path d="M4.66602 4H5.33268V6.66667" stroke="white" stroke-width="1.5" stroke-linecap="round" stroke-linejoin="round"/>
<path d="M11.1399 9.25391L11.6066 9.72724L9.72656 11.6072" stroke="white" stroke-width="1.5" stroke-linecap="round" stroke-linejoin="round"/>
</g>
<defs>
<clipPath id="clip0_23388_336311">
<rect width="16" height="16" fill="white"/>
</clipPath>
</defs>
</svg>
