<svg width="16" height="16" viewBox="0 0 16 16" fill="none" xmlns="http://www.w3.org/2000/svg">
<path fill-rule="evenodd" clip-rule="evenodd" d="M5.6148 12.4269C5.37436 12.3404 5.13129 12.3521 4.89739 12.4575C4.29893 12.7273 3.70256 13.0024 3.1041 13.272C3.03375 13.3037 2.95555 13.3312 2.88051 13.3326C2.65016 13.3368 2.52674 13.157 2.5944 12.9242C2.75608 12.3677 2.91529 11.8104 3.08579 11.257C3.16017 11.0154 3.11929 10.8137 2.97208 10.6215C2.57162 10.0987 2.27298 9.51632 2.12115 8.85863C1.42757 5.85468 3.82052 3.39328 6.53084 2.81454C9.22253 2.23984 12.5904 3.32957 13.6642 6.1428C14.2977 7.80268 14.0248 9.32897 12.9315 10.6726C11.9548 11.873 10.4507 12.5663 8.94865 12.7288C8.39626 12.7886 6.66253 12.8037 5.6148 12.4269Z" stroke="white" stroke-width="1.5"/>
</svg>
