<svg width="16" height="16" viewBox="0 0 16 16" fill="none" xmlns="http://www.w3.org/2000/svg">
<path d="M13.3327 8V14.6667H2.66602V8" stroke="white" stroke-width="1.5" stroke-linecap="round" stroke-linejoin="round"/>
<path d="M14.6673 4.66602H1.33398V7.99935H14.6673V4.66602Z" stroke="white" stroke-width="1.5" stroke-linecap="round" stroke-linejoin="round"/>
<path d="M8 14.666V4.66602" stroke="white" stroke-width="1.5" stroke-linecap="round" stroke-linejoin="round"/>
<path d="M8.00065 4.66732H5.00065C4.55862 4.66732 4.1347 4.49172 3.82214 4.17916C3.50958 3.8666 3.33398 3.44268 3.33398 3.00065C3.33398 2.55862 3.50958 2.1347 3.82214 1.82214C4.1347 1.50958 4.55862 1.33398 5.00065 1.33398C7.33398 1.33398 8.00065 4.66732 8.00065 4.66732Z" stroke="white" stroke-width="1.5" stroke-linecap="round" stroke-linejoin="round"/>
<path d="M8 4.66732H11C11.442 4.66732 11.866 4.49172 12.1785 4.17916C12.4911 3.8666 12.6667 3.44268 12.6667 3.00065C12.6667 2.55862 12.4911 2.1347 12.1785 1.82214C11.866 1.50958 11.442 1.33398 11 1.33398C8.66667 1.33398 8 4.66732 8 4.66732Z" stroke="white" stroke-width="1.5" stroke-linecap="round" stroke-linejoin="round"/>
</svg>
