<svg width="16" height="16" viewBox="0 0 16 16" fill="none" xmlns="http://www.w3.org/2000/svg">
<path d="M11.6667 9.66862L13.6846 8.81646C14.1758 8.55278 14.7521 8.6587 14.9899 9.10094C15.227 9.54318 15.019 10.1214 14.5275 10.3851L9.25257 13.2126L8.97385 13.2827L4.05417 13.4155C4.05417 13.4155 3.42025 13.5928 2.65929 14.4552" stroke="white" stroke-width="1.5" stroke-linecap="round" stroke-linejoin="round"/>
<path d="M0.912168 11.8684L3.14385 9.81432C4.23441 9.07896 5.52753 9.48472 5.52753 9.48472C6.15345 9.64952 7.31665 9.68696 7.31665 9.68696L9.24753 9.68664C9.82257 9.68664 10.293 10.0975 10.293 10.5996C10.293 11.1017 9.82257 11.5122 9.24753 11.5122H6.57617" stroke="white" stroke-width="1.5" stroke-linecap="round" stroke-linejoin="round"/>
<path d="M8.66667 5.33398L8 4.6197V3.33398" stroke="white" stroke-width="1.5" stroke-linecap="round" stroke-linejoin="round"/>
<path d="M11.3327 4.66732C11.3327 5.55137 10.9815 6.39922 10.3564 7.02434C9.73125 7.64946 8.8834 8.00065 7.99935 8.00065C7.11529 8.00065 6.26745 7.64946 5.64233 7.02434C5.01721 6.39922 4.66602 5.55137 4.66602 4.66732C4.66602 3.78326 5.01721 2.93542 5.64233 2.3103C6.26745 1.68517 7.11529 1.33398 7.99935 1.33398C8.8834 1.33398 9.73125 1.68517 10.3564 2.3103C10.9815 2.93542 11.3327 3.78326 11.3327 4.66732Z" stroke="white" stroke-width="1.5" stroke-linecap="round" stroke-linejoin="round"/>
</svg>
