<svg width="68" height="68" viewBox="0 0 68 68" fill="none" xmlns="http://www.w3.org/2000/svg">
<path d="M53.8333 8.5H14.1667C11.0371 8.5 8.5 11.0371 8.5 14.1667V53.8333C8.5 56.9629 11.0371 59.5 14.1667 59.5H53.8333C56.9629 59.5 59.5 56.9629 59.5 53.8333V14.1667C59.5 11.0371 56.9629 8.5 53.8333 8.5Z" stroke="#AAA2AA" stroke-width="2" stroke-linecap="round" stroke-linejoin="round"/>
<path d="M25.4987 31.1663C28.6283 31.1663 31.1654 28.6293 31.1654 25.4997C31.1654 22.3701 28.6283 19.833 25.4987 19.833C22.3691 19.833 19.832 22.3701 19.832 25.4997C19.832 28.6293 22.3691 31.1663 25.4987 31.1663Z" stroke="#AAA2AA" stroke-width="2" stroke-linecap="round" stroke-linejoin="round"/>
<path d="M59.5 42.5004L50.7563 33.7568C49.6937 32.6944 48.2526 32.0977 46.75 32.0977C45.2474 32.0977 43.8063 32.6944 42.7437 33.7568L17 59.5004" stroke="#AAA2AA" stroke-width="2" stroke-linecap="round" stroke-linejoin="round"/>
</svg>
