<svg width="86" height="86" viewBox="0 0 86 86" fill="none" xmlns="http://www.w3.org/2000/svg">
<path d="M17.2461 72.1913C18.4682 58.4525 29.532 47.6992 43.0013 47.6992C56.4706 47.6992 67.5344 58.4525 68.7565 72.1846" fill="#FFFEFF"/>
<path d="M43.0013 47.6992C29.532 47.6992 18.4682 58.4525 17.2461 72.1913C17.2461 72.1913 26.6897 81.6349 43.0013 81.6349C59.3129 81.6349 68.7565 72.1846 68.7565 72.1846C67.5344 58.4525 56.4706 47.6992 43.0013 47.6992Z" fill="#FFFEFF"/>
<path d="M33.8543 21.2019C36.2796 18.6684 39.569 17.2451 42.999 17.2451C46.4289 17.2451 49.7184 18.6684 52.1437 21.2019C54.569 23.7353 55.9315 27.1714 55.9315 30.7543C55.9315 34.3371 54.569 37.7732 52.1437 40.3067C49.7184 42.8401 46.4289 44.2634 42.999 44.2634C39.569 44.2634 36.2796 42.8401 33.8543 40.3067C31.4289 37.7732 30.0664 34.3371 30.0664 30.7543C30.0664 27.1714 31.4289 23.7353 33.8543 21.2019Z" fill="#FFFEFF"/>
</svg>
