<svg width="16" height="17" viewBox="0 0 16 17" fill="none" xmlns="http://www.w3.org/2000/svg">
<path d="M7.99 15.08C11.6288 15.08 14.58 12.1298 14.58 8.49C14.58 4.85018 11.6288 1.9 7.99 1.9C4.35024 1.9 1.4 4.85024 1.4 8.49C1.4 12.1298 4.35024 15.08 7.99 15.08Z" stroke="#721C70" stroke-width="1.2"/>
<path fill-rule="evenodd" clip-rule="evenodd" d="M5.31306 5.75455C5.03942 5.44359 4.56551 5.41333 4.25455 5.68696C3.94359 5.9606 3.91333 6.43451 4.18696 6.74547L7.02836 9.97447C7.16457 10.1293 7.35042 10.2145 7.54109 10.2273C7.73992 10.2915 7.96437 10.2727 8.1576 10.1568L10.6576 8.65678C11.0128 8.44367 11.128 7.98297 10.9148 7.62779C10.7017 7.2726 10.241 7.15743 9.88586 7.37054L7.82378 8.60778L5.31306 5.75455Z" fill="#721C70"/>
</svg>
