<svg width="24" height="24" viewBox="0 0 20 20" fill="none" xmlns="http://www.w3.org/2000/svg">
<path fill-rule="evenodd" clip-rule="evenodd" d="M9.88411 17.0227C5.46756 17.0227 2.82756 15.0493 2.82756 11.7453C2.82756 11.6656 2.83859 11.5485 2.87997 11.4115C2.89928 11.4613 2.92135 11.5111 2.94893 11.561C3.64687 12.8367 5.851 13.4297 9.88411 13.4297C13.92 13.4297 16.1241 12.8367 16.822 11.561C16.8496 11.5111 16.8717 11.4613 16.891 11.4115C16.9324 11.5485 16.9434 11.6656 16.9434 11.7453C16.9434 15.0493 14.3034 17.0227 9.88411 17.0227ZM13.2634 9.53855V9.74685C13.2634 9.96263 13.4571 10.138 13.6966 10.138H13.829C14.7559 10.138 16.4469 10.5566 16.08 11.2294C15.5172 12.2584 13.2634 12.682 9.88414 12.682C6.50483 12.682 4.25379 12.2584 3.69103 11.2294C3.32414 10.5566 5.01241 10.138 5.94207 10.138H6.07172C6.31062 10.138 6.50483 9.96263 6.50483 9.74685V9.53855C6.50483 9.31131 6.28965 9.13241 6.03862 9.14736C2.9749 9.32925 2 10.6289 2 11.7452C2 14.8772 4.25379 17.77 9.88414 17.77C15.5172 17.77 17.771 14.8772 17.771 11.7452C17.771 10.6289 16.7934 9.32925 13.7297 9.14736C13.4786 9.13241 13.2634 9.31131 13.2634 9.53855Z" fill="#3975E9"/>
<path fill-rule="evenodd" clip-rule="evenodd" d="M9.55677 6.32487C9.55677 6.32487 9.45131 7.04346 9.9521 8.06106C10.4524 9.07865 8.95052 9.07865 8.95052 8.06106C8.95052 7.182 9.55677 6.32487 9.55677 6.32487ZM8.03768 8.56715C8.22064 9.37794 8.7592 9.88424 9.50229 10.0397V10.6043C9.50229 10.8844 9.72742 11.1131 10.0031 11.1131C10.2778 11.1131 10.5039 10.8844 10.5039 10.6043V10.0317C11.2627 9.85285 11.839 9.28126 11.969 8.53925C12.2549 7.04973 10.7643 5.58763 10.289 4.66023C10.1306 4.40609 9.78138 4.4913 9.71811 4.66023C8.8622 6.00922 7.7841 7.27398 8.03768 8.56715Z" fill="#3975E9"/>
<path fill-rule="evenodd" clip-rule="evenodd" d="M14.2779 5.95265C14.4355 5.91777 14.5583 5.79019 14.5978 5.62225L14.7057 5.08854L14.8194 5.62724C14.8531 5.79019 14.9765 5.91777 15.1388 5.95813L15.6548 6.06976L15.1335 6.18736C14.9765 6.22225 14.8531 6.34932 14.8141 6.51726L14.7057 7.05147L14.5925 6.51277C14.5583 6.34932 14.4355 6.22225 14.2731 6.18138L13.7567 6.06976L14.2779 5.95265ZM13.3139 6.49219L14.1257 6.66959L14.2976 7.50978C14.342 7.7131 14.5091 7.85014 14.7057 7.85014C14.9027 7.85014 15.0699 7.7131 15.1137 7.50978L15.2862 6.66959L16.0975 6.49219C16.295 6.44634 16.427 6.27342 16.427 6.0696C16.427 5.86628 16.295 5.69286 16.0975 5.64751L15.2862 5.46961L15.1137 4.62992C15.0699 4.4261 14.9027 4.28906 14.7057 4.28906C14.5091 4.28906 14.342 4.4261 14.2976 4.62992L14.1257 5.46961L13.3139 5.64751C13.1173 5.69286 12.9844 5.86628 12.9844 6.0696C12.9844 6.27342 13.1173 6.44634 13.3139 6.49219Z" fill="#3975E9"/>
<path fill-rule="evenodd" clip-rule="evenodd" d="M7.25789 2.5C7.398 2.5 7.50822 2.6097 7.50822 2.74976C7.50822 2.88981 7.398 3 7.25789 3C7.11779 3 7.00806 2.88981 7.00806 2.74976C7.00806 2.6097 7.11779 2.5 7.25789 2.5ZM7.25781 3.5C7.67323 3.5 8.00781 3.16454 8.00781 2.74976C8.00781 2.33497 7.67323 2 7.25781 2C6.84289 2 6.50781 2.33497 6.50781 2.74976C6.50781 3.16454 6.84289 3.5 7.25781 3.5Z" fill="#3975E9"/>
<path fill-rule="evenodd" clip-rule="evenodd" d="M4.84947 5.30664C4.88168 5.42873 4.96971 5.52541 5.08089 5.56079C4.96971 5.59667 4.88168 5.69335 4.84947 5.81544C4.8168 5.69335 4.72877 5.59667 4.61759 5.56079C4.72877 5.52541 4.8168 5.42873 4.84947 5.30664ZM3.96003 5.92758L4.41833 6.03422L4.52043 6.53803C4.5531 6.71046 4.68741 6.83304 4.84941 6.83304C5.0114 6.83304 5.14571 6.71046 5.18292 6.53803L5.28003 6.03422L5.73878 5.92209C5.89623 5.88671 6.00741 5.73921 6.00741 5.5608C6.00741 5.3829 5.89623 5.23539 5.73878 5.19453L5.28003 5.08789L5.18292 4.58407H5.17838C5.14571 4.41165 5.0114 4.28906 4.84941 4.28906C4.68741 4.28906 4.5531 4.41165 4.51589 4.58407L4.41833 5.08789L3.96003 5.20001C3.80258 5.23539 3.69141 5.3829 3.69141 5.5608C3.69141 5.73921 3.80258 5.88671 3.96003 5.92758Z" fill="#3975E9"/>
</svg>
