<svg width="24" height="24" viewBox="0 0 24 24" fill="none" xmlns="http://www.w3.org/2000/svg">
<path fill-rule="evenodd" clip-rule="evenodd" d="M14.6818 14.6837C13.1711 16.1944 10.7224 16.1944 9.21113 14.6837C7.70046 13.1731 7.70046 10.7237 9.21113 9.21308C10.7224 7.70241 13.1711 7.70241 14.6818 9.21308C16.1925 10.7237 16.1925 13.1731 14.6818 14.6837Z" stroke="#9396A3" stroke-width="1.5" stroke-linecap="square"/>
<path fill-rule="evenodd" clip-rule="evenodd" d="M22.7441 13.7321V10.1632H19.9697C19.7601 9.21596 19.3855 8.3329 18.8801 7.53968L20.8442 5.57557L18.3203 3.05229L16.3568 5.01579C15.5636 4.5104 14.6799 4.13579 13.7327 3.92618V1.15234H10.1644V3.92618C9.21657 4.13579 8.52173 4.32584 7.54029 5.01579L5.57618 3.05229L3.0529 5.57557L5.01701 7.53968C4.51101 8.3329 4.13701 9.21596 3.92679 10.1632H1.15234V13.7321H3.92679C4.13701 14.6793 4.51101 15.563 5.01701 16.3556L3.0529 18.3197L5.57618 20.843L7.54029 18.8795C8.33351 19.3848 9.21657 19.7595 10.1644 19.9697V22.7435H13.7327V19.9697C14.6799 19.7595 15.5636 19.3848 16.3568 18.8795L18.3203 20.843L20.8442 18.3197L18.8801 16.3556C19.3855 15.563 19.7601 14.6793 19.9697 13.7321H22.7441Z" stroke="#9396A3" stroke-width="1.5" stroke-linecap="square" stroke-linejoin="round"/>
</svg>
