<svg width="343" height="151" viewBox="0 0 343 151" fill="none" xmlns="http://www.w3.org/2000/svg">
<rect width="343" height="151" rx="12" fill="#3975E9"/>
<mask id="mask0_15005_248652" style="mask-type:alpha" maskUnits="userSpaceOnUse" x="0" y="5" width="343" height="146">
<rect y="5" width="343" height="146" fill="#EBEDEE"/>
</mask>
<g mask="url(#mask0_15005_248652)">
<path d="M349.346 119.594C324.24 108.743 308.826 100.959 261.593 109.887C214.361 118.814 190.317 150.743 137.243 155.448C125.316 156.505 117.558 155.977 105.695 154.435L102.487 153.959C98.1495 153.363 93.9907 152.41 89.7724 151.517C88.7029 151.338 87.6929 151.041 86.6829 150.743L83.5935 149.909L80.504 149.075L78.9593 148.658C78.4246 148.539 77.9493 148.36 77.4146 148.182L71.3545 146.276C70.3445 145.919 69.3344 145.621 68.3244 145.263L65.3538 144.191L59.472 141.988L57.9866 141.452L56.5607 140.856L53.7089 139.606L47.9459 137.104C46.9953 136.687 46.0447 136.211 45.1535 135.794L42.3612 134.424C27.4486 127.277 13.3678 118.88 0 109.887L41.1135 57C50.976 65.9931 61.2543 74.3906 71.9486 81.7162L73.9686 83.086C74.6222 83.5625 75.2757 84.0389 75.9887 84.4558L80.0881 87.0168L82.1081 88.2674L83.1182 88.9225L84.1282 89.5181L88.2871 91.8409L90.3665 93.032C91.0794 93.3893 91.7924 93.7467 92.4459 94.104L96.6642 96.1885C97.0207 96.3672 97.3772 96.5458 97.7336 96.7245L98.8031 97.201L100.942 98.1539L103.081 99.1068C103.794 99.4046 104.507 99.7619 105.22 100C108.071 101.072 110.983 102.263 113.894 103.097L116.092 103.812L117.162 104.169L118.231 104.467L122.628 105.599C128.509 106.968 134.451 107.921 140.392 108.338C146.393 108.755 152.393 108.636 158.572 107.921C164.692 107.266 170.989 106.015 177.406 104.348C190.298 101.013 203.963 95.7716 218.816 91.0666C226.243 88.7439 233.907 86.5998 241.869 85.0513C249.83 83.4433 257.91 82.4308 266.109 82.0735C298.845 80.8823 330.037 90.8284 356 107.147L349.346 119.594Z" fill="#00A8B0"/>
<path opacity="0.3" d="M349.234 127.859C323.705 116.788 308.031 108.847 260.002 117.955C211.973 127.063 187.524 159.637 133.556 164.437C121.428 165.515 113.539 164.976 101.476 163.404L98.214 162.918C93.8037 162.31 89.5748 161.338 85.2854 160.426C84.1979 160.244 83.1709 159.94 82.1439 159.637L79.0023 158.786L75.8608 157.935L74.29 157.51C73.7463 157.388 73.263 157.206 72.7193 157.024L66.5571 155.08C65.53 154.715 64.503 154.411 63.476 154.047L60.4553 152.953L54.4743 150.705L52.9639 150.158L51.514 149.55L48.6142 148.274L42.754 145.722C41.7874 145.297 40.8208 144.811 39.9146 144.386L37.0751 142.988C21.9112 135.697 7.59312 127.13 -6 117.955L35.8064 64C45.8351 73.1748 56.2867 81.742 67.1612 89.2155L69.2153 90.613C69.8798 91.0991 70.5444 91.5851 71.2694 92.0104L75.4379 94.6232L77.492 95.8991L78.519 96.5674L79.5461 97.1751L83.775 99.5447L85.8895 100.76C86.6145 101.124 87.3395 101.489 88.004 101.854L92.2934 103.98C92.6559 104.163 93.0184 104.345 93.3808 104.527L94.4683 105.013L96.6432 105.985L98.8181 106.957C99.5431 107.261 100.268 107.626 100.993 107.869C103.893 108.963 106.853 110.178 109.813 111.028L112.049 111.757L113.136 112.122L114.224 112.426L118.694 113.58C124.675 114.978 130.717 115.95 136.758 116.375C142.86 116.801 148.962 116.679 155.245 115.95C161.467 115.282 167.871 114.006 174.396 112.304C187.506 108.902 201.401 103.555 216.504 98.7548C224.056 96.3852 231.849 94.1978 239.945 92.618C248.04 90.9775 256.257 89.9446 264.594 89.58C297.882 88.3648 329.599 98.5118 356 115.16L349.234 127.859Z" fill="#00A8B0"/>
</g>
<path d="M15 111.5C18.3333 105.5 22 97.5 33.5 90" stroke="#F4F4F4" stroke-width="8"/>
<path d="M275.253 31.3643C288.191 21.7604 297.919 8.50644 324.711 33.6741" stroke="#4DB05B" stroke-width="8"/>
<path d="M12 18C15.3137 18 18 15.3137 18 12C18 8.68629 15.3137 6 12 6C8.68629 6 6 8.68629 6 12C6 15.3137 8.68629 18 12 18Z" fill="#F7BECA"/>
</svg>
