<svg width="192" height="192" viewBox="0 0 192 192" fill="none" xmlns="http://www.w3.org/2000/svg">
<path d="M141.002 24.7402C107.228 24.7402 93.6001 40.294 88.4155 54.3665L80.412 81.4006L60.2705 85.4741L55.0859 102.509L75.4345 98.2134L55.0859 166.946C75.2318 161.614 83.7247 145.467 85.4529 138.061L98.2117 93.4049L121.745 88.4367L126.189 72.1423L102.943 76.8436L104.71 70.661C109.154 49.9226 121.745 43.9973 135.077 43.9973L141.002 24.7402Z" fill="white"/>
<path fill-rule="evenodd" clip-rule="evenodd" d="M89.1171 54.6004L80.994 82.0386L60.8487 86.1129L56.1578 101.526L76.4958 97.2324L56.1747 165.873C75.0738 160.296 83.0845 144.944 84.7299 137.893L84.734 137.875L97.6204 92.7728L121.148 87.8059L125.157 73.1068L101.895 77.8114L103.989 70.4818C106.24 59.9974 110.572 53.1647 116.111 48.9626C121.499 44.8755 127.945 43.3403 134.527 43.2604L139.996 25.486C123.76 25.6371 112.369 29.4535 104.404 34.8884C96.2851 40.4279 91.668 47.688 89.1171 54.6004ZM103.569 33.6648C111.994 27.9161 123.998 24 141 24H142.003L135.622 44.7384H135.075C128.515 44.7384 122.209 46.196 117.006 50.1427C111.81 54.0846 107.627 60.5764 105.432 70.8166L105.427 70.8409L103.988 75.8767L127.218 71.1786L122.339 89.0684L98.7996 94.0378L86.1683 138.247C84.3846 145.86 75.7307 162.248 55.2738 167.663L54 168L74.3698 99.1952L54.0107 103.493L59.6889 84.8362L79.8266 80.7634L87.7105 54.1335L87.7188 54.1109C90.3542 46.9576 95.1423 39.4143 103.569 33.6648Z" fill="white"/>
<path d="M159.484 147.648C159.722 146.462 159.866 145.248 159.866 144C159.866 142.752 159.722 141.538 159.484 140.352L163.492 137.477C164.004 137.107 164.153 136.426 163.83 135.893L159.181 128.107C158.863 127.574 158.178 127.354 157.592 127.598L152.943 129.542C151.061 127.968 148.885 126.739 146.481 125.933L145.9 121.075C145.826 120.461 145.289 120 144.649 120H135.351C134.711 120 134.174 120.461 134.1 121.075L133.519 125.933C131.115 126.739 128.939 127.968 127.057 129.542L122.408 127.598C121.822 127.354 121.137 127.574 120.819 128.107L116.17 135.893C115.852 136.426 115.996 137.107 116.508 137.477L120.516 140.352C120.278 141.538 120.134 142.752 120.134 144C120.134 145.248 120.278 146.462 120.516 147.648L116.508 150.523C115.996 150.893 115.847 151.574 116.17 152.107L120.819 159.888C121.137 160.426 121.822 160.642 122.408 160.397L127.057 158.453C128.939 160.032 131.115 161.261 133.519 162.067L134.1 166.925C134.174 167.539 134.711 168 135.351 168H144.649C145.289 168 145.826 167.539 145.9 166.925L146.481 162.067C148.885 161.261 151.061 160.032 152.943 158.458L157.592 160.402C158.178 160.646 158.863 160.426 159.181 159.893L163.83 152.112C164.148 151.574 164.004 150.893 163.492 150.528L159.484 147.648ZM140 153.6C134.517 153.6 130.067 149.299 130.067 144C130.067 138.696 134.517 134.4 140 134.4C145.483 134.4 149.933 138.696 149.933 144C149.933 149.299 145.483 153.6 140 153.6Z" fill="white"/>
</svg>
