<svg width="24" height="24" viewBox="0 0 24 24" fill="none" xmlns="http://www.w3.org/2000/svg">
<g clip-path="url(#clip0_14700_245486)">
<path d="M20 18.087V21C20 21.5523 19.5523 22 19 22H4C3.44772 22 3 21.5523 3 21V12C3 11.4477 3.44772 11 4 11H19C19.5523 11 20 11.4477 20 12V14.5" stroke="#ACACAC" stroke-width="1.5" stroke-linecap="round" stroke-linejoin="round"/>
<path d="M3 19V9C3 8.44771 3.44772 8 4 8H8.5" stroke="#ACACAC" stroke-width="1.5" stroke-linecap="round" stroke-linejoin="round"/>
<path fill-rule="evenodd" clip-rule="evenodd" d="M17.1797 17.9512H21.1459V14.668H17.1797V17.9512Z" fill="white" stroke="#ACACAC" stroke-width="1.5" stroke-linecap="round" stroke-linejoin="round"/>
<path d="M7.14844 10.6196L13.1452 1.83837C13.46 1.37741 14.0912 1.2634 14.5474 1.58512L20.7238 5.94121C21.1728 6.25787 21.2823 6.87746 20.9689 7.32876L18.6839 10.6196" stroke="#ACACAC" stroke-width="1.5" stroke-linecap="round" stroke-linejoin="round"/>
<path d="M11 11L16.764 2.44336" stroke="#ACACAC" stroke-width="1.5"/>
</g>
<defs>
<clipPath id="clip0_14700_245486">
<rect width="24" height="24" fill="white"/>
</clipPath>
</defs>
</svg>
