<svg width="24" height="24" viewBox="0 0 18 18" fill="none" xmlns="http://www.w3.org/2000/svg">
<path d="M16.5 9C16.5 4.85775 13.1422 1.5 9 1.5C4.85775 1.5 1.5 4.85775 1.5 9C1.5 13.1422 4.85775 16.5 9 16.5C13.1422 16.5 16.5 13.1423 16.5 9ZM8.25 12L8.25 7.8105L7.0605 9C6.768 9.2925 6.2925 9.2925 6 9C5.7075 8.7075 5.7075 8.232 6 7.9395L8.46975 5.46975C8.763 5.1765 9.23775 5.1765 9.53025 5.46975L12 7.9395C12.2925 8.232 12.2925 8.7075 12 9C11.7075 9.2925 11.232 9.2925 10.9395 9L9.75 7.8105L9.75 12C9.75 12.414 9.414 12.75 9 12.75C8.586 12.75 8.25 12.414 8.25 12Z" fill="#35C597"/>
</svg>
