<svg width="24" height="24" viewBox="0 0 24 24" fill="none" xmlns="http://www.w3.org/2000/svg">
<path d="M1.49225 12.8652C1.16352 12.3283 1.16352 11.6717 1.49225 11.1348C2.75946 9.06532 6.42998 4 12 4C17.57 4 21.2405 9.06532 22.5077 11.1348C22.8365 11.6717 22.8365 12.3283 22.5077 12.8652C21.2405 14.9347 17.57 20 12 20C6.42998 20 2.75946 14.9347 1.49225 12.8652Z" stroke="#9396A3" stroke-width="1.5" stroke-linecap="round"/>
<path d="M12 15C13.6569 15 15 13.6569 15 12C15 10.3431 13.6569 9 12 9C10.3431 9 9 10.3431 9 12C9 13.6569 10.3431 15 12 15Z" stroke="#9396A3" stroke-width="1.5" stroke-linecap="round"/>
</svg>
