<svg width="36" height="36" viewBox="0 0 36 36" fill="none" xmlns="http://www.w3.org/2000/svg">
<path fill-rule="evenodd" clip-rule="evenodd" d="M12.9124 13.7366C13.2812 14.1967 13.8253 14.5397 14.5208 14.9671C14.0493 13.9313 14.5446 13.0204 14.8649 12.1097C14.9227 11.9456 15.0469 11.3714 15.2575 11.0944C15.9766 10.1481 17.2942 9.44713 17.4323 10.55C17.4439 10.6435 17.363 10.8194 17.2003 10.8901C17.1227 10.9238 17.0163 10.8674 16.9345 10.8368C16.9136 10.8292 16.9006 10.7812 16.8827 10.7857C16.8655 10.7905 16.8352 10.7349 16.8706 10.724C16.9119 10.7114 17.0279 10.8604 17.1389 10.816C17.2495 10.7717 17.3174 10.6555 17.3302 10.5901C17.3754 10.3569 17.1055 10.1077 16.6595 10.2357C16.182 10.44 15.6056 10.8191 15.2985 11.4991C15.2328 11.6445 15.2345 11.7783 15.2572 11.954C15.5699 11.7901 16.0368 11.7982 16.2349 12.0129C16.3261 12.1111 16.3991 12.3721 16.2825 12.5935C16.2267 12.6993 16.0584 12.7302 15.9403 12.7684C15.9103 12.7782 15.8529 12.7364 15.8373 12.7574C15.8223 12.7779 15.7388 12.7428 15.7686 12.6996C15.8028 12.6497 16.0649 12.7123 16.1478 12.5658C16.2307 12.4193 16.2021 12.2307 16.1577 12.1471C15.9989 11.849 15.4768 11.8103 15.0973 12.3449C14.6247 13.0614 14.4184 14.084 14.8584 14.9489C14.9385 15.106 15.0475 15.2536 15.1805 15.3979C16.0134 16.0506 16.5146 17.0727 17.0667 18.7865C17.597 19.2372 17.8874 19.5714 18.1342 20.138C18.632 19.4025 18.7786 19.3724 19.4682 18.7865C20.0204 17.0727 20.5216 16.0506 21.3544 15.3979C21.4875 15.2536 21.5964 15.106 21.6762 14.9489C22.1166 14.084 21.9103 13.0614 21.4376 12.3449C21.0581 11.8103 20.536 11.849 20.3772 12.1471C20.3328 12.2307 20.3039 12.4193 20.3871 12.5658C20.4701 12.7123 20.7321 12.6497 20.7664 12.6996C20.7961 12.7428 20.7129 12.7779 20.6976 12.7574C20.682 12.7364 20.6249 12.7782 20.5949 12.7684C20.4766 12.7302 20.3082 12.6993 20.2524 12.5935C20.1358 12.3721 20.2091 12.1111 20.3 12.0129C20.4984 11.7982 20.9783 11.6172 21.5174 12.0578C21.1812 11.1789 20.3416 10.4349 19.8755 10.2357C19.4295 10.1077 19.1598 10.3569 19.2048 10.5901C19.2175 10.6555 19.2854 10.7717 19.3964 10.816C19.507 10.8604 19.6233 10.7114 19.6644 10.724C19.6997 10.7349 19.6695 10.7905 19.6522 10.7857C19.6344 10.7812 19.6213 10.8292 19.6004 10.8368C19.5186 10.8674 19.4122 10.9238 19.3347 10.8901C19.1719 10.8194 19.0964 10.644 19.1026 10.55C19.1725 9.5041 20.5533 10.0976 21.4388 11.4918C22.075 12.4931 22.418 14.0792 22.0141 14.9671C22.811 14.4774 23.4447 14.0646 23.7769 13.5233C23.8151 13.461 23.8502 13.3976 23.8828 13.3336L23.8808 13.3282L23.8935 13.3114C24.3619 12.3609 24.2011 11.2311 23.7404 10.3948C23.3388 9.72187 22.7126 9.71878 22.4947 10.0595C22.4338 10.1549 22.3815 10.3771 22.4666 10.5598C22.5515 10.7425 22.8699 10.692 22.9061 10.7551C22.9373 10.8096 22.8348 10.8433 22.8187 10.8177C22.802 10.7913 22.7295 10.8354 22.6947 10.8211C22.5578 10.7647 22.3597 10.7116 22.3033 10.5803C22.1853 10.3053 22.2974 10.0008 22.4154 9.89221C22.7522 9.58127 23.6049 9.73646 23.8468 10.1754C24.3076 10.7975 24.5524 11.8692 24.4383 12.7577C25.1662 12.2509 26.2764 12.3763 27.0317 12.6452C27.3979 12.7757 27.7075 13.3282 27.4203 13.6931C27.3509 13.7952 27.1302 13.9164 26.9047 13.86C26.7971 13.8328 26.7329 13.6897 26.6732 13.5929C26.6579 13.5682 26.6833 13.5081 26.661 13.4989C26.6392 13.4899 26.6531 13.4082 26.6986 13.4253C26.7513 13.4453 26.7507 13.6917 26.901 13.734C27.0515 13.7767 27.2162 13.7105 27.2822 13.6532C27.5179 13.4478 27.4409 12.9749 26.8758 12.7518C26.1258 12.4847 25.156 12.5206 24.4675 13.0976C24.4205 13.1374 24.3752 13.1803 24.3319 13.2266C24.2716 13.4054 24.189 13.5766 24.0797 13.7357C23.9317 13.9518 23.765 14.146 23.5879 14.3233C24.2609 14.2411 25.0162 14.4881 25.4152 14.8695C25.7067 15.0575 25.7693 15.6471 25.5361 15.8604C25.4543 15.935 25.2372 15.9953 25.053 15.9005C24.9203 15.832 24.9324 15.5486 24.9154 15.5365C24.8985 15.5242 24.9273 15.456 24.9636 15.4801C25.0052 15.5082 24.9536 15.7226 25.0759 15.7902C25.1979 15.8578 25.3108 15.7857 25.3801 15.7492C25.6278 15.6187 25.7028 15.2396 25.2573 14.9303C24.6808 14.5582 23.8675 14.3901 23.1656 14.7044C22.476 15.2708 21.7249 15.6698 21.2925 16.1651C20.8544 16.6672 20.5431 17.2242 20.3138 18.1031C21.6575 17.023 22.6698 16.4693 24.4035 16.3461C24.8034 16.2965 26.5676 16.4528 27.2454 16.006C27.774 15.6316 27.7322 15.1215 27.435 14.9682C27.3515 14.9256 27.1639 14.8986 27.0187 14.9809C26.8735 15.0628 26.9378 15.3185 26.888 15.3527C26.8452 15.3816 26.8099 15.3008 26.8302 15.2856C26.8509 15.2705 26.809 15.2146 26.8186 15.1852C26.8557 15.0695 26.8854 14.9048 26.9901 14.8495C27.2094 14.7339 27.4695 14.8035 27.5677 14.8919C27.9597 15.1972 27.7573 15.8171 27.4347 16.077C26.9284 16.485 26.2883 16.5833 25.4766 16.5976C25.4857 16.6009 25.495 16.6043 25.5041 16.608C25.7562 16.7073 26.0588 16.8148 26.3372 16.915C26.9069 17.1204 27.6772 17.2307 28.1634 17.2486C28.7467 17.27 29.3999 16.8962 29.4718 16.3007C29.5632 15.6729 29.2173 14.8989 28.4773 14.7572C28.3709 14.7367 28.2396 14.7151 28.0556 14.7886C28.1903 14.6915 28.3737 14.6441 28.6117 14.6896C29.375 14.8964 29.8204 15.5803 29.7375 16.2645C29.641 17.0626 29.0289 17.5102 28.2645 17.5309C24.8184 17.6241 24.2979 15.3648 20.6328 18.7382C21.9479 18.3044 22.7298 18.3305 23.3663 18.5735C23.7152 18.755 24.3076 19.0054 24.7315 19.0952C25.1883 19.1925 25.5944 18.9711 25.799 18.839C26.2447 18.5297 26.153 18.134 25.9348 17.9592C25.7028 17.7734 25.2188 17.845 25.2853 17.8262C25.5813 17.742 25.9773 17.7521 26.1533 17.9732C26.6389 18.5836 26.0409 18.933 25.6139 19.1687C25.3218 19.3298 24.9536 19.3564 24.6058 19.3076C25.0411 19.6068 25.5369 19.9298 26.2269 20.1924C26.8056 20.4124 27.9294 20.0235 28.3904 19.6749C28.9352 19.263 29.1752 18.6116 29.0453 18.3251C28.8896 17.9805 28.3986 18.0984 28.3519 18.4197C28.3429 18.4834 28.1722 18.152 28.539 17.9724C28.7945 17.8475 29.1398 18.0869 29.2148 18.1955C29.5091 18.6226 29.1786 19.3379 28.5526 19.8341C28.0525 20.2306 26.9542 20.7871 26.1734 20.6395C25.4526 20.5031 24.8195 19.8964 24.0308 19.561C22.7677 18.8199 21.3782 18.7814 20.0212 19.6472C19.8268 19.7715 19.6958 19.8616 19.5749 20.0591C19.3239 20.4694 19.3842 20.8993 19.1651 21.3326C18.2236 23.1954 19.8155 23.7357 19.8245 25.5109C19.8336 27.3406 19.2447 29.3999 19.2079 31.5178C19.1818 33.0065 19.6445 34.8477 21.3952 35.0736C21.908 35.1399 22.635 34.9302 22.9282 34.7386C22.1817 35.3077 20.7621 35.2243 20.0574 34.8101C19.4196 34.4349 19.2755 33.7095 19.0559 32.9535C19.0698 33.0736 19.0672 33.3708 19.0686 33.4746C19.0766 34.124 19.2345 34.7582 19.6604 35.1289C20.0603 35.4775 20.6073 35.6526 21.239 35.5869C20.5074 35.7359 19.7493 35.3941 19.4487 35.2213C18.6586 34.7669 18.7834 33.6621 18.7749 32.9302L18.7505 32.548C18.752 32.7556 18.7262 33.2058 18.6815 33.5358C18.6416 33.8316 18.5669 34.2539 18.446 34.5076C18.1678 35.0922 17.6551 35.7286 16.2604 36C16.919 35.7573 17.7499 35.5165 18.2244 34.1178C18.3314 33.8027 18.3626 33.2695 18.3328 32.9302L18.2901 32.3897C18.2822 32.8558 18.1203 33.8992 17.794 34.4706C17.5314 34.9308 17.1615 35.2535 16.7582 35.4794C15.7046 36.0421 14.1441 35.6256 14.1699 35.6192C14.9646 35.7205 15.6115 35.7222 16.139 35.5316C17.3582 35.091 17.9966 33.6772 17.8724 32.4557C17.7207 33.274 17.567 33.6722 17.2003 34.1888C17.082 34.3558 16.9439 34.5065 16.7893 34.6381C16.13 35.1991 15.1692 35.4149 14.1407 35.0818C13.7587 34.958 13.3724 34.8612 13.1044 34.4742C13.5368 34.9524 14.5253 35.1789 15.4547 34.9788C16.3289 34.7908 16.8516 34.2887 17.0995 33.7081C17.3285 33.1721 17.5843 32.2171 17.5387 31.6749C17.5942 29.5792 16.0983 26.5958 16.5731 24.8475C16.709 24.3466 17.065 23.9293 17.2136 23.4152C17.4507 22.5943 17.2161 21.9118 17.0206 21.1634C16.9985 20.9653 16.9507 20.4708 16.8847 20.3058C16.2454 18.7076 13.9027 18.7385 12.5044 19.561C11.7154 19.8964 11.0824 20.5031 10.3615 20.6395C9.58075 20.7871 8.48242 20.2306 7.98236 19.8341C7.35664 19.3379 7.02581 18.6226 7.32013 18.1955C7.39513 18.0869 7.74039 17.8475 7.99594 17.9724C8.36271 18.152 8.19206 18.4834 8.183 18.4197C8.13631 18.0984 7.6453 17.9805 7.48965 18.3251C7.35975 18.6116 7.59974 19.263 8.14452 19.6749C8.60552 20.0235 9.72961 20.4124 10.3081 20.1924C10.998 19.9298 11.4938 19.6068 11.9291 19.3076C11.5813 19.3564 11.2131 19.3298 10.921 19.1687C10.4937 18.933 9.89629 18.5836 10.3816 17.9732C10.5577 17.7521 10.9536 17.742 11.2496 17.8262C11.3161 17.845 10.8322 17.7734 10.6001 17.9592C10.3822 18.134 10.2905 18.5297 10.736 18.839C10.9406 18.9711 11.3467 19.1925 11.8034 19.0952C12.2274 19.0054 12.8197 18.5993 13.1686 18.5735C13.8051 18.3305 14.587 18.3044 15.9021 18.7382C14.5695 17.5116 12.9006 16.6742 11.639 16.686C10.4368 16.6972 9.40613 17.5615 8.27017 17.5309C7.50607 17.5102 6.89393 17.0626 6.79743 16.2645C6.71451 15.5803 7.15996 14.8964 7.92321 14.6896C8.16121 14.6441 8.3446 14.6915 8.47931 14.7886C8.3013 14.7176 8.17253 14.7356 8.06782 14.7552C8.05707 14.7437 8.04688 14.7314 8.03698 14.7188C8.04122 14.7322 8.04575 14.7457 8.05028 14.7586C7.59917 14.8487 7.2607 15.2413 7.11298 15.6325C7.02044 15.8775 7.00996 16.1079 7.06317 16.3007C7.13505 16.8962 7.85472 17.2551 8.43799 17.2338C9.07759 17.2105 9.77169 16.8163 10.4944 16.5545C10.0282 16.4907 9.63231 16.3563 9.29554 16.0851C8.97292 15.8252 8.77057 15.2053 9.16253 14.8997C9.26101 14.8116 9.52081 14.7417 9.74013 14.8574C9.84484 14.9126 9.87456 15.0774 9.91163 15.193C9.92097 15.2225 9.87937 15.2783 9.90003 15.2937C9.92012 15.3086 9.88503 15.3897 9.8423 15.3605C9.79249 15.3266 9.85673 15.0709 9.71155 14.9887C9.56637 14.9065 9.37874 14.9334 9.29554 14.9763C8.9981 15.1293 8.95622 15.6395 9.48487 16.0141C9.88734 16.2791 10.6725 16.3318 11.3278 16.3412C11.3683 16.3363 11.4088 16.3324 11.4494 16.3296C11.7241 16.3102 12.004 16.3184 12.2854 16.3499C12.3005 16.3511 12.3143 16.3524 12.3268 16.354L12.3257 16.3545C13.7481 16.5248 15.2043 17.2857 16.2211 18.1031C15.9919 17.2242 15.6808 16.6672 15.2425 16.1651C14.81 15.6698 14.059 15.2708 13.3693 14.7044C12.6672 14.3901 11.8541 14.5582 11.2776 14.9303C10.8322 15.2396 10.9072 15.6187 11.1548 15.7492C11.6186 15.9937 11.5219 15.5132 11.5714 15.4801C11.6076 15.456 11.6365 15.5242 11.6195 15.5365C11.6025 15.5486 11.615 15.832 11.4819 15.9005C11.2977 15.9953 11.0807 15.935 10.9989 15.8604C10.7654 15.6471 10.8282 15.0575 11.1197 14.8695C11.5187 14.4881 12.2741 14.2411 12.947 14.3233C12.7699 14.146 12.6035 13.9518 12.4552 13.7357C12.3462 13.5766 12.2633 13.4054 12.203 13.2266C12.1597 13.1803 12.1147 13.1374 12.0672 13.0976C11.3792 12.5206 10.4091 12.4847 9.65914 12.7518C9.09398 12.9749 9.01701 13.4478 9.25275 13.6532C9.31869 13.7105 9.48339 13.7767 9.63367 13.734C9.78422 13.6917 9.78366 13.4453 9.8363 13.4253C9.88186 13.4082 9.89573 13.4899 9.87394 13.4989C9.85186 13.5081 9.87705 13.5682 9.86177 13.5929C9.80205 13.6897 9.73781 13.8328 9.62999 13.86C9.40472 13.9164 9.18426 13.7952 9.11464 13.6931C8.91598 13.4015 9.137 12.7757 9.5032 12.6452C10.2585 12.3763 11.3687 12.2509 12.0966 12.7577C11.9987 11.9936 12.769 8.64509 14.1195 9.89221C14.1424 9.91298 14.1651 9.9416 14.1857 9.97556H14.1806C14.1829 9.9764 14.1849 9.97724 14.1872 9.9778C14.2729 10.1201 14.3264 10.3597 14.2316 10.5803C14.1753 10.7116 13.9772 10.7647 13.8402 10.8211C13.8054 10.8354 13.7329 10.7913 13.7162 10.8177C13.7004 10.8433 13.5977 10.8096 13.6288 10.7551C13.665 10.692 13.9837 10.7425 14.0683 10.5598C14.1535 10.3771 14.1011 10.1549 14.04 10.0595C13.8224 9.71878 13.1961 9.72187 12.7945 10.3948C12.3338 11.2311 12.173 12.3609 12.6414 13.3114L12.6541 13.3282L12.6522 13.3336C12.7257 13.4789 12.8124 13.6118 12.912 13.7361C12.711 13.3831 12.6274 13.146 12.7635 12.7466C12.9819 12.1065 13.7373 11.8923 14.1782 11.4394C14.033 12.4275 14.6935 13.5927 13.1599 13.8539C13.2514 13.424 13.4441 12.9691 13.6263 12.5311C13.3974 12.9444 13.1744 13.3858 12.9124 13.7366ZM18.2528 16.1313C18.8231 16.1313 19.2852 16.7324 19.2852 17.4739C19.2852 18.2153 18.8231 18.8164 18.2528 18.8164C17.6826 18.8164 17.2204 18.2153 17.2204 17.4739C17.2204 16.7324 17.6826 16.1313 18.2528 16.1313ZM18.4076 8.74416C18.6713 9.20046 18.9487 9.67416 19.1114 10.1344C17.3854 10.0637 17.9452 8.68747 17.6432 7.62052C18.1933 8.05661 19.0557 8.18542 19.3885 8.8595C19.5959 9.27988 19.5376 9.55265 19.367 9.97051C19.0282 9.62112 18.7189 9.16707 18.4076 8.74416ZM22.9317 7.87412C22.8862 8.4337 22.842 9.01656 22.7053 9.51889C21.2292 8.42416 22.5593 7.54747 22.9428 6.42776C23.1618 7.14084 23.8421 7.77029 23.725 8.56251C23.6517 9.05669 23.4346 9.26211 23.0299 9.52759C22.9442 9.01741 22.9487 8.43257 22.9317 7.87412ZM29.1496 12.3063C28.6473 12.505 28.1254 12.7149 27.6336 12.812C27.9522 11.0946 29.2733 11.8514 30.4027 11.7018C29.8803 12.1904 29.6256 13.0351 28.8918 13.2717C28.4342 13.4193 28.1648 13.3222 27.764 13.0912C28.1679 12.8022 28.6747 12.5578 29.1496 12.3063ZM31.6548 15.8567C31.1248 15.7498 30.5723 15.6418 30.1074 15.4554C31.3237 14.1923 32.0097 15.5438 33.037 16.0327C32.3298 16.157 31.65 16.725 30.9054 16.5238C30.4413 16.3986 30.2695 16.1708 30.0621 15.7599C30.5596 15.7377 31.1185 15.8087 31.6548 15.8567ZM19.4965 6.48099C19.4951 7.00521 19.4968 7.55047 19.4062 8.0281C17.9525 7.1155 19.1258 6.20401 19.4006 5.13425C19.6567 5.78195 20.3362 6.31879 20.2849 7.0647C20.2533 7.52971 20.0662 7.73653 19.709 8.01267C19.5919 7.5443 19.5531 6.9996 19.4965 6.48099ZM26.8577 10.7897C26.856 11.3577 26.858 11.9493 26.7598 12.4668C25.1838 11.4776 26.4558 10.4895 26.7538 9.32963C27.0315 10.032 27.7681 10.6138 27.7127 11.4223C27.6778 11.9266 27.4752 12.1508 27.0881 12.4502C26.961 11.9423 26.9191 11.3518 26.8577 10.7897ZM24.9461 6.69458C24.7562 7.13545 24.5615 7.59568 24.3133 7.96583C23.417 6.68251 24.7335 6.33004 25.3502 5.52604C25.3326 6.16251 25.7119 6.8551 25.4003 7.46519C25.2059 7.84572 24.9741 7.95376 24.5739 8.06012C24.6438 7.62374 24.8071 7.15145 24.9461 6.69458ZM29.0647 9.98527C28.8262 10.388 28.5802 10.8086 28.2941 11.1361C27.5883 9.78546 28.9049 9.6067 29.6013 8.90569C29.5048 9.51858 29.7847 10.2345 29.4072 10.7859C29.1717 11.1297 28.934 11.2057 28.5341 11.259C28.6564 10.8462 28.8732 10.4096 29.0647 9.98527ZM30.9459 18.4409C30.4796 18.7126 29.9959 18.9983 29.5244 19.1678C29.5779 17.4223 30.9991 17.9728 32.0927 17.6557C31.6503 18.217 31.5275 19.09 30.8381 19.4338C30.4082 19.6482 30.1269 19.5926 29.6956 19.4245C30.0511 19.078 30.5146 18.7606 30.9459 18.4409ZM24.6912 22.4194C25.0067 21.9836 25.3322 21.5281 25.6941 21.1838C26.3581 22.8013 24.8338 22.869 23.9633 23.598C24.1388 22.9071 23.8943 22.0596 24.3841 21.4683C24.6898 21.0996 24.9697 21.0376 25.4327 21.0182C25.2493 21.4776 24.9549 21.9541 24.6912 22.4194ZM29.8641 21.173C29.6267 20.6912 29.3762 20.1911 29.2418 19.7121C30.993 19.8981 30.3308 21.2614 30.566 22.3668C30.0356 21.8867 29.1671 21.6984 28.8739 20.9906C28.6914 20.5492 28.7689 20.2753 28.9707 19.8619C29.2919 20.2397 29.5758 20.7223 29.8641 21.173ZM27.2149 22.2793C26.9927 21.7902 26.7584 21.2825 26.6389 20.7996C28.3834 21.0404 27.6784 22.382 27.8788 23.4945C27.3637 22.998 26.5014 22.7828 26.2309 22.0663C26.0625 21.6193 26.1485 21.3482 26.3633 20.941C26.6723 21.3286 26.9409 21.8197 27.2149 22.2793ZM32.271 20.3119C31.8083 20.2246 31.3261 20.1368 30.9188 19.9799C31.9634 18.8661 32.5766 20.0352 33.4769 20.4494C32.8625 20.5659 32.2767 21.0682 31.626 20.9012C31.2202 20.7974 31.0683 20.601 30.8829 20.2454C31.3159 20.2204 31.8035 20.276 32.271 20.3119ZM30.5552 13.8106C30.129 14.137 29.6963 14.4948 29.2647 14.7414C29.2169 14.2843 29.2381 14.0008 29.5616 13.6475C30.0803 13.0809 30.9616 13.1977 31.6255 12.9255C31.0241 13.8852 31.1781 15.3905 29.4679 14.9738C29.7591 14.5688 30.166 14.1833 30.5552 13.8106ZM32.544 14.0931C32.175 14.2379 31.7918 14.3908 31.431 14.461C31.6684 13.2018 32.6357 13.7597 33.4643 13.6522C33.08 14.0094 32.8915 14.6285 32.3527 14.8005C32.0168 14.908 31.8195 14.8359 31.5258 14.6658C31.8229 14.4545 32.1951 14.2763 32.544 14.0931ZM25.4574 9.22861C24.9715 9.51709 24.4677 9.82017 23.9756 10.0017C24.0163 8.174 25.5089 8.73807 26.6508 8.39682C26.1929 8.98811 26.0718 9.90324 25.3532 10.2689C24.905 10.4971 24.6104 10.4409 24.1573 10.2689C24.5263 9.90324 25.0088 9.56677 25.4574 9.22861ZM21.0659 8.53071C20.7486 8.96148 20.4336 9.42451 20.0884 9.78007C19.9143 9.35464 19.8552 9.07653 20.0666 8.64829C20.4053 7.96159 21.2841 7.83026 21.8447 7.38602C21.5371 8.4729 22.107 9.87521 20.3487 9.94705C20.5146 9.47811 20.797 8.99571 21.0659 8.53071ZM27.6857 18.8508C27.223 18.7638 26.7407 18.6757 26.3335 18.5188C27.3781 17.405 27.9913 18.5741 28.8915 18.9883C28.2772 19.1047 27.6913 19.6071 27.0407 19.4404C26.6349 19.3363 26.4829 19.1398 26.2976 18.7843C26.7306 18.7593 27.2182 18.8148 27.6857 18.8508ZM23.7975 15.7442C23.3453 15.6137 22.8735 15.4807 22.4833 15.2862C23.63 14.2759 24.1284 15.4978 24.9847 15.9948C24.3618 16.0526 23.7307 16.4977 23.0991 16.2701C22.7051 16.1284 22.5724 15.9184 22.4219 15.5472C22.8557 15.5632 23.3357 15.6645 23.7975 15.7442ZM18.7056 11.7626C19.1576 11.917 19.6288 12.0747 20.0145 12.2913C18.8021 13.2584 18.3581 11.9964 17.5153 11.4503C18.1492 11.4225 18.8109 11.0027 19.4397 11.2639C19.8317 11.427 19.9556 11.6461 20.0895 12.0298C19.6511 11.9922 19.1697 11.8659 18.7056 11.7626ZM22.9076 12.5311C23.0901 12.9691 23.2826 13.424 23.3742 13.8539C21.8407 13.5927 22.5009 12.4275 22.3557 11.4394C22.7966 11.8923 23.552 12.1065 23.7704 12.7466C23.9069 13.1462 23.8228 13.3833 23.6216 13.7366C23.3595 13.3858 23.1365 12.9444 22.9076 12.5311ZM25.8481 13.8415C25.3811 13.7511 24.8893 13.6748 24.4724 13.5342C24.7506 13.2364 24.9529 13.0852 25.378 13.0922C26.0598 13.1034 26.4956 13.7517 27.0644 14.03C26.0714 14.1939 25.1533 15.1725 24.4353 13.8036C24.8762 13.7592 25.3718 13.8024 25.8481 13.8415ZM18.1308 4.75512C18.1444 5.1814 18.1753 5.62704 18.1339 6.01964C17.813 5.83611 17.6378 5.68962 17.5589 5.31638C17.4321 4.71808 17.9211 4.20705 18.0544 3.65337C18.3994 4.48881 19.4541 5.09553 18.3807 5.99803C18.2528 5.62143 18.192 5.17943 18.1308 4.75512ZM13.6022 7.87412C13.5855 8.43257 13.5897 9.01741 13.504 9.52759C13.0996 9.26211 12.8825 9.05669 12.8092 8.56251C12.6918 7.77029 13.3724 7.14084 13.5914 6.42776C13.9749 7.54747 15.3047 8.42416 13.8289 9.51889C13.6919 9.01656 13.6478 8.4337 13.6022 7.87412ZM7.38438 12.3063C7.85925 12.5578 8.36611 12.8022 8.76995 13.0912C8.36922 13.3222 8.0998 13.4193 7.64219 13.2717C6.90837 13.0351 6.65395 12.1904 6.13125 11.7018C7.26042 11.8514 8.58147 11.0946 8.90041 12.812C8.40856 12.7149 7.8867 12.505 7.38438 12.3063ZM4.87914 15.8567C5.41514 15.8087 5.97407 15.7377 6.47187 15.7599C6.26443 16.1708 6.09264 16.3986 5.62852 16.5238C4.88395 16.725 4.2039 16.157 3.49696 16.0327C4.52397 15.5438 5.21053 14.1923 6.42659 15.4554C5.96162 15.6418 5.4092 15.7498 4.87914 15.8567ZM16.5787 6.05811C16.5221 6.57672 16.4833 7.12114 16.3662 7.58979C16.009 7.31365 15.822 7.10683 15.7903 6.64154C15.739 5.89591 16.4185 5.35907 16.6744 4.71137C16.9494 5.78113 18.1228 6.69262 16.669 7.60522C16.5784 7.12759 16.5801 6.58233 16.5787 6.05811ZM9.67626 10.7897C9.61485 11.3518 9.57296 11.9423 9.4459 12.4502C9.05875 12.1508 8.85612 11.9266 8.82131 11.4223C8.76584 10.6138 9.5025 10.032 9.78012 9.32963C10.0781 10.4895 11.3502 11.4776 9.77418 12.4668C9.67598 11.9493 9.67767 11.3577 9.67626 10.7897ZM11.5878 6.69458C11.7268 7.15145 11.8901 7.62374 11.96 8.06012C11.5598 7.95376 11.3281 7.84572 11.1336 7.46519C10.822 6.8551 11.2013 6.16251 11.184 5.52604C11.8004 6.33004 13.1169 6.68251 12.2206 7.96583C11.9724 7.59568 11.7777 7.13545 11.5878 6.69458ZM7.46925 9.98527C7.66056 10.4096 7.87762 10.8462 7.99987 11.259C7.59971 11.2057 7.36199 11.1297 7.12682 10.7859C6.74929 10.2345 7.02918 9.51858 6.93268 8.90569C7.62914 9.6067 8.94566 9.78546 8.23986 11.1361C7.95375 10.8086 7.70782 10.388 7.46925 9.98527ZM5.58805 18.4409C6.01935 18.7606 6.4829 19.078 6.83807 19.4245C6.40706 19.5926 6.12576 19.6482 5.69588 19.4338C5.00649 19.09 4.88338 18.217 4.44133 17.6557C5.53485 17.9728 6.95608 17.4223 7.00957 19.1678C6.53809 18.9983 6.05444 18.7126 5.58805 18.4409ZM11.8427 22.4194C11.579 21.9541 11.2846 21.4776 11.1013 21.0182C11.5642 21.0376 11.8441 21.0996 12.1498 21.4683C12.6396 22.0596 12.3954 22.9071 12.5706 23.598C11.7001 22.869 10.1758 22.8013 10.8398 21.1838C11.2017 21.5281 11.5272 21.9836 11.8427 22.4194ZM6.66983 21.173C6.9582 20.7223 7.24205 20.2397 7.56326 19.8619C7.76504 20.2753 7.84258 20.5492 7.66005 20.9906C7.36686 21.6984 6.49833 21.8867 5.96798 22.3668C6.20316 21.2614 5.54093 19.8981 7.29215 19.7121C7.15772 20.1911 6.90726 20.6912 6.66983 21.173ZM9.31914 22.2793C9.59308 21.8197 9.86165 21.3286 10.1707 20.941C10.3855 21.3482 10.4718 21.6193 10.3029 22.0663C10.0326 22.7828 9.17028 22.998 8.65522 23.4945C8.85558 22.382 8.15063 21.0404 9.89505 20.7996C9.77562 21.2825 9.5413 21.7902 9.31914 22.2793ZM4.2629 20.3119C4.73042 20.276 5.21803 20.2204 5.6513 20.2454C5.46566 20.601 5.31368 20.7974 4.90786 20.9012C4.25724 21.0682 3.67171 20.5659 3.05703 20.4494C3.95726 20.0352 4.57052 18.8661 5.61508 19.9799C5.20813 20.1368 4.72589 20.2246 4.2629 20.3119ZM5.97882 13.8106C6.36767 14.1833 6.7749 14.5688 7.06611 14.9738C5.35594 15.3905 5.50961 13.8852 4.90851 12.9255C5.57243 13.1977 6.4537 13.0809 6.97244 13.6475C7.29591 14.0008 7.31713 14.2843 7.26931 14.7414C6.83773 14.4948 6.40474 14.137 5.97882 13.8106ZM3.98998 14.0931C4.33892 14.2763 4.71106 14.4545 5.00793 14.6658C4.71446 14.8359 4.51721 14.908 4.181 14.8005C3.64245 14.6285 3.45397 14.0094 3.06937 13.6522C3.89828 13.7597 4.86558 13.2018 5.10302 14.461C4.74219 14.3908 4.35901 14.2379 3.98998 14.0931ZM11.0184 9.18183C11.4846 9.53317 11.986 9.88284 12.3695 10.2628C11.8989 10.4419 11.5924 10.4999 11.1266 10.2628C10.38 9.88284 10.2541 8.93179 9.77805 8.31749C10.965 8.6722 12.5158 8.08597 12.5583 9.98527C12.0469 9.79669 11.5233 9.48154 11.0184 9.18183ZM15.4116 8.46024C15.6938 8.94854 15.9904 9.45479 16.1644 9.9473C14.3187 9.87153 14.917 8.39963 14.5941 7.25831C15.1827 7.72471 16.105 7.86278 16.4607 8.58372C16.6826 9.03329 16.6203 9.32514 16.4378 9.77191C16.0753 9.39839 15.7447 8.91234 15.4116 8.46024ZM8.84823 18.8508C9.31574 18.8148 9.80335 18.7593 10.2366 18.7843C10.051 19.1398 9.89901 19.3363 9.49319 19.4404C8.84257 19.6071 8.25704 19.1047 7.64236 18.9883C8.54259 18.5741 9.15585 17.405 10.2004 18.5188C9.79345 18.6757 9.31122 18.7638 8.84823 18.8508ZM12.7364 15.7442C13.1982 15.6645 13.6782 15.5632 14.112 15.5472C13.9615 15.9184 13.8288 16.1284 13.4348 16.2701C12.8032 16.4977 12.1721 16.0526 11.5492 15.9948C12.4055 15.4978 12.9039 14.2759 14.0506 15.2862C13.6604 15.4807 13.1886 15.6137 12.7364 15.7442ZM17.755 12.9842C17.3259 12.7807 16.8692 12.5843 16.5013 12.3446C16.846 12.1254 17.08 12.0292 17.4898 12.142C18.1467 12.3224 18.4045 13.0585 18.885 13.4696C17.882 13.381 16.7455 14.0999 16.3971 12.596C16.8349 12.6628 17.3039 12.8281 17.755 12.9842ZM10.6859 13.8415C11.1622 13.8024 11.6577 13.7592 12.0987 13.8036C11.3807 15.1725 10.4626 14.1939 9.4693 14.03C10.0384 13.7517 10.4742 13.1034 11.1557 13.0922C11.5811 13.0852 11.7831 13.2364 12.0616 13.5342C11.6447 13.6748 11.1529 13.7511 10.6859 13.8415ZM21.2273 5.69004C21.2395 6.08152 21.2681 6.49068 21.2302 6.85128C20.9356 6.68263 20.7745 6.5482 20.7021 6.20556C20.5858 5.65608 21.0346 5.18659 21.1572 4.67837C21.4738 5.44561 22.4426 6.00266 21.4569 6.83136C21.3394 6.48562 21.2834 6.07955 21.2273 5.69004ZM14.7588 5.52935C14.7713 5.92083 14.7996 6.32999 14.7616 6.6906C14.467 6.52194 14.3063 6.38752 14.2336 6.04487C14.1173 5.4954 14.5661 5.02618 14.6886 4.51768C15.0053 5.28492 15.974 5.84197 14.9883 6.67067C14.8709 6.32494 14.8149 5.91887 14.7588 5.52935ZM23.551 5.04252C23.5635 5.43399 23.5918 5.84315 23.5538 6.20376C23.2592 6.0351 23.0982 5.90068 23.0258 5.55803C22.9094 5.00856 23.3583 4.53907 23.4808 4.03085C23.7975 4.79809 24.7662 5.35486 23.7805 6.18384C23.6631 5.8381 23.607 5.43203 23.551 5.04252ZM12.9694 5.3491C12.9819 5.74058 13.0102 6.14974 12.9722 6.51035C12.6776 6.34169 12.5169 6.20727 12.4442 5.86462C12.3278 5.31515 12.777 4.84565 12.8992 4.33743C13.2159 5.10468 14.1846 5.66172 13.1989 6.49042C13.0815 6.14469 13.0254 5.73862 12.9694 5.3491ZM27.6087 8.55473C27.4494 8.9131 27.2969 9.29419 27.1058 9.60344C26.9134 9.32534 26.8268 9.13507 26.9106 8.79467C27.0447 8.24941 27.6543 8.01817 27.986 7.6121C27.9376 8.43996 28.569 9.35677 27.3189 9.68258C27.3634 9.32029 27.4896 8.93021 27.6087 8.55473ZM26.7107 6.95916C26.4708 7.27038 26.2322 7.60517 25.9732 7.8611C25.8521 7.54595 25.8133 7.34081 25.9752 7.02988C26.235 6.53092 26.882 6.44841 27.3008 6.13102C27.0574 6.92408 27.4539 7.96241 26.1617 7.98766C26.2908 7.64614 26.5061 7.29647 26.7107 6.95916ZM8.74451 8.35445C8.93695 8.671 9.13901 8.99961 9.26013 9.32065C8.04663 9.2968 8.41877 8.32161 8.19039 7.57654C8.58348 7.87457 9.19137 7.9523 9.43531 8.42068C9.58757 8.71309 9.55078 8.9056 9.43729 9.20167C9.19391 8.96145 8.96978 8.64686 8.74451 8.35445ZM10.0043 6.65035C10.1967 6.96718 10.3985 7.29552 10.5199 7.61656C9.30641 7.59271 9.67855 6.61752 9.45017 5.87245C9.84354 6.17048 10.4511 6.24821 10.6951 6.71658C10.8473 7.009 10.8106 7.20151 10.6971 7.49757C10.4537 7.25736 10.2296 6.94277 10.0043 6.65035ZM0.643261 18.5513C0.643261 25.4413 4.72838 31.387 10.627 34.1363C4.36274 31.3429 0 25.1003 0 17.8491C0 7.99288 8.06044 0 18 0C27.9393 0 36 7.99288 36 17.8491C36 25.1003 31.637 31.3429 25.373 34.1363C31.2716 31.387 35.3567 25.4413 35.3567 18.5513C35.3567 9.04749 27.5841 1.34 18 1.34C8.41589 1.34 0.643261 9.04749 0.643261 18.5513Z" fill="#C85FD2"/>
</svg>
