<svg width="24" height="24" viewBox="0 0 24 24" fill="none" xmlns="http://www.w3.org/2000/svg">
<g clip-path="url(#clip0_19667_239009)">
<path fill-rule="evenodd" clip-rule="evenodd" d="M20.4799 18.5818L19.6476 19.4151C18.5972 20.4681 17.423 21 16.1626 21C14.4625 21 12.6287 20.0308 10.7142 18.1146L5.88818 13.2832C4.37782 11.7719 3.44788 10.3051 3.12881 8.92145C2.74059 7.23947 3.23094 5.7003 4.58589 4.34456L5.41877 3.51182C5.95542 2.97485 6.82257 2.84283 7.49306 3.19954C8.75286 3.86598 10.0596 6.05447 10.203 6.302C10.4668 6.76027 10.5455 7.23249 10.432 7.63997C10.3463 7.94971 10.1522 8.20169 9.86993 8.3756C9.48869 8.69486 9.04022 9.09537 8.95902 9.19438C8.47819 9.90526 8.53338 10.4511 9.15313 11.0712L12.9249 14.8452C13.5491 15.4723 14.0858 15.5231 14.8076 15.035C14.9021 14.9582 15.2999 14.5094 15.6215 14.128C15.8594 13.7319 16.2501 13.5149 16.7265 13.5149C17.0386 13.5149 17.3723 13.6094 17.6888 13.7903C17.9387 13.9382 20.1259 15.2457 20.792 16.5062C21.158 17.1962 21.033 18.0289 20.4799 18.5818Z" stroke="#9396A3" stroke-width="1.5" stroke-linecap="square"/>
</g>
<defs>
<clipPath id="clip0_19667_239009">
<rect width="24" height="24" fill="white"/>
</clipPath>
</defs>
</svg>
