<svg width="18" height="18" viewBox="0 0 18 18" fill="none" xmlns="http://www.w3.org/2000/svg">
<path d="M14.5 15H3.5C2.39543 15 1.5 14.1046 1.5 13V11.5187C1.5 11.0152 1.74819 10.5441 2.16344 10.2594C3.04802 9.65279 3.04802 8.34721 2.16344 7.74064C1.74819 7.4559 1.5 6.98478 1.5 6.48129V5C1.5 3.89543 2.39543 3 3.5 3H14.5C15.6046 3 16.5 3.89543 16.5 5V6.48128C16.5 6.98477 16.2518 7.4559 15.8366 7.74064C14.952 8.34721 14.952 9.65279 15.8366 10.2594C16.2518 10.5441 16.5 11.0152 16.5 11.5187V13C16.5 14.1046 15.6046 15 14.5 15Z" stroke="#3975E9" stroke-width="1.5" stroke-linecap="round" stroke-linejoin="round"/>
<path d="M7.74984 7.71439L8.99984 5.57153L10.2498 7.71439L12.3332 8.14296L10.6665 9.85725L11.0832 12.0001L8.99984 11.143L6.9165 12.0001L7.33317 9.85725L5.6665 8.14296L7.74984 7.71439Z" stroke="#3975E9" stroke-width="1.5" stroke-linecap="round" stroke-linejoin="round"/>
</svg>
