<svg width="24" height="24" viewBox="0 0 24 24" fill="none" xmlns="http://www.w3.org/2000/svg">
<path d="M23 12.2266V17.2266C23 17.7788 22.5523 18.2266 22 18.2266H15.25H7.73607C7.58082 18.2266 7.42771 18.1904 7.28885 18.121L6.01906 17.4861C5.69808 17.3256 5.31573 17.3494 5.01714 17.5485L4.25192 18.0586C4.08766 18.1681 3.89465 18.2266 3.69722 18.2266H2C1.44772 18.2266 1 17.7788 1 17.2266V12.2266" stroke="#9396A3" stroke-width="1.5" stroke-linecap="round" stroke-linejoin="round"/>
<path d="M23 12.2266V6.22656C23 5.67428 22.5523 5.22656 22 5.22656H15.25H7.73607C7.58082 5.22656 7.42771 5.26271 7.28885 5.33214L6.01906 5.96703C5.69808 6.12752 5.31573 6.10372 5.01714 5.90466L4.25192 5.39451C4.08766 5.285 3.89465 5.22656 3.69722 5.22656H2C1.44772 5.22656 1 5.67428 1 6.22656V12.2266" stroke="#9396A3" stroke-width="1.5" stroke-linecap="round" stroke-linejoin="round"/>
<circle cx="17" cy="14.2266" r="1" stroke="#9396A3" stroke-width="1.5"/>
<circle cx="11" cy="9.22656" r="1" stroke="#9396A3" stroke-width="1.5"/>
<path d="M16.5 8.22656L11.5 15.2266" stroke="#9396A3" stroke-width="1.5" stroke-linecap="round" stroke-linejoin="round"/>
</svg>
