<svg width="24" height="24" viewBox="0 0 24 24" fill="none" xmlns="http://www.w3.org/2000/svg">
<rect x="0.75" y="2.75" width="22.5" height="18.5" rx="1.25" stroke="#ED4F55" stroke-width="1.5"/>
<path d="M10.5 7C9.83696 7 9.20107 7.26339 8.73223 7.73223C8.26339 8.20107 8 8.83696 8 9.5C8 10.163 8.26339 10.7989 8.73223 11.2678C9.20107 11.7366 9.83696 12 10.5 12C11.163 12 11.7989 11.7366 12.2678 11.2678C12.7366 10.7989 13 10.163 13 9.5C13 8.83696 12.7366 8.20107 12.2678 7.73223C11.7989 7.26339 11.163 7 10.5 7ZM10.5 12C9.83696 12 9.20107 12.2634 8.73223 12.7322C8.26339 13.2011 8 13.837 8 14.5C8 15.163 8.26339 15.7989 8.73223 16.2678C9.20107 16.7366 9.83696 17 10.5 17C11.163 17 11.7989 16.7366 12.2678 16.2678C12.7366 15.7989 13 15.163 13 14.5C13 13.837 12.7366 13.2011 12.2678 12.7322C11.7989 12.2634 11.163 12 10.5 12Z" stroke="#ED4F55" stroke-width="1.5" stroke-linecap="round" stroke-linejoin="round"/>
<path d="M5 7V17" stroke="#ED4F55" stroke-width="1.5" stroke-linecap="round" stroke-linejoin="round"/>
<path d="M16 12H20M18 14V10" stroke="#ED4F55" stroke-width="1.5" stroke-linecap="round" stroke-linejoin="round"/>
</svg>
