<svg width="48" height="48" viewBox="0 0 48 48" fill="none" xmlns="http://www.w3.org/2000/svg">
<circle cx="24.0007" cy="24.0007" r="19.8621" fill="#1E2126"/>
<path fill-rule="evenodd" clip-rule="evenodd" d="M22.5042 9.70336C21.6 10.9251 20.6683 12.65 19.8613 14.6719C21.2187 14.7984 22.5152 14.984 23.7507 15.2329C24.3125 13.2527 24.6058 11.453 24.62 10.0654C24.6489 7.25895 24.0838 7.56828 22.5042 9.70336Z" fill="#FCB6C3"/>
<path fill-rule="evenodd" clip-rule="evenodd" d="M18.794 7.90474C16.6787 7.94552 14.2869 8.1884 11.9255 8.59718C9.61166 8.99817 7.36568 9.62783 6.56279 12.113C5.96337 13.9686 6.67323 15.8855 7.98985 17.2489C10.5731 19.6168 13.7723 21.1547 16.4646 22.4026C16.2007 18.9582 17.8821 13.9754 19.5465 10.8789L20.4259 9.39457C20.7522 8.89918 21.106 8.418 21.5042 7.97806C20.6839 7.90886 19.7701 7.88595 18.794 7.90474Z" fill="#FFC4E0"/>
<path fill-rule="evenodd" clip-rule="evenodd" d="M13.7582 13.093C11.223 12.5935 8.77538 12.3075 6.53031 12.2168C5.99047 14.0393 6.69758 15.91 7.98945 17.2477C10.5727 19.6156 13.7719 21.1535 16.4647 22.4019C16.2814 20.0083 17.0371 16.8714 18.0737 14.1411C16.7062 13.7424 15.2613 13.3886 13.7582 13.093Z" fill="#FCB6C3"/>
<path fill-rule="evenodd" clip-rule="evenodd" d="M36.1584 27.9011C35.4444 27.71 34.6882 27.6803 33.9486 27.8269C34.5686 28.5285 34.9435 29.3488 35.092 30.1847C35.5557 32.7904 33.6796 35.5483 30.9043 35.3531C31.5784 36.3306 32.5609 36.9923 33.6434 37.2829C36.2344 37.9767 38.897 36.441 39.5917 33.8495C39.9139 32.6461 39.7778 31.3212 39.1083 30.1604C38.4396 29.0019 37.3609 28.2233 36.1584 27.9011Z" fill="#E8FEFF"/>
<path fill-rule="evenodd" clip-rule="evenodd" d="M33.95 27.8281C34.5695 28.5297 34.9435 29.3496 35.092 30.185C35.5557 32.7907 33.6796 35.5486 30.9043 35.3529C31.5789 36.3304 32.5609 36.9926 33.6434 37.2827C34.4256 37.4926 35.2139 37.4985 35.9526 37.3345C36.404 36.3139 36.6615 35.1412 36.6615 33.8933C36.6615 31.3293 35.5773 29.082 33.95 27.8281Z" fill="#A2E0E3"/>
<path fill-rule="evenodd" clip-rule="evenodd" d="M29.2427 36.4434C28.762 37.4915 27.8207 38.1844 26.6218 37.9085C25.1558 37.5708 24.2704 35.9993 24.1985 34.5801C22.8315 35.471 22.156 37.0859 22.4479 38.6646C22.6413 39.7086 23.2425 40.6325 24.1128 41.231C24.9556 41.8102 26.0215 42.0678 27.1108 41.8657C29.0818 41.5004 30.4773 39.7278 30.3723 37.727C29.9512 37.3549 29.5703 36.9264 29.2427 36.4434Z" fill="#E8FEFF"/>
<path fill-rule="evenodd" clip-rule="evenodd" d="M26.6213 37.9059C25.1566 37.5686 24.2713 36.0004 24.1989 34.582C24.1952 34.6819 24.1934 34.7818 24.1934 34.8827C24.1934 37.9801 25.7758 40.6147 27.9865 41.5945C29.48 40.9401 30.4602 39.414 30.3718 37.7244C29.9506 37.3523 29.5702 36.9238 29.2421 36.4408C28.7614 37.4888 27.8201 38.1817 26.6213 37.9059Z" fill="#A2E0E3"/>
<path fill-rule="evenodd" clip-rule="evenodd" d="M17.7277 36.3418C17.4353 36.5576 17.1828 36.8198 16.9794 37.1154C16.0706 38.4388 16.2232 40.2371 17.5229 41.2444C18.6557 42.122 20.2908 42.2136 21.431 41.2966C20.9888 40.6482 20.6684 39.9021 20.5076 39.0859C19.0769 39.0062 17.9527 37.6964 17.7277 36.3418Z" fill="#E8FEFF"/>
<path fill-rule="evenodd" clip-rule="evenodd" d="M17.7285 36.3438C17.7702 38.625 18.6703 40.641 20.0414 41.9081C20.5382 41.8302 21.0175 41.6304 21.4318 41.2972C20.9896 40.6492 20.6692 39.9031 20.5084 39.0865C19.0781 39.0072 17.954 37.6979 17.7285 36.3438Z" fill="#A2E0E3"/>
<path fill-rule="evenodd" clip-rule="evenodd" d="M27.5613 31.5375C26.9793 25.9122 23.7113 22.7785 18.4586 20.918C18.4179 21.4404 18.3331 23.1383 18.6639 23.4334C22.6807 25.4017 24.2054 28.0468 24.0518 32.4192C24.4294 32.2606 24.8277 32.1383 25.2452 32.0576C25.4431 32.0109 25.6576 32.0246 25.8597 32.1108C26.3638 32.3257 26.5984 32.9086 26.384 33.4132C26.0077 34.2944 26.1965 35.1184 26.5893 35.6133C26.7071 35.7618 27.0388 36.1078 27.2428 35.9181C27.6062 35.5803 27.8445 34.673 27.7276 32.9219C27.658 32.4737 27.6108 32.0127 27.5613 31.5375Z" fill="#E8FEFF"/>
<path fill-rule="evenodd" clip-rule="evenodd" d="M18.6641 23.4336C19.0615 23.6284 19.4349 23.83 19.7846 24.039C19.3758 23.7741 18.9703 23.523 18.5684 23.2852C18.5954 23.3498 18.627 23.4002 18.6641 23.4336Z" fill="#6DC0D5"/>
<path fill-rule="evenodd" clip-rule="evenodd" d="M27.5595 31.5377C27.5155 31.1092 27.455 30.6959 27.3799 30.2958C25.2292 28.1309 23.013 26.2671 20.8555 24.7617C23.2408 26.5792 24.172 28.9586 24.0501 32.4194C24.4277 32.2609 24.8259 32.1385 25.2434 32.0578C25.4414 32.0111 25.6559 32.0248 25.8579 32.111C26.362 32.3259 26.5967 32.9089 26.3822 33.4134C26.006 34.2947 26.1948 35.1186 26.5875 35.6136C26.7053 35.762 27.0371 36.108 27.241 35.9183C27.6044 35.5806 27.8427 34.6732 27.7259 32.9221C27.6562 32.474 27.609 32.0129 27.5595 31.5377Z" fill="#A2E0E3"/>
<path fill-rule="evenodd" clip-rule="evenodd" d="M19.4427 16.2559C19.1466 17.1852 18.9143 18.0821 18.7461 18.9184C24.8993 20.9687 28.8574 24.7788 29.5356 31.3357C29.6044 32.0002 29.6731 32.557 30.2239 33.0341C30.9448 33.6591 32.002 33.359 32.5831 32.689C33.0886 32.1051 33.2655 31.278 33.1321 30.5269C32.9616 29.5709 32.3466 28.8491 31.5076 28.4037C30.7734 28.0137 30.8215 26.9592 31.5603 26.621C32.7967 25.929 34.1577 25.6605 35.4725 25.7714C32.4282 19.1833 26.3277 16.7948 19.4427 16.2559Z" fill="#E8FEFF"/>
<path fill-rule="evenodd" clip-rule="evenodd" d="M18.748 18.918C24.8999 20.9687 28.8566 24.7788 29.5353 31.3348C29.6036 31.9993 29.6723 32.5556 30.2231 33.0332C30.944 33.6578 32.0017 33.3576 32.5828 32.6876C33.0878 32.1038 33.2647 31.2766 33.1313 30.526C32.9613 29.5695 32.3463 28.8482 31.5072 28.4028C30.7731 28.0128 30.8212 26.9579 31.5599 26.6201C32.7963 25.9277 34.1574 25.6591 35.4717 25.77C35.43 25.6788 35.3869 25.5886 35.3434 25.4992C29.319 21.5352 23.2226 19.2241 18.748 18.918Z" fill="#A2E0E3"/>
<path fill-rule="evenodd" clip-rule="evenodd" d="M24.0125 3.31055C20.163 3.31055 16.4125 4.37007 13.1382 6.39562C12.6157 6.47032 12.0928 6.55235 11.5722 6.64263C8.46013 7.18202 5.72288 8.25666 4.67344 11.5053C4.17439 13.0525 4.3027 14.6459 4.88883 16.0821C3.8481 18.5888 3.31055 21.299 3.31055 24.0129C3.31055 35.4463 12.5791 44.7153 24.0125 44.7153C29.7289 44.7153 34.9046 42.3978 38.651 38.6514C42.3969 34.9055 44.7144 29.7294 44.7144 24.0129C44.7144 12.58 35.4458 3.31055 24.0125 3.31055ZM6.56286 12.113C7.36575 9.62783 9.61173 8.99817 11.9255 8.59718C14.287 8.1884 16.6783 7.94552 18.7941 7.90474C19.7698 7.88595 20.6835 7.90886 21.5043 7.97806C21.1056 8.418 20.7523 8.89918 20.426 9.39457C17.9371 9.28138 14.0244 9.37074 8.99353 10.752C11.5658 10.4958 16.7282 10.3363 19.5466 10.8789C17.8817 13.9754 16.2007 18.9582 16.4647 22.4026C13.7724 21.1547 10.5727 19.6168 7.98946 17.2489C6.67285 15.8855 5.96344 13.9686 6.56286 12.113ZM33.1321 30.5249C33.2655 31.276 33.0886 32.1032 32.5831 32.687C32.002 33.357 30.9448 33.6572 30.2239 33.0321C29.6731 32.555 29.6044 31.9987 29.5356 31.3338C28.8574 24.7768 24.8997 20.9668 18.7461 18.9165C18.9143 18.0801 19.1466 17.1833 19.4427 16.2539C26.3277 16.7928 32.4287 19.1813 35.4725 25.7694C34.1577 25.6585 32.7967 25.9271 31.5603 26.6191C30.8215 26.9573 30.7734 28.0118 31.5076 28.4017C32.3466 28.8476 32.9621 29.569 33.1321 30.5249ZM25.8597 32.1108C25.6576 32.0246 25.4431 32.0109 25.2447 32.0576C24.8277 32.1378 24.429 32.2606 24.0518 32.4192C24.2054 28.0468 22.6807 25.4017 18.6639 23.4334C18.3331 23.1383 18.4179 21.4404 18.4586 20.918C23.7113 22.7781 26.9793 25.9117 27.5613 31.5375C27.6108 32.0122 27.658 32.4737 27.7272 32.9214C27.8445 34.673 27.6062 35.5803 27.2428 35.9176C27.0388 36.1073 26.7071 35.7618 26.5893 35.6133C26.1965 35.1184 26.0077 34.294 26.384 33.4132C26.5984 32.9082 26.3638 32.3252 25.8597 32.1108ZM23.5773 14.8167C22.4839 14.5959 21.3364 14.4313 20.1348 14.32C20.8492 12.5304 21.6736 11.0044 22.4742 9.92287C23.8724 8.03388 24.3719 7.75984 24.3467 10.2432C24.3339 11.4714 24.0745 13.0639 23.5773 14.8167ZM17.5231 41.2444C16.2234 40.2371 16.0703 38.4384 16.9795 37.1154C17.183 36.8198 17.4355 36.5572 17.7279 36.3418C17.9529 37.6964 19.0771 39.0062 20.5078 39.0855C20.6686 39.9021 20.989 40.6482 21.4307 41.2962C20.291 42.2136 18.6559 42.122 17.5231 41.2444ZM21.958 33.8993C21.162 34.7742 20.6299 35.8951 20.4585 37.0669C19.756 36.786 19.5177 35.8419 19.8037 35.1733C20.1245 34.4181 19.4407 33.6344 18.663 33.8177C17.263 34.0909 16.0999 34.9016 15.3484 35.995C14.5166 37.2053 14.2187 38.7391 14.5688 40.1689C8.8368 36.8116 5.30078 30.6873 5.30078 24.0117C5.30078 22.0411 5.5982 20.1063 6.20587 18.2324C8.42389 20.8381 12.9456 22.9618 16.0481 24.3971C21.1734 26.7677 22.5143 28.1819 21.958 33.8993ZM24.1137 41.2295C21.7825 39.6269 21.8063 36.1381 24.1999 34.5781C24.2714 35.9978 25.1567 37.5693 26.6227 37.907C27.822 38.1829 28.7633 37.49 29.2436 36.4419C29.5717 36.9249 29.9521 37.3534 30.3732 37.7255C30.4782 39.7263 29.0832 41.4989 27.1117 41.8642C26.0229 42.0663 24.9565 41.8087 24.1137 41.2295ZM31.3809 41.217C31.8345 40.5268 32.1471 39.7446 32.2855 38.916C33.027 39.2217 33.8184 39.3963 34.6204 39.4284C33.6081 40.1268 32.5242 40.7266 31.3809 41.217ZM39.5917 33.8492C39.44 34.4138 39.1958 34.928 38.8787 35.3808C37.6102 37.037 35.7125 37.8366 33.6434 37.2826C32.5609 36.9925 31.5789 36.3303 30.9043 35.3528C33.6796 35.548 35.5557 32.7902 35.092 30.1849C34.9435 29.3486 34.5691 28.5283 33.949 27.8271C37.4278 27.1356 40.5312 30.3425 39.5917 33.8492ZM41.4834 30.7271C40.9504 28.8565 39.6448 27.2892 37.8901 26.4363C35.7092 20.5274 31.4619 16.9488 25.5118 15.2829C26.0388 13.3985 26.3142 11.6498 26.3279 10.2617C26.3412 9.0051 26.1071 7.04829 24.7015 6.56619C23.3703 6.10837 21.4437 5.90353 19.2344 5.91727C20.7577 5.51629 22.3589 5.30273 24.0118 5.30273C34.3468 5.30273 42.7239 13.6799 42.7239 24.0144C42.7239 26.3804 42.2845 28.6438 41.4834 30.7271Z" fill="#5987E2"/>
<path fill-rule="evenodd" clip-rule="evenodd" d="M4.53125 17.0061C4.90841 17.7412 5.39555 18.4208 5.96793 19.0299C6.04171 18.7622 6.12099 18.4969 6.20623 18.2352C5.6311 17.562 5.19208 16.8352 4.88778 16.0859C4.76176 16.3889 4.64307 16.6954 4.53125 17.0061Z" fill="#5987E2"/>
<path fill-rule="evenodd" clip-rule="evenodd" d="M14.8008 5.47054C14.2312 5.75375 13.6771 6.06262 13.1387 6.39533C15.15 6.10891 17.2031 5.92743 19.2355 5.91552C20.2776 5.64147 21.355 5.45496 22.4613 5.36422C20.004 5.06864 17.2599 5.20428 14.8008 5.47054Z" fill="#5987E2"/>
</svg>
