<svg width="48" height="48" viewBox="0 0 48 48" fill="none" xmlns="http://www.w3.org/2000/svg">
<circle cx="24.4145" cy="24.4145" r="20.2759" fill="#1E2126"/>
<path fill-rule="evenodd" clip-rule="evenodd" d="M27.6829 5.95598C20.2244 5.16899 13.3509 10.6344 17.9812 19.1294C19.7366 22.35 23.0769 24.9409 27.0068 25.1643C31.1927 25.4017 33.5848 23.0453 34.1043 19.8941C33.9806 20.0672 33.8487 20.2291 33.709 20.379C32.457 21.724 30.6128 22.1237 28.8615 21.8045C22.4709 20.6381 22.895 12.8603 27.4955 12.5198C28.2935 12.461 29.1194 12.6882 29.8625 13.2776C31.5193 14.5925 30.9701 17.3199 29.1671 17.2782C29.7333 16.1137 28.9481 14.4245 27.6353 14.5212C25.3311 14.6915 25.1749 19.0974 29.2111 19.8345C30.2953 20.0325 31.4777 19.8493 32.2637 19.0054C33.1235 18.0814 33.528 16.358 32.9307 13.552C32.649 12.3514 34.3045 11.8383 34.7965 12.8917C38.2889 19.8428 35.0631 27.6289 26.8982 27.1658C23.349 26.9636 20.2327 25.1717 18.0325 22.6576C17.0765 25.5234 16.2093 29.5851 16.6679 32.6039C17.9876 33.4506 19.2185 34.2024 20.7191 34.6568C23.8588 31.4255 26.5331 32.6419 28.8377 35.7422C28.7319 35.0089 28.5441 34.0692 28.3618 33.1559C26.6096 24.3801 38.1262 27.0501 40.0644 33.9012C41.7437 31.0688 42.7094 27.7543 42.7094 24.2117C42.7094 15.7963 36.31 6.86603 27.6829 5.95598Z" fill="#E8FEFF"/>
<path fill-rule="evenodd" clip-rule="evenodd" d="M29.3281 28.4632C32.0226 26.0805 38.6373 28.8569 40.0633 33.8995C41.7156 31.1129 42.6766 27.8603 42.7073 24.383C37.8988 23.3614 32.7298 24.817 29.3281 28.4632Z" fill="#A2E0E3"/>
<path fill-rule="evenodd" clip-rule="evenodd" d="M27.4271 21.3908C23.5279 19.8034 23.21 15.2518 25.4189 13.3539C27.6772 11.4154 33.8499 10.2078 36.783 10.4336C34.2983 8.00462 31.1729 6.32284 27.6818 5.95502C15.5124 4.67114 17.2357 17.2176 27.4271 21.3908Z" fill="#A2E0E3"/>
<path fill-rule="evenodd" clip-rule="evenodd" d="M18.3436 24.2852L17.9071 26.6762C17.7495 27.54 18.4417 28.3214 19.4843 26.9987C18.5489 27.3975 18.2878 24.6261 18.3436 24.2852Z" fill="#5987E2"/>
<path fill-rule="evenodd" clip-rule="evenodd" d="M24.0044 3.31055C12.5757 3.31055 3.31055 12.6688 3.31055 24.2109C3.31055 35.7538 12.5757 45.1121 24.0044 45.1121C35.4326 45.1121 44.6978 35.7538 44.6978 24.2109C44.6978 12.6545 35.4239 3.31055 24.0044 3.31055ZM24.0052 43.1026C13.6745 43.1026 5.30078 34.6451 5.30078 24.2111C5.30078 15.8097 10.7973 8.4228 18.7514 6.07617C14.5078 9.015 12.7684 14.541 16.6058 20.7222C15.303 24.3139 14.4922 27.5687 14.6095 31.5115C14.6475 32.7995 14.9406 33.8577 15.2691 34.0774C15.7941 34.4286 17.6365 35.5931 19.0794 36.2385C20.4317 36.8428 21.1779 37.0283 22.1431 36.0548C24.5906 33.5833 26.1641 35.409 27.6716 37.5233C29.6382 40.2822 30.9387 38.63 30.8127 36.0724C30.7628 35.0578 30.5305 33.8947 30.3042 32.7621C29.4243 27.5372 37.4627 29.8815 38.5236 36.1219C34.9625 40.5436 29.662 43.1026 24.0052 43.1026ZM40.0639 33.9012C38.1262 27.0501 26.6096 24.3801 28.3618 33.1554C28.5441 34.0692 28.7319 35.0089 28.8377 35.7422C26.5331 32.6419 23.8584 31.4255 20.7187 34.6568C19.2185 34.2024 17.9876 33.4506 16.6679 32.6039C16.2093 29.5851 17.0765 25.5234 18.0325 22.6572C20.2327 25.1717 23.349 26.9636 26.8978 27.1658C35.0626 27.6289 38.2889 19.8428 34.7965 12.8917C34.304 11.8383 32.649 12.3514 32.9307 13.552C33.528 16.358 33.1235 18.081 32.2637 19.0049C31.4777 19.8493 30.2953 20.0325 29.2111 19.834C25.1744 19.0974 25.3311 14.6915 27.6353 14.5212C28.9481 14.4245 29.7333 16.1137 29.1671 17.2778C30.9696 17.3199 31.5193 14.5925 29.862 13.2776C29.1194 12.6882 28.2935 12.4605 27.4955 12.5198C22.895 12.8603 22.4709 20.6381 28.8615 21.8045C30.6128 22.1237 32.4566 21.724 33.7085 20.379C33.8487 20.2291 33.9806 20.0672 34.1038 19.8941C33.5848 23.0453 31.1927 25.4017 27.0068 25.1639C23.0769 24.9409 19.7366 22.35 17.9812 19.1294C13.3509 10.6344 20.2244 5.16899 27.6829 5.95598C36.31 6.86603 42.7094 15.7959 42.7094 24.2117C42.7094 27.7543 41.7433 31.0688 40.0639 33.9012Z" fill="#5987E2"/>
<path fill-rule="evenodd" clip-rule="evenodd" d="M22.0971 3.39853C19.8048 4.05551 17.6656 5.28943 16.0742 7.09752C16.9331 6.69038 17.8282 6.348 18.7526 6.07503C22.2345 3.66456 27.4759 3.18293 31.3929 4.68196C28.4337 3.53918 25.2491 3.10752 22.0971 3.39853Z" fill="#5987E2"/>
</svg>
