<svg width="48" height="48" viewBox="0 0 48 48" fill="none" xmlns="http://www.w3.org/2000/svg">
<circle cx="24.0007" cy="23.1726" r="19.8621" fill="#1E2126"/>
<path fill-rule="evenodd" clip-rule="evenodd" d="M39.681 12.5684C40.717 15.2391 40.7472 17.4834 40.1829 19.0558C39.3619 21.3442 37.2143 22.4531 34.9351 21.4395C33.4558 20.7817 31.9178 19.1736 30.7475 16.414C30.2373 18.9623 30.4399 21.6137 32.2139 23.655C34.7283 26.549 40.1431 27.4635 42.9627 24.625C44.8982 22.6768 44.437 19.6261 43.3877 17.3555C42.6033 15.6585 41.3418 13.9853 39.681 12.5684Z" fill="#1E2126"/>
<path fill-rule="evenodd" clip-rule="evenodd" d="M36.956 21.2604C33.9007 21.1733 32.1381 18.8574 30.7473 16.4141C30.2371 18.9624 30.0895 21.6532 31.8635 23.6941C35.2727 27.6176 40.1314 22.5316 40.4729 17.8645C40.411 18.2954 40.3125 18.6937 40.1828 19.0559C39.623 20.6149 38.3995 21.3016 36.956 21.2604Z" fill="#A2E0E3"/>
<path fill-rule="evenodd" clip-rule="evenodd" d="M18.4302 12.8206C15.9864 12.3324 14.872 10.182 15.5216 7.8427C15.9694 6.23276 17.2901 4.41883 19.6789 2.83594C13.6219 3.38282 5.88211 8.73935 12.3773 14.5199C16.6722 18.3408 22.4802 16.2486 24.7521 11.1327C22.202 12.7119 20.0172 13.1369 18.4302 12.8206Z" fill="#1E2126"/>
<path fill-rule="evenodd" clip-rule="evenodd" d="M15.3532 8.76367C14.2177 18.245 22.1047 18.5228 24.7502 11.1337C21.8814 12.9095 14.9645 13.4349 15.3532 8.76367Z" fill="#A2E0E3"/>
<path fill-rule="evenodd" clip-rule="evenodd" d="M38.864 9.51618C34.9533 5.49546 29.6288 3.24604 24.0193 3.24604C23.6713 3.24604 23.3257 3.25475 22.9823 3.27125C24.3406 2.65148 25.4408 1.21849 23.6869 0.968656C17.6373 0.099968 7.14836 3.24467 8.03309 10.7906C4.89665 14.5954 3.31055 19.0809 3.31055 23.9547C3.31055 35.3912 12.5824 44.6625 24.0193 44.6625C34.7699 44.6625 43.7479 36.4226 44.6523 25.7224C46.9196 23.1301 46.5469 19.455 45.1928 16.5235C43.9876 13.9151 41.8056 11.3631 38.864 9.51618ZM19.6788 2.83594C17.2905 4.41883 15.9694 6.23276 15.522 7.8427C14.8719 10.182 15.9868 12.3324 18.4301 12.8206C20.0176 13.1369 22.2019 12.7119 24.7525 11.1327C22.4802 16.2486 16.6721 18.3408 12.3773 14.5199C5.88203 8.73935 13.6223 3.38282 19.6788 2.83594ZM8.75144 13.123C9.25065 14.1031 10.0057 15.0727 11.0504 16.0028C10.255 17.1928 9.96119 20.0143 8.87613 20.6107C7.96848 21.1095 6.41034 19.6444 5.93359 19.1136C6.51532 16.9347 7.48027 14.9122 8.75144 13.123ZM5.47487 21.4082C6.40636 22.1719 7.62344 22.8499 8.87032 22.6757C9.06468 24.0569 10.1314 26.5672 9.58544 27.7086C8.33627 27.9387 7.10635 28.2945 5.92824 28.7689C5.29288 26.3769 5.14115 23.8607 5.47487 21.4082ZM24.0193 42.6721C16.252 42.6721 9.31257 37.8813 6.54102 30.665C15.9435 26.7877 26.7358 32.075 29.4336 41.8768C27.7196 42.3943 25.902 42.6721 24.0193 42.6721ZM29.3777 36.7054C28.2894 34.8704 26.9133 33.2655 25.3299 31.9283C25.6637 31.6936 25.8823 31.3054 25.8823 30.8662C25.8823 30.1506 25.3015 29.5703 24.5859 29.5703C24.0106 29.5703 23.5224 29.9462 23.3533 30.4651C21.8396 29.4891 20.193 28.7286 18.4684 28.2097C18.5835 28.0163 18.65 27.7898 18.65 27.5478C18.65 26.8322 18.0692 26.2523 17.3536 26.2523C16.5954 26.2523 16.0022 26.8982 16.0613 27.6518C14.6357 27.4171 13.1752 27.3433 11.7069 27.4428C11.9581 25.489 10.499 22.7615 10.8524 21.4793C11.7449 20.3498 12.2698 17.559 12.7131 17.1418C19.8936 20.9618 25.7255 16.1022 27.5936 8.95003C27.92 7.69995 26.8074 7.06001 26.0469 7.71049C22.9173 10.3968 20.3997 11.1857 18.8168 10.8699C17.5094 10.6086 17.0928 9.59502 17.4329 8.37244C17.6465 7.60322 18.1471 6.76204 18.9759 5.92544C20.5799 5.47757 22.2705 5.23828 24.018 5.23828C28.5952 5.23828 32.7887 6.88168 36.0407 9.60969C36.0389 9.95716 36.1929 10.1405 36.3607 10.4078C38.561 13.905 38.9191 16.7068 38.3158 18.3883C37.889 19.5787 36.958 20.1683 35.7432 19.6278C34.2703 18.9727 32.6709 16.8746 31.6665 12.8727C31.4236 11.8994 30.0557 11.8692 29.755 12.8121C28.2069 16.8177 27.6972 21.4844 30.7121 24.9545C32.5407 27.0586 35.4787 28.3404 38.2608 28.3468C37.0964 29.7972 34.9556 30.4816 34.6591 32.7631C32.9694 34.3749 30.3083 35.5282 29.3777 36.7054ZM31.305 41.2023C31.0735 40.3813 30.7879 39.5759 30.4473 38.7938C31.3169 37.1862 33.4714 36.7392 35.3628 35.0605C35.9629 35.8013 36.8316 36.3487 37.6879 36.7429C35.8996 38.6559 33.7171 40.1819 31.305 41.2023ZM39.0232 35.1497C38.2829 34.8737 36.5207 34.0211 36.6298 33.041C36.8123 31.399 40.53 30.1251 40.4278 28.0828C41.1654 27.9164 41.8291 27.6854 42.4219 27.3984C41.8892 30.2653 40.7028 32.9021 39.0232 35.1497ZM42.9629 24.6246C40.1428 27.4635 34.7285 26.5485 32.2141 23.655C30.4401 21.6137 30.237 18.9618 30.7477 16.414C31.9175 19.1736 33.456 20.7812 34.9353 21.4391C37.214 22.4531 39.3617 21.3437 40.1827 19.0558C40.747 17.483 40.7167 15.2386 39.6807 12.5684C41.3415 13.9853 42.6031 15.658 43.3874 17.3555C44.4372 19.6261 44.8979 22.6763 42.9629 24.6246Z" fill="#5987E2"/>
<path fill-rule="evenodd" clip-rule="evenodd" d="M8.75144 13.123C7.48027 14.9122 6.51532 16.9347 5.93359 19.1131C6.41034 19.6444 7.96802 21.109 8.87613 20.6107C9.96119 20.0143 10.255 17.1928 11.0504 16.0028C10.0057 15.0727 9.25065 14.1031 8.75144 13.123Z" fill="#E8FEFF"/>
<path fill-rule="evenodd" clip-rule="evenodd" d="M5.47476 21.4082C5.14104 23.8602 5.29323 26.3765 5.92813 28.7689C7.10625 28.2945 8.33616 27.9387 9.58579 27.7086C10.1313 26.5672 9.06458 24.0564 8.87021 22.6753C7.62379 22.8499 6.40671 22.1719 5.47476 21.4082Z" fill="#E8FEFF"/>
<path fill-rule="evenodd" clip-rule="evenodd" d="M20.7151 31.237C16.2694 28.9876 11.1361 28.7703 6.54102 30.6645C9.31257 37.8808 16.252 42.6716 24.0193 42.6716C25.902 42.6716 27.7196 42.3938 29.4336 41.8763C28.1578 37.2399 25.0154 33.4122 20.7151 31.237Z" fill="#E8FEFF"/>
<path fill-rule="evenodd" clip-rule="evenodd" d="M8.16992 33.918C11.5452 39.2855 17.4899 42.6722 24.0204 42.6722C25.9031 42.6722 27.7207 42.3944 29.4342 41.8769C26.6402 39.1173 22.2005 36.6437 16.91 35.1827C13.8588 34.3402 10.8782 33.9336 8.16992 33.918Z" fill="#A2E0E3"/>
<path fill-rule="evenodd" clip-rule="evenodd" d="M35.3628 35.0605C33.4719 36.7392 31.3173 37.1862 30.4473 38.7938C30.7883 39.5759 31.0735 40.3809 31.305 41.2019C33.7176 40.1819 35.9001 38.6559 37.6883 36.7425C36.8316 36.3487 35.9633 35.8013 35.3628 35.0605Z" fill="#E8FEFF"/>
<path fill-rule="evenodd" clip-rule="evenodd" d="M36.6279 33.041C36.5188 34.0206 38.2809 34.8737 39.0217 35.1492C40.7009 32.9021 41.8877 30.2649 42.4199 27.3984C41.8272 27.6854 41.1634 27.9164 40.4263 28.0828C40.5285 30.1251 36.8103 31.399 36.6279 33.041Z" fill="#E8FEFF"/>
<path fill-rule="evenodd" clip-rule="evenodd" d="M35.2676 8.99251C35.5312 9.191 35.7892 9.39591 36.0418 9.6077C36.0423 9.4578 36.0776 9.30561 36.1505 9.16258C36.3994 8.67529 36.9967 8.48184 37.484 8.73122C37.9603 8.97509 38.4205 9.23685 38.8629 9.5151C38.25 8.88479 37.5977 8.29435 36.9091 7.74609C36.1601 7.79652 35.516 8.2861 35.2676 8.99251Z" fill="#5987E2"/>
<path fill-rule="evenodd" clip-rule="evenodd" d="M42.4206 27.3971C42.3537 27.7547 42.2771 28.1086 42.1914 28.4583C43.0188 28.1301 43.7977 27.6882 44.489 27.1092C44.5591 26.6513 44.6141 26.1878 44.6535 25.7207C44.031 26.4326 43.2714 26.9864 42.4206 27.3971Z" fill="#5987E2"/>
<path fill-rule="evenodd" clip-rule="evenodd" d="M7.3418 11.6762C7.52333 12.4688 7.82863 13.2105 8.22699 13.9018C8.39568 13.6377 8.57034 13.3783 8.75141 13.1234C8.37872 12.3913 8.12751 11.6074 8.03216 10.791C7.79425 11.0798 7.56413 11.375 7.3418 11.6762Z" fill="#5987E2"/>
<path fill-rule="evenodd" clip-rule="evenodd" d="M22.9826 3.27183C21.2086 4.08184 19.892 5.0005 18.9766 5.92465C19.5514 5.76421 20.1373 5.63081 20.7327 5.52492C21.8471 4.72133 24.0287 3.55742 24.8204 3.26129C24.2084 3.23791 23.5946 3.24158 22.9826 3.27183Z" fill="#5987E2"/>
</svg>
