<svg width="48" height="48" viewBox="0 0 48 48" fill="none" xmlns="http://www.w3.org/2000/svg">
<circle cx="23.5864" cy="23.5864" r="20.2759" fill="#1E2126"/>
<path fill-rule="evenodd" clip-rule="evenodd" d="M28.2509 15.3304C27.9801 15.7671 27.7218 16.2299 27.476 16.7202C27.2317 17.2105 26.6355 17.4095 26.1454 17.1643C25.6552 16.92 25.4566 16.3239 25.7008 15.834C28.0827 11.0767 31.7343 8.26518 36.7063 6.7001C32.0362 7.54403 25.1377 10.794 23.0465 15.1892C22.7526 15.8058 22.5729 16.4306 22.5301 17.0527C22.5073 17.3821 22.3267 17.663 22.0674 17.8266C19.4764 19.6305 19.7243 21.4667 17.7249 23.7903C16.3187 25.4234 14.6535 26.8646 13.1516 28.4122C13.0129 28.5559 13.1182 28.9832 13.3248 29.4856C13.6899 30.3741 14.4683 31.4896 15.1599 32.1604C15.3273 32.2655 18.198 30.8398 21.2319 33.8937C21.4465 33.0642 21.7942 32.3776 22.2346 31.8127C23.0456 30.7714 26.7466 28.2294 30.4401 29.9779C28.78 30.3323 27.8824 30.4904 27.1739 30.8677C30.4734 33.513 32.3233 35.2876 34.0067 39.308C37.7982 36.8795 40.7305 33.0845 41.9876 28.3927C42.5605 26.2549 42.7389 24.1049 42.5675 22.0187C38.7448 18.8038 32.8172 18.2055 28.2509 15.3304Z" fill="#E8FEFF"/>
<path fill-rule="evenodd" clip-rule="evenodd" d="M23.4258 30.7809C28.4737 31.4496 32.0041 34.526 34.006 39.3076C37.148 37.2948 39.7 34.3434 41.1972 30.7215C36.0155 26.3636 28.675 26.5447 23.4258 30.7809Z" fill="#A2E0E3"/>
<path fill-rule="evenodd" clip-rule="evenodd" d="M20.0805 21.8981C19.6878 22.2798 19.6792 22.9087 20.0609 23.3015C20.4429 23.6947 21.0718 23.7033 21.4646 23.3212C21.2802 21.9904 21.6592 21.111 22.6751 20.0933C21.3992 20.4979 20.9705 21.0313 20.0805 21.8981Z" fill="#5987E2"/>
<path fill-rule="evenodd" clip-rule="evenodd" d="M43.7875 7.19111C44.7361 7.03571 44.9354 5.73373 44.0529 5.31502C41.5861 4.14054 38.4456 4.31132 35.8364 4.84943C36.0014 4.7508 36.1676 4.65485 36.3342 4.56091C38.0333 3.60051 39.8003 2.83151 41.4701 2.10958C42.4069 1.77685 42.3264 0.403659 41.3391 0.200352C37.9102 -0.499157 33.5896 1.10378 29.8347 3.70589C18.6563 0.36942 6.92554 6.91571 3.90506 18.1883C0.944978 29.2355 7.50126 40.5906 18.5484 43.5507C24.0718 45.0307 29.6721 44.1318 34.2619 41.4819C38.8521 38.8322 42.4308 34.4312 43.9108 28.9078C45.9022 21.4755 43.6153 13.6007 38.0144 8.38254C39.4769 7.86417 42.1619 7.4114 43.7875 7.19111ZM34.5619 3.29714C33.0473 4.21917 31.5974 5.30852 30.3115 6.66439C29.3816 7.08486 28.4751 7.55621 27.5994 8.0809C29.5856 6.15191 32.0344 4.43375 34.5619 3.29714ZM19.0636 41.6263C9.07826 38.9507 3.15256 28.6871 5.82801 18.7022C8.40689 9.07766 18.0829 3.15398 27.8184 5.24245C24.7603 7.80302 22.341 10.9429 21.5373 13.79C21.0758 14.6093 20.7351 15.5018 20.5981 16.4328C17.7607 18.5115 18.2315 20.1553 16.2202 22.4914C14.8473 24.0869 13.198 25.5134 11.7266 27.0303C10.918 27.8639 10.9983 29.0486 11.4876 30.2404C11.9626 31.3956 12.881 32.7128 13.7795 33.5838C14.3555 34.1425 14.9653 34.3833 15.4468 34.1858C18.1323 33.0811 20.0061 35.4274 20.7633 36.3758C21.5242 37.3281 23.0078 37.7195 22.9806 36.0834C22.9552 34.678 23.2796 33.6957 23.8003 33.028C24.2039 32.5097 24.7423 32.1618 25.335 31.9371C28.6494 34.6225 30.5696 36.1384 32.2699 40.2924C28.3217 42.2661 23.6629 42.8587 19.0636 41.6263ZM41.9876 28.3931C40.7304 33.0849 37.7981 36.8799 34.0066 39.3085C32.3232 35.2881 30.4733 33.5134 27.1738 30.8681C27.8823 30.4909 28.7799 30.3327 30.44 29.9784C26.746 28.2297 23.0451 30.7718 22.2345 31.8132C21.7941 32.3781 21.4464 33.0647 21.2318 33.8941C18.1979 30.8402 15.3272 32.266 15.1599 32.1604C14.4683 31.4896 13.6898 30.3745 13.3247 29.4861C13.1178 28.9831 13.0129 28.5563 13.1515 28.4127C14.653 26.8649 16.3186 25.4238 17.7249 23.7903C19.7242 21.4671 19.4763 19.631 22.067 17.8265C22.3266 17.6635 22.5072 17.3825 22.53 17.0531C22.5728 16.431 22.7526 15.8062 23.0459 15.1896C25.1376 10.7945 32.0358 7.54392 36.7064 6.70011C31.7342 8.26563 28.0826 11.0772 25.7007 15.8345C25.456 16.3242 25.6551 16.9204 26.1453 17.1648C26.6354 17.41 27.2313 17.2104 27.4759 16.7207C27.7213 16.2302 27.98 15.7675 28.2508 15.3308C32.8172 18.2055 38.7447 18.8042 42.5674 22.0192C42.7389 24.1049 42.5604 26.2553 41.9876 28.3931ZM29.3991 13.7069C31.1304 11.5692 33.2913 10.1108 35.8288 9.11214C38.9703 11.7098 41.1867 15.2798 42.1263 19.2442C38.2203 16.7919 33.521 16.2726 29.3991 13.7069Z" fill="#5987E2"/>
<path fill-rule="evenodd" clip-rule="evenodd" d="M27.5994 8.0809C28.4751 7.55621 29.3816 7.08486 30.3115 6.66439C31.5974 5.30852 33.0477 4.21928 34.5619 3.29714C32.0349 4.43387 29.5856 6.15191 27.5994 8.0809Z" fill="#E8FEFF"/>
<path fill-rule="evenodd" clip-rule="evenodd" d="M28.8011 3.42494C28.1001 3.93666 27.4219 4.48057 26.7751 5.04902C27.1231 5.10336 27.4713 5.16771 27.8195 5.24251C28.4658 4.70095 29.1405 4.18601 29.8351 3.70487C29.6472 3.64833 29.4584 3.5949 29.2684 3.544C29.1125 3.50224 28.9565 3.46281 28.8011 3.42494Z" fill="#5987E2"/>
<path fill-rule="evenodd" clip-rule="evenodd" d="M35.8293 9.11218C36.0697 9.31138 36.3052 9.51638 36.5346 9.7264C37.2426 9.46476 37.9661 9.24242 38.6976 9.04879C38.4752 8.82121 38.2468 8.59865 38.0135 8.38189C37.2741 8.59096 36.5445 8.83065 35.8293 9.11218Z" fill="#5987E2"/>
</svg>
