<svg width="48" height="48" viewBox="0 0 48 48" fill="none" xmlns="http://www.w3.org/2000/svg">
<circle cx="24.0007" cy="24.0007" r="19.8621" fill="#1E2126"/>
<path fill-rule="evenodd" clip-rule="evenodd" d="M26.8882 14.9078C26.1228 15.6425 25.3908 15.9398 24.723 15.245C23.9911 14.4823 23.1529 13.8141 22.2432 13.2759C22.0119 13.1389 21.7925 13.0134 21.5841 12.8984C18.0645 16.1844 17.9244 17.6332 17.7906 19.0265C17.6482 20.5078 17.5099 21.9401 15.1042 24.4465C15.3415 25.4583 14.981 27.1237 13.873 28.0979C14.1502 28.2592 14.4955 28.4488 14.8711 28.6558C16.5315 29.5701 17.7288 30.1545 18.8418 31.7077C19.467 32.5807 20.3602 33.828 20.9122 33.4986C23.1167 32.1832 24.9846 30.3221 27.1437 28.9416C28.8 27.8859 28.0951 21.6799 27.5028 19.8876C27.2257 19.0471 27.7401 18.323 28.3754 17.428C29.1811 16.2943 30.3166 14.6953 28.6603 13.0647C28.5884 12.9942 27.0805 14.7233 26.8882 14.9078Z" fill="#FFC4E0"/>
<path fill-rule="evenodd" clip-rule="evenodd" d="M28.7051 22.5247C28.7936 20.5625 27.2532 18.838 25.6152 17.8711C26.6989 20.5813 27.2417 26.8504 25.962 29.7581C29.438 29.4058 28.6374 24.0674 28.7051 22.5247Z" fill="#FCB6C3"/>
<path fill-rule="evenodd" clip-rule="evenodd" d="M33.3101 8.81375C32.0116 8.40289 30.5404 8.17112 28.8745 8.15234C35.5123 10.2465 39.1056 14.602 38.7873 21.9182C36.1101 11.9243 30.4739 8.77298 20.6495 8.94933C19.7092 8.96627 16.8451 8.89116 19.3125 9.7344C21.5894 10.5121 23.8645 11.6966 25.6343 13.357C26.5096 12.467 28.0793 10.0752 29.4008 11.087C34.4831 14.978 29.3133 19.0321 29.3907 19.2657C30.381 22.2654 30.5106 25.8939 29.2592 30.024C28.4998 32.5318 27.2269 35.2306 25.3215 38.0905C31.3396 34.4872 33.7031 26.8219 31.6626 20.1726C36.6263 26.7697 33.0202 38.7245 29.3696 43.843C32.3569 42.2669 34.8303 40.0628 36.4156 36.727C38.288 32.7865 38.8327 27.3958 39.042 24.0375C40.1234 27.8598 39.6608 32.7164 39.0259 35.1408C41.3367 32.0293 42.704 28.1754 42.704 24.0018C42.704 17.8586 39.5454 10.7865 33.3101 8.81375Z" fill="#E8FEFF"/>
<path fill-rule="evenodd" clip-rule="evenodd" d="M29.3711 43.8391C36.4244 37.9286 38.8186 26.9962 31.6622 20.1719C36.6255 26.7676 33.0212 38.7187 29.3711 43.8391Z" fill="#A2E0E3"/>
<path fill-rule="evenodd" clip-rule="evenodd" d="M21.5902 16.1582C20.5592 16.4298 19.6715 17.427 19.2286 18.4346C18.9968 18.9302 19.5735 19.9347 20.0686 20.166C20.13 20.1944 19.8955 19.4249 20.1369 18.6348C20.4273 17.6839 21.2215 16.6437 21.5902 16.1582Z" fill="#5987E2"/>
<path fill-rule="evenodd" clip-rule="evenodd" d="M19.3548 27.5234C19.0182 27.5234 18.7461 27.7964 18.7461 28.1322C18.7461 28.4688 19.0182 28.7409 19.3548 28.7409C19.691 28.7409 19.9631 28.4688 19.9631 28.1322C19.9631 27.7964 19.691 27.5234 19.3548 27.5234Z" fill="#466482"/>
<path fill-rule="evenodd" clip-rule="evenodd" d="M21.0501 28.5996C20.7139 28.5996 20.4414 28.8717 20.4414 29.2083C20.4414 29.5445 20.7139 29.8166 21.0501 29.8166C21.3863 29.8166 21.6589 29.5445 21.6589 29.2083C21.6589 28.8717 21.3863 28.5996 21.0501 28.5996Z" fill="#466482"/>
<path fill-rule="evenodd" clip-rule="evenodd" d="M21.4642 26.5527C21.1275 26.5527 20.8555 26.8253 20.8555 27.1615C20.8555 27.4977 21.1275 27.7697 21.4642 27.7697C21.8004 27.7697 22.0725 27.4977 22.0725 27.1615C22.0725 26.8253 21.8004 26.5527 21.4642 26.5527Z" fill="#466482"/>
<path fill-rule="evenodd" clip-rule="evenodd" d="M24.0019 3.31055C12.5748 3.31055 3.31055 12.5753 3.31055 24.0019C3.31055 35.4294 12.5748 44.6932 24.0019 44.6932C24.9372 44.6932 25.8579 44.6309 26.7602 44.5109C25.2313 48.0955 27.4807 47.0402 30.004 45.7481C32.1655 44.6406 34.7827 43.064 36.7289 40.3172C37.3981 39.795 38.0338 39.2325 38.6329 38.633C42.3779 34.889 44.6937 29.7154 44.6937 24.0019C44.6937 18.2883 42.3779 13.1153 38.6329 9.37083C34.889 5.62684 29.7154 3.31055 24.0019 3.31055ZM24.0029 42.705C13.6741 42.705 5.30078 34.3316 5.30078 24.0024C5.30078 13.6737 13.6741 5.30078 24.0029 5.30078C25.9972 5.30078 27.9191 5.6127 29.7215 6.1912C27.5128 6.07807 25.0005 6.319 22.141 6.98727C20.4426 6.91582 18.6892 7.00147 17.0219 7.32897C12.6445 8.18916 17.9165 11.2731 19.6731 11.979C16.148 15.4193 15.9794 17.1612 15.8178 18.8408C15.7092 19.9703 15.6039 21.0627 13.6755 23.0721C10.6149 26.2573 9.46617 27.947 13.916 30.3971C15.2645 31.1395 16.3266 31.6104 17.2262 32.8663C18.288 34.3495 19.8063 36.4683 21.9303 35.2014C23.5357 34.2432 24.9968 33.0111 26.4758 31.8669C25.3587 34.4937 23.647 37.3235 21.2034 40.3273C20.8585 40.7524 20.923 41.3771 21.3472 41.7225C21.6783 41.9913 22.1309 42.012 22.4781 41.8063C22.8019 41.635 23.1679 41.4559 23.5636 41.2617C25.7292 40.2004 28.7362 38.7255 31.02 35.845C30.1474 37.8708 28.9616 39.8523 27.7597 42.3271C26.5459 42.5744 25.29 42.705 24.0029 42.705ZM27.5013 19.8872C28.0931 21.6795 28.7985 27.8859 27.1418 28.9416C24.9831 30.3221 23.1152 32.1832 20.9107 33.4986C20.3587 33.8275 19.4651 32.5803 18.8403 31.7077C17.7273 30.1545 16.53 29.5701 14.8696 28.6558C14.494 28.4488 14.1487 28.2592 13.8711 28.0979C14.9791 27.1237 15.34 25.4583 15.1028 24.4465C17.5084 21.9396 17.6467 20.5073 17.7891 19.0265C17.9229 17.6332 18.0626 16.1839 21.5826 12.8984C21.791 13.0134 22.0104 13.1389 22.2413 13.2754C23.1514 13.8141 23.9891 14.4823 24.7215 15.245C25.3893 15.9398 26.1213 15.6425 26.8867 14.9078C27.0786 14.7233 28.5869 12.9942 28.6583 13.0647C30.3151 14.6953 29.1796 16.2943 28.3739 17.428C27.7386 18.323 27.2242 19.0467 27.5013 19.8872ZM39.0259 35.1408C39.6608 32.7164 40.1234 27.8598 39.0415 24.0375C38.8327 27.3958 38.2881 32.7865 36.4151 36.727C34.8299 40.0628 32.3565 42.2669 29.3696 43.843C33.0197 38.7245 36.6263 26.7697 31.6625 20.1726C33.7026 26.8219 31.3396 34.4872 25.3215 38.091C27.2269 35.2306 28.4998 32.5318 29.2592 30.024C30.5106 25.8939 30.381 22.2654 29.3907 19.2657C29.3133 19.0321 34.4831 14.978 29.4008 11.087C28.0793 10.0756 26.5092 12.467 25.6343 13.3575C23.8645 11.6971 21.5894 10.5126 19.3125 9.7344C16.8451 8.89161 19.7092 8.96627 20.6495 8.94933C30.4739 8.77298 36.1101 11.9243 38.7873 21.9182C39.2609 16.4671 36.6002 9.67669 28.8745 8.15234C30.5404 8.17112 32.0111 8.40289 33.3101 8.81375C39.5454 10.7865 42.704 17.8586 42.704 24.0018C42.704 28.1754 41.3367 32.0293 39.0259 35.1408Z" fill="#5987E2"/>
<path fill-rule="evenodd" clip-rule="evenodd" d="M19.3548 27.5234C19.0182 27.5234 18.7461 27.7964 18.7461 28.1322C18.7461 28.4688 19.0182 28.7409 19.3548 28.7409C19.691 28.7409 19.9631 28.4688 19.9631 28.1322C19.9631 27.7964 19.691 27.5234 19.3548 27.5234Z" fill="#5987E2"/>
<path fill-rule="evenodd" clip-rule="evenodd" d="M21.4642 26.5527C21.1275 26.5527 20.8555 26.8253 20.8555 27.1615C20.8555 27.4977 21.1275 27.7697 21.4642 27.7697C21.8004 27.7697 22.0725 27.4977 22.0725 27.1615C22.0725 26.8253 21.8004 26.5527 21.4642 26.5527Z" fill="#5987E2"/>
<path fill-rule="evenodd" clip-rule="evenodd" d="M21.0501 28.5996C20.7139 28.5996 20.4414 28.8717 20.4414 29.2083C20.4414 29.5445 20.7139 29.8166 21.0501 29.8166C21.3863 29.8166 21.6589 29.5445 21.6589 29.2083C21.6589 28.8717 21.3863 28.5996 21.0501 28.5996Z" fill="#5987E2"/>
<path fill-rule="evenodd" clip-rule="evenodd" d="M34.8787 6.39797C32.1877 5.39303 29.2796 5.20203 26.4375 5.45808C27.5656 5.60465 28.6626 5.85244 29.7184 6.19093C33.494 6.36407 36.6389 7.6397 39.421 10.2075C38.1009 8.72708 36.5642 7.44137 34.8787 6.39797Z" fill="#5987E2"/>
<path fill-rule="evenodd" clip-rule="evenodd" d="M25.5371 44.637C25.9484 44.6067 26.3561 44.5641 26.7601 44.511C27.0903 43.7369 27.4247 43.0128 27.7586 42.3262C27.3312 42.4132 26.8989 42.486 26.4623 42.5433C26.139 43.2322 25.8293 43.9279 25.5371 44.637Z" fill="#5987E2"/>
<path fill-rule="evenodd" clip-rule="evenodd" d="M36.7285 40.3159C37.3972 39.7938 38.0335 39.2313 38.6326 38.6317C38.835 38.4297 39.0329 38.2227 39.2266 38.0125C39.9178 36.3557 40.3195 34.6015 40.5027 32.8105C40.0671 33.6249 39.5729 34.4036 39.0256 35.1406C38.5304 37.2283 37.716 38.9226 36.7285 40.3159Z" fill="#5987E2"/>
</svg>
