<svg width="48" height="48" viewBox="0 0 48 48" fill="none" xmlns="http://www.w3.org/2000/svg">
<circle cx="24.0007" cy="24.0007" r="19.8621" fill="#1E2126"/>
<path fill-rule="evenodd" clip-rule="evenodd" d="M25.0145 3.235V0.995668C25.0145 0.445575 24.5689 0 24.0188 0C23.4687 0 23.0231 0.445575 23.0231 0.995668V3.235C11.9942 3.75713 3.31055 12.8713 3.31055 23.9199C3.31055 35.3563 12.5819 44.6286 24.0188 44.6286C35.4552 44.6286 44.727 35.3563 44.727 23.9199C44.727 12.8713 36.0434 3.75713 25.0145 3.235ZM8.22785 33.9709C6.37587 31.0673 5.30273 27.6187 5.30273 23.9198C5.30273 13.97 13.0957 5.74881 23.0244 5.22852V7.01128C18.8414 7.25928 15.0756 9.05716 12.2935 11.8393C9.17355 14.9597 7.43664 19.1527 7.43664 23.5654C7.43664 27.2442 10.4186 30.2266 14.0978 30.2266C17.5496 30.2266 20.4358 27.5834 20.7338 24.148C21.4998 19.6662 19.2884 14.4591 16.1941 11.2465C18.1932 9.97398 20.5224 9.17497 23.0244 9.00628V33.9709H8.22785ZM9.46094 22.5688C9.72636 18.6279 11.5733 14.9899 14.5782 12.4375C17.1389 15.0019 18.9606 18.9061 18.8854 22.5688H9.46094ZM18.6596 24.5605C18.1948 26.7013 16.2924 28.2352 14.0956 28.2352C11.8976 28.2352 9.99654 26.7013 9.53125 24.5605H18.6596ZM24.0189 42.6378C18.4712 42.6378 13.2536 40.2014 9.68945 35.9629H38.3484C34.7842 40.2014 29.5671 42.6378 24.0189 42.6378ZM39.8107 33.9709H25.0137V9.00628C27.5157 9.17497 29.8458 9.97398 31.844 11.2465C28.7502 14.4591 26.5383 19.6662 27.3043 24.148C27.6028 27.5834 30.4885 30.2266 33.9403 30.2266C37.6191 30.2266 40.6019 27.2442 40.6019 23.5654C40.6019 18.9863 38.7458 14.8405 35.7442 11.8393C32.9621 9.05716 29.1962 7.25928 25.0137 7.01128V5.22852C34.9424 5.74881 42.7358 13.97 42.7358 23.9198C42.7358 27.6187 41.6627 31.0673 39.8107 33.9709ZM29.1526 22.5688C29.0779 18.9061 30.8992 15.0019 33.4603 12.4375C36.4647 14.9899 38.3117 18.6279 38.5775 22.5688H29.1526ZM38.5044 24.5605C38.0395 26.7013 36.1381 28.2352 33.9404 28.2352C31.7433 28.2352 29.8418 26.7013 29.377 24.5605H38.5044Z" fill="#5987E2"/>
<path fill-rule="evenodd" clip-rule="evenodd" d="M14.0956 28.2352C16.2924 28.2352 18.1948 26.7018 18.6596 24.5605H9.53125C9.997 26.7018 11.898 28.2352 14.0956 28.2352Z" fill="#FFC4E0"/>
<path fill-rule="evenodd" clip-rule="evenodd" d="M16.5703 27.5246C17.6104 26.8751 18.3842 25.8235 18.6588 24.5605H12.1934C13.2825 25.6282 14.7614 26.6248 16.5703 27.5246Z" fill="#FCB6C3"/>
<path fill-rule="evenodd" clip-rule="evenodd" d="M24.0189 42.6363C29.5671 42.6363 34.7842 40.1999 38.3484 35.9609H9.68945C13.2536 40.1999 18.4708 42.6363 24.0189 42.6363Z" fill="#E8FEFF"/>
<path fill-rule="evenodd" clip-rule="evenodd" d="M14.4414 40.0061C17.3014 41.7109 20.5974 42.6383 24.019 42.6383C29.5671 42.6383 34.7843 40.2014 38.3484 35.9629H33.5636C25.9686 36.4603 19.2749 37.9263 14.4414 40.0061Z" fill="#A2E0E3"/>
<path fill-rule="evenodd" clip-rule="evenodd" d="M33.9409 28.2352C36.1381 28.2352 38.04 26.7018 38.5048 24.5605H29.377C29.8418 26.7018 31.7437 28.2352 33.9409 28.2352Z" fill="#FFC4E0"/>
<path fill-rule="evenodd" clip-rule="evenodd" d="M36.4175 27.5246C37.4576 26.8751 38.2319 25.8235 38.506 24.5605H32.041C33.1297 25.6282 34.6095 26.6248 36.4175 27.5246Z" fill="#FCB6C3"/>
<path fill-rule="evenodd" clip-rule="evenodd" d="M22.1523 5.29447C22.4407 5.26559 22.7309 5.24359 23.0233 5.22846V3.23438C22.7313 3.24859 22.4411 3.26876 22.1523 3.29443V5.29447Z" fill="#5987E2"/>
<path fill-rule="evenodd" clip-rule="evenodd" d="M25.0137 5.22846C25.3057 5.24313 25.5963 5.26559 25.8847 5.29447V3.29397C25.5959 3.2683 25.3052 3.24813 25.0137 3.23438V5.22846Z" fill="#5987E2"/>
</svg>
