<svg width="48" height="48" viewBox="0 0 48 48" fill="none" xmlns="http://www.w3.org/2000/svg">
<circle cx="24.0007" cy="24.0007" r="19.8621" fill="#1E2126"/>
<path fill-rule="evenodd" clip-rule="evenodd" d="M13.4574 13.5519C9.26431 17.7445 7.84232 23.9372 9.76489 29.5321C10.1623 28.8243 10.7115 28.2756 11.3317 27.8424C10.7033 26.6872 10.1582 24.6702 10.3338 22.9919C10.8646 24.716 11.4441 26.111 12.701 27.0952C13.5051 26.7514 14.3293 26.53 15.0403 26.3613C14.8354 26.2237 14.6263 26.0867 14.4196 25.9505C13.0292 25.0374 11.698 24.1627 11.3689 23.096C10.2742 19.5534 19.656 19.0822 21.8115 18.9185C26.6174 18.5527 31.0489 18.2135 34.6869 12.9385C28.595 7.50269 19.1545 7.85475 13.4574 13.5519Z" fill="#E8FEFF"/>
<path fill-rule="evenodd" clip-rule="evenodd" d="M9.31972 21.0169C8.68024 23.7884 8.80585 26.7346 9.76668 29.5319C10.1641 28.8241 10.7133 28.2749 11.3335 27.8417C10.705 26.6865 10.16 24.6695 10.3356 22.9917C10.8664 24.7153 11.4458 26.1103 12.7033 27.0945C13.5068 26.7507 14.3311 26.5293 15.0425 26.3606C14.8372 26.2231 14.6286 26.086 14.4218 25.9503C13.031 25.0367 11.7003 24.162 11.3707 23.0953C10.2764 19.5532 19.6583 19.0815 21.8133 18.9178C25.707 18.6212 29.355 18.3425 32.5346 15.4422C29.9716 13.6438 26.7742 12.5762 23.3058 12.5762C17.0508 12.5762 11.676 16.0482 9.31972 21.0169Z" fill="#A2E0E3"/>
<path fill-rule="evenodd" clip-rule="evenodd" d="M28.0294 12.1914C28.3383 11.8819 28.3383 11.3809 28.0294 11.0719C27.7195 10.7625 27.2189 10.7625 26.9095 11.0719C26.6005 11.3809 26.6005 11.8819 26.9095 12.1914C27.2189 12.5003 27.7195 12.5003 28.0294 12.1914Z" fill="#5987E2"/>
<path fill-rule="evenodd" clip-rule="evenodd" d="M36.6696 20.2249C37.2985 21.3805 37.8431 23.3975 37.668 25.0758C37.1376 23.3521 36.5573 21.9563 35.3003 20.9721C34.4967 21.3163 33.6725 21.5382 32.9615 21.7064C33.1664 21.844 33.375 21.981 33.5813 22.1172C34.9725 23.0308 36.3038 23.905 36.6329 24.9717C37.7276 28.5143 28.3453 28.9851 26.1903 29.1492C21.3843 29.5155 16.9529 29.8533 13.3145 35.1287C19.4067 40.565 28.8472 40.2134 34.5444 34.5158C38.7375 30.3223 40.159 24.1301 38.2369 18.5352C37.8394 19.2425 37.2903 19.7921 36.6696 20.2249Z" fill="#E8FEFF"/>
<path fill-rule="evenodd" clip-rule="evenodd" d="M36.6693 20.2249C37.2983 21.3805 37.8429 23.3975 37.6678 25.0758C37.1374 23.3521 36.557 21.9563 35.3001 20.9721C34.4965 21.3163 33.6722 21.5382 32.9612 21.7064C33.1662 21.844 33.3747 21.981 33.581 22.1172C34.9723 23.0308 36.3035 23.905 36.6327 24.9717C37.7273 28.5143 28.345 28.9851 26.1901 29.1492C22.2959 29.4463 18.6478 29.7245 15.4688 32.6249C18.0317 34.4228 21.2291 35.4913 24.6975 35.4913C30.9525 35.4913 36.3274 32.0189 38.6836 27.0506C39.3226 24.279 39.1975 21.3324 38.2366 18.5352C37.8392 19.2425 37.29 19.7921 36.6693 20.2249Z" fill="#A2E0E3"/>
<path fill-rule="evenodd" clip-rule="evenodd" d="M19.9759 35.8743C19.6669 36.1833 19.6669 36.6848 19.9759 36.9942C20.2848 37.3032 20.7863 37.3032 21.0958 36.9942C21.4047 36.6848 21.4047 36.1833 21.0958 35.8743C20.7863 35.5653 20.2848 35.5653 19.9759 35.8743Z" fill="#5987E2"/>
<path fill-rule="evenodd" clip-rule="evenodd" d="M24.0188 3.31055C18.3001 3.31055 13.1228 5.62873 9.37578 9.37624C5.62781 13.1237 3.31055 18.3006 3.31055 24.0188C3.31055 29.737 5.62781 34.9148 9.37578 38.6618C13.1228 42.4098 18.3001 44.728 24.0188 44.728C29.737 44.728 34.9138 42.4098 38.6618 38.6618C42.4089 34.9148 44.727 29.737 44.727 24.0188C44.727 18.3006 42.4089 13.1237 38.6618 9.37624C34.9138 5.62873 29.737 3.31055 24.0188 3.31055ZM24.0186 42.7375C18.8496 42.7375 14.1697 40.6421 10.7829 37.2553C7.39572 33.8686 5.30078 29.1891 5.30078 24.0196C5.30078 18.8511 7.39572 14.1716 10.7829 10.7849C14.1697 7.39767 18.8496 5.30273 24.0186 5.30273C29.1872 5.30273 33.8666 7.39767 37.2543 10.7849C40.6406 14.1716 42.736 18.8511 42.736 24.0196C42.736 29.1891 40.6406 33.8686 37.2543 37.2553C33.8666 40.6421 29.1872 42.7375 24.0186 42.7375Z" fill="#5987E2"/>
<path fill-rule="evenodd" clip-rule="evenodd" d="M12.0505 12.1439C6.56154 17.6329 5.34996 26.1135 9.09884 32.9145C9.85293 34.2869 11.1745 33.6383 11.1117 32.6408C10.894 29.3329 14.2463 28.5733 16.0364 28.1681C17.1692 27.9114 19.1825 27.1128 17.6051 25.7834C17 25.2732 16.2455 24.7772 15.5097 24.2936C14.923 23.8971 14.3467 23.512 13.9232 23.1819C13.3084 22.7043 13.3589 22.4095 13.7141 22.2083C14.8725 21.5527 20.5146 21.0109 21.9596 20.9009C27.3083 20.4934 32.2371 20.1175 36.4036 13.9482C37.0532 12.9855 37.198 12.5532 36.3179 11.7304C29.5022 5.36397 18.6929 5.50149 12.0505 12.1439ZM21.8117 18.9181C19.6562 19.0817 10.2744 19.5534 11.3686 23.0956C11.6982 24.1623 13.029 25.037 14.4198 25.9506C14.6265 26.0863 14.8351 26.2233 15.0405 26.3608C14.3295 26.5295 13.5048 26.751 12.7012 27.0948C11.4438 26.1106 10.8644 24.7156 10.3335 22.992C10.158 24.6698 10.703 26.6868 11.3319 27.842C10.7117 28.2752 10.1621 28.8243 9.7651 29.5321C7.84252 23.9372 9.26451 17.7446 13.4576 13.5515C15.2023 11.8068 17.2784 10.5658 19.4944 9.8333C18.5336 12.9523 20.0862 16.4211 22.0748 18.0939C20.6766 16.031 20.1568 10.95 21.549 9.30613C26.1152 8.45945 31.0069 9.65407 34.6871 12.9381C31.0491 18.2135 26.6177 18.5523 21.8117 18.9181Z" fill="#5987E2"/>
<path fill-rule="evenodd" clip-rule="evenodd" d="M36.8909 15.4264C37.1096 18.7353 33.7568 19.4944 31.9671 19.8996C30.8335 20.1563 28.8206 20.9549 30.3975 22.2847C31.0026 22.7949 31.7572 23.2905 32.4938 23.7741C33.0801 24.1706 33.6564 24.5562 34.0799 24.8853C34.6947 25.3639 34.6447 25.6586 34.289 25.8594C33.1306 26.5149 27.4889 27.0572 26.0431 27.1668C20.6943 27.5743 15.766 27.9502 11.5995 34.12C10.9494 35.0817 10.805 35.5145 11.6856 36.3373C18.5004 42.7042 29.3102 42.5667 35.9525 35.9243C41.442 30.4344 42.6536 21.9547 38.9038 15.1528C38.1506 13.7812 36.8286 14.4294 36.8909 15.4264ZM34.5444 34.5178C32.7997 36.262 30.7235 37.5029 28.5071 38.2359C29.4679 35.1174 27.9158 31.6486 25.9267 29.9758C27.3249 32.0387 27.8452 37.1197 26.453 38.7636C21.8867 39.6098 16.9946 38.4152 13.3145 35.1307C16.9529 29.8557 21.3839 29.5174 26.1903 29.1512C28.3448 28.9875 37.7271 28.5163 36.6329 24.9737C36.3033 23.9069 34.9725 23.0327 33.5813 22.1191C33.3745 21.983 33.1664 21.8459 32.961 21.7089C33.6725 21.5402 34.4962 21.3187 35.2998 20.9745C36.5573 21.9587 37.1371 23.3541 37.668 25.0777C37.8431 23.3995 37.2985 21.3829 36.6696 20.2268C37.2903 19.7941 37.8394 19.2449 38.2369 18.5371C40.159 24.132 38.7375 30.3247 34.5444 34.5178Z" fill="#5987E2"/>
</svg>
