<svg width="48" height="48" viewBox="0 0 48 48" fill="none" xmlns="http://www.w3.org/2000/svg">
<circle cx="24.4145" cy="23.5864" r="20.2759" fill="#1E2126"/>
<path fill-rule="evenodd" clip-rule="evenodd" d="M8.22656 24.6728L9.08471 24.9978C10.6415 25.47 9.95019 26.1218 9.37259 27.2046L11.5707 26.2869L12.6039 24.351L10.5039 23.7129L8.22656 24.6728Z" fill="#FFC4E0"/>
<path fill-rule="evenodd" clip-rule="evenodd" d="M43.8024 12.2012C44.2993 11.5736 43.8753 10.6197 43.0543 10.5949L39.8977 10.4964C35.9535 5.78895 30.1725 3.08066 24.0193 3.08066C19.2234 3.08066 14.8079 4.71215 11.2974 7.4484C11.0554 7.23432 10.8665 6.98678 10.7684 6.70348C10.3132 5.38968 11.4932 4.62413 12.6452 4.46139C13.9388 4.28216 13.6665 2.31512 12.3724 2.4939C9.92083 2.84045 8.02118 4.83179 8.89445 7.34892C9.09523 7.92744 9.38449 8.39823 9.74663 8.78513C5.62506 12.7091 3.31055 18.0959 3.31055 23.7894C3.31055 35.2263 12.5828 44.4981 24.0193 44.4981C39.7643 44.4981 49.539 27.6721 42.3167 14.0839L43.8024 12.2012ZM41.0236 12.5168L38.2677 16.0025L36.793 12.3848L41.0236 12.5168ZM24.0188 5.07227C29.1136 5.07227 33.7325 7.10807 37.1073 10.4095L35.3553 10.3545C34.6374 10.311 34.0997 11.0389 34.3771 11.7201L35.326 14.0475L27.7278 17.1367C27.1323 15.7221 26.3622 14.4321 25.4481 13.4034C22.6041 10.2028 18.8502 9.51289 15.6867 8.93117C14.9611 8.79823 14.2721 8.67171 13.65 8.52135C13.5441 8.49568 13.4318 8.4668 13.3145 8.43333C16.3478 6.31502 20.0384 5.07227 24.0188 5.07227ZM12.362 10.2346C13.2545 10.5014 14.2598 10.6861 15.3288 10.8828C18.1824 11.4072 21.5678 12.0288 23.9634 14.7243C24.7272 15.5842 25.3772 16.6762 25.8874 17.8841L13.7203 22.8303C12.7411 22.52 11.6088 22.1207 10.6796 21.9098L12.362 10.2346ZM12.2976 24.4729L12.3003 24.4798C12.3072 24.4967 12.3145 24.5123 12.3219 24.5288L11.4422 26.1773L9.71489 26.9098L10.0284 26.323C10.3246 25.7688 10.0087 25.0079 9.4073 24.8254L8.77148 24.632L10.5107 23.9297L12.2976 24.4729ZM10.2246 11.1406L8.57755 22.5706L5.30312 23.9028C5.27287 19.1651 7.0217 14.631 10.2246 11.1406ZM17.2624 41.2502C10.7122 38.7133 6.09694 32.6871 5.39648 25.6738L7.74401 26.3931L6.66766 28.4087C6.17853 29.2192 7.01422 30.2167 7.90628 29.8367L10.3184 28.813L17.8616 38.0578C17.2698 39.037 17.0177 40.1197 17.2624 41.2502ZM12.2207 28.0051C12.5792 27.8534 12.8689 27.7663 13.0504 27.3766L14.4999 24.6619L26.5442 19.7656C27.0737 21.619 27.3088 23.785 27.0242 25.6993C26.4094 29.8438 23.5311 32.4265 21.1322 34.5783C20.4061 35.2301 19.718 35.8476 19.1253 36.466L12.2207 28.0051ZM24.019 42.5074C23.7297 42.5074 23.4419 42.5005 23.1563 42.4876C23.1407 41.7863 22.4063 41.31 21.754 41.6034C21.1911 41.8573 20.4159 42.0599 19.8424 41.7413C19.4729 41.5369 19.2515 41.1486 19.1892 40.7388C18.954 39.1953 20.5424 37.7701 22.4531 36.0561C25.0981 33.6834 28.2717 30.8362 28.9909 25.9871C29.3292 23.7075 29.04 21.2155 28.3941 19.0129L36.077 15.8893L37.0493 18.2753C37.2987 19.0101 38.2769 19.1949 38.7707 18.5714L40.9541 15.8086C46.7346 28.0532 37.8543 42.5074 24.019 42.5074Z" fill="#5987E2"/>
<path fill-rule="evenodd" clip-rule="evenodd" d="M38.2677 16.0025L41.0232 12.5168L36.793 12.3848L38.2677 16.0025Z" fill="#FFC4E0"/>
<path fill-rule="evenodd" clip-rule="evenodd" d="M38.2669 16.0033L41.0224 12.5176L37.5293 14.1944L38.2669 16.0033Z" fill="#FCB6C3"/>
<path fill-rule="evenodd" clip-rule="evenodd" d="M9.71484 26.9114L11.4417 26.1784L12.3438 24.4883L10.0504 25.4363C10.2961 26.035 9.98531 26.4054 9.71484 26.9114Z" fill="#FCB6C3"/>
<path fill-rule="evenodd" clip-rule="evenodd" d="M9.22266 9.30087C9.36522 9.45169 9.51925 9.59425 9.68428 9.72811L9.33038 12.1861C9.61551 11.8263 9.91302 11.4765 10.2234 11.1386L10.4737 9.39805C10.2069 9.21973 9.96299 9.01757 9.7457 8.78516C9.5683 8.95385 9.3941 9.12576 9.22266 9.30087Z" fill="#5987E2"/>
<path fill-rule="evenodd" clip-rule="evenodd" d="M11.2969 7.44763C11.8396 7.92804 12.6506 8.24389 13.3139 8.43138C13.5871 8.24114 13.8654 8.05731 14.1486 7.88128C13.406 7.71672 12.5002 7.45267 11.8983 6.99609C11.6948 7.14279 11.494 7.29314 11.2969 7.44763Z" fill="#5987E2"/>
<path fill-rule="evenodd" clip-rule="evenodd" d="M36.4414 9.78711C36.6683 9.98881 36.8911 10.1965 37.1079 10.4087L39.8983 10.4958C39.7227 10.2863 39.5435 10.0805 39.3596 9.87833L36.4414 9.78711Z" fill="#5987E2"/>
<path fill-rule="evenodd" clip-rule="evenodd" d="M40.9551 15.8076C41.0509 16.0111 41.1439 16.217 41.2324 16.4246L42.6182 14.6721C42.521 14.4741 42.4211 14.2784 42.3175 14.084L40.9551 15.8076Z" fill="#5987E2"/>
</svg>
