<svg width="48" height="48" viewBox="0 0 48 48" fill="none" xmlns="http://www.w3.org/2000/svg">
<circle cx="24.4145" cy="24.4145" r="20.2759" fill="#1E2126"/>
<path fill-rule="evenodd" clip-rule="evenodd" d="M22.0474 4.85137C20.6441 5.44956 19.6311 6.71816 18.9301 8.02983C18.0046 9.76235 17.9073 12.156 19.864 13.201C21.8507 14.2627 24.4749 13.4626 26.4302 12.6825C28.4308 11.8843 30.2675 11.1523 32.0676 12.2445C31.3578 10.2365 30.2878 8.49653 29.0285 7.16866C27.2913 5.33705 24.5962 3.76425 22.0474 4.85137Z" fill="#FFC4E0"/>
<path fill-rule="evenodd" clip-rule="evenodd" d="M18.3171 9.98341C17.8953 10.9955 18.3495 12.8044 19.6283 13.4874C21.6146 14.5481 24.4222 13.9314 26.3774 13.1517C28.3678 12.3572 30.2485 11.1576 32.0407 12.2266C29.3568 10.5182 26.0561 9.50977 22.4864 9.50977C21.0455 9.50977 19.6478 9.67459 18.3171 9.98341Z" fill="#FCB6C3"/>
<path fill-rule="evenodd" clip-rule="evenodd" d="M24.1121 32.0484C23.5199 34.1199 21.4823 36.0302 19.6914 37.1812C23.5107 40.7963 31.1612 40.286 34.8647 36.7951C35.0596 35.0648 34.2498 31.8373 33.003 30.5993C30.6602 28.2746 26.8475 32.7915 24.1121 32.0484Z" fill="#E7ECF4"/>
<path fill-rule="evenodd" clip-rule="evenodd" d="M24.1113 32.0484C25.4276 35.5839 30.9433 37.8859 34.8639 36.7951C35.2612 34.0388 34.0671 31.6567 33.0022 30.5993C30.6595 28.2746 26.8467 32.7915 24.1113 32.0484Z" fill="#A2E0E3"/>
<path fill-rule="evenodd" clip-rule="evenodd" d="M27.6553 3.56234C25.7065 2.47801 23.4605 2.06641 21.2613 3.00397C20.8307 3.18778 20.4094 3.42206 20.0029 3.70911C10.3045 5.69768 3.31055 14.2691 3.31055 24.1976C3.31055 35.7488 12.6755 45.1129 24.2263 45.1129C35.7771 45.1129 45.1421 35.7488 45.1421 24.1976C45.1421 13.9644 37.7277 5.22357 27.6553 3.56234ZM18.9299 8.02964C19.6309 6.71797 20.6444 5.44983 22.0473 4.85118C24.5965 3.76453 27.2911 5.33686 29.0288 7.16847C30.2881 8.49634 31.3576 10.2367 32.0679 12.2447C30.2673 11.1521 28.4306 11.8845 26.4304 12.6823C24.4752 13.4624 21.8505 14.2625 19.8642 13.2008C17.9076 12.1563 18.0044 9.76263 18.9299 8.02964ZM16.5321 8.65039C15.7969 11.3103 16.7196 14.0526 19.3559 15.1758C18.2068 17.1561 17.8368 21.248 15.9052 22.3083C14.4737 23.0944 12.5101 21.6647 11.4924 20.7503C10.5697 19.9206 10.1919 19.3238 9.49414 18.4043C10.3498 14.2836 13.3273 11.164 16.5321 8.65039ZM22.1641 31.563C21.5071 33.6812 19.3195 34.9831 17.5554 36.0841C12.469 34.3298 9.44702 26.6455 9.4748 21.5938C11.2277 23.3925 14.1191 25.3982 16.6827 24.1648C17.7735 26.7566 23.0831 28.5965 22.1641 31.563ZM24.114 32.0484C26.8489 32.7915 30.6617 28.2746 33.0045 30.5993C34.2518 31.8373 35.0616 35.0648 34.8662 36.7951C31.1631 40.286 23.5126 40.7963 19.6934 37.1812C21.4838 36.0297 23.5219 34.1199 24.114 32.0484ZM24.2268 43.1023C13.7858 43.1023 5.32227 34.6388 5.32227 24.1973C5.32227 18.0714 8.26645 12.3747 13.2274 8.82031C10.4458 11.3765 8.23034 14.3901 7.4951 18.1784C7.41593 18.5034 7.52057 18.8793 7.65298 19.1761C6.6543 25.7544 10.3458 35.9523 17.143 38.058C17.3222 38.1135 17.5342 38.12 17.7685 38.0816C21.9225 42.6713 29.9462 42.6037 34.8641 39.346C35.1067 39.3354 35.3544 39.3187 35.6063 39.2946C32.4403 41.6846 28.4993 43.1023 24.2268 43.1023ZM38.3735 36.7366C37.855 36.8811 37.3424 37.0005 36.8456 37.0936C37.1586 34.9884 36.2076 31.4307 34.9043 29.7334C37.8077 28.6416 40.2834 26.4012 43.1081 25.1465C42.8882 29.5848 41.1381 33.6207 38.3735 36.7366ZM32.8658 28.1772C29.2156 26.8771 25.8552 30.9685 24.1551 29.8453C23.3735 26.9771 18.2579 24.4167 18.4755 22.6115C19.5631 21.0924 20.6798 15.8407 21.7822 15.6897C23.7643 15.7698 25.3556 15.2661 27.1678 14.5429C29.2411 13.7155 31.0648 12.9881 32.8871 16.2333C33.6937 17.6736 35.0053 16.9129 34.9132 15.9295C34.5678 12.271 33.1483 9.01101 31.2199 6.62891C37.9875 9.32539 42.6369 15.6994 43.0934 22.9995C40.2131 24.0019 35.153 28.1744 32.8658 28.1772Z" fill="#5987E2"/>
<path fill-rule="evenodd" clip-rule="evenodd" d="M16.5321 8.65039C13.3273 11.164 10.3498 14.2836 9.49414 18.4043C10.1919 19.3238 10.5697 19.9201 11.4924 20.7498C12.5101 21.6647 14.4737 23.094 15.9052 22.3083C17.8368 21.248 18.2068 17.1561 19.3559 15.1754C16.7196 14.0526 15.7969 11.3103 16.5321 8.65039Z" fill="#E7ECF4"/>
<path fill-rule="evenodd" clip-rule="evenodd" d="M9.49414 18.4047C10.1919 19.3242 10.5697 19.9206 11.4924 20.7502C12.5101 21.6651 14.4737 23.0944 15.9052 22.3087C17.8368 21.2484 18.2072 17.1569 19.3559 15.1763C17.0095 14.9063 10.0905 15.5304 9.49414 18.4047Z" fill="#A2E0E3"/>
<path fill-rule="evenodd" clip-rule="evenodd" d="M16.6827 24.1648C14.1191 25.3982 11.2282 23.3925 9.47479 21.5938C9.44748 26.646 12.4694 34.3298 17.5554 36.0841C19.3195 34.9831 21.5076 33.6816 22.1641 31.563C23.0831 28.597 17.7735 26.7571 16.6827 24.1648Z" fill="#E7ECF4"/>
<path fill-rule="evenodd" clip-rule="evenodd" d="M16.6824 24.1641C15.0137 27.0087 13.7474 34.7699 17.5551 36.0829C19.3191 34.9819 21.5072 33.68 22.1638 31.5618C23.0828 28.5954 17.7736 26.7554 16.6824 24.1641Z" fill="#A2E0E3"/>
<path fill-rule="evenodd" clip-rule="evenodd" d="M36.8452 37.0956C37.342 37.002 37.8545 36.883 38.3731 36.7386C41.1376 33.6226 42.8877 29.5862 43.1076 25.1484C40.2829 26.4032 37.8073 28.6436 34.9043 29.7353C36.2072 31.4327 37.1586 34.9903 36.8452 37.0956Z" fill="#E7ECF4"/>
<path fill-rule="evenodd" clip-rule="evenodd" d="M41.0816 32.7675C42.2562 30.4608 42.972 27.8806 43.1076 25.1484C40.2829 26.4032 37.8073 28.6436 34.9043 29.7353C36.021 31.1905 39.2143 34.3 41.0816 32.7675Z" fill="#A2E0E3"/>
<path fill-rule="evenodd" clip-rule="evenodd" d="M11.0899 9.9571C9.76623 11.4067 8.66338 12.9763 7.87305 14.7065C8.69857 13.2865 9.70419 11.9836 10.8584 10.8294C11.5904 10.0969 12.3826 9.42466 13.2267 8.81952C14.9981 7.1921 17.0978 5.66004 19.4363 4.15022C19.6215 3.99095 19.8104 3.84372 20.0021 3.70898C19.3447 3.84325 18.6983 4.00901 18.065 4.20393C15.5671 5.87163 13.1035 7.75186 11.0899 9.9571Z" fill="#5987E2"/>
<path fill-rule="evenodd" clip-rule="evenodd" d="M29.5307 3.96078C28.9209 3.80151 28.3001 3.66863 27.6699 3.56445C28.6621 4.11727 29.6131 4.86871 30.4812 5.78498C30.7349 6.05212 30.9817 6.33409 31.2206 6.62902C31.6683 6.80773 32.1087 7.00265 32.5388 7.21378C32.073 6.53503 31.5582 5.89285 30.9942 5.29837C30.5428 4.82148 30.0525 4.37099 29.5307 3.96078Z" fill="#5987E2"/>
</svg>
