<svg width="48" height="48" viewBox="0 0 48 48" fill="none" xmlns="http://www.w3.org/2000/svg">
<circle cx="23.5864" cy="23.5864" r="20.2759" fill="#1E2126"/>
<path fill-rule="evenodd" clip-rule="evenodd" d="M18.841 4.60352C14.25 7.8818 12.7191 14.3907 19.2974 16.602C20.4357 16.9843 20.2274 16.9024 21.2467 16.3048C18.2453 13.0538 16.8362 8.84695 18.841 4.60352Z" fill="#E8FEFF"/>
<path fill-rule="evenodd" clip-rule="evenodd" d="M18.8365 4.61328C17.3672 7.07778 16.5391 9.8626 16.5391 12.8118C16.5391 13.6311 16.6039 14.437 16.7275 15.2277C17.3876 15.7762 18.2365 16.2451 19.2975 16.6015C20.4353 16.9844 20.2275 16.9024 21.2468 16.3048C18.2476 13.0566 16.839 8.85301 18.8365 4.61328Z" fill="#A2E0E3"/>
<path fill-rule="evenodd" clip-rule="evenodd" d="M20.9812 18.7823C20.3975 19.191 19.2883 18.7133 18.6611 18.5027C16.3457 17.7241 14.0011 16.3766 12.4337 14.3037C11.2894 12.7895 10.5626 10.912 10.5608 8.62109C7.76158 13.6413 9.67662 17.875 14.6033 20.6459C16.8123 21.8888 19.0527 22.4786 20.1581 22.3684C20.709 22.3142 21.2001 22.717 21.2538 23.2674C21.308 23.8182 20.9053 24.3084 20.3549 24.3626C19.8809 24.4103 19.2652 24.3691 18.5616 24.2408C18.0686 25.3958 17.6339 25.8249 17.8353 27.0525L18.2301 29.4494C18.3357 29.6966 18.3352 29.9619 18.2491 30.1952L16.8961 34.8737L21.4029 35.8583C24.7881 32.6911 27.8817 28.2237 32.4843 26.9035C31.0202 28.2524 29.7083 29.7327 29.2162 30.1716C33.1898 31.9185 35.3557 33.0624 38.0947 36.6221C41.2151 33.2512 43.1232 28.7412 43.1232 23.7849C43.1232 19.7164 41.8368 15.9479 39.6501 12.8636C32.3968 9.50524 28.7218 14.2431 20.9812 18.7823Z" fill="#E8FEFF"/>
<path fill-rule="evenodd" clip-rule="evenodd" d="M38.0957 36.6237C41.1796 33.2926 43.0784 28.8478 43.1228 23.9609C36.7968 23.9887 31.1179 26.3292 27.2031 30.0347C31.9835 30.7601 36.757 35.2937 38.0957 36.6237Z" fill="#A2E0E3"/>
<path fill-rule="evenodd" clip-rule="evenodd" d="M18.6859 26.5177C18.1869 27.2412 18.5045 28.2401 20.008 27.4639C18.9822 27.4412 19.877 24.804 20.0677 24.5156L18.6859 26.5177Z" fill="#5987E2"/>
<path fill-rule="evenodd" clip-rule="evenodd" d="M22.3261 2.95892C22.4548 2.80987 22.5886 2.66081 22.7279 2.51222C23.9519 1.22489 22.7891 0.232424 20.6551 1.24479C18.4845 2.27475 16.8634 3.44173 15.6895 4.68879C14.7031 5.1304 13.7573 5.64608 12.8589 6.22841C12.9598 5.79606 13.0778 5.36972 13.2176 4.94802C13.6328 3.91991 12.2895 3.06817 11.5405 3.90093C9.40282 6.28118 7.98818 8.79428 7.47992 11.2546C4.8622 14.7468 3.31055 19.0851 3.31055 23.7854C3.31055 35.3339 12.6737 44.6971 24.2217 44.6971C35.7707 44.6971 45.1334 35.3339 45.1334 23.7854C45.1334 11.4643 34.556 1.85953 22.3261 2.95892ZM20.7998 5.1932C26.8217 4.09149 33.0047 5.95699 37.4051 10.2421C30.8152 8.54786 28.2294 12.2094 23.0208 15.2637C19.9462 12.1442 19.0584 8.62563 20.7998 5.1932ZM18.8408 4.60352C16.8364 8.84695 18.245 13.0543 21.2465 16.3052C20.2276 16.9029 20.4355 16.9843 19.2977 16.602C12.7193 14.3907 14.2497 7.8818 18.8408 4.60352ZM13.5388 8.19141C13.1763 9.26349 13.0434 10.3444 13.0879 11.4086C12.793 10.6587 12.6125 9.82314 12.5801 8.89456C12.8916 8.65014 13.2115 8.41591 13.5388 8.19141ZM24.2231 42.6856C13.7846 42.6856 5.32227 34.2238 5.32227 23.7848C5.32227 20.6339 6.09346 17.6629 7.45718 15.0508C8.03534 17.8055 9.99111 20.3543 13.6235 22.3975C14.6178 22.9572 15.6404 23.4006 16.6028 23.7247C15.9686 25.2106 15.502 25.5416 15.7705 27.1238L16.2459 29.9165L14.6336 35.4903C14.3475 36.4786 15.2543 36.7484 15.97 36.81L21.6706 37.8983C22.0011 37.927 22.3085 37.7918 22.5122 37.5599L28.0041 31.8292C31.8721 33.5484 33.9663 34.4853 36.6506 38.0261C33.3284 40.9275 28.9812 42.6856 24.2231 42.6856ZM43.123 23.7853C43.123 28.7412 41.2154 33.2513 38.095 36.6226C35.3555 33.0628 33.19 31.919 29.216 30.1716C29.7085 29.7332 31.0204 28.2524 32.4841 26.9039C27.8815 28.2241 24.7883 32.6916 21.4027 35.8583L16.8963 34.8742L18.2489 30.1956C18.3355 29.9623 18.3359 29.6966 18.2299 29.4499L17.8355 27.0525C17.6337 25.8249 18.0688 25.3962 18.5614 24.2413C19.2655 24.3695 19.8811 24.4103 20.3551 24.363C20.9055 24.3089 21.3078 23.8187 21.2541 23.2678C21.1999 22.717 20.7092 22.3142 20.1584 22.3689C19.053 22.479 16.8121 21.8893 14.6031 20.6464C9.67641 17.8755 7.76184 13.6417 10.5606 8.62109C10.5652 13.6663 14.1124 16.9737 18.6609 18.5032C19.2881 18.7138 20.3972 19.1915 20.981 18.7827C28.7221 14.2435 32.3966 9.5057 39.6503 12.8641C41.8371 15.9484 43.123 19.7169 43.123 23.7853Z" fill="#5987E2"/>
<path fill-rule="evenodd" clip-rule="evenodd" d="M12.5796 8.89493C12.8911 8.65098 13.2114 8.41629 13.5387 8.19178C13.9863 6.86788 14.7335 5.70506 15.6894 4.68945C14.7029 5.1306 13.7572 5.64627 12.8587 6.22861C12.6365 7.19237 12.5509 8.07929 12.5796 8.89493Z" fill="#5987E2"/>
<path fill-rule="evenodd" clip-rule="evenodd" d="M6.39473 12.8505C6.34844 14.0211 6.50213 15.1701 6.87106 16.2783C7.05159 15.8612 7.24694 15.452 7.45571 15.0516C7.19694 13.8179 7.21407 12.5436 7.48024 11.2539C7.09464 11.7682 6.73219 12.301 6.39473 12.8505Z" fill="#5987E2"/>
<path fill-rule="evenodd" clip-rule="evenodd" d="M20.7988 5.19512C21.165 5.12799 21.5348 5.07152 21.9079 5.02569C22.4375 4.15127 22.9879 3.643 23.5804 2.88477C23.1587 2.89773 22.7393 2.92272 22.3241 2.96022C21.6867 3.69762 21.1798 4.44429 20.7988 5.19512Z" fill="#5987E2"/>
</svg>
