<svg width="48" height="48" viewBox="0 0 48 48" fill="none" xmlns="http://www.w3.org/2000/svg">
<circle cx="24.0007" cy="24.0007" r="19.8621" fill="#1E2126"/>
<path fill-rule="evenodd" clip-rule="evenodd" d="M6.77316 31.3134C10.6921 32.3481 6.46786 21.2233 6.17815 18.334C4.83271 22.5587 5.04358 27.2299 6.77316 31.3134Z" fill="#A2E0E3"/>
<path fill-rule="evenodd" clip-rule="evenodd" d="M18.934 6C16.2111 6.76646 13.7398 8.13299 11.6719 9.94829C12.5617 9.76584 21.0771 7.76259 18.934 6Z" fill="#A2E0E3"/>
<path fill-rule="evenodd" clip-rule="evenodd" d="M21.0984 5.52646C23.1695 9.4908 13.547 11.633 11.4677 12.0056C9.64594 12.332 8.75845 13.1801 8.36881 14.2486C6.64518 18.9726 14.6495 33.7751 7.17969 33.4744C7.8751 35.3644 9.99616 37.6973 12.2451 37.2109C12.6916 37.1142 13.062 36.8781 13.2857 36.5004C13.5351 36.0795 13.6369 35.4864 13.5282 34.7121C12.61 30.2215 10.8502 28.0436 10.4477 22.7925C9.43507 9.59623 28.6049 13.5665 25.8448 7.47608C32.153 14.8973 11.6721 10.9962 12.5018 22.7824C12.9726 29.4693 16.496 32.5287 15.7529 39.1197C15.6186 40.3102 15.25 41.6932 14.2809 42.4849C15.6965 42.9452 17.4114 42.9924 18.683 42.1205C21.0888 40.4707 20.0619 36.9478 19.0058 34.8304C13.3004 23.3843 15.4916 19.3132 19.6278 17.2512C23.5505 15.2961 30.0154 15.9104 30.4436 10.8275C30.8809 5.65253 25.562 4.82784 21.0984 5.52646Z" fill="#E8FEFF"/>
<path fill-rule="evenodd" clip-rule="evenodd" d="M10.4472 22.7929C10.4023 22.2057 10.3986 21.6537 10.4298 21.1321C9.80088 20.5274 9.17698 20.0112 8.56546 19.5918C9.77934 25.6987 12.6902 33.6962 7.17969 33.4748C7.8751 35.3648 9.99571 37.6976 12.2451 37.2113C12.6916 37.1145 13.062 36.8785 13.2853 36.5007C13.5346 36.0799 13.6369 35.4867 13.5278 34.7125C12.61 30.2219 10.8497 28.044 10.4472 22.7929Z" fill="#A2E0E3"/>
<path fill-rule="evenodd" clip-rule="evenodd" d="M12.5664 23.502C13.2256 29.6983 16.4693 32.7701 15.7533 39.1205C15.6194 40.311 15.2509 41.694 14.2818 42.4857C15.6969 42.9459 17.4123 42.9936 18.6834 42.1212C22.7518 39.3318 18.6807 34.3805 17.5205 31.5984C15.9939 28.4276 14.2919 25.6702 12.5664 23.502Z" fill="#A2E0E3"/>
<path fill-rule="evenodd" clip-rule="evenodd" d="M31.7277 24.4163C30.8503 23.7393 28.6733 23.2726 29.1253 21.3317C29.288 20.634 30.4675 20.5854 30.7824 20.2879C30.313 20.4822 29.3522 20.1834 29.1257 19.7552C28.6618 18.8774 28.7132 17.5658 28.9809 16.2383C26.3106 17.5269 23.1485 17.7194 20.5145 19.0328C17.3583 20.606 15.8144 23.9708 20.7863 33.9449C22.102 36.5835 22.8487 40.1031 21.1008 42.5098C21.82 42.6221 22.5526 42.6941 23.2957 42.722C22.1469 41.135 22.316 38.6752 23.2521 36.8879C24.5856 34.3428 26.874 34.3551 29.2142 34.0902C30.8741 33.9022 31.3985 33.5772 30.5615 31.7083C30.2782 31.0752 30.4629 30.5366 30.9264 30.0685C31.4256 29.5638 31.2486 29.1581 30.7393 28.6365C31.1047 28.6264 31.8358 28.0401 31.311 27.6637C30.2658 26.9124 30.6179 25.5491 31.6864 25.0567C32.1104 24.8614 32.0055 24.6318 31.7277 24.4163Z" fill="#FFC4E0"/>
<path fill-rule="evenodd" clip-rule="evenodd" d="M21.1016 42.5103C21.8208 42.6226 22.5533 42.6941 23.2964 42.7225C22.1477 41.1355 22.3168 38.6757 23.2529 36.8883C24.189 35.101 25.5967 34.5748 27.1622 34.3281C25.1058 34.6293 23.2566 35.4687 21.8107 36.6775C22.3251 38.7183 22.2911 40.8719 21.1016 42.5103Z" fill="#FCB6C3"/>
<path fill-rule="evenodd" clip-rule="evenodd" d="M27.2408 20.3926C27.5823 21.3497 24.8268 21.4552 24.4922 21.3805L26.8333 21.9503C27.6786 22.1561 28.4904 21.5084 27.2408 20.3926Z" fill="#5987E2"/>
<path fill-rule="evenodd" clip-rule="evenodd" d="M13.7394 39.7294C13.821 39.359 13.8737 38.9812 13.9085 38.6035C13.5675 38.8061 13.1966 38.9629 12.8047 39.0743C13.1109 39.2998 13.4222 39.5185 13.7394 39.7294Z" fill="#6DC0D5"/>
<path fill-rule="evenodd" clip-rule="evenodd" d="M24.016 3.31055C18.2978 3.31055 13.12 5.62873 9.37299 9.37624C3.49158 15.2572 1.70332 24.1499 4.82968 31.826C4.80355 31.9415 4.79714 32.0653 4.81639 32.1941C5.21383 34.8579 7.04656 37.789 9.56919 38.8562C10.3925 39.6579 11.2823 40.3909 12.2294 41.0478C11.8952 40.9708 11.4872 40.7838 10.9935 40.4657C10.0015 39.7592 8.8449 41.1583 9.73789 41.9986C12.15 44.2636 15.986 45.7209 19.1422 44.1508C20.7049 44.5276 22.3368 44.7275 24.016 44.7275C35.4524 44.7275 44.7243 35.4557 44.7243 24.0193C44.7243 12.5828 35.4524 3.31055 24.016 3.31055ZM18.9342 6.0002C21.0768 7.76233 12.5619 9.76605 11.6721 9.94804C13.7395 8.13319 16.2108 6.76666 18.9342 6.0002ZM6.77302 31.3139C5.04389 27.2304 4.83257 22.5592 6.178 18.334C6.46818 21.2238 10.692 32.3485 6.77302 31.3139ZM13.662 39.6136C13.4098 39.4462 13.1618 39.2721 12.918 39.0928C13.2301 39.0039 13.5249 38.8792 13.7963 38.7188C13.7688 39.0186 13.7266 39.3188 13.662 39.6136ZM18.6826 42.1205C17.4114 42.9924 15.696 42.9452 14.2809 42.4845C15.25 41.6928 15.6186 40.3102 15.7524 39.1197C16.496 32.5287 12.9726 29.4693 12.5018 22.7824C11.6721 10.9962 32.1525 14.8973 25.8448 7.47608C28.6049 13.5661 9.43507 9.59623 10.4472 22.7925C10.8502 28.0436 12.61 30.2215 13.5282 34.7121C13.6369 35.4864 13.5351 36.0795 13.2857 36.5004C13.062 36.8781 12.6916 37.1142 12.2451 37.2109C9.9957 37.6973 7.8751 35.3644 7.17969 33.4744C14.649 33.7747 6.64518 18.9721 8.3688 14.2486C8.75845 13.1801 9.64594 12.332 11.4677 12.0056C13.547 11.633 23.1695 9.4908 21.0984 5.52646C25.562 4.82784 30.8809 5.65253 30.4436 10.8275C30.0154 15.9104 23.5505 15.2961 19.6278 17.2512C15.4916 19.3132 13.2999 23.3843 19.0058 34.8304C20.0619 36.9478 21.0888 40.4707 18.6826 42.1205ZM23.2523 36.8879C22.3162 38.6752 22.147 41.135 23.2958 42.722C22.5527 42.6941 21.8202 42.6221 21.1009 42.5098C22.8489 40.1031 22.1021 36.583 20.7865 33.9449C15.8145 23.9708 17.358 20.606 20.5146 19.0328C23.1487 17.7194 26.3108 17.5269 28.981 16.2383C28.7133 17.5658 28.662 18.8774 29.1259 19.7552C29.3523 20.1834 30.3132 20.4822 30.7826 20.2879C30.4677 20.5854 29.2882 20.634 29.1254 21.3312C28.6734 23.2726 30.8504 23.7393 31.7278 24.4163C32.0056 24.6318 32.1106 24.8614 31.6866 25.0567C30.618 25.5491 30.2659 26.9124 31.3107 27.6637C31.836 28.0401 31.1044 28.6264 30.7395 28.6365C31.2483 29.1581 31.4257 29.5638 30.9265 30.0685C30.4631 30.5366 30.2783 31.0752 30.5616 31.7083C31.3987 33.5772 30.8743 33.9022 29.2144 34.0902C26.8742 34.3551 24.5858 34.3428 23.2523 36.8879ZM25.3748 42.6879C24.4456 41.7147 24.2462 40.4178 24.6056 38.4251C24.9095 37.5321 25.3931 36.9279 26.2306 36.5754C27.2006 36.1674 28.381 36.1638 29.4079 36.0478C32.124 35.7397 33.5996 34.3526 32.3898 31.2716C31.9786 30.2846 33.722 29.8826 32.1849 28.942C32.7758 28.8553 33.3199 27.729 32.6823 27.2435C32.3875 27.0189 31.9961 26.8246 32.2078 26.6233C35.6817 24.3216 33.4886 23.8921 31.5982 22.3207C31.501 22.24 30.6304 21.4236 30.7267 21.4093C32.2564 21.1852 32.6016 20.3312 33.0568 19.65C30.1441 20.664 30.8175 18.3132 31.0879 16.3911C31.1732 15.7828 31.4675 15.191 31.804 14.5868C33.5858 11.3857 33.2631 8.84568 31.8209 7.00195C38.4569 10.0495 42.7343 16.6804 42.7343 24.0195C42.7343 33.8291 35.1499 41.9874 25.3748 42.6879Z" fill="#5987E2"/>
<path fill-rule="evenodd" clip-rule="evenodd" d="M4.48633 30.9255C4.5936 31.2285 4.70774 31.5283 4.82876 31.8249C4.95987 31.2514 5.59477 30.8879 6.1797 31.1309C6.39515 31.2042 6.59273 31.2647 6.77151 31.3124C6.64957 31.0236 6.53451 30.7311 6.42586 30.435C5.69928 30.1512 4.94107 30.4011 4.48633 30.9255Z" fill="#5987E2"/>
<path fill-rule="evenodd" clip-rule="evenodd" d="M19.8031 43.7636C19.5932 43.9076 19.3722 44.0373 19.1426 44.1515C19.4951 44.2363 19.8508 44.3124 20.2098 44.3793L20.2203 44.3719C20.9538 43.8695 21.5107 43.2759 21.921 42.6217C21.646 42.591 21.3727 42.5544 21.1014 42.5117C20.7658 42.9747 20.3372 43.3969 19.8031 43.7636Z" fill="#5987E2"/>
<path fill-rule="evenodd" clip-rule="evenodd" d="M9.57031 38.8555C10.3932 39.6572 11.2825 40.3907 12.2296 41.0476C13.189 41.2685 13.4888 40.4035 13.6621 39.6137C13.4095 39.4459 13.162 39.2726 12.9181 39.0925C11.8124 39.4065 10.6242 39.301 9.57031 38.8555Z" fill="#5987E2"/>
</svg>
